<?xml version="1.0" encoding="iso-8859-1"?>
<!-- Generator: Adobe Illustrator 16.0.0, SVG Export Plug-In . SVG Version: 6.00 Build 0)  -->
<!DOCTYPE svg PUBLIC "-//W3C//DTD SVG 1.1//EN" "http://www.w3.org/Graphics/SVG/1.1/DTD/svg11.dtd">
<svg version="1.1" id="Capa_1" xmlns="http://www.w3.org/2000/svg" xmlns:xlink="http://www.w3.org/1999/xlink" x="0px" y="0px"
	 width="791.994px" height="791.994px" viewBox="0 0 791.994 791.994" style="enable-background:new 0 0 791.994 791.994;"
	 xml:space="preserve">
<g>
	<g>
		<path d="M463.29,174.232c8.297-10.877,5.29-28.981,1.399-40.863c-4.414-13.45-13.635-28.306-28.443-31.586
			c-16.359-3.626-29.656,8.562-39.215,21.497c-3.996-8.36-10.266-15.194-20.428-16.022c-11.922-0.981-22.333,9.535-28.169,18.675
			c-6.463,10.129-9.132,23-4.196,34.231c5.274,12.002,18.852,15.105,31.056,14.342c-3.562,77.924-0.684,156.242,0.201,234.191
			c0.458,40.26,0.812,80.513,1.142,120.772c0.29,35.084-2.886,72.225,1.238,107.228c-0.619-0.619-1.391-1.085-2.235-1.294
			c-16.36-3.907-37.76-2.718-48.638,12.34c-10.571,14.632-13.12,31.819-3.376,47.561c8.313,13.441,25.034,20.138,40.317,18.474
			c13.812-1.503,23.764-10.17,30.694-21.135c25.821,36.048,98.986-39.304,36.144-56.548c-0.691-0.193-1.334-0.241-1.953-0.226
			c-4.221-75.327-3.987-150.808-2.91-226.224c1.102-77.297,7.557-157.086,1.56-234.399
			C439.027,182.569,453.627,186.894,463.29,174.232z"/>
		<path d="M263.018,78.774c-7.219,6.592-12.42,14.816-12.196,25.235c0.314,14.502,13.168,25.725,25.203,31.578
			c11.062,5.371,26.104,8.104,36.892,0.684c11.335-7.79,10.54-22.864,6.439-35.115c65.447-22.695,128.724-20.613,196.655-11.054
			c-5.419,12.895-8.514,28.925,2.982,39.095c10.37,9.173,26.73,7.871,38.854,3.481c12.275-4.438,25.331-13.345,28.644-26.747
			c2.589-10.483-2.251-19.157-9.511-25.95c9.326-0.917,18.121-4.125,22.76-12.356c6.262-11.126-0.009-25.106-6.327-34.665
			c-10.322-15.604-44.682-48.742-62.119-24.174c-6.52,9.181-5.957,24.608-3.36,36.056c-12.14-7.284-29.753-8.353-42.97-10.153
			c-26.191-3.554-52.729-4.51-79.13-4.293c-11.142,0.088-69.346-0.097-90.931,12.782c0.764-2.838,0.764-6.11,0.152-9.542
			c-2.178-12.252-19.463-20.661-29.769-23.973c-16.665-5.346-37.141-1.302-47.351,13.779c-8.457,12.501-9.293,29.263-0.474,41.82
			C243.691,74.128,253.033,77.922,263.018,78.774z"/>
		<path d="M596.749,699.788c-10.692-13.016-27.229-3.216-38.483,6.15c-9.824-21.843-28.516-45.671-54.675-39.199
			c-7.975,1.97-14.591,8.481-15.54,16.753c-1.189,10.411,6.705,19.174,14.784,24.616c-35.936,11.279-70.673,18.507-108.666,21.096
			c-23.853,1.623-80.296,7.363-100.699-15.058c0.764-0.619,1.391-1.423,1.616-2.581c3.602-18.9,3.409-39.898-9.872-55.157
			c-9.221-10.604-23.836-13.361-37.125-11.504c-11.183,1.56-23.571,8.256-28.331,18.948c-4.212,9.479-1.053,18.064,4.952,24.897
			c-14.792,4.848-28.7,13.023-34.247,28.371c-5.225,14.471,2.211,30.275,11.713,41.016c9.494,10.748,23.965,18.458,38.484,18.112
			c12.549-0.298,21.963-7.87,27.888-17.919c35.341,24.102,80.746,32.133,122.679,33.507c39.81,1.303,102.066-5.089,134.045-34.745
			c9.173,15.227,23.796,30.252,42.672,25.283c16.4-4.317,25.967-22.494,30.96-37.237
			C603.494,731.623,606.621,711.814,596.749,699.788z"/>
	</g>
</g>
<g>
</g>
<g>
</g>
<g>
</g>
<g>
</g>
<g>
</g>
<g>
</g>
<g>
</g>
<g>
</g>
<g>
</g>
<g>
</g>
<g>
</g>
<g>
</g>
<g>
</g>
<g>
</g>
<g>
</g>
</svg>
