<?xml version="1.0" encoding="iso-8859-1"?>
<!-- Generator: Adobe Illustrator 16.0.0, SVG Export Plug-In . SVG Version: 6.00 Build 0)  -->
<!DOCTYPE svg PUBLIC "-//W3C//DTD SVG 1.1//EN" "http://www.w3.org/Graphics/SVG/1.1/DTD/svg11.dtd">
<svg fill="white" version="1.1" id="Capa_1" xmlns="http://www.w3.org/2000/svg"
  xmlns:xlink="http://www.w3.org/1999/xlink" x="0px" y="0px" width="189.061px" height="189.061px"
  viewBox="0 0 189.061 189.061" style="enable-background:new 0 0 189.061 189.061;" xml:space="preserve">
  <g>
    <path d="M188.898,164.349c-0.845-4.531-4.074-8.312-8.351-9.967c-2.769-1.072-6.231-0.069-8.002,2.199
		c-3.964-10.136-7.53-20.402-10.631-30.841c-3.53-11.889-5.874-24.085-9.789-35.859c-7.022-21.121-17.257-41.248-25.817-61.788
		c5.018,0.865,9.938-0.147,13.227-4.514c3.442-4.569,0.018-12.447-4.142-15.303c-7.269-4.991-18.104-2.964-20.037,4.662
		c-3.981-3.412-9.812-2.739-14.527,1.73c-0.059,0.056-0.103,0.114-0.149,0.172c-4.033-5.149-12.223-4.626-16.606-0.029
		c-0.555-2.488-2.121-4.962-3.642-6.484c-3.552-3.554-8.943-4.028-13.205-1.589c-8.335,4.77-5.94,19.568,3.729,20.339
		C63.785,48.8,54.671,69.708,45.079,90.456c-8.832,19.103-18.386,38.178-25.258,58.115c-3.114-3.301-7.896-4.307-12.337-2.869
		c-5.561,1.801-8.277,7.748-7.281,13.282c1.67,9.284,11.668,8.227,17.322,3.167c-0.186,3.658,0.797,7.265,3.997,9.536
		c3.668,2.602,8.823,1.457,12.568-0.286c3.523-1.64,7.243-4.82,7.987-8.822c0.867-4.662-2.948-7.957-6.941-9.51
		c7.701-11.298,12.919-24.187,17.671-37.146c0.639,3.245,1.929,6.787,4.444,9.022c2.911,2.587,6.28,1.496,8.191-1.639
		c0.645-1.06,1.096-2.252,1.398-3.472c9.649,4.264,20.68,5.072,31.093,5.294c5.824,0.124,11.724-0.108,17.499-0.906
		c2.864-0.396,7.279-0.651,10.405-2.118c0.493,3.162,2.521,5.712,6.091,6.686c4.014,1.096,8.573-0.481,10.855-3.921
		c0.907-1.367,1.325-2.993,1.341-4.632c4.485,13.684,9.013,27.359,14.323,40.731c-4.17,3.013-7.985,8.002-7.598,13.256
		c0.316,4.297,3.653,7.326,7.471,8.777c3.521,1.341,8.094,1.14,11.224-1.077c2.447-1.734,3.526-4.312,3.663-7.039
		c2.488,1.322,5.693,1.586,8.327,1.026C186.666,174.822,189.831,169.347,188.898,164.349z M31.292,153.664
		c-0.46,0.731-0.188,1.4,0.337,1.768c0.153,0.223,0.37,0.417,0.681,0.55c2.478,1.059,6.815,2.631,6.031,6.098
		c-0.65,2.873-3.667,4.902-6.122,6.118c-2.556,1.267-6.012,1.983-8.637,0.538c-3.264-1.797-3.382-6.519-3.298-10.032
		c0.178-0.334,0.345-0.673,0.484-1.021c0.644-1.611-1.764-2.363-2.634-1.111c-2.835,4.082-12.38,10.436-14.478,2.219
		c-2.444-9.569,9.839-13.802,15.659-7.267c0.725,0.813,1.991,0.021,1.917-0.889c9.076-20.359,18.219-40.658,27.593-60.888
		c9.474-20.442,18.723-41.112,25.261-62.71c0.312-1.029-0.439-1.717-1.262-1.804c-0.192-0.263-0.484-0.465-0.892-0.512
		c-7.429-0.847-8.283-11.225-3.052-15.157c2.973-2.235,6.763-1.353,9.396,0.919c1.271,1.097,2.076,2.56,2.553,4.146
		c0.512,1.701-0.125,3.339,0.137,5.042c0.138,0.898,1.487,1.198,2.054,0.542c0.231-0.268,0.416-0.554,0.58-0.847
		c0.078-0.06,0.157-0.12,0.22-0.203c3.189-4.293,9.797-7.106,14.114-2.584c2.478,2.597,1.844,7.45-0.284,9.988
		c-2.343,2.793-5.748,2.148-8.652,0.898c-0.316-0.843-1.4-1.243-2.3-0.961c-1.235-0.072-2.317,1.305-1.628,2.398
		c-7.929,21.648-18.99,42-27.395,63.472C49.565,113.092,43.235,134.706,31.292,153.664z M58.211,104.641
		c-0.466-0.006-0.924,0.019-1.365,0.11c0.163-0.452,0.332-0.897,0.496-1.35C57.612,103.823,57.902,104.238,58.211,104.641z
		 M140.501,121.967c-0.787,2.684-3.366,3.629-5.886,3.869c-3.426,0.327-6.015-1.961-6.855-4.953c0.212-0.188,0.41-0.384,0.59-0.596
		c0.727-0.86,0.293-2.274-0.944-2.278c-0.079,0-0.16,0.013-0.24,0.015c-0.338-0.253-0.868-0.256-1.124,0.085
		c-2.815,0.373-5.81,1.754-8.561,2.253c-5.829,1.059-11.846,1.222-17.755,1.241c-10.734,0.034-22.309-0.613-32.551-4.056
		c-0.21-0.85-1.583-1.034-2.04-0.224c-0.948,1.683-1.631,3.586-3.027,4.971c-0.385,0.382-0.552,0.474-0.988,0.583
		c-0.018,0-0.027-0.001-0.054,0c-0.083,0.003-0.164,0-0.246-0.001c0.196-0.019-0.428-0.164-0.376-0.096
		c-0.887-0.427-1.451-1.142-2.045-2.059c-0.863-1.333-1.472-2.653-1.953-4.138c-0.813-2.505-1.275-5.857-0.139-7.837
		c0.42-0.73,1.003-1.003,2.198-0.929c1.85,0.115,3.933,2.307,5.741,1.818c0.712-0.192,1.038-0.899,0.899-1.584
		c-0.245-1.214-1.825-2.119-3.41-2.69c-0.837-1.03-1.625-2.1-2.246-3.271c-0.284-0.536-0.463-1.015-0.615-1.621
		c-0.113-0.452-0.059-0.181-0.08-0.513c-0.007-0.116-0.004-0.233,0-0.351c0.001-0.042,0.002-0.069,0.002-0.094
		c0.004-0.009,0.008-0.024,0.015-0.059c0.013-0.066,0.034-0.132,0.054-0.197c0.022-0.061,0.044-0.121,0.066-0.182
		c0.058-0.115,0.126-0.225,0.197-0.333c0.038-0.026,0.248-0.274,0.315-0.336c-0.066,0.061,0.097-0.082,0.395-0.256
		c0.544-0.316,0.384-0.226,1.072-0.423c0.661-0.189,1.038-0.232,1.455-0.274c2.601-0.264,4.846,0.104,7.308,0.941
		c0.958,0.326,1.888,0.751,2.87,1.453c0.01,0.007,0.553,0.479,0.816,0.789c0.045,0.052,0.298,0.533,0.334,0.682
		c0.002,0.007,0.002,0.008,0.004,0.014c0.007,0.088,0.006,0.177,0.005,0.265c0,0.011-0.003,0.028-0.004,0.044
		c-0.024,0.118-0.056,0.233-0.092,0.348c-0.003,0.01-0.003,0.012-0.006,0.021c-0.004,0.009-0.006,0.01-0.01,0.021
		c-0.05,0.105-0.11,0.205-0.17,0.304c-0.243,0.406-0.06,0.143-0.402,0.512c-1.06,1.143-2.615,1.866-4.137,2.609
		c-1.49,0.729-0.882,2.574,0.35,3.041c0.008,0.004,0.011,0.012,0.02,0.016c17.989,8.404,36.613,6.585,55.694,3.725
		c1.729-0.259,1.497-2.4,0.244-3.101c0.027-0.353-0.084-0.711-0.437-1.006c-1.969-1.642-3.02-3.45-1.515-5.791
		c1.377-2.142,4.288-2.862,6.648-2.418c5.361,1.011,6.226,7.004,5.431,11.738c-0.566,0.166-1.088,0.46-1.528,0.926
		c-0.523,0.556-0.531,1.687,0.264,2.041c1.932,0.863,3.797-0.104,5.496,1.615C140.992,117.706,141.041,120.124,140.501,121.967z
		 M137.688,111.639c0.641-2.126,0.599-4.571,0.26-6.581c-0.736-4.375-4.402-8.005-8.889-8.32c-3.676-0.258-7.377,1.491-9.106,4.826
		c-1.472,2.841-0.52,5.801,1.646,7.735c-16.728,2.473-33.063,3.557-49.315-1.804c2.087-1.268,4.099-3.07,4.354-5.505
		c0.239-2.284-1.578-4.085-3.368-5.169c-3.382-2.048-8.55-3.182-12.673-2.144C68.972,73.144,80.2,52.79,88.078,31.08
		c2.693,1.279,5.548,1.206,8.031,0.211c1.114,3.764,4.421,5.729,8.361,5.149c2.71-0.399,4.729-2.458,5.712-4.91
		c9.266,21.227,18.227,42.349,25.806,64.27c2.123,6.139,4.162,12.312,6.19,18.491C141.104,113.082,139.387,112.01,137.688,111.639z
		 M172.812,170.953c-0.147-0.591-0.327-1.174-0.541-1.742c-0.832-2.211-4.288-1.356-3.601,0.992
		c0.508,1.732,0.971,3.633,0.624,5.436c-0.253,1.318-0.949,2.392-1.886,3.054c-2.23,1.577-5.2,1.475-7.825,0.633
		c-2.451-0.786-4.712-2.704-5.04-5.345c-0.522-4.222,2.713-7.884,5.337-11.021c0.988,0.269,2.187-0.425,1.75-1.662
		c-7.774-22.033-14.958-44.244-22.368-66.401c-7.485-22.376-15.238-45.699-27.614-65.935c-0.22-0.36-0.513-0.529-0.813-0.573
		c0.002-0.095,0.011-0.19,0.011-0.285c-0.01-1.084-1.584-1.299-1.881-0.254c-1.242,4.394-7.658,7.278-9.657,1.828
		c-0.033-0.089-0.084-0.164-0.126-0.247c3.26-2.791,4.935-7.477,2.833-12.349c0.294-0.02,0.594-0.128,0.872-0.359
		c4.521-3.744,10.4-4.21,12.697,2.334c0.702,2,3.776,1.207,3.205-0.884c-2.076-7.609,4.592-10.44,10.996-8.857
		c4.417,1.092,7.053,4.984,7.525,9.379c0.717,6.688-8.33,6.652-12.366,5.555c-1.944-0.529-2.863,2.124-1.441,3.08
		c6.037,21.957,17.676,42.045,25.161,63.504c4.081,11.699,6.398,23.95,9.868,35.837c3.339,11.44,7.334,22.672,11.99,33.64
		c0.25,0.588,0.768,0.816,1.31,0.801c0.468,0.446,1.21,0.58,1.723,0c1.761-1.996,2.454-4.389,5.612-3.591
		c2.793,0.706,5.012,3.479,5.987,6.054C188.102,171.346,177.978,175.732,172.812,170.953z" />
  </g>
  <g>
  </g>
  <g>
  </g>
  <g>
  </g>
  <g>
  </g>
  <g>
  </g>
  <g>
  </g>
  <g>
  </g>
  <g>
  </g>
  <g>
  </g>
  <g>
  </g>
  <g>
  </g>
  <g>
  </g>
  <g>
  </g>
  <g>
  </g>
  <g>
  </g>
</svg>