<?xml version="1.0" standalone="no"?>
<!DOCTYPE svg PUBLIC "-//W3C//DTD SVG 20010904//EN"
 "http://www.w3.org/TR/2001/REC-SVG-20010904/DTD/svg10.dtd">
<svg version="1.0" xmlns="http://www.w3.org/2000/svg"
 width="512.000000pt" height="512.000000pt" viewBox="0 0 512.000000 512.000000"
 preserveAspectRatio="xMidYMid meet">

<g transform="translate(0.000000,512.000000) scale(0.100000,-0.100000)"
fill="#000000" stroke="none">
<path d="M3861 5095 c-181 -63 -347 -222 -366 -352 -5 -28 0 -49 17 -82 29
-56 73 -80 178 -95 l78 -11 -53 -115 c-56 -123 -135 -272 -218 -410 -87 -146
-302 -461 -376 -550 -189 -228 -360 -310 -523 -250 -249 91 -574 438 -1007
1079 -83 123 -151 228 -151 233 0 4 10 8 23 8 31 0 96 40 121 73 32 44 29 126
-8 202 -36 73 -151 192 -217 223 -54 26 -136 29 -179 7 -43 -22 -77 -79 -95
-159 l-6 -29 -27 26 c-74 69 -156 86 -231 48 -108 -55 -190 -227 -192 -403 -2
-124 48 -203 137 -215 58 -7 139 27 207 88 32 28 59 50 61 48 2 -2 20 -38 41
-79 59 -119 181 -309 300 -468 147 -196 652 -818 739 -909 242 -255 482 -316
741 -187 279 138 536 463 950 1204 82 146 159 282 172 303 l24 39 25 -34 c14
-18 35 -41 47 -51 41 -34 122 -67 162 -67 152 1 282 205 255 401 -10 68 -21
92 -69 142 -62 66 -160 79 -298 41 -21 -6 -22 -6 -7 43 21 67 19 167 -3 205
-46 78 -129 96 -252 53z"/>
<path d="M2754 2668 c-39 -30 -59 -55 -86 -105 l-22 -42 -36 39 c-45 48 -100
66 -156 51 -85 -23 -190 -147 -219 -258 -41 -155 55 -261 227 -251 56 3 59 2
54 -18 -32 -124 -34 -402 -6 -749 29 -366 35 -542 21 -680 -19 -189 -9 -172
-99 -168 -66 4 -83 1 -122 -19 -56 -29 -82 -73 -82 -137 0 -98 89 -230 197
-292 90 -52 199 -36 253 38 l19 26 45 -46 c82 -81 175 -74 281 23 99 91 149
226 111 305 -31 65 -120 99 -209 78 l-42 -9 -6 365 c-4 201 -12 443 -17 536
-17 294 -40 628 -45 681 l-6 52 48 -25 c92 -47 176 -13 202 84 32 113 -17 341
-96 456 -55 79 -152 109 -209 65z"/>
</g>
</svg>
