<?xml version="1.0" encoding="iso-8859-1"?>
<!-- Generator: Adobe Illustrator 16.0.0, SVG Export Plug-In . SVG Version: 6.00 Build 0)  -->
<!DOCTYPE svg PUBLIC "-//W3C//DTD SVG 1.1//EN" "http://www.w3.org/Graphics/SVG/1.1/DTD/svg11.dtd">
<svg version="1.1" id="Capa_1" xmlns="http://www.w3.org/2000/svg" xmlns:xlink="http://www.w3.org/1999/xlink" x="0px" y="0px"
	 width="792.009px" height="792.009px" viewBox="0 0 792.009 792.009" style="enable-background:new 0 0 792.009 792.009;"
	 xml:space="preserve">
<g>
	<path d="M572.429,706.224c5.402-16.024-5.149-33.781-14.973-45.559c-9.634-11.548-25.689-23.254-41.548-21.284
		c-18.856,2.341-22.906,22.953-23.31,39.128c-61.845-4.999-124.59-63.363-156.734-111.429
		c-40.165-60.049-56.347-139.396-50.645-210.701c8.875-111.025,59.131-244.315,179.205-268.835
		c-0.174,15.724,9.024,34.208,21.055,42.371c11.493,7.799,27.02,4.99,37.792-2.531c10.907-7.608,18.849-20.62,17.599-34.232
		c-1.076-11.729-8.266-20.177-17.44-26.235c8.598-4.113,15.582-10.718,16.681-21.071c1.408-13.256-7.901-25.84-17.796-33.575
		c-11.841-9.254-26.347-14.396-41.375-11.43c-16.475,3.251-27.05,19.6-29.209,35.396c-71.344-3.188-130.293,48.089-166.645,105.116
		c-43.028,67.492-61.567,150.629-66.194,229.645c-4.896,83.619,13.09,169.405,61.512,238.803
		c46.476,66.614,129.644,115.21,209.712,127.391c-12.418,38.179,32.547,71.493,66.432,45.717
		c22.297-16.958,12.181-41.913-6.375-55.232C560.193,723.948,568.624,717.511,572.429,706.224z"/>
</g>
<g>
</g>
<g>
</g>
<g>
</g>
<g>
</g>
<g>
</g>
<g>
</g>
<g>
</g>
<g>
</g>
<g>
</g>
<g>
</g>
<g>
</g>
<g>
</g>
<g>
</g>
<g>
</g>
<g>
</g>
</svg>
