<?xml version="1.0" encoding="UTF-8"?>
<svg width="700pt" height="700pt" version="1.1" viewBox="0 0 700 700" xmlns="http://www.w3.org/2000/svg"
  xmlns:xlink="http://www.w3.org/1999/xlink">
  <g>
    <path
      d="m350 28c-48.934 0-95.867 19.43-130.46 54.031-34.602 34.602-54.043 81.543-54.043 130.47 0.28125 107.12 183.16 319.5 183.16 319.5s186.84-192.37 185.85-319.5c0-48.934-19.441-95.875-54.043-130.47-34.605-34.602-81.531-54.031-130.46-54.031zm0 76.156v0.003906c28.73 0 56.281 11.414 76.598 31.727 20.312 20.316 31.727 47.867 31.727 76.598 0 28.727-11.414 56.281-31.727 76.598-20.316 20.312-47.867 31.727-76.598 31.727s-56.281-11.414-76.598-31.727c-20.312-20.316-31.727-47.871-31.727-76.598 0-28.73 11.414-56.285 31.727-76.598 20.316-20.316 47.867-31.727 76.598-31.73z" />
    <path
      d="m401.79 142.48c-0.11328 0.003906-0.22656 0.027343-0.33203 0.070312l-2.4141 0.96484-4.1875 1.6094c-0.16016 0.0625-0.30078 0.16797-0.40625 0.30469l-1.1289 1.4492c-0.16406 0.21094-0.23047 0.48047-0.1875 0.74219 0.046875 0.26172 0.20312 0.49219 0.42578 0.63672l0.58203 0.36719-1.7852 1.25-1.5938-0.13281h-0.003906c-0.24219-0.019532-0.48438 0.054687-0.67578 0.20703l-2.1172 1.7227-2.5273-1.1953c-0.26562-0.12891-0.57812-0.12109-0.84375 0.015626l-3.0625 1.6133c-0.41016 0.21484-0.60156 0.69531-0.45703 1.1328l0.57422 1.7148-1.707 1.0781-1.5742-2.0547v0.003907c-0.12891-0.17188-0.3125-0.29297-0.51953-0.34375l-3.2266-0.80859c-0.28516-0.070313-0.58203-0.007813-0.8125 0.17188-0.23047 0.17969-0.36328 0.45312-0.36328 0.74609v0.34766l-1.5234 0.64844-2.8047 0.097656 1.0938-1.9141c0.23828-0.41406 0.12891-0.9375-0.25391-1.2227l-1.2891-0.96875c-0.089843-0.070313-0.19141-0.12109-0.30078-0.15234l-2.7422-0.80469c-0.22266-0.066406-0.46094-0.050782-0.67188 0.050781l-3.3633 1.6016-4.3281 1.7656v-0.003906c-0.32422 0.13281-0.55078 0.4375-0.58594 0.78516l-2.6484 0.11719c-0.29688 0.011719-0.57422 0.16797-0.74219 0.41406-0.16406 0.25-0.20312 0.5625-0.10547 0.84375l0.21094 0.59375-0.75-0.1875-1.1133-0.60547 0.089843-0.82422 0.003907 0.003906c0.039062-0.35938-0.12891-0.71094-0.43359-0.90234-0.30859-0.19531-0.69922-0.19531-1.0039-0.003907l-5.1602 3.2266h-0.003906c-0.03125 0.023437-0.066406 0.046875-0.097656 0.070312l-3.4219 2.7969-4.3633 1.5586h0.003907c-0.125 0.046875-0.23828 0.11719-0.33203 0.20703l-3.2266 3.0625c-0.03125 0.03125-0.058594 0.058594-0.085937 0.09375l-3.7773 4.6836-1.6875 0.12891c-0.49219 0.039063-0.87109 0.44922-0.87109 0.94141v1.8477l-1.8516-0.20703c-0.26953-0.027344-0.53516 0.054687-0.73828 0.23437-0.19922 0.17969-0.31641 0.4375-0.31641 0.70703v2.0977-0.003906c0.003906 0.30859 0.15234 0.59766 0.40234 0.77344l1.4961 1.0586-0.75391 0.40234c-0.34766 0.1875-0.54297 0.57422-0.48828 0.96484l0.26562 1.8711-0.27344-0.089844-0.48828-0.48828 0.003906 0.003907c-0.074218-0.074219-0.15625-0.13281-0.24609-0.17969l-0.51172-0.25391-0.74609-1.6328c-0.125-0.28125-0.38281-0.48047-0.6875-0.53516l-1.6758-0.30469-2.2461-0.92969c-0.39453-0.16016-0.84766-0.039062-1.1055 0.29297l-1.1289 1.4492h-0.003906c-0.078125 0.10547-0.13672 0.22656-0.16797 0.35547l-0.4375 1.75-1.3359 1.7852v-0.003906c-0.17578 0.23438-0.23438 0.53516-0.15625 0.81641l0.23828 0.88672c0.039063 0.13281 0.10547 0.25391 0.19141 0.35938l0.43359 0.51172-0.36328 0.55469-1.7852-0.12109 0.003906 0.003906c-0.30078-0.019531-0.59375 0.10156-0.78906 0.33203l-0.88672 1.0508c-0.0625 0.078124-0.11719 0.16406-0.15234 0.25781l-0.64844 1.6133c-0.11328 0.28125-0.082031 0.60156 0.082031 0.85547l0.78516 1.2383-0.4375 0.60938c-0.26172 0.37109-0.22656 0.87891 0.09375 1.207-0.10156 0.039062-0.19531 0.097656-0.27734 0.17187l-0.80469 0.72656c-0.24219 0.21484-0.35547 0.53906-0.30078 0.85547l0.19922 1.1992-1.1289 2.9648-0.89453-0.27734-1.3438-2.3164 0.69141-1.4961 0.6875-0.69141 0.24609-0.24219 0.47266-0.050781c0.31641-0.03125 0.59766-0.22266 0.74219-0.50781 0.14844-0.28516 0.14062-0.625-0.019531-0.90234l-1.2773-2.2227-0.0625 0.12891-0.003906 0.003907c0.11719-0.22656 0.13281-0.49219 0.046875-0.73438l-1.0977-3.1367-0.23047-1.6797c-0.019531-0.13672-0.066406-0.27344-0.14453-0.39062l-1.5391-2.3438v-1.0859c0-0.03125 0-0.066406-0.003906-0.097656-0.011719-0.09375-0.039062-0.18359-0.078125-0.26953-0.023437-0.058594-0.054687-0.11719-0.089844-0.16797-0.019531-0.023438-0.039062-0.050782-0.058593-0.074219-0.082032-0.09375-0.18359-0.17188-0.29688-0.23047-0.058593-0.027344-0.11719-0.046875-0.17578-0.0625-0.03125-0.007812-0.0625-0.015625-0.09375-0.023438-0.03125-0.007812-0.0625-0.011718-0.09375-0.015624-0.066406 0-0.12891 0.003906-0.19141 0.015624-0.125 0.019532-0.24219 0.0625-0.35156 0.12891-0.027343 0.015625-0.054687 0.03125-0.078124 0.050781-0.050782 0.039062-0.097657 0.078125-0.14063 0.12891-0.019531 0.019532-0.039062 0.046875-0.058593 0.070313-0.035157 0.050781-0.066407 0.10547-0.09375 0.16406-0.039063 0.085938-0.066407 0.17578-0.078125 0.26953-0.003906 0.03125-0.003906 0.0625-0.007813 0.09375v0.019532 2.8516l-0.17578 1.5859-0.046875 0.023437h-0.80078l-0.95703-1.5508-0.23828-0.71875v-1.6211l-0.003906-0.003906c0-0.30078-0.14453-0.58594-0.38672-0.76172l-1.2109-0.88672 0.003906-0.003906c-0.10938-0.078125-0.23438-0.13281-0.36719-0.16406l-1.1289-0.23828-0.51172-0.85547c-0.26172-0.42969-0.81641-0.58203-1.2578-0.33984l-0.15625-0.32031h-0.003906c-0.19531-0.39453-0.63672-0.59766-1.0664-0.49609l-1.0234 0.24609c-0.19531 0.046874-0.375 0.16016-0.50391 0.31641l-2.8516 3.4219c-0.15625 0.18359-0.23047 0.42188-0.21484 0.66016l0.22656 3.7656c0.03125 0.5 0.44531 0.88672 0.94531 0.88672h0.52734l0.12891 1.1016c0.035157 0.30469 0.21484 0.57422 0.48438 0.72266l1.0977 0.59766 0.28516 0.33984-0.46484 0.25c-0.21094 0.11328-0.375 0.30469-0.44922 0.53516l-0.48047 1.4414-3.4258 2.6758 0.003906-0.003906c-0.17578 0.13672-0.29688 0.33203-0.34375 0.55078l-0.63281 2.957-1.2109 1.4141c-0.21875 0.25-0.28516 0.59766-0.17969 0.91406l0.26562 0.80078-0.98828 5.8086c-0.019531 0.125-0.015625 0.25391 0.015625 0.37891l0.40234 1.707-1.0781 4.1094-0.003906-0.003906c-0.027344 0.10938-0.039063 0.22266-0.027344 0.33594l0.34375 3.4219c0 0.015625 0.003906 0.035156 0.007812 0.054688l0.85938 5.375-0.86328 1.5391c-0.082031 0.14062-0.12109 0.30078-0.12109 0.46484v4.5586c-0.003906 0.33594 0.17578 0.64844 0.46484 0.81641l1.9375 1.1406c0.10547 0.0625 0.21875 0.10156 0.33984 0.12109l3.082 0.45703c0.039063 0.007812 0.078125 0.011719 0.11719 0.015625l5.2422 0.11328c0.054688-0.003906 0.10938-0.007812 0.16406-0.019531l6.1562-0.91016c0.20703-0.03125 0.39844-0.12891 0.54297-0.28125l2.2617-2.375 1.6875-1.5781h0.003906c0.26172-0.24609 0.36328-0.62109 0.26172-0.96484l-0.68359-2.2812c-0.03125-0.10547-0.082031-0.20703-0.14844-0.29297l-1.1992-1.5977-0.074219-1.2344 4.9688 3.6992c0.11719 0.085937 0.25 0.14453 0.39062 0.17188l4.918 0.92188 1.1953 3.793 0.003907 0.003906c0.058593 0.1875 0.17578 0.35156 0.33203 0.46875l0.83984 0.625c-0.39453 0.26562-0.53125 0.78125-0.32031 1.207l1.4844 2.9648c0.16016 0.32031 0.48438 0.52344 0.84375 0.52344h1.5977 0.10156l-0.23047 1.1562c-0.015625 0.085938-0.023437 0.17578-0.015625 0.26172l0.57031 6.957c0.003906 0.066406 0.019531 0.13281 0.039062 0.19922 0 0 0.59766 1.9648 1.2109 3.9883 0.30469 1.0117 0.61719 2.0391 0.85547 2.8398 0.23828 0.80078 0.43359 1.4688 0.42969 1.4492 0.082031 0.32812 0.19141 0.56641 0.37109 1.0195 0.17969 0.45703 0.40234 1.0156 0.625 1.5586 0.44531 1.0859 0.875 2.1172 0.875 2.1172 0.10156 0.25 0.30859 0.44531 0.56641 0.53125 0.25391 0.085938 0.53516 0.058594 0.77344-0.074219l2.3945-1.3672h-0.003907c0.054688-0.03125 0.10547-0.066406 0.15234-0.10547l1.7109-1.4844c0.19141-0.16406 0.30859-0.40234 0.32422-0.65625l0.10156-1.6484 0.72266-1.5508v0.003907c0.070313-0.14844 0.10156-0.31641 0.085938-0.48047l-0.26562-2.9062 0.40234-0.074219h0.003906c0.15625-0.027343 0.30469-0.09375 0.42969-0.19531l1.0586-0.86719 1.1211-0.1875c0.19531-0.03125 0.375-0.125 0.51172-0.26562l0.52734-0.52344 3.5742-2.7109 2.9141-0.86328-0.003906 0.003906c0.22656-0.066406 0.42188-0.21875 0.54297-0.42188l0.68359-1.1406v0.003906c0.11719-0.19141 0.16016-0.41797 0.125-0.64062l0.55469-0.28125 4.0117-0.10938-0.003906 0.003907c0.22266-0.003907 0.43359-0.089844 0.60156-0.23438l0.53125-0.46484 0.53906 2.7852c0.042968 0.21094 0.15234 0.40234 0.31641 0.54297l1.3281 1.125 0.87891 1.8516 0.29297 2.0586-0.40234 1.4023v-0.007813c-0.070312 0.24219-0.039062 0.5 0.082032 0.72266 0.12109 0.21875 0.32422 0.37891 0.56641 0.44922l1.5977 0.45703v-0.003907c0.25391 0.074219 0.52734 0.039063 0.75-0.097656l1.9492-1.1875 0.5625 0.74609-0.17188 1.2109-0.003906-0.003907c-0.023438 0.19141 0.007812 0.38672 0.09375 0.55859l0.88672 1.7773 0.35547 0.98047-0.078125 0.5625c-0.023438 0.16797-0.003906 0.33984 0.0625 0.49609l0.37891 0.91797-0.30859 0.5c-0.097656 0.15625-0.14844 0.33594-0.14453 0.51953l0.070313 3.9297c0.007812 0.28125 0.13672 0.54688 0.35547 0.72266l2.1875 1.75 1.5273 5.1992v-0.003906c0.066406 0.22656 0.21484 0.41797 0.41797 0.54297l4.5156 2.7422v-0.003906c0.21484 0.13281 0.47266 0.16797 0.71875 0.10547l0.64844-0.16406v0.003906c0.26562-0.066406 0.49219-0.25 0.61328-0.49609 0.125-0.25 0.13281-0.53906 0.023437-0.79297l-0.91016-2.1289-0.30859-2.7656c-0.019531-0.16016-0.078125-0.3125-0.17188-0.44531l-2.0977-2.9062v0.003906c-0.078125-0.10938-0.17969-0.20312-0.29688-0.26953l-1.8516-1.0586-0.17969-1.3086c-0.027344-0.18359-0.10156-0.35156-0.21875-0.49219l-0.66016-0.76953 0.70312-3.082h-0.003907c0.019532-0.070312 0.027344-0.14062 0.027344-0.21094v-0.027344c0.19141 0.35547 0.58594 0.54688 0.98438 0.48047l1.1719-0.19922 0.77344 2.0195-0.003906 0.003907c0.09375 0.23437 0.27344 0.42578 0.50391 0.52734l2.0156 0.88281v1.1562c0 0.30078 0.14844 0.58594 0.39453 0.76562 0.24609 0.17578 0.55859 0.22656 0.84766 0.12891l1.9336-0.64844 0.003906 0.003906c0.33984-0.11328 0.58594-0.41016 0.63672-0.76562l0.085937-0.59375 4.1758-1.7305c0.35547-0.14453 0.58594-0.48828 0.58594-0.875v-3.2227c0-0.046875-0.003906-0.09375-0.011719-0.14062l-0.64453-4.3516c-0.046875-0.32422-0.26172-0.60156-0.5625-0.73047l-2.0039-0.85938-2.0352-2.9883 0.32812-1.5391 2.332-1.9219 0.61719-0.16797 0.27344 1.2812-0.003906 0.003906c0.070312 0.32031 0.29688 0.58203 0.60547 0.69141 0.30859 0.10937 0.64844 0.054687 0.90625-0.14844l2.1719-1.707 8.4531-3.9844c0.19922-0.09375 0.36328-0.25781 0.45313-0.46094l5.3242-11.613c0.097656-0.21094 0.11328-0.45312 0.042969-0.67578l-0.96875-3.0664c-0.019531-0.066407-0.046875-0.125-0.082031-0.18359l-2.582-4.5156c-0.15234-0.27344-0.43359-0.44922-0.74609-0.47656l-0.5625-0.039062 1.4336-2.3555 1.4258-1.8984v0.003906c0.21484-0.28906 0.25-0.67188 0.089844-0.99219-0.16016-0.32031-0.48828-0.52344-0.84766-0.52344h-2.5781c-0.26562 0-0.51953 0.11328-0.69922 0.30859l-0.71875 0.78516-0.11328-0.30859c-0.13672-0.375-0.49219-0.625-0.89062-0.62109h-0.26562l-0.003906-0.039062 0.10156-0.015625 0.003907-0.003906c0.24609-0.039063 0.46484-0.17578 0.60938-0.375l1.7344-2.3867 0.11719 0.69531h-0.003906c0.054688 0.3125 0.25781 0.57812 0.55078 0.70703 0.28906 0.12891 0.625 0.10547 0.89062-0.066406l1.5703-0.99609 1.332-0.085937v0.85156l-0.14844 0.89062c-0.046874 0.28906 0.042969 0.58594 0.24219 0.80078 0.20312 0.21484 0.49219 0.32422 0.78516 0.29688l1.1133-0.11328 0.20703 0.25-0.089844 0.53906c-0.035156 0.23047 0.011719 0.46094 0.13281 0.65625l0.71875 1.1484 0.44922 2.0977h-0.003906c0.066406 0.3125 0.28516 0.56641 0.58203 0.68359 0.29688 0.11719 0.62891 0.074218 0.89062-0.10938l2.7422-1.9336h-0.003906c0.25391-0.17969 0.40234-0.46484 0.40234-0.77344v-2.0977c0-0.066406-0.007812-0.13672-0.023437-0.20312l-0.32031-1.4492h-0.003906c-0.042969-0.20312-0.15234-0.38281-0.30859-0.51953l-2.0156-1.707-0.9375-1.25 1.1367-1.3594-0.003906-0.003906c0.10938-0.12891 0.18359-0.28906 0.20703-0.46094l0.30859-2.0078 0.73047-2.0859 0.47266 0.26172c0.36719 0.20703 0.82812 0.14062 1.125-0.15625l1.6133-1.6133c0.17188-0.17188 0.26953-0.39844 0.27734-0.63672l0.32031-10.164c0.003906-0.10938-0.011718-0.22266-0.046875-0.32812l-0.96484-2.9023c-0.011719-0.03125-0.027344-0.066407-0.042969-0.097657l-0.96484-2.0977c-0.011719-0.023437-0.023437-0.042969-0.035156-0.066406l-1.4492-2.5781c-0.13672-0.24219-0.37109-0.41406-0.64062-0.46484l-1.6094-0.32031-0.003906-0.003907c-0.45703-0.089843-0.91406 0.16406-1.0742 0.60547l-0.26562 0.72656-1.1289-0.63672v-1.9453l0.89062-5.043 3.2734-2.5625 1.5898-0.43359h0.003906c0.41016-0.11328 0.69531-0.48438 0.69531-0.91016v-0.64453c0-0.027343 0-0.050781-0.003907-0.078125l-0.25-3.1211h0.003907c0.25 0.13281 0.55078 0.14453 0.8125 0.03125 0.26172-0.11719 0.46094-0.34375 0.53516-0.61719l0.25781 1.2383v-0.003906c0.003906 0.019531 0.007812 0.039062 0.015624 0.054688l0.96484 3.5469v0.003907c0 0.003906 0.003906 0.011719 0.003906 0.015625l0.32031 1.1289c0.039063 0.13281 0.10156 0.25 0.19141 0.35547l4.5195 5.3242-0.003906-0.003907c0.042969 0.050781 0.09375 0.097657 0.14453 0.13672l2.7422 2.0977c0.32812 0.25391 0.78516 0.26172 1.125 0.019532 0.33984-0.23828 0.48047-0.67188 0.34766-1.0664l-1.2773-3.8359-0.47656-1.8984v-0.003906c-0.003906-0.007812-0.003906-0.015625-0.003906-0.023438l-0.48438-1.7734h-0.003906c-0.035157-0.13281-0.10156-0.25781-0.19141-0.36328l-0.73828-0.86719v-1.2617c0-0.38281-0.23047-0.72656-0.58594-0.875l-1.6484-0.6875-1.4219-2.3281 0.73047-3.6719v0.003906c0.027343-0.12891 0.027343-0.26562-0.003907-0.39453l-1.1289-4.8398c-0.066406-0.29297-0.27344-0.53516-0.54688-0.65625l-3.0977-1.3281-0.41406-0.71094 1.8711-0.73047c0.3125-0.12109 0.53516-0.39844 0.58594-0.73047 0.054687-0.33203-0.074219-0.66797-0.33594-0.87891l-3.3867-2.7422v-0.003906c-0.17188-0.14062-0.39063-0.21484-0.61328-0.20703z"
      fill-rule="evenodd" />
    <path
      d="m391 256.51c-0.27734 0-0.53906 0.12109-0.71875 0.33203l-1.7734 2.0977c-0.09375 0.10938-0.16016 0.24219-0.19531 0.38281l-0.17578 0.70313-1.9883 0.37109c-0.35156 0.066407-0.63281 0.32422-0.73047 0.66797l-0.66406 2.3242-2.4844 0.73828h-0.003906c-0.33203 0.10156-0.58594 0.375-0.65625 0.71484l-0.19922 0.94531-0.91016-0.25391-0.53125-0.33203c-0.42578-0.26562-0.98438-0.15234-1.2695 0.25781l-1.1289 1.6133h-0.003906c-0.097656 0.14063-0.15234 0.30078-0.16797 0.47266l-0.082031 1.0469c-0.019531 0.26172 0.070312 0.52344 0.25 0.71484 0.17969 0.19531 0.43359 0.30469 0.69531 0.30078h-0.4375c0.054688 0.23047 0.19531 0.42969 0.38672 0.5625l0.91016 0.62891 0.12891 1.8828h0.003906c0.019531 0.26953 0.15234 0.51953 0.36719 0.68359 0.21484 0.16406 0.49219 0.22656 0.75781 0.17578l1.8516-0.35156 0.14453 0.23438h-0.003906c0.24219 0.40625 0.75 0.57031 1.1875 0.37891l1.1719-0.51562 0.22266-0.054687c0.089843 0.25 0.28125 0.45312 0.52734 0.55469 0.24609 0.10156 0.52344 0.097656 0.76172-0.015625l0.26562-0.125 0.019532 0.089844c0.058593 0.31641 0.27344 0.57812 0.57031 0.69922s0.63672 0.085937 0.89844-0.10156l2.418-1.6914c0.125-0.085937 0.22656-0.19922 0.29688-0.32812l0.72266-1.375c0.16406-0.3125 0.14062-0.69141-0.0625-0.98438l0.085937 0.09375 0.62891-0.67188 0.71484-0.71484v0.003906c0.19922-0.19922 0.29688-0.47656 0.27344-0.75391l-0.046874-0.48047 0.88281-0.99609 0.97656-0.75h-0.003906c0.26562-0.20312 0.40234-0.53125 0.36328-0.85938-0.035157-0.32812-0.24609-0.61719-0.54688-0.75391l-0.67578-0.30859v0.003906c0.085938-0.40625-0.097656-0.82031-0.45312-1.0234l-0.37109-0.21094v-0.003906c0.11328-0.14453 0.18359-0.32031 0.19531-0.50781l0.023437-0.30078 0.30859-0.050781c0.26953-0.039063 0.50781-0.19531 0.65625-0.42578 0.14453-0.23047 0.18359-0.51563 0.10547-0.77734l-0.039063-0.12891 0.77344-0.5c0.35547-0.22656 0.51562-0.65625 0.39844-1.0625-0.12109-0.40234-0.48828-0.67969-0.91016-0.67578h-0.48828l-0.085938-0.21094v-0.003907c-0.125-0.3125-0.41016-0.53516-0.74609-0.58203-0.066407-0.46484-0.46484-0.8125-0.9375-0.8125h-1.4531z"
      fill-rule="evenodd" />
    <path
      d="m354.72 262.28h-0.03125c-0.26953 0.007812-0.52734 0.12891-0.69922 0.33594l-0.28125 0.34375c-0.20312 0.24219-0.27344 0.5625-0.1875 0.86328l0.45703 1.5977h0.003907c0.0625 0.21875 0.19922 0.40625 0.38672 0.53125l1.8672 1.2266 1.5586 1.9922v-0.003906c0.089843 0.11719 0.20703 0.21094 0.34375 0.27344l1.3711 0.63672 0.71875 1.8164-0.003906 0.003907c0.0625 0.16016 0.16406 0.29687 0.30078 0.40234l1.6602 1.2852 2.1992 3.0273c0.066407 0.085938 0.14453 0.16016 0.23438 0.22266l4.8438 3.3086h0.003906c0.19141 0.12891 0.42188 0.1875 0.65234 0.15625l1.7695-0.23047c0.39844-0.050781 0.71875-0.34766 0.80469-0.73828l0.625-2.9648v-0.003907c0.039063-0.19531 0.015625-0.40234-0.066406-0.58594l-0.625-1.3672c-0.11328-0.25-0.32812-0.4375-0.58984-0.51562l-1.25-0.375-0.23828-0.6875c-0.10547-0.29297-0.34375-0.51562-0.64062-0.59766l-0.46484-0.12891 0.11328-0.19141c0.13281-0.22656 0.16797-0.50391 0.089843-0.75781s-0.26172-0.46094-0.5-0.57422l-1.9648-0.92969-2.4297-1.8242c-0.22656-0.16797-0.51562-0.23047-0.79297-0.16406l-1.6289-1.3477h0.003906c-0.070312-0.054687-0.14453-0.10547-0.22656-0.14062l-1.6562-0.72266v-0.12109c0-0.28516-0.12891-0.55469-0.35156-0.73438l-1.4805-1.1953v-0.003906c-0.11719-0.09375-0.25391-0.16016-0.40234-0.19141l-2.7539-0.57031h-0.003907c-0.17578-0.22656-0.44922-0.35938-0.73828-0.35938z"
      fill-rule="evenodd" />
    <path
      d="m399.88 277.39c-0.52734 0-1.2852 0.10156-2.2891 0.24219-1 0.14062-2.1875 0.32422-3.3242 0.51562-2.207 0.35938-4.1094 0.70312-4.2305 0.72266-0.11719 0-1.3945-0.14062-2.8438-0.27344-0.75781-0.074218-1.5273-0.14062-2.1406-0.19531s-0.94531-0.089844-1.2578-0.089844c-0.38672 0-1.2266 0.054688-2.1133 0.11328-0.88672 0.054687-1.7148 0.11719-1.7148 0.11719l0.003906-0.003906c-0.027344-0.003907-0.058594-0.003907-0.085938 0l-2.5898 0.42969-2.0156-0.32031h0.003906c-0.16016-0.019532-0.32422 0-0.47266 0.058594l-2.5078 0.91406c-0.38672 0.14062-0.63672 0.51562-0.61719 0.92578 0.015624 0.41016 0.29687 0.76172 0.69141 0.87109l3.7656 1.0273c0.078125 0.03125 0.16406 0.046875 0.24609 0.054687h10.266c0.054687 0.007813 0.10937 0.007813 0.16406 0l10.723-1.9375c0.039063-0.015625 0.078125-0.035156 0.11719-0.054687 0 0 1.0078-0.3125 1.8672-0.64844 0.42969-0.16797 0.76953-0.28125 1.1406-0.54297 0.09375-0.066406 0.20312-0.125 0.34375-0.35156 0.070313-0.11328 0.15234-0.29297 0.15234-0.54297-0.003906-0.24609-0.12891-0.52734-0.27344-0.67578-0.28516-0.29688-0.48437-0.29297-0.62109-0.3125h-0.37891z"
      fill-rule="evenodd" />
    <path
      d="m395.15 236.93c-0.50781 0.019531-0.91016 0.43359-0.91016 0.94531v0.41797l-0.28516 3.3281-0.4375 0.14453c-0.41797 0.14062-0.68359 0.55078-0.64062 0.99219l0.23047 2.2812c0.027344 0.29297 0.19531 0.55859 0.44922 0.71094l3.1914 1.9375v0.003906c0.375 0.22266 0.85156 0.16797 1.1602-0.14062l1.3672-1.3711c0.19141-0.19141 0.29297-0.46094 0.27344-0.73438-0.019531-0.27344-0.15625-0.52344-0.375-0.6875l-1.543-1.1562c0.14063-0.19922 0.16406-0.22266 0.33203-0.46484 0.22266-0.32422 0.44531-0.66406 0.625-0.97656 0.089844-0.15625 0.17188-0.30469 0.23828-0.46094 0.070313-0.15625 0.15625-0.28125 0.15625-0.63281 0-0.39062-0.074219-0.5625-0.15625-0.875s-0.18359-0.66016-0.28516-0.99609c-0.20312-0.67187-0.40625-1.2773-0.40625-1.2773-0.10938-0.33594-0.39453-0.57812-0.74219-0.63672l-2.0547-0.33984h0.003906c-0.0625-0.011718-0.12891-0.015625-0.19141-0.015625z"
      fill-rule="evenodd" />
    <path
      d="m402.46 171.19c-0.32031 0.011719-0.61719 0.18359-0.77734 0.46484-0.16406 0.27734-0.17578 0.61719-0.03125 0.90625l1.9609 3.8359c0.003906 0.007813 0.007812 0.015625 0.007812 0.023438l2.5195 4.6602c0.011719 0.019531 0.023438 0.039063 0.035157 0.058594l2.5195 3.9766c0.20703 0.32812 0.59766 0.49609 0.98047 0.41797 0.38281-0.078125 0.67969-0.38281 0.74609-0.76562l0.14062-0.82422c0.023438-0.13281 0.015625-0.26953-0.019531-0.40234l-0.96484-3.6562-0.41406-2.4258c-0.035157-0.19922-0.13281-0.38281-0.28125-0.52344l-5.7344-5.4844h0.003906c-0.1875-0.17578-0.43359-0.26953-0.69141-0.26172z"
      fill-rule="evenodd" />
    <path
      d="m408.27 186.63v0.011719-0.003906c-0.29688 0.011719-0.57422 0.16406-0.74219 0.40625-0.17188 0.24609-0.21484 0.55469-0.12109 0.83984l0.54688 1.6406 0.55859 3.2383c0.003906 0.019531 0.007812 0.039063 0.011719 0.054687l1.1133 4.6836v3.0078l-0.68359 1.6406h0.003906c-0.25391 0.007812-0.49219 0.11719-0.66406 0.30469-0.17188 0.18359-0.26172 0.43359-0.25 0.68359l0.082031 1.6367-2.7188 1.2188c-0.15625 0.070312-0.28906 0.18359-0.38672 0.32422l-1.8242 2.6211c-0.03125 0.042969-0.054687 0.089844-0.078124 0.13672l-1.0273 2.168c-0.14062 0.29297-0.11719 0.64062 0.0625 0.91797l1.2344 1.9062 0.89453 1.6758-0.003906-0.003906c0.16406 0.30469 0.47656 0.49609 0.82422 0.5 0.34375 0.003906 0.66016-0.17969 0.83203-0.48047l1.0273-1.8242v-0.003906c0.085937-0.15625 0.12891-0.33594 0.12109-0.51562l-0.10156-1.707c0.035156-0.015626 0.070312-0.035157 0.10547-0.054688l2.0547-1.2539h-0.003906c0.16797-0.10547 0.29688-0.25391 0.375-0.43359l0.95703-2.1953 0.45703-0.11719v0.003906c0.18359-0.046875 0.34766-0.14453 0.47266-0.28125l1.1406-1.2539v-0.003906c0-0.003906 0.003907-0.007813 0.007813-0.015625l1.8242-2.0547c0.20703-0.23047 0.28516-0.55078 0.21094-0.85547l-0.87109-3.4766 0.20703-1.6484c0.015625-0.13672 0.003906-0.27344-0.039063-0.40234l-0.80078-2.5078 0.003906-0.003906c-0.050781-0.16016-0.14453-0.30469-0.26953-0.41406l-0.96484-0.86719-0.39062-1.0586 1.2773-0.47266v-0.007812c0.3125-0.11328 0.53906-0.38281 0.60156-0.70703l0.45703-2.3984 0.003906 0.003906c0.0625-0.33984-0.0625-0.68359-0.32812-0.90234l-0.68359-0.57031v-0.003907c-0.26562-0.21875-0.63281-0.27734-0.95703-0.14844l-0.74609 0.29688-2.3555-1.1797v0.003907c-0.14062-0.074219-0.29687-0.10547-0.45703-0.10156z"
      fill-rule="evenodd" />
    <use x="70" y="644" xlink:href="#w" />
    <use x="90.550781" y="644" xlink:href="#d" />
    <use x="104.359375" y="644" xlink:href="#a" />
    <use x="123.347656" y="644" xlink:href="#c" />
    <use x="142.242188" y="644" xlink:href="#b" />
    <use x="155.628906" y="644" xlink:href="#a" />
    <use x="174.617188" y="644" xlink:href="#l" />
    <use x="204.410156" y="644" xlink:href="#k" />
    <use x="224.453125" y="644" xlink:href="#j" />
    <use x="252.453125" y="644" xlink:href="#h" />
    <use x="282.71875" y="644" xlink:href="#v" />
    <use x="301.820312" y="644" xlink:href="#g" />
    <use x="321.753906" y="644" xlink:href="#c" />
    <use x="340.648438" y="644" xlink:href="#f" />
    <use x="360.582031" y="644" xlink:href="#i" />
    <use x="380.625" y="644" xlink:href="#c" />
    <use x="409.265625" y="644" xlink:href="#u" />
    <use x="430.9375" y="644" xlink:href="#t" />
    <use x="440.535156" y="644" xlink:href="#i" />
    <use x="460.578125" y="644" xlink:href="#f" />
    <use x="480.511719" y="644" xlink:href="#a" />
    <use x="499.5" y="644" xlink:href="#s" />
    <use x="516.167969" y="644" xlink:href="#g" />
    <use x="70" y="672" xlink:href="#r" />
    <use x="82.183594" y="672" xlink:href="#d" />
    <use x="95.992188" y="672" xlink:href="#e" />
    <use x="115.226562" y="672" xlink:href="#q" />
    <use x="154.152344" y="672" xlink:href="#b" />
    <use x="167.535156" y="672" xlink:href="#g" />
    <use x="187.46875" y="672" xlink:href="#a" />
    <use x="216.207031" y="672" xlink:href="#p" />
    <use x="239.640625" y="672" xlink:href="#e" />
    <use x="258.878906" y="672" xlink:href="#o" />
    <use x="278.8125" y="672" xlink:href="#f" />
    <use x="308.492188" y="672" xlink:href="#h" />
    <use x="329.015625" y="672" xlink:href="#d" />
    <use x="342.820312" y="672" xlink:href="#e" />
    <use x="362.058594" y="672" xlink:href="#n" />
    <use x="371.65625" y="672" xlink:href="#a" />
    <use x="390.648438" y="672" xlink:href="#m" />
    <use x="407.242188" y="672" xlink:href="#b" />
  </g>
</svg>