<?xml version="1.0" encoding="utf-8"?>
<svg version="1.1" id="Layer_1" x="0px" y="0px" viewBox="0 0 473.677 473.677" style="enable-background:new 0 0 473.677 473.677;" xmlns="http://www.w3.org/2000/svg">
  <g/>
  <g/>
  <g/>
  <g/>
  <g/>
  <g style="" transform="matrix(0.90407, 0, 0, 0.90407, 25.439835, 32.649246)">
    <path style="fill:#27726C;" d="M315.912,320.848c-13.384-9.199-3.796-16.136-3.796-16.136c2.363-6.918-113.87-8.257-146.371-8.493 c-10.321,0.931-24.049,2.438-38.282,4.783c1.582,5.392,2.962,9.087,2.962,9.087l-4.716-0.396 c-10.946,1.174-61.909,6.612-102.105,10.168c65.558-0.823,154.388-1.859,185.999-1.859c19.3,0,63.838,2.505,114.289,5.823 C320.07,322.815,317.322,321.82,315.912,320.848z"/>
    <g>
      <path id="SVGCleanerId_1" style="fill:#27726C;" d="M315.912,320.848c-13.384-9.199-3.796-16.136-3.796-16.136 c2.363-6.918-113.87-8.257-146.371-8.493c-10.321,0.931-24.049,2.438-38.282,4.783c1.582,5.392,2.962,9.087,2.962,9.087 l-4.716-0.396c-10.946,1.174-61.909,6.612-102.105,10.168c65.558-0.823,154.388-1.859,185.999-1.859 c19.3,0,63.838,2.505,114.289,5.823C320.07,322.815,317.322,321.82,315.912,320.848z"/>
    </g>
    <g>
      <path id="SVGCleanerId_1_1_" style="fill:#27726C;" d="M315.912,320.848c-13.384-9.199-3.796-16.136-3.796-16.136 c2.363-6.918-113.87-8.257-146.371-8.493c-10.321,0.931-24.049,2.438-38.282,4.783c1.582,5.392,2.962,9.087,2.962,9.087 l-4.716-0.396c-10.946,1.174-61.909,6.612-102.105,10.168c65.558-0.823,154.388-1.859,185.999-1.859 c19.3,0,63.838,2.505,114.289,5.823C320.07,322.815,317.322,321.82,315.912,320.848z"/>
    </g>
    <g>
      <path id="SVGCleanerId_1_2_" style="fill:#27726C;" d="M315.912,320.848c-13.384-9.199-3.796-16.136-3.796-16.136 c2.363-6.918-113.87-8.257-146.371-8.493c-10.321,0.931-24.049,2.438-38.282,4.783c1.582,5.392,2.962,9.087,2.962,9.087 l-4.716-0.396c-10.946,1.174-61.909,6.612-102.105,10.168c65.558-0.823,154.388-1.859,185.999-1.859 c19.3,0,63.838,2.505,114.289,5.823C320.07,322.815,317.322,321.82,315.912,320.848z"/>
    </g>
  </g>
  <g style="" transform="matrix(0.90407, 0, 0, 0.90407, 25.439835, 32.649246)">
    <path id="SVGCleanerId_1_3_" style="fill:#1D5E58;" d="M 315.912 320.848 C 302.528 311.649 312.116 304.712 312.116 304.712 C 314.479 297.794 198.246 296.455 165.745 296.219 C 155.424 297.15 141.696 298.657 127.463 301.002 C 129.045 306.394 130.425 310.089 130.425 310.089 L 125.709 309.693 C 114.763 310.867 63.8 316.305 23.604 319.861 C 89.162 319.038 181.639 325.939 211.76 335.529 C 234.563 342.789 399.915 337.001 450.288 340.158 C 446.466 339.148 317.322 321.82 315.912 320.848 Z"/>
  </g>
  <g style="" transform="matrix(0.90407, 0, 0, 0.90407, 25.439835, 32.649246)">
    <path style="fill:#27726C;" d="M182.846,283.149c2.322,0.116,4.652,0.273,6.922,0.467c0.18-0.198,0.404-0.464,0.666-0.778 C187.902,282.966,185.367,283.067,182.846,283.149z"/>
    <g>
      <path id="SVGCleanerId_2" style="fill:#27726C;" d="M182.846,283.149c2.322,0.116,4.652,0.273,6.922,0.467 c0.18-0.198,0.404-0.464,0.666-0.778C187.902,282.966,185.367,283.067,182.846,283.149z"/>
    </g>
    <g>
      <path id="SVGCleanerId_2_1_" style="fill:#27726C;" d="M182.846,283.149c2.322,0.116,4.652,0.273,6.922,0.467 c0.18-0.198,0.404-0.464,0.666-0.778C187.902,282.966,185.367,283.067,182.846,283.149z"/>
    </g>
    <g>
      <path id="SVGCleanerId_2_2_" style="fill:#27726C;" d="M182.846,283.149c2.322,0.116,4.652,0.273,6.922,0.467 c0.18-0.198,0.404-0.464,0.666-0.778C187.902,282.966,185.367,283.067,182.846,283.149z"/>
    </g>
  </g>
  <g style="" transform="matrix(0.90407, 0, 0, 0.90407, 25.439835, 32.649246)">
    <path id="SVGCleanerId_2_3_" style="fill:#1D5E58;" d="M182.846,283.149c2.322,0.116,4.652,0.273,6.922,0.467 c0.18-0.198,0.404-0.464,0.666-0.778C187.902,282.966,185.367,283.067,182.846,283.149z"/>
  </g>
  <g style="" transform="matrix(0.90407, 0, 0, 0.90407, 25.439835, 32.649246)">
    <path style="fill:#8F8377;" d="M362.597,263.434c0.61,0.696,1.163,1.369,1.649,2.008c14.439-3.171,30.896-7.588,40.982-10.504 L362.597,263.434z"/>
    <path style="fill:#8F8377;" d="M327.205,313.253c0,0-5.063-8.859-2.532-15.186c0.718-1.795,1.642-3.253,2.595-4.465 c-10.901-0.123-47.451-0.497-57.646,0.037c-10.736,0.565-64.343,0.625-86.956,0.632c0.31,0.217,0.643,0.441,0.909,0.632 c0,0-7.06,0.344-17.83,1.316c32.501,0.239,148.734,1.578,146.371,8.493c0,0-9.585,6.937,3.796,16.136 c1.41,0.969,4.158,1.963,7.977,2.973c22.456,5.938,82.072,12.356,126.009,16.525c1.182-2.431,2.285-4.906,3.388-7.382 c0.755-1.705,1.529-3.399,2.247-5.12C409.465,326.125,342.953,322.138,327.205,313.253z"/>
  </g>
  <g style="" transform="matrix(0.90407, 0, 0, 0.90407, 25.439835, 32.649246)">
    <path style="fill:#FFFFFD;" d="M470.924,200.624c-1.529-0.157-2.528,0.583-1.357,2.532c1.081,1.799,1.761,4.013,2.487,6.279 C471.714,206.488,471.373,203.541,470.924,200.624z"/>
    <path style="fill:#FFFFFD;" d="M473.494,229.43c-0.037-1.286-0.037-2.58-0.097-3.859c-0.744,0.007-1.563-0.041-2.562-0.266 c-5.523-1.227-5.714-0.116-8.601-3.504c-0.09-0.105-0.161-0.176-0.258-0.292c-3.164-3.796-0.632-8.855-5.695-5.692 c-5.063,3.164-3.16,6.327-5.692,8.227c-2.528,1.896-3.164,5.06-6.959,6.959c-3.799,1.896-5.063,3.164-9.491,3.164 s-6.959,6.327-10.123,1.896c-3.164-4.431-1.264-6.324-5.695-5.695c-4.431,0.636,1.264-0.628-4.431,0.636 c-5.692,1.264-1.896,5.692-5.692,1.264c-3.796-4.431,0-3.167-3.796-4.431s-5.063-1.896-7.595,0.636 c-2.528,2.532,3.167,2.532-2.528,2.532c-5.692,0-9.491-1.264-12.023-3.799c-2.528-2.532-6.959-6.327-6.959-6.327l-6.959,6.959 c0,0-10.755,3.796-14.554,3.167c-3.799-0.636-8.227-1.264-11.387-5.695c-3.167-4.428-4.431-3.16-3.167-7.591 c1.264-4.431,0,0,1.264-4.431c1.268-4.431-2.528-3.796-2.528-3.796s-8.986,5.138-14.996,9.779c0.632,2.064,1.077,4.005,1.077,5.404 c0,3.646,0.654,12.195,1.021,16.701c6.649,3.022,12.651,5.441,14.794,5.441c4.237,0,15.358,8.582,21.817,15.583 c0.325,0.355,0.621,0.696,0.92,1.036l42.631-8.493c3.616-1.043,6.454-1.903,8.025-2.427c4.424-1.477,27.157-7.528,48.977-12.494 c3.874-0.883,7.722-1.731,11.432-2.513c0-0.224,0.015-0.441,0.015-0.666C473.681,234.355,473.568,231.895,473.494,229.43z"/>
  </g>
  <path style="fill: rgb(172, 166, 166);" d="M 452.21 221.997 C 451.554 219.948 450.939 217.947 449.962 216.32 C 448.904 214.559 449.81 213.886 451.189 214.031 C 450.763 211.246 450.243 208.49 449.708 205.742 C 448.068 197.29 445.932 189.02 443.328 180.957 C 441.743 176.041 439.972 171.21 438.048 166.453 C 436.638 167.308 435.597 167.771 435.09 167.697 C 431.084 167.125 429.941 165.979 425.938 163.119 C 421.932 160.259 416.786 149.39 415.068 146.53 C 413.756 144.342 412.093 142.817 408.577 140.687 L 409.206 145.082 L 405.771 150.231 C 405.771 150.231 398.05 150.231 389.469 156.235 C 380.885 162.242 380.885 163.96 380.885 163.96 C 380.885 163.96 369.732 172.541 366.3 175.117 C 362.865 177.69 359.433 181.121 354.285 185.415 C 349.136 189.706 340.552 182.839 340.552 182.839 C 340.552 182.839 335.406 180.262 327.681 181.98 C 319.955 183.698 327.681 181.98 321.673 186.273 C 315.665 190.564 306.226 187.988 306.226 187.988 C 303.288 184.211 298.318 167.973 303.923 167.973 C 304.116 167.973 304.316 167.96 304.508 167.956 C 300.8 167.229 301.519 165.241 298.372 162.543 C 294.369 159.112 288.649 152.82 288.649 152.82 C 288.649 152.82 284.646 155.681 282.36 157.397 C 280.071 159.112 268.06 173.412 268.06 173.412 L 256.047 164.832 C 258.908 168.835 257.765 178.561 261.767 183.707 C 265.771 188.855 266.913 191.72 270.919 194.005 C 274.923 196.294 276.065 198.011 280.071 199.154 C 284.075 200.296 284.075 199.154 290.366 201.443 C 296.661 203.732 299.518 206.02 302.95 206.02 C 306.384 206.02 308.098 208.309 309.812 211.169 C 310.133 211.703 310.448 212.372 310.755 213.079 C 312.104 216.173 313.243 220.321 313.243 220.321 C 313.243 220.321 315.928 226 317.418 230.879 C 322.848 226.684 330.976 222.038 330.976 222.038 C 330.976 222.038 334.408 221.467 333.261 225.47 C 332.119 229.476 333.261 225.47 332.119 229.476 C 330.976 233.482 332.119 232.337 334.982 236.339 C 337.842 240.345 341.845 240.916 345.276 241.488 C 348.708 242.055 358.434 238.625 358.434 238.625 L 364.726 232.333 C 364.726 232.333 368.732 235.765 371.017 238.053 C 373.306 240.342 376.737 241.488 381.887 241.488 C 387.035 241.488 381.887 241.488 384.172 239.199 C 386.461 236.91 387.607 237.481 391.039 238.624 C 394.471 239.766 391.039 238.624 394.471 242.63 C 397.905 246.633 394.471 242.63 399.617 241.487 C 404.765 240.344 399.617 241.487 403.622 240.912 C 407.628 240.344 405.912 242.055 408.771 246.061 C 411.632 250.066 413.917 244.346 417.923 244.346 C 421.929 244.346 423.069 243.204 426.504 241.486 C 429.935 239.768 430.51 236.909 432.795 235.194 C 435.084 233.48 433.366 230.617 437.941 227.757 C 442.518 224.896 440.233 229.474 443.09 232.903 C 443.177 233.008 443.239 233.072 443.323 233.167 C 445.933 236.23 446.108 235.225 451.099 236.335 C 452.001 236.537 452.742 236.581 453.415 236.575 C 453.194 231.67 452.764 226.815 452.21 221.997 Z"/>
  <path style="fill: rgb(60, 59, 64);" d="M 318.397 235.77 C 318.397 234.503 317.994 232.752 317.423 230.885 C 315.932 226.006 313.248 220.326 313.248 220.326 C 313.248 220.326 312.109 216.175 310.76 213.085 C 310.453 212.378 310.134 211.705 309.817 211.174 C 308.103 208.314 306.385 206.026 302.954 206.026 C 299.523 206.026 296.666 203.736 290.37 201.448 C 284.079 199.159 284.079 200.306 280.076 199.159 C 276.07 198.016 274.927 196.299 270.924 194.01 C 266.918 191.725 265.775 188.864 261.772 183.712 C 257.766 178.566 258.909 168.84 256.052 164.837 C 253.191 160.831 240.609 155.114 240.609 155.114 C 235.314 157.321 227.65 166.994 224.418 171.311 C 226.534 174.199 227.721 176.953 229.739 178.57 C 232.599 180.859 240.034 185.433 240.034 185.433 C 240.034 185.433 247.471 190.01 249.757 192.867 C 252.046 195.727 254.331 193.438 254.331 198.59 C 254.331 202.705 283.586 225.471 295.601 236.476 C 298.293 238.941 300.108 240.811 300.544 241.751 C 304.561 243.793 312.333 247.694 319.324 250.869 C 318.988 246.792 318.397 239.067 318.397 235.77 Z"/>
  <g style="" transform="matrix(0.90407, 0, 0, 0.90407, 25.439835, 32.649246)">
    <path style="fill:#797979;" d="M314.233,268.636h-0.912c0.31,0.037,0.632,0.079,0.954,0.116L314.233,268.636z"/>
    <path style="fill:#797979;" d="M362.597,263.434c-0.303-0.344-0.595-0.684-0.92-1.036c-6.458-7.001-17.58-15.583-21.817-15.583 c-2.143,0-8.145-2.42-14.794-5.441c-7.733-3.511-16.334-7.827-20.773-10.086c0.056,0.123,0.123,0.251,0.135,0.344 c0.202,1.421-1.163,2.513-3.104,3.347c-4.11,1.761-10.819,2.348-10.819,2.348L259.5,224.042l-5.187-2.797l-29.139-15.721 c0.987,2.016,2.304,4.566,3.627,7.244c0.299,0.314,0.471,0.699,0.509,1.025c2.027,4.14,3.934,8.388,4.454,11.092 c1.055,5.482,8.646,16.237,10.546,18.773c1.896,2.528,17.714,12.655,13.919,17.082c-0.853,0.995-2.158,2.296-3.695,3.713 c2.397-0.015,4.33-0.55,4.33-0.55s-6.327-3.796,6.959-3.796c13.287,0,17.718-1.264,24.045,0c6.327,1.264,12.019,5.695,15.186,6.959 c1.043,0.415,4.035,1.036,8.264,1.571h0.912l0.045,0.116c1.933,0.228,4.069,0.438,6.413,0.598c3.22,0.221,6.78,0.352,10.527,0.337 c5.063-0.019,10.471-0.325,15.893-1.051c0.744-0.101,1.492-0.191,2.236-0.307c4.372-0.684,9.499-1.702,14.898-2.887 C363.76,264.803,363.206,264.13,362.597,263.434z"/>
  </g>
  <path style="fill: rgb(104, 104, 103);" d="M 300.539 241.751 C 300.103 240.811 298.287 238.941 295.596 236.476 C 283.584 225.472 254.326 202.705 254.326 198.59 C 254.326 193.442 252.041 195.727 249.751 192.867 C 247.462 190.006 240.028 185.433 240.028 185.433 C 240.028 185.433 232.594 180.855 229.734 178.57 C 227.715 176.953 226.532 174.199 224.412 171.311 C 223.526 170.108 222.498 168.88 221.149 167.7 C 218.401 165.296 213.813 163.721 210.574 162.842 C 212.308 168.159 213.062 177.386 213.449 181.254 C 214.02 186.974 215.977 196.434 216.549 198.722 C 216.947 200.322 220.893 207.597 223.03 212.811 C 223.953 215.063 224.484 216.391 225.001 217.601 C 225.248 218.179 228.622 217.646 229.02 218.46 L 255.364 232.673 L 260.053 235.202 L 288.084 247.214 C 288.084 247.214 294.149 246.683 297.865 245.091 C 299.62 244.337 300.854 243.35 300.671 242.065 C 300.651 241.977 300.589 241.859 300.539 241.751 Z"/>
  <g style="" transform="matrix(0.90407, 0, 0, 0.90407, 25.439835, 32.649246)">
    <path style="fill:#6D6D6C;" d="M137.175,131.663c-1.369-2.319-4.323-1.896-4.323-1.896c-0.535-1.384-0.954-2.143-1.286-2.756 c0.041,0.288,0.127,0.598,0.127,0.856c0,3.676,1.298,6.058,2.468,8.567C134.965,135.025,137.527,132.254,137.175,131.663z"/>
    <path style="fill:#6D6D6C;" d="M229.314,213.791c0.004,0.037,0.026,0.086,0.026,0.123c0,0.632,1.477,4.218,1.477,4.218l2.954,6.75 C233.252,222.179,231.341,217.931,229.314,213.791z"/>
    <path style="fill:#6D6D6C;" d="M191.59,276.766c-1.687-0.845-0.632,1.9-3.373-0.845c-2.741-2.741-3.586-2.319-3.796-5.06 c-0.079-1.002-0.325-1.679-0.632-2.225c-0.535-0.95-1.309-1.361-2.109-1.361c-1.264,0-6.537-0.632-6.537-0.632 s-15.4-13.074-18.986-14.341c-3.586-1.264-9.491-5.486-13.496-5.695c-4.009-0.209-4.431,0.632-6.959-0.209 c-0.52-0.172-1.679-1.013-3.171-2.244c3.983,4.446,9.285,12.449,10.59,24.483c0.079,0.744,0.108,1.537,0.157,2.311 c7.3,4.121,14.416,8.182,20.687,11.843c4.697-0.034,11.727,0,18.881,0.359c2.52-0.082,5.056-0.183,7.588-0.314 c0.108-0.131,0.187-0.221,0.31-0.374C193.276,279.298,193.28,277.611,191.59,276.766z"/>
    <path style="fill:#6D6D6C;" d="M244.318,243.656c-1.9-2.532-9.491-13.29-10.546-18.773l-4.637,2.951l-0.845,4.854v7.801 l-2.109,6.959c0,0-2.532,2.954-1.264,3.796c1.264,0.845,1.896,4.218,1.896,4.218s-0.209,2.322,2.741,3.586 c2.954,1.264,3.164,2.532,4.218,2.951c1.055,0.423,3.377,0,3.164,1.69c-0.209,1.687-1.477,3.373-1.477,3.373 s-0.729,0.875-1.907,1.571c-0.546,0.322-1.156,0.613-1.888,0.748c-2.319,0.423-0.845,1.477-4.637,0.632 c-3.62-0.804-3.063,0.838-5.74-1.38c-0.131-0.108-0.232-0.179-0.381-0.31c0,0-2.109-3.164-1.055-4.218 c1.055-1.055,3.582-1.687,4.009-3.373c0.419-1.687-1.477-4.218-1.477-5.909c0-1.687,2.532-8.859,3.373-11.178 c0.841-2.319,0.845-10.123,0.845-10.123l-2.322,2.741l-3.164-1.477c0,0-1.9,3.16-3.377,3.796c-1.477,0.632-2.741,4.005-4.85,4.218 c-2.109,0.209-4.431,0-7.591-1.9c-3.167-1.9-3.377-3.586-5.063-2.532c-1.687,1.055,2.109,3.373,1.055,3.796 c-1.055,0.423,1.264,3.164-3.164,1.477c-4.428-1.687-4.85-4.431-5.486-5.695c-0.636-1.264,0.845-0.423-2.951-0.423 c-3.796,0-2.532-0.209-5.909-0.209c-3.373,0-4.641,1.687-6.327,0.423c-1.687-1.268,1.264-4.009-2.741-1.9 c-4.009,2.109-4.009,3.164-5.482,4.009c-1.477,0.841-0.213,3.164-3.164,1.477c-2.954-1.69-3.377-1.055-4.85-2.954 c-1.473-1.9-4.428-4.641-4.428-4.641s-1.687-4.85-2.741-5.273c-1.055-0.423-0.845,1.69-3.373,0.845 c-2.532-0.845-4.85-1.055-6.118-1.9c-1.264-0.845-3.373-1.055-3.373-4.005c0-2.951,1.69-2.954-0.632-3.796 s-3.164-0.632-4.431-1.264c-1.264-0.632-2.741-1.058-2.741-1.058s-4.428,2.532-6.327,2.532s-5.063,0.213-3.799,3.164 c1.264,2.954,7.173,10.755,10.336,11.813c3.16,1.051,7.591,6.114,11.81,7.378c4.218,1.268,12.655,7.173,14.977,8.018 c2.319,0.841,24.042,9.278,24.042,9.278l14.973,4.428c0,0,3.164-1.896,6.114-1.051c2.954,0.845,2.322,0.632,5.063,1.896 c1.492,0.688,4.155,2.363,6.623,3.893c2.075,1.286,4.013,2.472,4.977,2.857c2.109,0.845,7.804,0.845,10.755,0.845 c2.954,0,5.905-0.209,4.005,2.532c-0.733,1.062-1.339,2.019-1.945,2.879c7.367-3.078,9.297-6.742,9.151-9.11 c-0.064-1.032-0.516-1.821-1.088-2.203c-1.021-0.681,0.179-1.713,2.072-2.337c1.63-0.539,3.766-0.778,5.523-0.194 c1.294,0.434,2.655,0.557,3.897,0.55c1.537-1.417,2.846-2.719,3.695-3.713C262.032,256.31,246.214,246.184,244.318,243.656z"/>
    <path style="fill:#6D6D6C;" d="M227.654,212.228c0.482,0,0.864,0.236,1.152,0.538c-1.324-2.674-2.64-5.228-3.627-7.244 c-0.445-0.905-0.838-1.724-1.111-2.363c-0.572-1.335-1.492-3.541-2.513-6.032c-2.363-5.766-5.269-13.081-5.71-14.85 c-0.632-2.528-5.063-12.019-5.695-18.346c-0.426-4.278-3.455-14.042-5.374-19.924c-0.92-2.812-1.586-4.753-1.586-4.753 s-3.799-7.595-5.695-8.859c-1.896-1.264-3.164-5.692-5.06-11.387c-1.9-5.695-10.755-0.632-10.755-0.632 c-3.164,0-6.327-3.16-8.227-1.896c-1.896,1.264-7.591-1.264-9.491-2.532c-1.896-1.268-6.956-0.636-8.855-0.636 s-11.391,6.959-11.391,6.959l-10.265,3.422l2.251,1.219c0,0-1.9-0.209,0.632,1.264c0,0,2.322,1.477,2.741,0 c0,0,1.687,0.423,2.319,0.845c0.632,0.423,2.741,1.055,3.373,1.268c0.632,0.209,0.849,1.264,0.632,2.105 c-0.213,0.845-0.213,3.796-0.213,3.796l2.109,2.322l2.532,2.319c0,0,6.118,0.423,5.909,1.9c-0.213,1.477-0.213,1.9-2.109,2.322 c-1.9,0.423-3.586,1.896-3.586,1.896s0.209,1.69,1.264,2.326c1.055,0.632,5.695,1.051,5.695,1.051l-2.532,2.532l-3.799,4.641 c0,0,2.322,3.164,3.586,6.114c1.264,2.954,5.695,11.178,7.169,13.919c1.477,2.741,4.009,6.75,5.695,7.804 c1.687,1.051,3.164,2.741,4.846,4.005c1.69,1.264,3.377,2.954,3.377,2.954s3.373,3.373,4.009,3.586 c0.632,0.209,10.755,0.209,10.755,0.209l-2.109,3.164c0,0,2.532,3.164,8.014,2.322l6.114,4.218c0,0-3.583,1.896-1.477,4.005 c2.105,2.109,6.537,4.854,6.537,4.854s6.118,2.528,6.118,1.051c0-1.473-3.373-1.896-1.268-2.528 c2.109-0.632,2.109-0.209,3.796,0.419c0.03,0.011,0.056,0.022,0.086,0.034c1.634,0.625,2.666,1.242,3.287,1.653 c0.632,0.419,4.85,4.431,6.118,3.164c1.264-1.264,2.105-2.741,2.105-2.741S226.599,212.228,227.654,212.228z"/>
  </g>
  <path style="fill: rgb(255, 255, 253);" d="M 108.463 106.49 L 103.886 104.201 L 100.451 104.772 L 91.871 107.633 L 85.008 106.49 L 81.005 108.779 L 76.999 113.928 L 67.847 119.648 L 83.862 120.791 L 84.437 116.787 L 93.017 118.505 L 100.451 112.214 L 105.6 111.642 L 112.467 111.642 C 112.467 111.642 112.855 110.869 113.454 109.952 L 108.463 106.49 Z"/>
  <path style="fill: rgb(121, 121, 121);" d="M 60.411 142.719 L 52.425 142.719 C 52.06 143.374 51.661 144.011 51.303 144.67 C 53.236 144.295 55.065 143.862 56.787 143.862 C 59.076 143.862 61.365 142.719 60.411 142.719 Z"/>
  <path style="fill: rgb(255, 255, 253);" d="M 130.388 140.431 C 129.817 140.238 124.86 139.477 123.714 139.477 C 122.568 139.477 118.187 141.191 118.187 141.191 L 112.467 143.48 C 111.895 144.623 117.044 143.291 120.093 142.526 C 123.143 141.766 123.525 141.191 124.289 141.384 C 125.053 141.576 129.628 141.191 130.959 140.623 C 132.295 140.048 130.959 140.623 130.388 140.431 Z"/>
  <path style="fill: rgb(39, 45, 23);" d="M 443.332 249.645 C 423.605 254.135 403.053 259.605 399.053 260.941 C 397.633 261.414 395.067 262.192 391.798 263.135 C 382.677 265.768 367.798 269.764 354.748 272.631 C 349.866 273.702 345.23 274.623 341.279 275.241 C 340.606 275.346 339.93 275.427 339.257 275.519 C 334.358 276.174 329.466 276.448 324.889 276.469 C 321.498 276.482 318.279 276.364 315.372 276.164 C 313.255 276.019 311.321 275.83 309.574 275.624 C 309.283 275.59 308.993 275.552 308.711 275.519 C 304.888 275.035 302.183 274.474 301.24 274.098 C 298.38 272.956 293.231 268.95 287.511 267.807 C 281.791 266.664 277.788 267.807 265.773 267.807 C 253.757 267.807 259.481 271.239 259.481 271.239 C 259.481 271.239 257.734 271.726 255.566 271.736 C 254.444 271.74 253.217 271.628 252.043 271.239 C 250.458 270.712 248.524 270.928 247.05 271.414 C 245.34 271.979 244.254 272.912 245.177 273.527 C 245.694 273.872 246.104 274.586 246.161 275.519 C 246.296 277.659 244.548 280.972 237.887 283.755 C 237.887 283.755 237.887 283.758 237.884 283.758 C 237.839 283.776 237.786 283.805 237.742 283.819 C 228.019 287.825 215.432 291.253 201.702 289.539 C 200.198 289.35 198.615 289.195 197.006 289.059 C 194.954 288.884 192.847 288.744 190.748 288.637 C 184.277 288.312 177.925 288.282 173.678 288.312 C 173.895 288.437 174.104 288.563 174.318 288.687 C 172.31 288.616 170.351 288.532 168.53 288.394 L 183.297 297.887 L 184.548 298.692 L 190.593 298.692 C 211.036 298.686 259.501 298.631 269.207 298.121 C 278.423 297.637 311.468 297.975 321.323 298.087 C 323.497 295.322 325.843 294.118 325.843 294.118 C 325.843 294.118 352.099 283.796 373.405 275.521 C 386.113 270.584 397.067 266.372 399.63 265.52 C 402.697 264.499 415.378 260.131 429.939 255.54 C 434.308 254.164 438.838 252.771 443.337 251.439 C 446.83 250.405 450.299 249.407 453.646 248.491 C 453.649 248.119 453.673 247.75 453.673 247.375 C 450.31 248.079 446.834 248.847 443.332 249.645 Z"/>
  <g style="" transform="matrix(0.90407, 0, 0, 0.90407, 25.439835, 32.649246)">
    <path style="fill:#FFFFFD;" d="M107.857,126.603c-1.051-0.423-1.896-0.845-3.16-0.845c-1.264,0-3.373,0.845-3.373,0.845 s-2.532,1.264-4.009,1.687c-1.477,0.423-3.16,0.841-5.482,0.841c-2.319,0-2.741,1.055-4.85,1.69 c-2.109,0.632-1.9,0.209-2.954-0.213c-1.055-0.423-0.213-1.055-3.377-1.264c-3.16-0.213-5.269,1.264-6.537,1.264 c-1.264,0-4.218-0.213-5.273-0.213s-2.741,0-4.641-0.419c-1.9-0.423-3.164-1.466-4.428-1.687c-3.586-0.636-0.632,1.687,0,2.105 c0.632,0.423,3.373,1.69,4.641,2.109c1.268,0.419,4.005,1.264,6.327,1.264c2.319,0,2.109,0,4.85-0.423 c2.741-0.423,2.741-0.845,3.586-0.845c0.845,0,1.896,0.209,3.796,0.209c1.9,0,2.954-0.423,5.277-0.845c2.319-0.419,1.896,0,5.063,0 c3.16,0,2.319-0.841,3.796-1.477c1.477-0.632,2.109-1.055,4.85-1.687s2.528-0.423,4.005-0.423s2.954,0,3.796-0.423 C110.602,127.445,108.915,127.022,107.857,126.603z"/>
    <path style="fill:#FFFFFD;" d="M62.514,135.881c-1.687-0.845-6.114-2.741-7.382-2.954c-1.264-0.213-6.327-2.322-6.118-0.213 c0,0,13.496,5.277,14.764,6.541C65.046,140.522,64.201,136.726,62.514,135.881z"/>
  </g>
  <path style="fill: rgb(121, 121, 121);" d="M 160.325 200.302 C 159.183 198.205 164.331 193.821 164.331 191.914 C 164.331 190.007 162.614 187.908 161.853 185.811 C 161.089 183.712 159.947 182.377 158.993 180.28 C 158.466 179.12 157.525 177.136 156.441 174.928 C 156.126 174.367 155.838 173.793 155.589 173.201 C 154.953 171.933 154.297 170.638 153.655 169.414 C 152.709 167.603 148.128 161.594 146.505 156.638 C 146.464 156.513 146.573 156.276 146.732 155.995 C 145.674 153.727 144.5 151.573 144.5 148.25 C 144.5 148.013 144.423 147.733 144.386 147.476 C 144.014 146.796 143.774 146.3 143.652 145.292 C 143.633 145.136 143.619 144.95 143.605 144.765 C 141.996 140.985 138.781 136.81 138.781 136.81 L 133.635 128.226 C 133.635 128.226 128.489 125.937 126.773 123.648 C 125.058 121.359 123.341 116.211 122.195 113.925 C 121.049 111.636 119.906 108.205 117.618 107.059 C 116.168 106.336 114.494 108.361 113.459 109.946 C 112.861 110.862 112.472 111.637 112.472 111.637 L 105.606 111.637 L 100.454 112.207 L 93.02 118.499 L 84.439 116.781 L 83.864 120.784 L 67.85 119.642 L 67.177 119.784 C 62.221 126.498 57.677 133.53 53.522 140.812 C 54.3 140.917 55.077 140.998 55.838 140.998 C 58.316 140.998 58.699 139.284 63.465 138.899 C 68.236 138.52 70.143 138.328 70.143 138.328 C 70.143 138.328 72.81 138.71 74.91 139.856 C 77.006 140.998 77.006 140.998 79.487 141.381 C 81.965 141.763 83.3 142.524 85.207 142.909 C 87.114 143.291 90.735 144.24 90.735 144.24 C 90.735 144.24 95.119 144.815 95.691 145.197 C 96.262 145.576 97.408 146.34 97.408 146.911 C 97.408 147.482 97.98 147.865 96.455 147.865 C 94.929 147.865 93.215 148.054 92.262 147.676 C 91.309 147.294 89.209 146.722 87.114 145.962 C 85.014 145.198 82.343 144.819 81.011 144.627 C 79.676 144.438 78.533 144.244 77.39 144.055 C 76.244 143.863 75.484 143.101 74.337 143.673 C 73.191 144.244 71.095 145.962 71.095 145.962 C 71.095 145.962 68.046 147.487 66.9 147.294 C 65.757 147.105 59.276 145.768 59.276 145.768 C 59.276 145.768 58.89 146.532 53.362 146.532 C 52.169 146.532 51.222 146.472 50.431 146.387 C 47.815 151.302 45.39 156.337 43.155 161.472 C 49.335 169.722 56.04 178.742 62.811 187.958 C 67.419 187.724 97.063 187.017 116.982 205.152 C 122.297 209.99 126.929 216.15 130.198 224.041 C 130.198 224.041 130.107 224.261 129.988 224.649 C 132.264 222.54 136.497 220.758 141.257 218.605 C 147.167 215.934 150.03 219.94 151.173 215.173 C 152.315 210.406 150.03 209.263 152.508 209.453 C 154.986 209.642 156.7 208.499 157.275 206.592 C 157.85 204.689 157.464 204.689 157.657 203.732 C 157.85 202.782 157.657 203.543 160.518 202.782 C 163.375 202.019 161.468 202.401 160.325 200.302 Z M 83.1 158.545 C 81.957 157.402 69.752 152.631 69.752 152.631 C 69.559 150.724 74.137 152.631 75.283 152.824 C 76.426 153.013 80.429 154.73 81.957 155.494 C 83.486 156.259 84.246 159.691 83.1 158.545 Z M 124.667 148.25 C 123.903 148.632 122.568 148.632 121.235 148.632 C 119.9 148.632 120.092 148.44 117.614 149.015 C 115.136 149.586 114.561 149.969 113.23 150.54 C 111.894 151.111 112.658 151.875 109.798 151.875 C 106.935 151.875 107.316 151.497 105.22 151.875 C 103.121 152.258 102.167 152.639 100.45 152.639 C 98.736 152.639 97.782 152.45 97.018 152.45 C 96.254 152.45 96.254 152.833 93.776 153.214 C 91.298 153.596 91.487 153.597 89.391 153.597 C 87.292 153.597 84.814 152.833 83.671 152.454 C 82.528 152.075 80.047 150.929 79.475 150.547 C 78.904 150.168 76.233 148.069 79.475 148.644 C 80.618 148.847 81.761 149.787 83.478 150.169 C 85.196 150.548 86.72 150.548 87.674 150.548 C 88.628 150.548 91.295 150.741 92.441 150.741 C 93.588 150.741 95.494 149.405 98.351 149.598 C 101.212 149.791 100.451 150.358 101.404 150.741 C 102.358 151.123 102.168 151.505 104.075 150.933 C 105.982 150.358 106.364 149.405 108.46 149.405 C 110.559 149.405 112.084 149.027 113.416 148.645 C 114.751 148.263 117.04 147.12 117.04 147.12 C 117.04 147.12 118.947 146.356 120.09 146.356 C 121.232 146.356 121.996 146.735 122.947 147.12 C 123.907 147.486 125.432 147.869 124.667 148.25 Z M 130.959 140.623 C 129.624 141.191 125.049 141.577 124.289 141.384 C 123.525 141.191 123.143 141.766 120.093 142.526 C 117.044 143.29 111.895 144.626 112.467 143.48 L 118.187 141.191 C 118.187 141.191 122.568 139.477 123.714 139.477 C 124.857 139.477 129.817 140.241 130.388 140.431 C 130.959 140.62 132.295 140.048 130.959 140.623 Z"/>
  <g style="" transform="matrix(0.90407, 0, 0, 0.90407, 25.439835, 32.649246)">
    <path style="fill:#FFFFFD;" d="M79.597,126.39c0-0.632-1.264-1.477-1.9-1.896c-0.632-0.423-5.482-1.058-5.482-1.058 s-4.005-1.051-6.114-1.473c-2.109-0.423-3.586-1.264-6.327-1.69c-2.741-0.423-2.741-0.423-5.063-1.687 c-2.322-1.264-5.273-1.69-5.273-1.69s-2.109,0.213-7.386,0.632c-5.273,0.423-5.695,2.322-8.436,2.322 c-0.841,0-1.698-0.09-2.562-0.206c-0.4,0.703-0.815,1.399-1.208,2.105h8.833c1.055,0-1.477,1.264-4.009,1.264 c-1.903,0-3.927,0.479-6.066,0.894c-0.337,0.625-0.639,1.271-0.972,1.9c0.875,0.093,1.922,0.161,3.242,0.161 c6.114,0,6.541-0.845,6.541-0.845s7.169,1.477,8.433,1.687c1.264,0.213,4.641-1.473,4.641-1.473s2.322-1.9,3.586-2.532 c1.264-0.632,2.109,0.209,3.377,0.423c1.264,0.209,2.528,0.423,4.005,0.632c1.473,0.213,4.428,0.632,6.75,1.477 c2.319,0.841,4.641,1.473,5.695,1.896c1.055,0.419,2.954,0.209,4.637,0.209C80.233,127.445,79.597,127.022,79.597,126.39z"/>
    <path style="fill:#FFFFFD;" d="M130.698,124.012c0.015,0.206,0.03,0.408,0.052,0.583l0.138-0.049 C130.818,124.367,130.777,124.195,130.698,124.012z"/>
    <path style="fill:#FFFFFD;" d="M130.893,124.547l-0.138,0.049c0.135,1.114,0.4,1.66,0.811,2.416 C131.454,126.244,131.233,125.422,130.893,124.547z"/>
    <path style="fill:#FFFFFD;" d="M232.927,272.338c-2.951,0-8.65,0-10.755-0.845c-0.961-0.385-2.902-1.571-4.977-2.857 c-2.468-1.529-5.134-3.205-6.623-3.893c-2.741-1.264-2.109-1.055-5.063-1.896c-2.951-0.845-6.114,1.051-6.114,1.051l-14.973-4.428 c0,0-21.727-8.436-24.042-9.278c-2.322-0.845-10.755-6.75-14.977-8.018c-4.218-1.264-8.65-6.327-11.81-7.378 c-3.164-1.055-9.072-8.859-10.336-11.813c-1.264-2.954,1.9-3.164,3.799-3.164s6.327-2.532,6.327-2.532s1.477,0.423,2.741,1.058 c1.264,0.632,2.109,0.419,4.431,1.264s0.632,0.845,0.632,3.796s2.109,3.164,3.373,4.005c1.264,0.845,3.583,1.055,6.118,1.9 c2.532,0.845,2.322-1.264,3.373-0.845c1.055,0.423,2.741,5.273,2.741,5.273s2.954,2.741,4.428,4.641 c1.473,1.9,1.9,1.264,4.85,2.954c2.954,1.687,1.687-0.632,3.164-1.477c1.477-0.845,1.477-1.9,5.482-4.009 c4.005-2.109,1.055,0.632,2.741,1.9c1.687,1.264,2.954-0.423,6.327-0.423c3.377,0,2.109,0.209,5.909,0.209 c3.799,0,2.319-0.845,2.951,0.423c0.632,1.268,1.058,4.009,5.486,5.695c4.428,1.687,2.109-1.055,3.164-1.477 c1.058-0.419-2.741-2.741-1.055-3.796c1.687-1.055,1.896,0.632,5.063,2.532c3.16,1.9,5.482,2.109,7.591,1.9 c2.109-0.213,3.373-3.586,4.85-4.218c1.477-0.632,3.377-3.796,3.377-3.796l3.164,1.477l2.322-2.741c0,0,0,7.804-0.845,10.123 s-3.373,9.495-3.373,11.178c0,1.687,1.896,4.218,1.477,5.909c-0.423,1.687-2.954,2.319-4.009,3.373 c-1.055,1.055,1.055,4.218,1.055,4.218c0.15,0.127,0.247,0.202,0.381,0.31c2.678,2.218,2.12,0.576,5.74,1.38 c3.796,0.845,2.319-0.209,4.637-0.632c0.733-0.135,1.343-0.426,1.888-0.748c1.178-0.696,1.907-1.571,1.907-1.571 s1.268-1.69,1.477-3.373c0.213-1.69-2.109-1.264-3.164-1.69c-1.055-0.419-1.264-1.687-4.218-2.951s-2.741-3.586-2.741-3.586 s-0.632-3.373-1.896-4.218c-1.264-0.841,1.264-3.796,1.264-3.796l2.109-6.959v-7.801l0.845-4.854l4.637-2.951l-2.954-6.75 c0,0-1.477-3.586-1.477-4.218c0-0.037-0.022-0.086-0.026-0.123c-0.168-0.348-0.337-0.684-0.509-1.025 c-0.288-0.303-0.669-0.538-1.152-0.538c-1.055,0-0.213,1.477-0.213,1.477s-0.845,1.477-2.105,2.741 c-1.268,1.268-5.486-2.741-6.118-3.164c-0.621-0.415-1.653-1.028-3.287-1.653c-0.03-0.011-0.056-0.022-0.086-0.034 c-1.687-0.628-1.687-1.051-3.796-0.419c-2.105,0.632,1.268,1.055,1.268,2.528c0,1.477-6.118-1.051-6.118-1.051 s-4.428-2.745-6.537-4.854s1.477-4.005,1.477-4.005l-6.114-4.218c-5.482,0.845-8.014-2.322-8.014-2.322l2.109-3.164 c0,0-10.127,0-10.755-0.209c-0.632-0.213-4.009-3.586-4.009-3.586s-1.687-1.687-3.377-2.954c-1.687-1.264-3.16-2.954-4.846-4.005 c-1.687-1.058-4.218-5.063-5.695-7.804s-5.905-10.964-7.169-13.919s-3.586-6.114-3.586-6.114l3.799-4.641l2.532-2.532 c0,0-4.641-0.419-5.695-1.051c-1.055-0.632-1.264-2.326-1.264-2.326s1.687-1.473,3.586-1.896c1.896-0.423,1.896-0.845,2.109-2.322 c0.209-1.477-5.909-1.9-5.909-1.9l-2.532-2.319l-2.109-2.322c0,0,0-2.951,0.213-3.796c0.213-0.841,0-1.896-0.632-2.105 c-0.628-0.213-2.737-0.845-3.373-1.268c-0.632-0.419-2.319-0.845-2.319-0.845c-0.423,1.477-2.741,0-2.741,0 c-2.532-1.477-0.632-1.264-0.632-1.264l-2.274-1.231l-2.812-1.522c0,0.763,0.022,1.335,0.06,1.84 c0.079,0.183,0.12,0.355,0.191,0.535c0.34,0.875,0.561,1.698,0.673,2.461c0.333,0.613,0.755,1.372,1.286,2.756 c0,0,2.954-0.423,4.323,1.896c0.352,0.591-2.21,3.366-3.014,4.772c-0.176,0.31-0.299,0.576-0.251,0.711 c1.791,5.482,6.858,12.127,7.909,14.132c0.711,1.354,1.436,2.786,2.139,4.188c0.322,0.647,0.636,1.286,0.942,1.911 c1.2,2.446,2.24,4.637,2.823,5.92c1.055,2.319,2.319,3.796,3.164,6.118c0.845,2.319,2.741,4.641,2.741,6.75 c0,2.105-5.695,6.959-4.431,9.278c1.264,2.322,3.373,1.896,0.209,2.745c-3.164,0.841-2.951,0-3.164,1.051 c-0.213,1.055,0.213,1.055-0.423,3.164c-0.632,2.109-2.532,3.373-5.273,3.164s-0.209,1.055-1.477,6.327 c-1.264,5.273-4.431,0.845-10.968,3.796c-5.269,2.378-9.947,4.353-12.464,6.686c-0.284,0.942-0.703,2.861-0.497,5.572 c0.385,5.063,2.965,12.838,12.752,21.914c0,0,2.038,1.395,4.637,4.293c1.492,1.23,2.648,2.072,3.171,2.244 c2.528,0.841,2.951,0,6.959,0.209c4.005,0.209,9.91,4.431,13.496,5.695c3.586,1.268,18.986,14.341,18.986,14.341 s5.269,0.632,6.537,0.632c0.804,0,1.578,0.411,2.109,1.361c0.307,0.546,0.553,1.223,0.632,2.225 c0.209,2.741,1.055,2.319,3.796,5.06c2.741,2.745,1.687,0,3.373,0.845c1.69,0.845,1.687,2.532-0.845,5.695 c-0.123,0.157-0.206,0.243-0.31,0.374c-0.262,0.314-0.486,0.58-0.666,0.778c1.78,0.15,3.53,0.322,5.194,0.531 c15.186,1.896,29.105-1.896,39.864-6.327c0.06-0.022,0.105-0.049,0.161-0.075c0.606-0.86,1.212-1.817,1.945-2.879 C238.832,272.129,235.881,272.338,232.927,272.338z"/>
  </g>
  <path style="fill: rgb(51, 53, 52);" d="M 154.831 275.515 C 153.651 264.636 148.857 257.4 145.257 253.381 C 142.911 250.761 141.065 249.5 141.065 249.5 C 132.221 241.294 129.884 234.269 129.536 229.688 C 129.35 227.237 129.729 225.506 129.986 224.65 C 130.104 224.262 130.195 224.042 130.195 224.042 C 126.926 216.151 122.295 209.991 116.98 205.153 C 97.057 187.018 67.417 187.724 62.809 187.959 C 66.068 192.394 66.808 197.929 70.044 202.385 C 80.785 217.183 90.536 235.233 98.5 247.181 C 98.5 247.181 104.467 249.915 107.517 256.478 C 111.472 258.639 121.872 259.17 131.169 264.315 C 137.431 267.776 144.361 271.638 151.268 275.519 C 152.509 276.215 153.743 276.912 154.977 277.608 C 154.929 276.908 154.905 276.188 154.831 275.515 Z"/>
  <path style="fill: rgb(53, 76, 60);" d="M 190.584 298.691 C 188.139 298.691 168.523 288.396 168.523 288.396 C 168.523 288.396 170.521 288.338 173.672 288.315 C 168.003 285.005 161.566 281.334 154.97 277.608 C 153.736 276.912 152.502 276.215 151.261 275.519 C 144.354 271.638 137.423 267.776 131.162 264.315 C 121.864 259.169 114.088 254.912 110.133 252.752 C 110.339 253.192 110.566 253.608 110.745 254.078 C 110.745 254.078 111.293 255.714 112.216 258.274 C 113.741 262.493 116.303 269.241 119.221 275.52 C 119.998 277.197 120.799 278.839 121.615 280.388 C 127.335 291.258 138.205 295.835 139.919 302.126 C 140.172 303.056 140.422 303.935 140.673 304.781 C 153.54 302.664 165.951 301.298 175.282 300.457 C 185.019 299.578 191.402 299.267 191.402 299.267 C 191.165 299.09 190.868 298.887 190.584 298.691 Z"/>
  <path style="fill: rgb(9, 9, 9);" d="M 140.675 304.776 C 140.425 303.931 140.175 303.052 139.921 302.122 C 138.207 295.833 127.338 291.252 121.618 280.384 C 120.803 278.835 120.001 277.192 119.224 275.515 C 116.309 269.237 113.743 262.486 112.219 258.269 C 111.296 255.71 110.748 254.073 110.748 254.073 C 110.569 253.603 110.342 253.191 110.136 252.748 C 107.09 246.185 101.6 242.632 101.6 242.632 C 93.635 230.684 83.316 216.117 72.575 201.318 C 69.34 196.862 66.071 192.386 62.808 187.953 C 56.036 178.737 49.328 169.717 43.151 161.468 C 42.796 162.286 42.421 163.087 42.077 163.912 C 32.032 187.821 26.261 213.952 25.578 241.35 L 80.186 280.142 L 129.772 308.315 L 141.068 312.419 L 143.353 312.991 C 143.353 312.992 142.106 309.652 140.675 304.776 Z"/>
  <g style="" transform="matrix(0.90407, 0, 0, 0.90407, 25.439835, 32.649246)">
    <path style="fill:#1E201F;" d="M15.044,319.969c0.079,0.206,0.161,0.408,0.239,0.613c2.715-0.232,5.478-0.467,8.321-0.718 C20.702,319.898,17.845,319.932,15.044,319.969z"/>
    <path style="fill:#1E201F;" d="M 117.142 302.838 L 107.225 296.735 L 61.565 268.636 L 0.153 230.848 C 0.105 232.848 0 234.83 0 236.842 C 0 247.631 -12.813 259.864 -15.722 269.95 C -18.968 281.205 -19.136 289.765 -20.089 300.249 C -20.798 308.048 -21.493 317.059 -19.029 323.626 C -16.224 323.592 20.699 319.895 23.601 319.858 C 63.798 316.302 114.761 310.868 125.706 309.69 C 127.09 309.54 127.89 309.454 127.89 309.454 L 117.142 302.838 Z"/>
  </g>
  <g style="" transform="matrix(0.90407, 0, 0, 0.90407, 25.439835, 32.649246)">
    <path style="fill:#272D17;" d="M234.827,277.82c0.049-0.015,0.108-0.049,0.157-0.067l0.004-0.004 C234.931,277.772,234.886,277.798,234.827,277.82z"/>
    <path style="fill:#272D17;" d="M163.965,282.794c-3.485,0.026-5.695,0.09-5.695,0.09c2.016,0.153,4.181,0.247,6.402,0.325 C164.437,283.067,164.205,282.932,163.965,282.794z"/>
  </g>
  <g style="" transform="matrix(0.90407, 0, 0, 0.90407, 25.439835, 32.649246)">
    <path style="fill:#2F381C;" d="M328.185,293.613c1.395,0.015,2.184,0.026,2.184,0.026S329.434,293.123,328.185,293.613z"/>
    <path style="fill:#2F381C;" d="M 462.234 241.999 C 457.257 243.472 452.246 244.052 447.414 245.578 C 431.308 250.653 417.281 255.484 413.889 256.617 C 411.051 257.563 398.938 262.219 384.881 267.679 C 361.31 276.833 332.273 289.211 332.273 289.211 C 332.273 289.211 329.678 290.539 327.273 293.601 C 326.712 294.315 326.177 295.153 325.669 296.058 C 325.332 296.615 325 297.258 324.678 298.07 C 322.146 304.397 327.21 313.256 327.21 313.256 C 342.957 322.137 432.493 330.789 478.565 332.513 C 483.009 327.863 490.736 322.759 489.852 316.473 C 487.96 303.02 484.24 285.213 481.327 267.104 C 479.892 258.183 473.402 250.573 473.574 241.329 C 473.589 240.465 473.634 239.609 473.641 238.745 C 469.93 239.752 466.093 240.855 462.234 241.999 Z"/>
  </g>
  <path style="fill: rgb(255, 255, 253);" d="M 408.577 140.694 L 408.347 139.081 C 408.347 139.081 404.033 137.093 401.745 136.9 C 399.456 136.711 398.313 137.854 397.549 138.236 C 396.785 138.614 395.646 139.189 394.499 139 C 393.357 138.807 387.254 143.956 383.441 145.481 C 379.628 147.006 372.954 150.437 371.24 150.437 C 369.522 150.437 366.091 150.248 363.613 151.391 C 361.131 152.537 349.501 156.539 347.595 157.875 C 345.688 159.21 340.732 163.595 331.958 164.738 C 326.755 165.417 314.871 167.875 304.516 167.963 C 304.323 167.963 304.12 167.98 303.931 167.98 C 298.325 167.98 303.295 184.218 306.233 187.995 C 306.233 187.995 315.673 190.568 321.68 186.281 C 327.688 181.987 319.962 183.704 327.688 181.987 C 335.409 180.269 340.559 182.846 340.559 182.846 C 340.559 182.846 349.143 189.713 354.292 185.423 C 359.438 181.129 362.872 177.697 366.307 175.124 C 369.739 172.548 380.892 163.967 380.892 163.967 C 380.892 163.967 380.892 162.253 389.476 156.242 C 398.061 150.238 405.779 150.238 405.779 150.238 L 409.213 145.089 L 408.577 140.694 Z"/>
  <g/>
  <g/>
  <g/>
  <g/>
  <g/>
  <g/>
  <g/>
  <g/>
  <g/>
  <g/>
  <g/>
  <g/>
  <g/>
  <g/>
  <g/>
</svg>