<?xml version="1.0" encoding="UTF-8"?>
<svg width="700pt" height="700pt" version="1.1" viewBox="0 0 700 700" xmlns="http://www.w3.org/2000/svg"
  xmlns:xlink="http://www.w3.org/1999/xlink">
  <g>
    <path
      d="m350 28c-48.934 0-95.867 19.43-130.46 54.031-34.602 34.602-54.043 81.543-54.043 130.47 0.28125 107.12 183.16 319.5 183.16 319.5s186.84-192.37 185.85-319.5c0-48.934-19.441-95.875-54.043-130.47-34.605-34.602-81.531-54.031-130.46-54.031zm0 76.156v0.003906c28.73 0 56.281 11.414 76.598 31.727 20.312 20.316 31.727 47.867 31.727 76.598 0 28.727-11.414 56.281-31.727 76.598-20.316 20.312-47.867 31.727-76.598 31.727s-56.281-11.414-76.598-31.727c-20.312-20.316-31.727-47.871-31.727-76.598 0-28.73 11.414-56.285 31.727-76.598 20.316-20.316 47.867-31.727 76.598-31.73z" />
    <path
      d="m318.33 157.8c-0.050781 0.003907-0.097656 0.007813-0.14453 0.015625l-4.1641 0.66406h-2.293v0.003906c-0.53125 0-0.99219 0.36328-1.1133 0.88281l-0.40234 1.7305c-0.078125-0.09375-0.17578-0.17578-0.28125-0.23828l-1.7031-1.0195v-0.003906c-0.47266-0.28125-1.082-0.1875-1.4453 0.22656l-1.1914 1.3633c-0.24219 0.27734-0.33594 0.65234-0.25391 1.0078l0.42969 1.8438h-0.046875v0.003906c-0.039062-0.003906-0.082031-0.003906-0.12109 0h-3.7422c-0.43359 0-0.82812 0.24219-1.0234 0.62891l-1.1953 2.3867h0.003906c-0.058593 0.11719-0.097656 0.24219-0.11328 0.375l-0.51172 4.2539v-0.003906c-0.03125 0.26172 0.027344 0.52344 0.16797 0.74219l0.69922 1.1211 0.085937 1.2656-4.125 0.82422h-0.003906c-0.54688 0.10938-0.9375 0.59375-0.92188 1.1523 0.015625 0.55469 0.42969 1.0234 0.98047 1.1016l4.5977 0.67969c0.23047 0.035156 0.46875-0.003906 0.67578-0.10938l2.1914-1.0977 4.3867-0.42578 2.6523 3.9766 3.4805 6.6289 3.0195 12.75 0.5 3.3359 0.64844 5.832-4.1602 10.977c-0.042969 0.12109-0.070312 0.25-0.074219 0.37891l-0.17187 6.6367h0.003906c-0.003906 0.12891 0.015625 0.25781 0.054687 0.38281l2.2148 6.8086c0.03125 0.09375 0.074219 0.1875 0.12891 0.27344l3.2188 4.9141 3.6875 6.207 4.0547 9.7969h0.003906c0.066406 0.15625 0.16797 0.29688 0.29297 0.41016l3.2344 2.8945v0.003906c0.40625 0.35938 1.0039 0.38672 1.4414 0.066407 0.43359-0.32031 0.58594-0.90625 0.35938-1.3945l-4.7344-10.312-1.1289-3.7539 1.6016 2 2.6602 7.3125c0.054687 0.14844 0.13672 0.28516 0.24609 0.39844l3.4961 3.6641 3.0625 4.8359 0.64062 3.0312v0.003906c0.058594 0.26953 0.21094 0.50781 0.43359 0.67578l4.082 3.0664c0.0625 0.042969 0.12891 0.085938 0.19922 0.11719l3.2344 1.5312c0.035156 0.019531 0.074219 0.039062 0.11328 0.054688l8.3398 2.8945c0.18359 0.070312 0.38281 0.089843 0.57812 0.058593l5.0625-0.92187 3.4961 3.1914v0.003906c0.20703 0.18359 0.46875 0.28906 0.74609 0.29688l7.25 0.16406 4.6289 3.9844h-0.003906c0.10547 0.085938 0.22266 0.15625 0.35156 0.20703l5.1055 1.8711c0.125 0.046874 0.26172 0.070312 0.39453 0.070312h2.7227c0.39844 0 0.76562-0.20312 0.97266-0.54297l1.0273-1.668h2.9375c0.32031 0 0.62891-0.13672 0.84766-0.375 0.21484-0.23828 0.32031-0.55859 0.28906-0.87891l-0.17188-1.7031c-0.058594-0.58594-0.55078-1.0273-1.1367-1.0273h-2.043c-0.12891 0-0.26172 0.023437-0.38281 0.066406 0 0-1.1836 0.42578-2.4453 0.84375-0.63281 0.21094-1.2812 0.42188-1.8008 0.57031-0.25781 0.078125-0.48828 0.14062-0.64844 0.17969-0.125 0.054687-0.14063 0-0.125 0.054687h-0.039063 0.039063c-0.011719 0-0.13281-0.054687-0.24609-0.15234-0.16016-0.13281-0.26562-0.26172-0.26562-0.26172-0.035157-0.039063-0.070313-0.078125-0.10938-0.11719l-2.375-2.2344 1.3203-4.2578v0.003906c0.10938-0.35938 0.039063-0.74609-0.19141-1.043l-1.875-2.3867v0.003907c-0.34375-0.4375-0.94922-0.56641-1.4375-0.30469l-4.4883 2.4062-1.5781-0.074219 0.23828-0.35156c0.070313-0.10547 0.12109-0.21875 0.15234-0.33984l0.85156-3.2344c0.007813-0.039062 0.015625-0.078125 0.023438-0.11719l0.67969-4.4219v-0.003907c0.066406-0.42187-0.10938-0.84375-0.45312-1.0938-0.34375-0.25391-0.80078-0.29297-1.1836-0.10156l-1.2461 0.62109-4.8086 1.1602c-0.34375 0.085938-0.62891 0.32422-0.77344 0.64453l-1.3945 3.1016-1.9922 1.332h-2.2461l-3.5391-3.5391-1.3906-4.9414 0.77344-6.3477 3.4375-3.2891 7.2539-2.418 6.9375-0.16406 3.0352 0.14062 1.5742 3.1445-0.003906 0.003907c0.054687 0.10938 0.12891 0.20703 0.21484 0.29297l2.043 2.043v0.003906c0.09375 0.09375 0.20703 0.17188 0.32812 0.22656l2.2109 1.0195c0.29297 0.13672 0.625 0.14453 0.92188 0.019532s0.52734-0.36719 0.63281-0.66797l0.85156-2.3867c0.11719-0.32812 0.078125-0.69141-0.10938-0.98828l-4.5195-7.168 4.6328-6.1797h0.003906c0.0625-0.085937 0.11719-0.17969 0.15234-0.28125l1.3594-3.5742 0.003907 0.003906c0.10156-0.26953 0.10156-0.57031-0.007813-0.83984l-1.2266-3 1.1016-0.99219v-0.003907c0.1875-0.16797 0.31641-0.39844 0.35938-0.64844l0.94922-5.3828 3.0898-2.6289h0.003907c0.30469-0.26172 0.44922-0.66016 0.38672-1.0586l-0.28125-1.6758 1.2852-2.5664 1.3867-1.3867 0.26563 0.44922h0.003906c0.21484 0.35938 0.61328 0.57422 1.0312 0.55469 0.41797-0.019531 0.79297-0.26953 0.97656-0.64844l2.3828-4.9336c0.17188-0.35547 0.14844-0.77344-0.058594-1.1055-0.21094-0.33203-0.57422-0.53516-0.96875-0.53516h-0.93359l-3.3711-1.6211v-1.3203c0-0.33594-0.14844-0.65625-0.40625-0.87109-0.25391-0.21875-0.59375-0.3125-0.92578-0.25781l-1.4023 0.23438 4.8711-2.707c0.28125-0.15625 0.48828-0.42969 0.55859-0.75l0.59375-2.6719 0.53516-0.42969v0.003906c0.26953-0.21875 0.42969-0.54688 0.42969-0.89453v-2.043 0.003907c0-0.17969-0.042969-0.35156-0.12109-0.51172l-0.85156-1.7031h0.003906c-0.16406-0.32031-0.46484-0.54688-0.82031-0.61328l-7.1328-1.2969c-0.19141-0.18359-0.84375-0.80859-1.6758-1.7148-0.47266-0.51562-0.94531-1.0586-1.2695-1.4961-0.16406-0.21875-0.28906-0.41406-0.35547-0.53516-0.066407-0.125-0.035157-0.19531-0.035157 0.039062 0-0.39844-0.20312-0.87891-0.51172-1.1484-0.30469-0.26953-0.62109-0.35938-0.88281-0.40625-0.52734-0.09375-0.96484-0.027344-1.3906 0.050781-0.85156 0.15234-1.6289 0.42969-1.6289 0.42969-0.43359 0.15625-0.73438 0.55469-0.76172 1.0156l-0.10938 2.0898-0.91016-0.050781-0.10156-1.543c-0.027344-0.41406-0.28125-0.78516-0.66016-0.96094l-4.7656-2.2109c-0.13672-0.0625-0.28125-0.097656-0.42969-0.10547l-3.7422-0.17187c-0.34375-0.015626-0.67188 0.125-0.90234 0.375-0.22656 0.25391-0.33203 0.59766-0.28125 0.9375l0.51172 3.4062v-0.003907c0.015625 0.10938 0.050781 0.21875 0.097656 0.31641l1.3594 2.8906v0.003907c0.023438 0.050781 0.050782 0.10156 0.082032 0.14844l1.0039 1.5 1.6992 2.9375v0.52734l-0.41797 1.2617-0.97266 1.7852h-0.003907c-0.20312 0.37109-0.18359 0.82422 0.054688 1.1797l0.33594 0.50391 1.8398 2.832-0.39062 0.71875-0.58203-0.23047-1.9883-1.707-0.92187-2.9219c-0.16406-0.52734-0.68359-0.85938-1.2305-0.79297l-2.3594 0.29297-5.9766-3.2305v0.003906c-0.14062-0.074218-0.29688-0.12109-0.45703-0.13281l-1.793-0.14062-1.6133-1.6133-0.65625-1.3125 8.6953-14.266c0.23438-0.38672 0.22266-0.875-0.035156-1.2461l-1.8711-2.7227v0.003906c-0.17969-0.26562-0.46094-0.44141-0.77734-0.48438l-2.3867-0.33984c-0.22656-0.035156-0.46094 0.003906-0.67188 0.10938l-1.6406 0.82031-1.5664-3.6562h0.003906c-0.12891-0.30469-0.38672-0.53516-0.69922-0.63672s-0.65625-0.0625-0.9375 0.10938l-2.5508 1.5312h-0.003906c-0.48047 0.28516-0.67969 0.88281-0.47266 1.4023l0.81641 2.043c-0.53906-0.13281-1.0977 0.14453-1.3164 0.65625l-0.62109 1.4531-1.8242-0.53906-2.293-1.1445c-0.29297-0.14453-0.63281-0.16016-0.9375-0.035156-0.30078 0.12109-0.53906 0.36719-0.64844 0.67578l-0.47266 1.332-2.2891-0.76562-3.0586-2.7344-0.003906-0.003906c-0.035156-0.027344-0.070312-0.058594-0.10547-0.082032l-5.6172-3.918c-0.19141-0.13281-0.42188-0.20703-0.65234-0.20703h-4.7539l-0.23828-2.375c-0.042968-0.39453-0.28516-0.74219-0.64062-0.91406l-3.875-1.8672 0.26172-2.6094h-0.003906c0.042969-0.42969-0.16016-0.84375-0.52344-1.0742l-1.8711-1.1914c-0.19531-0.125-0.42188-0.1875-0.64844-0.17969z"
      fill-rule="evenodd" />
    <path
      d="m384.62 279.64-0.33594 0.54688h-1.6133c0.0625 0 0.14844 0 0.22266-0.054688 0.22656-0.054687 0.48438-0.12891 0.76562-0.20703 0.28906-0.085937 0.63672-0.20312 0.96094-0.30859z"
      fill-rule="evenodd" />
    <path
      d="m365.52 142.48c-0.066406 0-0.13672 0.007812-0.20312 0.019531l-4.7656 0.85156v-0.003906c-0.48438 0.089844-0.85547 0.47266-0.92969 0.95703l-0.85156 5.6172h0.003907c-0.007813 0.035156-0.011719 0.066406-0.015626 0.10156 0 0-0.085937 1.4492-0.17187 3.0039-0.085938 1.5547-0.17188 3.1211-0.17188 3.6992 0 0.82031 0.37891 1.1602 0.70313 1.5312 0.32031 0.37109 0.69531 0.71484 1.0625 1.0234 0.73437 0.62109 1.4531 1.1094 1.4531 1.1094l0.003907 0.003906c0.32812 0.22656 0.75 0.26562 1.1133 0.10156l2.5234-1.1367 1.8477 2.7695v0.003906c0.1875 0.27734 0.48438 0.45703 0.81641 0.49609l6.8203 0.79297 5.832 8.1016 0.003906 0.003906c0.12109 0.17188 0.29297 0.30469 0.49219 0.38672l9.5312 3.918h-0.003907c0.5 0.20312 1.0703 0.035157 1.375-0.40625l1.5312-2.2109v-0.003906c0.23438-0.33594 0.26953-0.76953 0.09375-1.1367l-4.1562-8.8125-0.33203-8.7852c-0.011719-0.39062-0.22656-0.75-0.56641-0.94531l-8.5117-4.9375c-0.039063-0.023438-0.082031-0.042969-0.125-0.058594l-13.957-5.957v-0.003906c-0.14062-0.058594-0.29297-0.089844-0.44531-0.089844z"
      fill-rule="evenodd" />
    <path
      d="m365.49 162.23c-0.042969 0.003907-0.085938 0.007813-0.12891 0.015626l-7.5078 1.0039-2.4023-0.32031c-0.44141-0.058593-0.87891 0.14844-1.1172 0.52734-0.23828 0.37891-0.23047 0.86328 0.019531 1.2383l2.0039 3.0039 1.332 2.6602h-0.003906c0.23438 0.46484 0.75 0.71484 1.2578 0.60547l3.0117-0.63281 3.543 0.65234 0.24609 2.2227v0.003906c0.019531 0.18359 0.085937 0.35938 0.19141 0.51562l2.5508 3.7422c0.16797 0.25 0.42969 0.42188 0.72656 0.48047l6.1289 1.1914c0.50391 0.097656 1.0078-0.15234 1.2383-0.60938l1.0195-2.043c0.26563-0.53125 0.082032-1.1758-0.42578-1.4844l-2.3594-1.4414 0.66016-2.7695h0.003907c0.10156-0.42578-0.050781-0.875-0.39453-1.1523l-8.8516-7.1484c-0.21094-0.17188-0.47266-0.25781-0.74219-0.25391z"
      fill-rule="evenodd" />
    <path
      d="m351.39 144.44c-0.17969 0.015625-0.35547 0.070313-0.51172 0.16797l-7.4883 4.5977c-0.33594 0.20312-0.54297 0.57031-0.54297 0.96094-0.003906 0.39453 0.19531 0.76172 0.52734 0.97266l3.2344 2.043c0.027344 0.019531 0.054687 0.03125 0.078125 0.046875l-0.097656 1.4688h0.003906c-0.03125 0.42578 0.18359 0.83203 0.54688 1.0508l5.957 3.5742h0.003906c0.30859 0.1875 0.6875 0.21484 1.0234 0.078125 0.33203-0.14062 0.58203-0.42969 0.67188-0.78125l1.0195-4.082c0.015625-0.058593 0.023438-0.11719 0.03125-0.17969l0.51172-5.957h-0.003906c0.035156-0.39844-0.14062-0.78516-0.46484-1.0195l-3.7461-2.7266c-0.18359-0.13281-0.40625-0.21094-0.63672-0.21484-0.039062-0.003906-0.078124-0.003906-0.11719 0z"
      fill-rule="evenodd" />
    <path
      d="m337.04 161.04c-0.28516 0.015625-0.55469 0.13281-0.75391 0.33594l-1.5312 1.5312c-0.13672 0.13281-0.23828 0.30078-0.28906 0.48438l-0.85156 2.8906v0.003906c-0.10547 0.36328-0.027343 0.75391 0.21484 1.0469 0.23828 0.28906 0.60938 0.44531 0.98438 0.41016 0 0 1.957-0.16406 2.4492-0.16406 0.23047 0 0.42188-0.039063 0.61719-0.078125l0.11719 3.2344-0.003906-0.003907c0.019531 0.47656 0.32812 0.89063 0.78125 1.043l3.0664 1.0195-0.003906 0.003907c0.11719 0.039062 0.23828 0.058593 0.36328 0.058593h3.2344-0.003906c0.22656 0 0.44922-0.066406 0.63672-0.19141l1.0195-0.67969c0.28516-0.19141 0.46875-0.5 0.50391-0.83984l0.33984-3.4023c0.027343-0.26172-0.039063-0.52734-0.1875-0.74609l-2.043-3.0625h0.003906c-0.16406-0.24609-0.41406-0.41797-0.70312-0.48438l-2.9883-0.66406-4.5234-1.6758c-0.14453-0.050781-0.29688-0.074219-0.44922-0.070313z"
      fill-rule="evenodd" />
    <path
      d="m341.52 155.76c-0.49219-0.003906-0.93359 0.3125-1.0898 0.78125 0 0-0.21484 0.64453-0.45312 1.4023-0.23828 0.75391-0.49219 1.5742-0.60547 2.1406-0.10156 0.51562 0.13281 1.0117 0.35938 1.2773s0.45703 0.41016 0.69141 0.53906c0.46484 0.26172 0.96484 0.43359 1.4648 0.58203 0.99609 0.30078 1.9766 0.47656 1.9766 0.47656v0.003907c0.24219 0.042968 0.49219 0.007812 0.71484-0.10547l1.7031-0.85156-0.003906 0.003906c0.40625-0.20703 0.65234-0.62891 0.62891-1.082l-0.17188-3.2344h0.003907c-0.027344-0.51562-0.39844-0.94922-0.90625-1.0586l-4.0859-0.85156v0.003906c-0.074219-0.015625-0.14844-0.023437-0.22656-0.023437z"
      fill-rule="evenodd" />
    <path
      d="m383.17 254.91c-0.085938 0.003906-0.17578 0.019532-0.26172 0.046875l-4.1719 1.1914v-0.003907c-0.53516 0.15234-0.88672 0.66406-0.82812 1.2188 0.058594 0.55469 0.50391 0.98438 1.0625 1.0234l5.8242 0.41797 4.2148 1.3203-0.003906-0.003906c0.027344 0.011718 0.054688 0.019531 0.082032 0.023437l7.6602 1.7852v0.003906c0.29297 0.066406 0.59766 0.015625 0.85547-0.13672l3.793-2.3125c0.13672-0.039063 0.86719-0.25391 1.6523-0.51562 0.42969-0.14453 0.82031-0.27734 1.1406-0.42188 0.082031-0.035156 0.15625-0.070313 0.25-0.125s0.19922-0.050781 0.43359-0.39062c0.11719-0.17188 0.30078-0.57812 0.14844-1.0312-0.14844-0.44922-0.48438-0.63672-0.65625-0.70703-0.34375-0.14453-0.43359-0.10156-0.55078-0.10156-0.12109 0-1.5273-0.16016-2.7148-0.32812-0.59375-0.085937-1.1719-0.16797-1.6289-0.23438-0.23047-0.035156-0.42578-0.0625-0.58594-0.082031-0.16016-0.023437-0.20312-0.039063-0.43359-0.039063-0.25781 0-0.28906 0.023438-0.45703 0.042969-0.16406 0.023438-0.37109 0.054688-0.60547 0.089844-0.47266 0.074219-1.0625 0.17578-1.6602 0.27734-1.1953 0.20312-2.4336 0.41797-2.6602 0.45703 0.37109-0.0625 0.085938-0.015625-0.11328-0.039062-0.19922-0.023438-0.48047-0.066407-0.8125-0.125-0.66016-0.11328-1.5117-0.27344-2.3477-0.4375-1.6719-0.32813-3.2812-0.66797-3.2812-0.66797h0.007812c-0.058593-0.011719-0.11328-0.019531-0.17188-0.023438l-3.0625-0.17188v0.003906c-0.039062-0.003906-0.078125-0.003906-0.11719 0z"
      fill-rule="evenodd" />
    <use x="70" y="644" xlink:href="#w" />
    <use x="90.550781" y="644" xlink:href="#d" />
    <use x="104.359375" y="644" xlink:href="#a" />
    <use x="123.347656" y="644" xlink:href="#c" />
    <use x="142.242188" y="644" xlink:href="#b" />
    <use x="155.628906" y="644" xlink:href="#a" />
    <use x="174.617188" y="644" xlink:href="#l" />
    <use x="204.410156" y="644" xlink:href="#k" />
    <use x="224.453125" y="644" xlink:href="#j" />
    <use x="252.453125" y="644" xlink:href="#h" />
    <use x="282.71875" y="644" xlink:href="#v" />
    <use x="301.820312" y="644" xlink:href="#g" />
    <use x="321.753906" y="644" xlink:href="#c" />
    <use x="340.648438" y="644" xlink:href="#f" />
    <use x="360.582031" y="644" xlink:href="#i" />
    <use x="380.625" y="644" xlink:href="#c" />
    <use x="409.265625" y="644" xlink:href="#u" />
    <use x="430.9375" y="644" xlink:href="#t" />
    <use x="440.535156" y="644" xlink:href="#i" />
    <use x="460.578125" y="644" xlink:href="#f" />
    <use x="480.511719" y="644" xlink:href="#a" />
    <use x="499.5" y="644" xlink:href="#s" />
    <use x="516.167969" y="644" xlink:href="#g" />
    <use x="70" y="672" xlink:href="#r" />
    <use x="82.183594" y="672" xlink:href="#d" />
    <use x="95.992188" y="672" xlink:href="#e" />
    <use x="115.226562" y="672" xlink:href="#q" />
    <use x="154.152344" y="672" xlink:href="#b" />
    <use x="167.535156" y="672" xlink:href="#g" />
    <use x="187.46875" y="672" xlink:href="#a" />
    <use x="216.207031" y="672" xlink:href="#p" />
    <use x="239.640625" y="672" xlink:href="#e" />
    <use x="258.878906" y="672" xlink:href="#o" />
    <use x="278.8125" y="672" xlink:href="#f" />
    <use x="308.492188" y="672" xlink:href="#h" />
    <use x="329.015625" y="672" xlink:href="#d" />
    <use x="342.820312" y="672" xlink:href="#e" />
    <use x="362.058594" y="672" xlink:href="#n" />
    <use x="371.65625" y="672" xlink:href="#a" />
    <use x="390.648438" y="672" xlink:href="#m" />
    <use x="407.242188" y="672" xlink:href="#b" />
  </g>
</svg>