<?xml version="1.0" encoding="iso-8859-1"?>
<!-- Generator: Adobe Illustrator 19.0.0, SVG Export Plug-In . SVG Version: 6.00 Build 0)  -->
<svg version="1.1" id="Layer_1" xmlns="http://www.w3.org/2000/svg" xmlns:xlink="http://www.w3.org/1999/xlink" x="0px" y="0px"
	 viewBox="0 0 480 480" style="enable-background:new 0 0 480 480;" xml:space="preserve">
<g>
	<rect x="232" y="436.157" style="fill:#FF9900;" width="16" height="16"/>
	<polygon style="fill:#FF9900;" points="248,396.157 248,420.157 232,420.157 232,348.157 248,348.157 248,380.157 	"/>
</g>
<path style="fill:#FF6600;" d="M160,252.157c0-44,36-80,80-80s80,36,80,80s-36,80-80,80S160,296.157,160,252.157z M168,252.157
	c0,40,32,72,72,72s72-32,72-72s-32-72-72-72S168,212.157,168,252.157z"/>
<g>
	<path style="fill:#E4C6A1;" d="M135.2,380.157H16v-320h24v296c0,4,2.4,7.2,6.4,8L135.2,380.157z"/>
	<path style="fill:#E4C6A1;" d="M464,60.157v320H344.8l88.8-16c4-0.8,6.4-4,6.4-8v-296H464z"/>
</g>
<g>
	<path style="fill:#FFF8EF;" d="M232,59.357v96.8c-48.8,4-88,45.6-88,96c0,44.8,30.4,82.4,72,92.8v33.6l-160-28.8v-320L232,59.357z"
		/>
	<path style="fill:#FFF8EF;" d="M424,29.757v320l-160,28.8v-33.6c41.6-10.4,72-48,72-92.8c0-50.4-38.4-91.2-88-96v-96.8L424,29.757z
		"/>
</g>
<circle style="fill:#D9CDC1;" cx="240" cy="252.157" r="56"/>
<path style="fill:#FFF8EF;" d="M296,252.157c0-5.6-0.8-11.2-2.4-16.8c-10.4-13.6-27.2-23.2-45.6-23.2c-31.2,0-56,24.8-56,56
	c0,5.6,0.8,11.2,2.4,16.8c10.4,14.4,26.4,23.2,45.6,23.2C271.2,308.157,296,283.357,296,252.157z"/>
<g>
	<path style="fill:#42210B;" d="M296,252.157c0-31.2-24.8-56-56-56s-56,24.8-56,56s24.8,56,56,56S296,283.357,296,252.157z
		 M240,324.157c-40,0-72-32-72-72s32-72,72-72s72,32,72,72S280,324.157,240,324.157z"/>
	<path style="fill:#42210B;" d="M424,349.757v-320l-176,29.6v96.8c49.6,4,88,45.6,88,96c0,44.8-30.4,82.4-72,92.8v33.6L424,349.757z
		 M464,380.157v-320h-24v296c0,4-2.4,7.2-6.4,8l-88.8,16H464z M232,452.157h16v-16h-16V452.157z M248,348.157h-16v72h16v-24v-16
		V348.157z M135.2,380.157l-88.8-16c-4-0.8-6.4-4-6.4-8v-296H16v320H135.2z M49.6,12.157l190.4,32l190.4-32c2.4-0.8,4.8,0,6.4,1.6
		c2.4,1.6,3.2,4,3.2,6.4v24h32c4,0,8,3.2,8,8v336c0,4-4,8-8,8H264v64c0,4-4,8-8,8h-32c-4,0-8-4-8-8v-64H8c-4,0-8-4-8-8v-336
		c0-4.8,4-8,8-8h32v-24c0-2.4,0.8-4.8,2.4-6.4C44.8,12.957,47.2,12.157,49.6,12.157z M240,172.157c-44,0-80,36-80,80s36,80,80,80
		s80-36,80-80S284,172.157,240,172.157z M216,344.957c-41.6-10.4-72-48-72-92.8c0-50.4,39.2-91.2,88-96v-96.8l-176-29.6v320
		l160,28.8V344.957z"/>
</g>
<g>
	<path style="fill:#D9CDC1;" d="M232,60.157l-130.4-12.8c-16-1.6-29.6,10.4-29.6,26.4v239.2c0,11.2,7.2,21.6,18.4,25.6l125.6,41.6
		l-160-32v-320L232,60.157z"/>
	<path style="fill:#D9CDC1;" d="M248,60.157l130.4-12.8c16-1.6,29.6,10.4,29.6,26.4v239.2c0,11.2-7.2,21.6-18.4,25.6l-125.6,41.6
		l160-32v-320L248,60.157z"/>
</g>
<g>
</g>
<g>
</g>
<g>
</g>
<g>
</g>
<g>
</g>
<g>
</g>
<g>
</g>
<g>
</g>
<g>
</g>
<g>
</g>
<g>
</g>
<g>
</g>
<g>
</g>
<g>
</g>
<g>
</g>
</svg>
