<?xml version="1.0" encoding="utf-8"?>
<!-- Svg Vector Icons : http://www.onlinewebfonts.com/icon -->
<!DOCTYPE svg PUBLIC "-//W3C//DTD SVG 1.1//EN" "http://www.w3.org/Graphics/SVG/1.1/DTD/svg11.dtd">
<svg fill="white" version="1.1" xmlns="http://www.w3.org/2000/svg" xmlns:xlink="http://www.w3.org/1999/xlink" x="0px" y="0px" viewBox="0 0 1000 1000" enable-background="new 0 0 1000 1000" xml:space="preserve">
<metadata> Svg Vector Icons : http://www.onlinewebfonts.com/icon </metadata>
<g><g><path d="M854.2,77.3c-17.2-13.7-39.7-10.5-59.7-3.2c6.7-17.5,11.2-37.5,1.7-52.2C786.1,6.3,765,8.8,749.8,14c-19.6,6.8-38.7,19.1-52.9,34.3c-11.5,12.3-23.9,30.8-16.4,48.2c7.9,18.3,32.4,20.9,51.3,20.3c-24.9,59.1-58.4,115.1-95,167.5c-31.9,45.6-80.3,116.4-142,82.6c-52.9-29-94.5-84.3-130.5-131.2c-28.6-37.2-53.6-76.5-79.6-115.4c15.8-1,31.7-11.6,33.2-27.9c1.7-19.4-11.8-38.5-24.7-51.5c-12.8-13-31.3-25.9-50.6-21.2c-17.3,4.2-23.7,21.7-26,39.1c-11.7-13.5-27.1-23.7-45-17c-21.1,7.9-32.6,32.1-38.2,52.3c-5.4,19.2-7.7,45.5,7.2,61.2c19.6,20.7,53.4-3.4,66.6-19.8c42.8,90.7,113.9,164,174.9,242.2c39.9,51.2,90.5,105.8,160.6,79.7c59.3-22.1,101.4-83.8,135-134.1C714,269,742.3,210,776,154.3c10.1,19.9,35.8,36.5,57.9,27.6c19.5-7.8,30.8-28.5,35-48.2C873,114.5,870.8,90.4,854.2,77.3z M851.7,129c-2.9,14.1-10.3,28.9-23,35.2c-4.5,2.3-10.6,2.2-16.3-0.4c-10.3-4.8-16.5-14.6-24.6-22.1c-1.4-1.3-2.9-1.9-4.3-2.2c0.1-8.1-12.4-13.5-17.8-4.8c-61.3,98.9-106.2,225-205.8,293.1c-74.6,51-132.6-20.3-175.5-76.6c-56.8-74.5-118-142.7-167.8-222.7c-2.4-3.9-6.7-3.3-9-0.7c-1.5-1.9-4-2.8-6.8-1.2c-11,6.2-20.6,13.9-32.9,17.4c-6.7,1.9-11,1.1-14.6-2.8c-7.9-8.6-4.9-30.3-2-42.3c3.6-14.9,10.7-33,24.8-40.9c18-10.1,33.9,16.8,40.7,28.9c3.9,7,15.2,3.9,15.1-4.1c-0.2-13.5-1.4-43.8,16.1-48.7c12.5-3.5,27,9.1,34.9,17c9.5,9.5,19.1,23.6,19.5,37.5c0.4,16.9-21.4,12.7-32,15.3c-7.2,1.8-6.4,10.7-0.8,13.7c23.4,53.3,62.4,102.9,97.8,148.4c37.3,48,82.5,104.6,141.3,126.8c54.7,20.7,104-45.1,132.3-81.6c44.5-57.3,81.9-122.7,110-189.5c2.2-5.3-0.5-9.2-4.5-10.8c-0.1-2.4-1.7-4.8-5-5c-12.6-1.1-27-2.5-38.4-8.6c-6.5-3.5-8.2-7.2-7.8-12.6c0.3-4.5,4.8-12.3,9.1-17.6c6.1-7.4,13.6-14.2,21.3-20c13.7-10.2,32.3-21,48.8-19.9c4.4,0.3,7.4,2.4,8.8,7.3c2.7,9.3-1.4,22-4.6,31.5c-2.3,7-5.2,13.7-8.3,20.4c-3.6,7.9,3.8,16,11.9,11.9c15.7-7.9,44.1-21.1,60.4-8C853.7,99.2,854.4,115.7,851.7,129z"/><path d="M497.9,543.9c0.1,1.3,0.1,2.7,0.2,4c0,0.8,1.3,0.8,1.3,0c0.1-1.4,0.1-2.7,0.2-4C499.7,542.8,497.9,542.8,497.9,543.9z"/><path d="M498.8,551.7c-0.4,0-0.4,0.7,0,0.7S499.2,551.7,498.8,551.7z"/><path d="M490.7,527.4c-0.5,0-0.5,0.8,0,0.8C491.2,528.1,491.2,527.4,490.7,527.4z"/><path d="M611,917.7c-7.4-19.3-33.3-20.1-50.6-14.4c3.1-104.3-4.7-209.8-12.3-313.8c13,12.5,36.8,15.6,45.2-3.6c8.2-18.7,3.9-42.5-1.5-61.4c-5.1-17.6-14.5-41.2-33.2-48.2c-21.3-8-35.2,15.2-42.9,32.6c-5.1-10.5-13.1-18.8-26-20c-17.6-1.6-33.2,14.6-42.1,27.8c-9.8,14.6-16.4,35.1-8.6,52c9.3,20,34.1,21.6,53.5,18.1c-12.3,48.9-5.5,102.7-1.8,152c2.2,29.6,4.9,59,5.7,88.7c0.7,24.2-3.5,47.2-5.9,70.8c-17.7-5.2-43.7-4.4-52.2,15c-7.5,17,1.9,36.2,12.4,49.6c10.9,13.9,27.3,26.4,45.8,26.2c14.3-0.1,23.9-9.1,30.2-20.5c5.7,11.2,14.4,20.3,27.9,21.3c18.4,1.4,33.9-12.6,44.3-26.1C608.4,951.7,616.9,933,611,917.7z M585.5,953.9c-6.3,8.7-16.9,18.5-28.2,18.8c-15.5,0.5-19.7-24-21.7-34.8c-1.5-8.6-15.5-8.4-17.1,0c-2.3,11.8-6.7,32.3-21.9,33.2c-12.3,0.7-23.5-9.8-30.8-18.4c-6.5-7.7-13.4-19.6-11.8-30.1c2.2-14.6,24.7-12.9,35.7-13.3c-0.1,0.9-0.1,1.8-0.2,2.7c-0.3,5.3,7.2,7,9.8,2.6c24.2-41.6,13-107.7,9.7-153.1c-4.6-62.3-9.6-122.8-7-185.3c0.1-3.3-4.2-4-5.8-1.6c-0.5-0.1-0.9-0.3-1.4-0.2c-12.5,0.4-35.5,2-40.9-13.2c-4.1-11.4,2.1-25.1,8.1-34.6c5.4-8.7,15.5-20.1,25.8-21c14-1.2,17.7,21.6,19.2,32.4c1.2,8.7,13.8,7.1,16,0c4.2-13.3,9-26.6,17.1-38.1c1.8-2.6,4.2-5,6.6-6.5c1.9-1.2,4.2-1.4,4.3-1.3c4.2,0.7,8.2,4.6,11.6,9.5c4.8,6.8,8,14.6,10.7,22.4c5.1,15,8.9,33.8,5.5,48.8c-0.8,3.7-1,4-2.7,6.7c-0.8,1.2-1,1.3-2.4,1.6c-0.5,0.1,0.3,0.1-2.1-0.1c2.2,0.2-3.2-1.2-2.6-0.9c-4.6-2-8.6-5.1-13.2-7.3c-5.2-2.5-9.7-0.2-11.7,3.6c-2.2-0.4-4.7,0.8-4.9,3.9c-7,110.2,6.2,221.2,3.4,331.7c-0.2,7.8,7.8,10.1,13.1,7.3c1.1,0.5,2.3,0.8,3.8,0.6c8-0.9,31.3-8.3,35.8,3.3C599.1,933.3,591.2,946.1,585.5,953.9z"/></g><g></g><g></g><g></g><g></g><g></g><g></g><g></g><g></g><g></g><g></g><g></g><g></g><g></g><g></g><g></g></g>
</svg>