<?xml version="1.0" encoding="iso-8859-1"?>
<!-- Generator: Adobe Illustrator 16.0.0, SVG Export Plug-In . SVG Version: 6.00 Build 0)  -->
<!DOCTYPE svg PUBLIC "-//W3C//DTD SVG 1.1//EN" "http://www.w3.org/Graphics/SVG/1.1/DTD/svg11.dtd">
<svg fill="white" version="1.1" id="Capa_1" xmlns="http://www.w3.org/2000/svg" xmlns:xlink="http://www.w3.org/1999/xlink" x="0px" y="0px"
	 width="187.685px" height="187.686px" viewBox="0 0 187.685 187.686" style="enable-background:new 0 0 187.685 187.686;"
	 xml:space="preserve">
<g>
	<path d="M135.652,167.357c1.281-3.798-1.22-8.006-3.548-10.797c-2.283-2.735-6.087-5.51-9.846-5.044
		c-4.468,0.555-5.428,5.439-5.524,9.272c-14.655-1.185-29.523-15.016-37.143-26.406c-9.518-14.23-13.351-33.034-12.001-49.931
		c2.102-26.311,14.013-57.896,42.468-63.708c-0.041,3.727,2.139,8.107,4.989,10.042c2.723,1.848,6.401,1.183,8.956-0.6
		c2.584-1.804,4.466-4.886,4.171-8.112c-0.254-2.779-1.959-4.782-4.132-6.217c2.037-0.975,3.691-2.539,3.952-4.993
		c0.334-3.141-1.873-6.123-4.218-7.957c-2.806-2.193-6.244-3.411-9.805-2.708c-3.903,0.77-6.41,4.644-6.923,8.387
		C90.143,7.83,76.174,19.981,67.558,33.495C57.36,49.489,52.968,69.191,51.87,87.916c-1.161,19.815,3.103,40.145,14.577,56.59
		c11.014,15.786,30.722,27.301,49.698,30.189c-2.943,9.048,7.713,16.941,15.743,10.834c5.283-4.02,2.887-9.934-1.51-13.089
		C132.752,171.558,134.75,170.031,135.652,167.357z M123.985,170.268c-2.128,0.078-2.141,3.365,0,3.313
		c4.268-0.102,9.137,3.655,6.785,8.311c-1.58,3.128-6.369,2.818-8.962,1.591c-3.521-1.667-4.244-5.745-3.287-9.114
		c0.124-0.438-0.065-0.823-0.37-1.07c-0.004-0.527-0.298-1.054-0.996-1.306c-18.562-6.704-35.565-12.643-47.789-29.194
		c-11.229-15.206-14.959-34.889-14.223-53.43c0.686-17.294,5.057-34.962,13.362-50.183c8.792-16.114,22.023-25.234,39.909-28.413
		c0.724-0.129,0.89-0.762,0.701-1.307c0.033-0.054,0.078-0.099,0.103-0.159c1.063-2.628,2.229-5.679,5.467-6.071
		c2.402-0.29,4.828,0.851,6.726,2.219c1.525,1.099,3.244,2.952,3.32,4.936c0.099,2.578-3.645,3.241-5.5,3.544
		c-1.729,0.282-1.344,2.631,0,3.119c2.364,0.86,5.428,2.431,5.665,5.285c0.17,2.053-1.19,3.977-2.816,5.092
		c-1.611,1.105-3.588,1.45-5.298,0.389c-3.162-1.962-2.513-6.528-3.791-9.457c-0.299-0.685-1.009-0.827-1.629-0.631
		c-0.112-0.027-0.221-0.063-0.351-0.057c-31.964,1.552-44.669,42-46.787,68.195c-1.491,18.439,4.022,38.494,14.867,53.461
		c7.562,10.436,24.207,25.165,38.505,23.807c0.552,0.23,1.233,0.158,1.675-0.237c0.216-0.041,0.435-0.072,0.65-0.121
		c1.062-0.241,0.845-1.905-0.213-1.918c0.017-2.575,0.349-6.325,3.385-6.422c2.492-0.078,4.899,2.165,6.469,3.837
		c1.815,1.934,3.282,4.55,3.256,7.254C132.777,169.67,126.92,170.16,123.985,170.268z"/>
</g>
<g>
</g>
<g>
</g>
<g>
</g>
<g>
</g>
<g>
</g>
<g>
</g>
<g>
</g>
<g>
</g>
<g>
</g>
<g>
</g>
<g>
</g>
<g>
</g>
<g>
</g>
<g>
</g>
<g>
</g>
</svg>
