<?xml version="1.0" encoding="iso-8859-1"?>
<!-- Generator: Adobe Illustrator 16.0.0, SVG Export Plug-In . SVG Version: 6.00 Build 0)  -->
<!DOCTYPE svg PUBLIC "-//W3C//DTD SVG 1.1//EN" "http://www.w3.org/Graphics/SVG/1.1/DTD/svg11.dtd">
<svg fill="white" version="1.1" id="Capa_1" xmlns="http://www.w3.org/2000/svg"
  xmlns:xlink="http://www.w3.org/1999/xlink" x="0px" y="0px" width="187.381px" height="187.381px"
  viewBox="0 0 187.381 187.381" style="enable-background:new 0 0 187.381 187.381;" xml:space="preserve">
  <g>
    <g>
      <path d="M87.405,152.75c-0.01,0.001-0.019,0.002-0.029,0.003C87.326,152.761,87.325,152.762,87.405,152.75z" />
      <path
        d="M109.94,31.556c-1.043-3.182-3.226-6.697-6.729-7.473c-3.869-0.858-7.016,2.026-9.278,5.085
			c-0.944-1.978-2.43-3.594-4.834-3.791c-2.82-0.232-5.284,2.255-6.665,4.419c-1.53,2.396-2.161,5.442-0.993,8.098
			c1.249,2.84,4.461,3.573,7.348,3.393c-0.843,18.436-0.162,36.966,0.047,55.408c0.108,9.525,0.192,19.051,0.271,28.574
			c0.068,8.301-0.685,17.087,0.293,25.368c-0.147-0.146-0.329-0.258-0.528-0.305c-3.871-0.924-8.934-0.644-11.507,2.919
			c-2.501,3.462-3.104,7.527-0.8,11.253c1.967,3.18,5.922,4.764,9.539,4.37c3.267-0.356,5.623-2.406,7.261-5
			c6.108,8.528,23.419-9.299,8.552-13.378c-0.164-0.045-0.315-0.058-0.462-0.055c-0.999-17.821-0.942-35.68-0.688-53.521
			c0.261-18.288,1.788-37.166,0.369-55.458c2.733,1.732,6.188,2.756,8.473-0.24C111.571,38.649,110.861,34.366,109.94,31.556z
			 M107.2,39.083c-0.406,0.844-0.662,0.958-1.51,0.928c-1.341-0.047-2.967-1.273-4.086-2.13c-0.534-0.409-1.064-0.386-1.482-0.13
			c-0.407-0.03-0.836,0.228-0.891,0.789c-1.812,18.425-1.217,37.409-1.526,55.917c-0.315,18.91-0.286,37.854,0.923,56.734
			c0.062,0.951,0.858,1.402,1.598,1.367c0.152,0.345,0.444,0.64,0.905,0.791c4.576,1.508,4.524,4.77,1.339,7.84
			c-2.947,2.842-6.614,2.772-7.406-1.657c-0.32-1.788-2.635-1.33-3.172,0c-1.32,3.265-3.471,5.99-7.235,6.016
			c-2.574,0.017-4.981-1.938-5.873-4.257c-1.374-3.577,1.574-7.063,4.813-8.038c1.235-0.372,2.523-0.312,3.78-0.501
			c0.246-0.042,1.804-0.304,2.232-0.488c0.221,0.882,1.777,0.863,1.913-0.074c1.165-7.984,0.311-16.546,0.261-24.607
			c-0.058-9.489-0.144-18.979-0.227-28.467C91.387,79.761,91.781,60.337,90.844,41c1.133-0.261,0.841-1.777-0.143-2
			c-0.253-0.785-1.332-0.845-1.702-0.169c-1.865-0.193-3.917-0.641-4.791-2.303c-0.799-1.52,0.027-3.598,0.798-4.94
			c0.748-1.305,2.188-2.94,3.704-3.077c2.09-0.188,2.884,2.98,3.254,4.593c0.312,1.361,2.192,1.494,2.867,0.375
			c1.438-2.382,4.301-6.944,7.543-6.364c2.268,0.406,3.71,3.004,4.447,5.059C107.58,34.286,108.064,37.289,107.2,39.083z" />
    </g>
    <path d="M140.396,7.797c-2.442-3.691-10.571-11.531-14.697-5.72c-1.543,2.173-1.409,5.822-0.794,8.53
		c-2.872-1.724-7.039-1.977-10.166-2.401c-6.197-0.841-12.474-1.066-18.722-1.016c-2.638,0.021-16.407-0.023-21.514,3.025
		c0.182-0.671,0.182-1.445,0.037-2.257c-0.515-2.898-4.604-4.889-7.044-5.672c-3.941-1.265-8.787-0.309-11.202,3.26
		c-2.001,2.958-2.198,6.923-0.111,9.894c1.473,2.098,3.684,2.997,6.045,3.198c-1.709,1.559-2.939,3.504-2.885,5.969
		c0.073,3.431,3.114,6.087,5.964,7.47c2.617,1.271,6.175,1.917,8.728,0.163c2.683-1.843,2.493-5.409,1.523-8.309
		c15.483-5.369,30.455-4.877,46.525-2.615c-1.28,3.051-2.014,6.844,0.705,9.249c2.453,2.17,6.323,1.863,9.193,0.824
		c2.904-1.051,5.994-3.158,6.777-6.328c0.612-2.479-0.532-4.533-2.249-6.139c2.206-0.216,4.288-0.975,5.385-2.923
		C143.375,13.367,141.892,10.06,140.396,7.797z M138.334,15.671c-1.657,0.814-3.991,0.56-5.78,0.372
		c-0.222-0.024-0.441-0.052-0.661-0.083c-1.455-0.204-2.66,1.808-1.092,2.59c2.257,1.126,5.644,3.244,5.154,5.739
		c-0.4,2.044-2.732,3.613-4.721,4.393c-2.051,0.805-4.724,1.349-6.668,0.092c-2.23-1.442-1.321-5.17-0.578-7.493
		c0.807-0.465,1.199-1.653,0.114-2.112c-14.282-6.053-35.109-3.659-49.316,2.893c-0.029-0.06-0.058-0.124-0.088-0.183
		c-0.592-1.153-2.389-0.345-2.056,0.867c0.026,0.098,0.058,0.203,0.089,0.308c-0.059,0.031-0.125,0.058-0.184,0.089
		c-0.885,0.459-0.263,1.986,0.684,1.623c0.002-0.001,0.005-0.002,0.007-0.002c0.547,1.971,0.917,4.277-0.769,5.427
		c-1.764,1.202-4.518,0.286-6.223-0.55c-1.948-0.955-4.049-2.729-4.264-5.033c-0.322-3.451,4.048-5.641,6.586-6.824
		c1.446-0.674,0.408-2.91-1.06-2.515c-4.874,1.31-11.514-0.069-9.555-6.542c0.705-2.329,2.891-3.763,5.223-4.029
		c1.457-0.166,2.902,0.173,4.294,0.564c1.48,0.417,2.871,1.46,3.976,2.483c1.579,1.461,0.851,2.793,0.781,4.462
		c-0.001,0.024,0.022,0.039,0.045,0.034c0.173-0.037,0.318-0.096,0.47-0.15c-0.097,0.269-0.157,0.548-0.149,0.847
		c0.004,0.164,0.118,0.36,0.295,0.388c1.996,0.318,4.729-1.359,6.743-1.778c5.346-1.112,10.944-1.23,16.385-1.258
		c5.654-0.03,11.292,0.234,16.913,0.853c4.082,0.449,7.995,1.94,12.003,2.389c0.594,0.067,1.053-0.373,1.234-0.906
		c0.702,0.139,1.502-0.26,1.448-1.152c-0.138-2.243-0.702-4.488-0.193-6.728c0.271-1.201,0.739-1.783,1.638-1.98
		c0.71-0.155,2.016,0.27,3,0.785c1.379,0.722,2.591,1.711,3.697,2.797c1.893,1.856,4.078,4.667,4.051,7.281
		C139.797,14.535,139.353,15.171,138.334,15.671z" />
    <path d="M141.185,165.563c-2.529-3.08-6.442-0.761-9.104,1.455c-2.324-5.168-6.747-10.806-12.936-9.273
		c-1.886,0.467-3.452,2.007-3.676,3.964c-0.282,2.463,1.586,4.536,3.498,5.824c-8.502,2.668-16.722,4.378-25.709,4.99
		c-5.644,0.386-18.998,1.743-23.824-3.562c0.181-0.146,0.33-0.336,0.382-0.612c0.852-4.471,0.806-9.439-2.335-13.05
		c-2.182-2.508-5.639-3.161-8.784-2.722c-2.646,0.369-5.577,1.953-6.703,4.483c-0.997,2.242-0.25,4.274,1.172,5.892
		c-3.5,1.146-6.791,3.081-8.102,6.712c-1.236,3.424,0.523,7.162,2.77,9.705c2.246,2.542,5.67,4.366,9.106,4.286
		c2.968-0.07,5.197-1.862,6.598-4.239c8.362,5.702,19.104,7.602,29.024,7.927c9.419,0.309,24.148-1.204,31.715-8.221
		c2.171,3.602,5.63,7.157,10.096,5.98c3.879-1.021,6.144-5.321,7.325-8.811C142.781,173.097,143.521,168.409,141.185,165.563z
		 M138.705,175.467c-0.753,2.492-2.273,5.791-4.905,6.775c-3.185,1.19-6.078-2.347-7.916-4.894c0.502-0.944-0.397-1.99-1.463-1.555
		c-0.451-0.091-0.907,0.143-1.125,0.534c-3.898,1.924-7.396,4.214-11.659,5.605c-5.551,1.812-11.438,2.423-17.245,2.583
		c-10.465,0.288-20.88-1.689-30.147-6.508c0.218-0.517,0.406-1.047,0.555-1.585c0.47-1.71-2.061-2.368-2.626-0.724
		c-0.163,0.473-0.354,0.931-0.562,1.377c-0.155,0.136-0.257,0.325-0.246,0.518c-0.965,1.817-2.411,3.197-4.729,3.238
		c-2.618,0.045-5.062-1.662-6.759-3.505c-1.606-1.746-2.713-4.212-2.116-6.595c0.916-3.659,5.638-5.011,8.801-5.698
		c1.323-0.287,1.324-2.012,0.349-2.672c-1.457-0.986-3.091-2.53-2.016-4.354c0.902-1.532,3.088-2.35,4.757-2.558
		c7.389-0.92,8.262,7.076,7.702,12.563c-0.043,0.421,0.147,0.729,0.428,0.938c2.089,6.697,15.97,6.491,21.184,6.534
		c6.259,0.053,12.516-0.591,18.684-1.619c4.157-0.694,9.773-1.369,13.162-4.125c0.768-0.625,0.427-1.691-0.277-2.165
		c0.608-0.455,0.898-1.376,0.193-1.939c-1.75-1.396-4.369-4.849-0.406-5.376c5.215-0.695,8.445,5.608,9.795,9.603
		c0.354,1.048,1.604,1.413,2.431,0.642c1.353-1.26,2.86-2.624,4.653-3.208c0.995-0.324,1.415-0.132,1.752,0.389
		C140.224,169.662,139.375,173.252,138.705,175.467z" />
  </g>
  <g>
  </g>
  <g>
  </g>
  <g>
  </g>
  <g>
  </g>
  <g>
  </g>
  <g>
  </g>
  <g>
  </g>
  <g>
  </g>
  <g>
  </g>
  <g>
  </g>
  <g>
  </g>
  <g>
  </g>
  <g>
  </g>
  <g>
  </g>
  <g>
  </g>
</svg>