<?xml version="1.0" encoding="iso-8859-1"?>
<!-- Generator: Adobe Illustrator 16.0.0, SVG Export Plug-In . SVG Version: 6.00 Build 0)  -->
<!DOCTYPE svg PUBLIC "-//W3C//DTD SVG 1.1//EN" "http://www.w3.org/Graphics/SVG/1.1/DTD/svg11.dtd">
<svg version="1.1" id="Capa_1" xmlns="http://www.w3.org/2000/svg" xmlns:xlink="http://www.w3.org/1999/xlink" x="0px" y="0px"
	 width="612.012px" height="612.012px" viewBox="0 0 612.012 612.012" style="enable-background:new 0 0 612.012 612.012;"
	 xml:space="preserve">
<g>
	<path d="M611.486,532.018c-2.733-14.664-13.19-26.908-27.031-32.266c-8.964-3.471-20.176-0.221-25.901,7.12
		c-12.834-32.812-24.378-66.049-34.416-99.832c-11.434-38.483-19.015-77.962-31.688-116.076
		c-22.731-68.372-55.863-133.524-83.576-200.015c16.243,2.801,32.167-0.479,42.82-14.615c11.145-14.788,0.055-40.295-13.405-49.536
		c-23.53-16.151-58.604-9.596-64.863,15.095c-12.89-11.046-31.763-8.865-47.029,5.603c-0.19,0.184-0.331,0.369-0.485,0.553
		c-13.055-16.667-39.563-14.972-53.755-0.092c-1.794-8.054-6.869-16.065-11.79-20.993c-11.501-11.507-28.948-13.037-42.747-5.142
		c-26.982,15.438-19.229,63.346,12.072,65.84c-23.21,70.319-52.711,138.002-83.767,205.163
		C117.332,354.66,86.405,416.409,64.16,480.946c-10.082-10.684-25.557-13.939-39.933-9.289c-18,5.831-26.792,25.078-23.572,42.993
		c5.406,30.054,37.77,26.632,56.072,10.253c-0.602,11.845,2.58,23.518,12.938,30.871c11.869,8.423,28.561,4.719,40.682-0.927
		c11.402-5.309,23.444-15.605,25.852-28.556c2.808-15.095-9.541-25.76-22.467-30.785c24.93-36.572,41.819-78.293,57.202-120.241
		c2.064,10.506,6.242,21.97,14.388,29.206c9.424,8.374,20.329,4.842,26.516-5.308c2.089-3.428,3.545-7.292,4.528-11.236
		c31.234,13.798,66.94,16.415,100.649,17.141c18.854,0.405,37.948-0.351,56.644-2.937c9.271-1.284,23.566-2.107,33.685-6.856
		c1.598,10.235,8.159,18.492,19.715,21.644c12.993,3.545,27.757-1.561,35.141-12.692c2.937-4.424,4.288-9.688,4.338-14.997
		c14.517,44.295,29.169,88.565,46.365,131.847c-13.498,9.75-25.853,25.901-24.599,42.906c1.025,13.909,11.826,23.714,24.187,28.414
		c11.402,4.337,26.202,3.687,36.333-3.489c7.919-5.615,11.415-13.952,11.857-22.787c8.054,4.282,18.424,5.137,26.957,3.324
		C604.262,565.924,614.503,548.2,611.486,532.018z M445.716,361.394c2.076-6.881,1.935-14.794,0.841-21.306
		c-2.383-14.161-14.253-25.913-28.775-26.934c-11.895-0.835-23.88,4.829-29.478,15.623c-4.761,9.197-1.683,18.781,5.327,25.041
		c-54.149,8.005-107.026,11.514-159.639-5.836c6.751-4.104,13.27-9.94,14.093-17.822c0.774-7.391-5.105-13.221-10.904-16.729
		c-10.948-6.629-27.677-10.296-41.027-6.942c27.111-69.704,63.457-135.593,88.958-205.869c8.718,4.141,17.958,3.901,25.999,0.682
		c3.606,12.183,14.309,18.541,27.062,16.667c8.773-1.291,15.31-7.956,18.492-15.894c29.992,68.709,59.002,137.087,83.54,208.045
		c6.868,19.874,13.473,39.853,20.033,59.855C456.768,366.068,451.214,362.598,445.716,361.394z"/>
</g>
<g>
</g>
<g>
</g>
<g>
</g>
<g>
</g>
<g>
</g>
<g>
</g>
<g>
</g>
<g>
</g>
<g>
</g>
<g>
</g>
<g>
</g>
<g>
</g>
<g>
</g>
<g>
</g>
<g>
</g>
</svg>
