<?xml version="1.0" encoding="utf-8"?>
<svg viewBox="0 0 156.783 156.783" style="enable-background:new 0 0 156.783 156.783;" xmlns="http://www.w3.org/2000/svg">
  <g style="" transform="matrix(0.999852, 0, 0, 1.318731, 0, -18.749573)">
    <path style="fill:#ADA788;" d="M155.469,42.009c-4.315-0.928-8.63-1.856-12.944-2.785c-5.595-1.203-11.191-2.406-16.786-3.61 c-2.683-0.577-5.365-1.154-8.048-1.731c-0.711-0.153-1.351-0.139-2.065,0.015c-1.697,0.365-3.394,0.729-5.091,1.094 c-10.714,2.303-21.429,4.609-32.143,6.915c-10.749-2.313-21.499-4.625-32.249-6.937c-1.372-0.295-2.744-0.59-4.116-0.885 c-0.744-0.16-1.652-0.477-2.411-0.313c-1.493,0.321-2.985,0.642-4.478,0.963c-7.168,1.542-14.336,3.084-21.504,4.626 c-4.106,0.883-8.212,1.767-12.319,2.649C0.542,42.175,0,42.973,0,43.735c0,9.467,0,18.934,0,28.401c0,14.165,0,28.33,0,42.494 c0,2.219,0,4.438,0,6.656c0,1.213,1.138,1.969,2.266,1.726c11.556-2.487,23.112-4.973,34.669-7.459 c1.052-0.227,2.104-0.453,3.157-0.68c11.397,2.453,22.795,4.905,34.192,7.357c0.925,0.199,1.85,0.398,2.775,0.597 c0.595,0.128,1.202,0.315,1.811,0.184c1.407-0.303,2.815-0.606,4.222-0.909c7.072-1.521,14.145-3.043,21.217-4.565 c4.128-0.888,8.256-1.776,12.384-2.665c11.341,2.438,22.682,4.88,34.022,7.32c1.268,0.272,2.535,0.545,3.803,0.818 c1.128,0.243,2.266-0.513,2.266-1.726c0-9.467,0-18.934,0-28.401c0-14.165,0-28.33,0-42.495c0-2.218,0-4.437,0-6.656 C156.783,42.973,156.241,42.175,155.469,42.009z"/>
    <polygon style="fill:#FBEFB3;" points="40.091,35.496 40.091,113.045 1.79,121.286 1.79,43.735 5.754,42.883 &#9;"/>
    <polygon style="fill:#F9D393;" points="78.391,43.735 78.391,121.286 40.091,113.045 40.091,35.496 63.428,40.516 &#9;"/>
    <polygon style="fill:#FBEFB3;" points="116.692,35.496 116.692,113.045 78.391,121.286 78.391,43.735 107.855,37.396 &#9;"/>
    <polygon style="fill:#F9D393;" points="154.993,43.735 154.993,121.286 118.713,113.48 116.692,113.045 116.692,35.496 &#10;&#9;&#9;142.048,40.95 &#9;"/>
    <path style="fill:#5AA55D;" d="M71.848,96.338c-0.186,0.191-0.43,0.315-0.673,0.427c-3.005,1.363-6.491,1.058-9.723,0.396 c-3.231-0.664-6.443-1.661-9.742-1.606c-1.286,0.021-2.582,0.205-3.859,0.033c-2.298-0.31-5.41-2.298-7.73-3.109 c-0.009-0.005-0.021-0.007-0.031-0.012c-3.067-1.074-6.107-2.382-8.348-4.828c-3.816-4.172-4.358-10.527-7.971-14.878 c-4.329-5.212-12.214-6.544-16.216-12.014C3.914,55.77,4.608,49.042,5.754,42.883l34.337-7.386l23.337,5.019 c0.339,1.105,0.554,2.224,0.501,3.379c-0.103,2.257-1.215,4.322-1.976,6.45c-1.832,5.136-1,10.011-1.324,15.269 c-0.105,1.692-0.764,3.453-0.303,5.012c0.556,1.888,2.916,3.413,3.537,5.613c1.067,3.778,0.198,8.162,2.384,11.422 c1.646,2.453,4.797,3.825,5.801,6.608C72.296,94.956,72.358,95.812,71.848,96.338z"/>
    <path style="fill:#7FC46A;" d="M142.588,48.037c-0.73,3.601-2.618,6.837-4.284,10.111c-2.621,5.153-4.745,10.556-6.336,16.114 c-0.644,2.251-1.329,4.718-3.241,6.071c-0.928,0.656-2.05,0.971-3.145,1.272c-2.964,0.818-5.925,1.635-8.89,2.451 c-2.322,0.64-4.644,1.282-6.966,1.921c-1.818,0.501-3.816,1.134-4.775,2.759c-0.721,1.219-0.711,2.797-1.568,3.923 c-1.478,1.935-4.661,1.406-6.513-0.174c-1.852-1.58-2.94-3.876-4.629-5.63c-1.948-2.023-4.854-3.629-5.143-6.424 c-0.296-2.857,2.334-5.05,3.678-7.589c1.098-2.079,1.336-4.484,1.818-6.785c1.083-5.184,3.501-10.08,6.956-14.092 c1.389-1.616,2.966-3.119,3.923-5.021c0.771-1.527,1.1-3.234,1.683-4.842c0.618-1.709,1.544-3.303,2.699-4.706l8.837-1.9 l25.356,5.453C142.948,43.126,143.065,45.697,142.588,48.037z"/>
    <path style="fill:#7FC46A;" d="M40.37,35.557l-0.279-0.06L5.754,42.883c-1.146,6.16-1.84,12.887,1.802,17.865 c4.002,5.47,11.887,6.802,16.216,12.014c3.613,4.351,4.155,10.706,7.971,14.878c2.241,2.446,5.281,3.754,8.348,4.828 c0.009,0.005,0.021,0.007,0.031,0.012c0.081,0.028,0.166,0.061,0.248,0.092V35.557z"/>
    <path style="fill:#5AA55D;" d="M142.048,40.95l-25.356-5.453l-0.077,0.017v48.565c0.025-0.007,0.051-0.014,0.077-0.021 c2.964-0.816,5.926-1.632,8.89-2.451c1.095-0.301,2.217-0.616,3.145-1.272c1.912-1.353,2.597-3.821,3.241-6.071 c1.592-5.558,3.716-10.961,6.336-16.114c1.665-3.274,3.553-6.51,4.284-10.111C143.065,45.697,142.948,43.126,142.048,40.95z"/>
    <path style="fill:#5AA55D;" d="M154.993,90.866v30.421l-36.279-7.806c3.807-5.437,8.787-10.078,14.841-12.708 c2.215-0.962,4.563-1.654,6.622-2.914c2.279-1.391,4.112-3.417,6.372-4.837C149.05,91.448,152.045,90.718,154.993,90.866z"/>
    <circle style="fill:#4D9352;" cx="51.622" cy="47.152" r="5.882"/>
    <circle style="fill:#4D9352;" cx="53.359" cy="64.701" r="2.454"/>
    <circle style="fill:#4D9352;" cx="134.967" cy="45.182" r="1.579"/>
    <circle style="fill:#4D9352;" cx="123.089" cy="64.034" r="2.454"/>
    <circle style="fill:#4D9352;" cx="145.318" cy="107.468" r="2.454"/>
    <circle style="fill:#4D9352;" cx="125.489" cy="51.829" r="3.945"/>
    <circle style="fill:#4D9352;" cx="129.12" cy="50.957" r="3.325"/>
    <circle style="fill:#4D9352;" cx="126.414" cy="47.632" r="3.325"/>
    <circle style="fill:#4D9352;" cx="47.472" cy="57.333" r="2.454"/>
    <circle style="fill:#4D9352;" cx="46.22" cy="47.691" r="2.647"/>
    <circle style="fill:#4D9352;" cx="54.076" cy="52.792" r="2.454"/>
    <circle style="fill:#5AA55D;" cx="33.843" cy="47.884" r="2.454"/>
    <circle style="fill:#5AA55D;" cx="19.815" cy="57.235" r="1.328"/>
    <circle style="fill:#5AA55D;" cx="112.506" cy="51.829" r="1.328"/>
    <circle style="fill:#5AA55D;" cx="108.62" cy="58.228" r="2.454"/>
    <circle style="fill:#5AA55D;" cx="108.62" cy="62.246" r="3.886"/>
    <circle style="fill:#5AA55D;" cx="23.82" cy="49.068" r="3.886"/>
  </g>
  <g transform="matrix(2.815969, 0, 0, 2.815969, 70.600389, -2886.244672)" style="">
    <path d="m12 0c-4.4183 2.3685e-15 -8 3.5817-8 8 0 1.421 0.3816 2.75 1.0312 3.906 0.1079 0.192 0.221 0.381 0.3438 0.563l6.625 11.531 6.625-11.531c0.102-0.151 0.19-0.311 0.281-0.469l0.063-0.094c0.649-1.156 1.031-2.485 1.031-3.906 0-4.4183-3.582-8-8-8zm0 4c2.209 0 4 1.7909 4 4 0 2.209-1.791 4-4 4-2.2091 0-4-1.791-4-4 0-2.2091 1.7909-4 4-4z" transform="translate(0 1028.4)" style="fill: rgb(220, 138, 141);"/>
    <path d="m12 3c-2.7614 0-5 2.2386-5 5 0 2.761 2.2386 5 5 5 2.761 0 5-2.239 5-5 0-2.7614-2.239-5-5-5zm0 2c1.657 0 3 1.3431 3 3s-1.343 3-3 3-3-1.3431-3-3 1.343-3 3-3z" transform="translate(0 1028.4)" style="fill: rgb(220, 138, 141);"/>
  </g>
</svg>