<?xml version="1.0" encoding="utf-8"?>
<svg viewBox="0 0 508 508" style="enable-background:new 0 0 508 508;" xmlns="http://www.w3.org/2000/svg" xmlns:bx="https://boxy-svg.com">
  <polygon style="fill: rgb(220, 138, 141);" points="152.623 136.62 255.763 47.261 358.904 136.62 377.576 136.62 255.763 30.812 133.951 136.62"/>
  <circle style="fill: rgb(255, 255, 255);" cx="255.763" cy="41.926" r="41.345"/>
  <circle style="fill: rgb(220, 138, 141);" cx="256.824" cy="42.643" r="27.311"/>
  <g/>
  <g/>
  <g/>
  <g/>
  <g/>
  <g/>
  <g/>
  <g/>
  <g/>
  <g/>
  <g/>
  <g/>
  <g/>
  <g/>
  <g/>
  <g transform="matrix(1.182841, 0, 0, 1.182841, -50.976811, 54.464715)" style="">
    <path style="fill:#FFFFFF;" d="M58.695,308.615h394.607V89.921c0-3.979-3.308-7.287-7.287-7.287H65.979 c-3.976,0-7.287,3.308-7.287,7.287v218.693h0.003V308.615z"/>
  </g>
  <path style="fill: rgb(33, 208, 195);" d="M 371.263 178.792 C 377.776 178.792 375.545 181.095 378.849 182.144 C 381.48 182.984 379.698 181.623 382.775 181.482 C 383.713 181.411 384.654 181.689 385.588 181.587 C 388.267 181.341 386.883 181.203 387.819 180.747 C 389.784 179.805 396.745 179.98 398.442 180.571 C 400.136 181.166 399.868 181.516 402.546 182.111 C 405.984 182.84 409.776 181.376 412.812 182.982 C 414.733 184.031 413.887 184.347 416.919 184.382 C 419.418 184.382 421.782 183.788 424.058 184.347 C 426.734 184.974 424.994 184.241 428.16 183.752 C 429.186 183.614 429.766 183.752 430.706 184.067 C 432.938 184.801 432.446 185.288 435.437 185.151 C 440.702 184.84 443.915 187.314 448.646 187.979 C 451.905 188.43 455.208 187.733 454.985 191.681 C 451.594 192.1 448.874 189.096 445.702 190.981 C 445.837 193.948 447.533 192.062 449.183 194.473 C 449.052 194.511 448.874 194.543 448.781 194.579 C 446.282 195.173 445.165 195.906 443.381 198.244 C 440.926 198.244 439.097 197.687 436.507 199.014 C 436.062 203.067 441.326 202.017 440.703 208.06 C 440.66 209.177 440.66 211.031 440.478 212.599 C 438.248 212.391 432.936 206.731 431.91 205.054 C 430.032 201.977 435.481 195.171 432.268 195.343 C 431.108 195.417 431.866 196.078 430.662 197.303 C 427.494 197.159 428.965 194.786 425.083 196.218 C 424.192 199.643 426.378 199.221 424.681 200.13 C 422.94 201.036 421.602 199.711 420.305 199.5 C 420.036 199.43 411.602 199.881 411.203 200.057 C 410.265 201.176 408.571 205.473 408.168 206.555 C 410.934 208.197 412.853 207.812 413.835 207.847 C 415.177 207.882 415.622 208.69 416.693 208.928 C 419.861 209.698 416.783 207.913 419.325 208.928 C 421.243 211.027 423.161 213.086 425.083 215.149 C 424.725 215.951 424.413 216.717 424.1 217.487 C 422.049 215.955 421.736 212.703 419.195 211.761 C 418.792 215.113 422.185 213.575 420.308 221.434 C 418.702 228.282 417.497 225.696 414.598 226.463 C 413.927 226.882 412.146 231.492 411.968 232.262 C 414.108 234.253 416.74 235.302 416.606 239.418 C 415.356 240.048 414.554 240.64 412.86 240.185 C 411.073 233.13 411.653 236.657 409.514 234.529 C 407.284 232.293 410.094 230.198 403.89 232.677 C 402.952 231.316 403.532 231.456 403.039 229.954 C 401.479 230.162 399.336 232.187 398.843 233.759 C 400.185 234.459 401.252 235.365 401.922 235.47 C 403.217 235.608 403.84 234.668 405.584 235.781 C 404.601 237.738 403.887 237.317 403.085 239.309 C 404.511 241.648 406.969 243.327 407.815 246.433 C 407.858 246.539 407.905 246.676 407.949 246.818 C 408.441 248.424 408.8 247.202 408.885 249.435 C 408.932 251.077 408.127 251.987 407.547 253.628 C 404.646 261.205 400.408 260.162 394.653 262.954 C 394.743 265.05 396.571 268.434 392.376 267.668 C 392.065 264.284 393.851 266.027 393.493 262.782 C 390.77 261.838 389.208 263.129 388.003 265.992 C 389.074 271.022 395.142 271.405 393.536 279.09 C 391.658 280.659 389.787 282.199 387.957 283.737 C 386.26 282.653 388.091 283.454 386.485 281.463 C 384.788 279.437 382.781 278.006 380.908 276.33 C 380.77 276.61 380.637 276.887 380.503 277.17 C 379.88 278.808 379.078 280.66 379.481 282.304 C 379.659 283.141 381.087 286.213 381.845 286.878 C 383.186 288.17 384.565 288.45 385.014 290.476 C 385.191 291.173 385.863 296.377 385.863 296.691 C 380.33 294.665 381.979 290.997 379.971 287.435 C 379.122 285.829 378.901 286.21 377.785 284.64 C 377.695 281.777 378.543 279.436 377.875 276.471 C 377.429 274.721 376.58 272.172 376.134 270.392 C 374.126 270.811 372.342 273.604 371.892 270.883 C 371.804 270.392 371.714 269.938 371.67 269.521 C 370.51 264.492 368.859 265.853 367.163 261.032 C 364.44 261.903 364.352 261.977 361.138 262.498 L 361.095 262.557 L 361.104 262.735 C 359.821 264.513 361.168 263.757 358.923 265.616 C 356.244 267.816 354.504 270.823 351.515 272.601 C 351.157 275.712 351.784 276.407 350.982 280.111 C 350.671 281.47 349.107 285.137 347.277 284.86 C 346.697 284.754 344.242 278.817 343.662 277.175 C 342.679 274.382 341.563 272.322 340.851 269.105 C 340.449 267.394 340.178 264.112 339.775 262.96 C 337.857 263.238 337.947 264.43 336.116 263.17 C 334.822 262.265 335.405 261.704 334.688 260.34 C 333.17 258.943 331.61 257.547 330.05 256.149 C 328.843 255.768 324.199 256.43 322.238 256.216 C 318.714 255.905 318.401 256.111 316.302 253.356 C 312.599 253.532 312.911 254.889 309.299 251.853 C 306.931 249.899 307.377 246.753 303.941 248.538 C 303.809 251.401 305.235 252.031 306.529 253.361 C 307.465 254.372 308.627 255.073 309.118 256.434 C 309.161 256.47 309.387 257.763 309.429 257.934 C 312.775 258.144 313.58 256.573 315.408 255.244 C 317.195 256.885 315.452 257.169 318.04 258.456 C 320.092 259.47 319.693 258.875 321.031 260.513 C 321.701 262.717 316.436 268.688 314.692 269.772 C 313.354 270.609 312.637 270.121 311.436 271.099 C 309.652 272.569 311.661 272.359 308.535 273.476 C 305.192 274.665 301.885 277.178 298.361 277.388 C 297.6 275.362 296.845 273.3 296.084 271.239 C 293.854 264.222 293.941 266.943 291.667 263.31 C 290.594 261.739 291.04 260.725 290.326 259.328 C 289.833 258.282 289.075 257.828 288.407 256.535 C 287.381 254.543 286.178 251.436 283.813 251.75 L 282.664 246.045 C 282.961 246.04 283.335 246.01 283.813 245.952 C 284.303 244.976 287.917 236.102 283.229 237.221 C 281.844 237.568 282.783 238.058 280.821 237.568 C 278.769 237.046 280.733 236.662 278.457 236.975 C 276.224 237.286 273.547 239.211 271.805 232.612 C 271.137 230.232 269.93 228.175 267.167 231.768 C 267.881 232.993 268.37 233.097 269.173 234.284 C 268.951 234.631 268.194 235.509 267.925 235.785 C 266.409 237.251 268.552 236.552 266.094 236.866 C 264.756 235.89 265.024 234.63 263.73 232.887 C 261.453 229.637 262.925 231.141 261.762 228.034 C 260.849 227.249 259.339 226.663 258.103 225.894 L 258.103 225.871 L 258.036 225.824 C 257.725 225.616 257.413 225.407 257.145 225.16 C 255.18 223.451 254.778 221.915 252.594 222.296 C 252.547 223.903 252.771 223.973 253.576 225.022 C 256.611 228.724 255.675 227.468 258.036 228.826 L 258.126 228.876 L 258.126 228.891 C 258.68 229.202 259.324 229.643 260.201 230.267 C 257.178 232.866 259.959 233.155 258.126 234.021 L 258.126 234.024 L 258.106 234.033 L 258.04 234.069 C 257.858 234.135 257.684 234.209 257.55 234.277 C 256.923 232.741 258.308 233.474 256.698 231.238 C 255.807 230.086 254.961 229.738 253.578 229.104 C 250.094 227.498 250.543 226.244 248.4 224.146 C 245.99 224.219 246.525 224.951 244.829 225.79 C 242.778 226.766 243.092 225.617 240.68 225.825 C 238.715 229.213 241.529 226.385 237.957 229.181 C 233.673 232.425 237.199 235.816 230.327 236.831 C 229.835 236.897 229.654 236.831 229.17 237.003 C 227.917 237.44 228.581 237.1 227.943 237.735 L 226.806 237.779 C 226.622 236.351 225.022 236.112 223.32 236.056 C 222.384 232.947 222.384 233.718 223.097 230.854 C 223.5 229.248 223.141 228.475 223.5 226.869 C 224.391 222.854 231.394 226.837 233.406 225.193 C 234.342 223.481 234.478 221.809 233.406 220.164 C 232.287 218.522 230.817 218.733 230.059 217.161 C 231.753 216.044 230.502 217.021 231.978 216.706 C 233.715 216.325 233.49 215.835 235.543 215.449 C 237.374 215.1 238.537 213.454 240.321 212.34 C 242.864 210.734 241.657 209.299 244.738 208.813 C 249.694 207.972 246.479 208.112 247.018 203.606 C 247.77 203.328 248.484 203.011 249.2 202.7 C 250.763 204.691 248.798 203.889 250.672 205.213 C 251.164 204.935 251.745 204.656 252.278 204.378 C 252.009 202.21 250.983 202.629 250.313 199.941 C 247.858 200.322 246.966 202.35 245.004 201.617 C 243.085 200.917 242.999 198.23 243.085 195.993 C 243.797 194.317 247.368 193.41 248.749 192.99 C 250.982 192.256 250.668 190.79 252.723 188.795 C 255.401 186.174 253.434 188.83 254.731 185.445 C 257.675 185.337 256.294 185.231 258.031 184.36 L 258.097 184.333 L 258.117 184.325 L 258.275 184.263 C 259.301 183.809 260.639 183.703 261.977 183.249 C 266.883 181.643 268.893 182.446 272.462 183.879 C 275.231 184.996 283.574 185.03 284.2 188.454 C 282.192 190.511 280.274 189.01 277.373 189.191 C 277.91 191.844 278.134 191.844 280.585 192.576 C 280.987 191.317 280.407 191.809 281.075 191.004 C 281.88 191.18 282.681 191.315 283.484 191.455 C 284.288 188.768 285.224 189.153 287.949 188.838 C 287.504 186.986 287.011 187.511 288.037 186.045 C 290.85 186.323 288.576 186.081 289.955 188.281 C 291.92 188.036 293.839 185.905 296.561 185.626 C 298.258 185.454 298.167 186.081 300.575 185.839 C 302.54 185.626 302.45 184.93 304.414 185.734 C 305.125 184.439 304.414 184.475 306.151 184.162 C 308.83 183.708 311.15 185.314 313.74 185.663 C 311.822 183.356 309.994 183.809 312.355 179.969 C 315.346 179.374 315.614 179.793 316.906 181.992 C 317.798 181.505 318.067 181.016 318.557 180.875 C 319.898 180.56 320.344 181.677 323.242 180.003 C 325.072 178.989 322.081 179.651 325.384 178.744 C 326.679 178.43 326.679 178.954 327.836 178.012 C 330.471 177.067 333.061 176.09 335.693 175.111 C 338.504 175.075 337.078 175.913 340.291 174.726 C 344.663 173.187 345.911 174.832 349.215 174.936 C 356.942 175.23 354.203 179.537 366.289 179.537 C 368.211 179.537 368.077 178.802 370.796 178.77 C 370.931 178.77 371.065 178.77 371.245 178.77 L 371.263 178.792 Z M 418.432 242.322 C 418.654 243.998 419.502 245.255 420.977 245.92 C 422.493 243.547 420.619 243.407 426.152 241.692 C 426.51 241.586 426.867 241.446 427.178 241.311 C 431.909 238.658 428.649 240.576 432.222 239.18 C 432.268 237.017 431.729 235.583 431.551 233.244 C 431.461 230.623 430.569 229.609 428.205 229.192 C 427.98 234.048 431.374 232.477 425.884 237.538 C 423.027 240.228 421.153 237.086 418.433 242.324 L 418.432 242.322 Z M 387.373 308.368 C 387.684 306.902 387.91 305.086 388.577 304.001 C 390.675 304.001 388.758 305.713 391.927 305.328 C 392.464 304.109 392.464 303.514 392.238 302.219 C 390.81 301.905 390.41 302.184 389.38 303.06 C 389.069 302.711 388.759 302.363 388.445 302.01 C 386.973 300.964 387.15 303.375 385.768 300.649 C 384.297 297.821 385.946 297.784 382.733 295.83 C 380.768 294.64 380.098 293.978 378.494 292.334 C 375.728 289.433 378.179 290.728 373.585 289.331 C 373.495 292.509 374.208 290.626 376.663 294.325 C 377.689 296.074 378.672 297.82 379.699 299.564 C 381.174 301.975 382.693 308.54 387.378 308.369 L 387.374 308.369 L 387.374 308.368 L 387.373 308.368 Z M 394.465 303.788 C 398.439 304.382 401.289 305.816 402.41 305.047 C 403.617 303.682 403.214 302.778 404.418 300.784 C 406.024 298.201 404.908 299.006 406.961 296.732 C 405.801 292.578 405.264 294.429 407.495 290.201 C 407.139 288.878 406.156 287.342 405.039 286.539 C 403.745 287.342 404.862 286.431 403.969 287.583 C 402.404 289.294 400.798 291.008 399.281 292.72 C 397.94 294.015 398.476 293.031 396.424 294.642 C 395.843 294.956 395.263 295.272 394.64 295.586 C 393.657 295.933 393.03 294.819 392.809 297.717 C 392.675 299.044 394.057 302.01 394.46 303.789 L 394.465 303.788 Z M 299.338 222.489 C 299.649 226.754 302.239 228.393 304.069 230.348 C 303.845 232.374 303.351 231.848 303.396 234.677 C 305.585 236.216 307.188 237.159 310.048 236.388 C 310.45 232.966 309.33 233.141 308.264 230.803 C 308.442 230.523 308.932 230.173 309.022 230.103 C 309.824 229.057 309.424 230.522 309.824 228.738 C 307.728 228.076 304.335 225.981 304.069 223.223 C 305.092 222.421 304.781 222.909 305.539 222.421 C 307.189 221.372 305.941 222.978 306.924 221.2 C 306.078 219.593 305.136 219.31 303.087 220.115 C 302.194 220.467 299.828 222.108 299.338 222.489 Z M 281.085 223.609 C 279.702 221.725 279.79 220.782 277.114 220.712 C 276.044 221.831 274.793 223.505 274.213 225.215 C 273.322 227.8 273.944 226.02 274.035 228.813 C 273.989 228.918 274.035 229.061 274.035 229.162 C 273.989 230.838 273.586 228.847 273.854 230.387 C 275.953 229.968 274.347 230.002 275.909 229.513 C 277.381 229.026 281.889 227.697 283.182 228.013 C 286.261 228.709 288.853 231.089 292.334 228.709 C 292.156 225.674 288.404 224.519 285.818 223.191 C 285.955 220.398 286.709 222.599 286.529 219.911 C 285.638 219.876 285.103 219.736 284.255 220.084 C 282.249 220.955 283.36 221.203 283.36 221.514 C 283.45 223.014 285.369 221.203 283.319 223.053 C 282.739 223.544 281.801 223.544 281.086 223.61 L 281.085 223.61 L 281.085 223.609 Z M 228.98 202.435 C 228.896 207.327 230.633 205.683 232.283 208.094 C 231.528 210.154 231.392 208.548 230.546 210.677 C 229.788 212.46 230.724 210.854 230.232 213.962 C 231.527 214.029 233.444 213.581 235.143 213.437 C 237.552 213.229 237.507 213.018 238.355 210.61 C 237.017 209.004 235.677 207.398 234.294 205.791 C 232.55 203.208 234.294 204.983 233.757 202.82 C 233.358 202.053 232.999 201.287 232.644 200.517 C 230.326 201.289 230.547 201.077 228.981 202.439 L 228.98 202.435 Z"/>
  <path style="fill: rgb(250, 210, 77);" d="M 283.811 251.762 C 283.319 253.33 285.998 258.641 286.666 259.931 C 287.336 261.225 288.406 261.784 288.721 263.635 C 289.166 266.183 288.631 265.868 290.059 267.579 C 293.05 271.107 289.924 270.48 294.566 273.938 C 298.047 276.523 297.154 277.29 298.627 280.748 C 300.904 281.374 307.685 278.407 308.845 279.278 C 310.23 281.689 307.243 285.531 306.481 287.627 C 303.983 294.65 299.61 294.546 296.261 299.921 C 294.432 302.822 293.584 303.206 291.89 306.696 C 289.969 310.643 295.77 321.573 292.293 326.149 C 291.535 327.199 289.077 327.829 286.002 331.005 C 282.743 334.463 286.092 333.868 284.842 339.632 C 283.859 340.961 282.656 341.033 281.449 341.973 C 281.003 343.334 281.361 344.419 280.603 346.095 C 279.798 348.124 279.667 347.037 278.507 348.68 C 277.657 349.97 277.745 350.494 276.766 351.683 C 275.921 352.765 275.471 353.08 274.67 353.78 C 270.787 357.272 262.44 357.377 261.73 356.888 C 259.765 355.244 261.106 354.828 260.613 352.521 C 260.138 350.495 259.039 348.799 258.116 347.235 L 258.116 347.183 L 258.046 347.063 C 257.601 346.299 257.197 345.563 256.974 344.863 C 255.368 339.901 255.951 336.133 253.14 331.105 C 249.613 324.603 255.103 321.219 254.878 317.553 C 254.788 316.577 254.435 315.984 254.341 315.212 C 253.673 311.16 253.274 307.527 250.504 304.347 C 247.469 300.892 247.872 302.114 248.854 296.425 C 250.102 289.895 247.248 291.57 243.233 291.396 C 241.265 285.457 237.428 288.352 233.593 290.101 C 231.182 291.183 230.29 289.79 227.564 290.171 C 221.495 290.974 226.273 293.523 218.148 287.235 C 214.757 284.614 217.035 285.94 215.025 282.66 C 214.357 281.473 212.302 279.903 211.363 278.714 C 208.284 274.942 211.943 271.136 211.41 266.805 C 210.472 258.77 209.132 265.756 213.73 256.047 C 216.139 250.878 219.8 250.844 220.736 248.534 C 221.538 246.477 221.001 245.006 222.52 243.124 C 223.858 241.588 225.776 241.899 226.537 239.49 C 226.792 238.788 226.866 238.231 226.809 237.788 L 227.946 237.744 L 227.872 237.814 C 228.456 239.144 227.653 238.931 229.971 239.245 C 234.21 239.801 234.746 237.253 237.827 236.624 C 239.343 236.309 248.85 235.924 249.517 236.099 C 251.569 238.338 249.875 239.909 249.875 241.793 C 252.108 242.945 255.274 243.224 256.568 244.414 C 258.04 245.775 257.326 245.565 258.04 245.808 L 258.13 245.834 L 258.13 245.847 C 258.395 245.925 258.785 246.062 259.448 246.31 C 261.232 246.905 261.145 247.251 263.06 247.391 C 264.8 241.698 263.017 242.292 271.406 244.91 C 280.155 247.705 276.225 245.155 279.93 245.54 C 281.416 245.683 281.373 246.079 282.664 246.053 L 283.813 251.758 L 283.811 251.758 L 283.811 251.762 Z M 305.765 319.939 C 303.803 320.915 303.533 323.151 302.062 324.408 C 300.456 325.842 298.313 325.178 297.687 327.83 C 296.884 331.148 299.028 330.133 296.661 334.465 C 295.815 336.071 295.769 340.089 297.063 341.275 C 300.946 344.94 303.046 335.687 303.937 332.789 C 304.607 330.729 305.232 328.388 305.942 326.468 C 306.658 324.408 307.684 322.588 305.765 319.939 Z"/>
  <path style="fill: rgb(255, 91, 98);" d="M 150.888 329.811 C 149.684 327.857 146.739 326.951 144.372 325.377 C 144.237 325.341 144.149 325.307 144.106 325.237 C 140.847 323.001 137.768 314.234 135.177 310.952 C 133.973 309.378 133.214 310.078 132.678 307.6 C 132.098 305.331 132.99 305.714 133.751 303.828 C 129.777 296.703 138.885 296.81 137.01 288.251 C 136.607 286.679 135.447 284.482 134.464 283.782 C 132.589 284.584 133.482 285.039 132.499 286.577 C 130.981 285.733 129.464 284.898 127.993 284.061 C 123.395 279.732 125.853 282.874 124.558 280.046 C 121.792 274.107 119.156 277.426 115.856 274.492 C 114.381 273.271 114.115 271.347 111.66 271.697 C 107.958 272.187 110.01 272.743 106.171 270.997 C 102.912 269.497 99.519 267.749 97.245 265.726 C 97.155 262.58 98.317 262.44 96.309 259.507 C 95.327 258.007 93.988 256.782 93.184 255.595 C 91.758 253.326 93.854 255.385 90.283 250.916 C 87.919 247.945 90.685 247.668 88.006 245.61 C 84.483 247.248 90.014 251.893 91.757 259.405 C 90.241 259.195 89.214 258.004 88.631 256.328 C 87.74 253.568 88.675 254.271 85.908 253.116 C 86.043 248.364 86.981 252.56 85.017 247.843 C 84.347 246.097 84.748 245.326 84.079 243.546 C 83.542 242.01 84.348 243.403 83.455 242.531 C 83.1 241.482 83.727 242.461 82.922 241.66 C 82.119 240.786 82.879 241.554 82.164 241.03 C 80.377 239.808 79.978 238.269 79.665 235.826 C 78.771 227.865 81.453 227.199 84.528 221.506 C 86.895 217.416 86.446 218.014 84.571 214.661 C 85.02 212.982 85.597 212.949 85.466 210.643 C 85.331 207.952 85.155 209.177 85.777 207.115 C 85.687 207.01 85.553 206.94 85.466 206.908 C 85.378 206.908 85.244 206.802 85.155 206.768 C 85.065 206.732 84.886 206.662 84.797 206.592 C 84.307 206.449 83.861 206.277 83.322 206.102 C 83.544 201.84 84.213 199.324 79.261 198.838 C 77.075 198.628 75.69 197.721 74.979 197.756 C 74.574 197.756 72.52 198.771 70.961 199.153 C 68.191 199.888 69.666 199.816 67.122 199.363 C 65.754 199.103 61.906 199.532 58.583 198.625 L 59.05 194.025 C 60.939 193.777 62.856 193.661 64.178 192.484 C 62.883 191.402 61.546 192.169 59.626 191.508 C 59.982 188.117 65.294 189.269 67.611 189.269 C 67.922 186.717 66.541 186.791 67.792 185.812 C 68.507 185.255 82.383 181.724 85.779 182.39 C 90.958 183.334 96.131 184.279 101.306 185.185 C 104.477 185.496 109.518 183.369 112.778 183.505 C 115.233 183.649 113 184.136 116.035 184.349 C 118.131 184.489 118.221 183.894 120.542 184.559 C 122.684 185.189 121.659 185.362 124.2 185.362 C 124.603 184 125.003 182.604 125.451 181.204 C 123.218 181.556 121.88 182.358 119.69 181.868 C 119.78 179.808 122.457 178.967 123.886 178.238 C 128.751 175.792 132.098 179.807 137.365 180.192 C 139.328 180.332 140.756 178.967 143.029 178.897 C 142.271 180.331 141.779 180.017 140.708 181.901 C 141.691 184.486 140.309 181.06 141.47 183.366 C 141.648 183.647 141.781 183.647 141.962 184.381 C 138.3 185.253 140.577 185.676 135.49 185.287 C 136.117 186.161 134.957 185.675 136.918 186.582 C 138.569 187.349 140.936 186.929 142.677 186.86 C 143.257 185.811 143.613 184.904 144.64 184.519 C 145.042 184.379 145.531 184.343 146.199 184.379 C 146.289 184.9 146.423 185.425 146.557 185.951 C 146.557 185.986 146.647 186.335 146.603 186.262 C 146.647 186.192 146.691 186.475 146.738 186.579 C 149.549 184.973 147.184 184.935 148.701 182.036 C 146.333 181.582 146.649 181.858 145.173 180.392 C 146.603 178.853 149.369 178.332 151.424 178.471 C 151.289 179.868 150.619 179.835 151.152 181.022 C 152.758 180.047 153.878 177.425 156.464 177.914 C 156.956 178.261 157.537 178.576 158.07 178.89 C 156.729 180.114 154.723 180.184 152.983 180.884 C 152.225 188.461 155.438 182.105 154.368 187.309 C 156.286 187.171 158.16 185.808 158.875 184.411 C 158.163 183.502 157.138 183.502 156.554 182.42 C 157.005 181.022 157.966 179.964 159.32 179.334 C 160.238 178.906 161.338 178.681 162.579 178.681 C 176.768 178.786 170.028 179.413 174.404 181.371 C 175.383 181.788 177.123 182.002 177.707 182.837 C 178.598 184.167 177.75 185.42 179.173 186.471 C 180.423 187.377 180.603 186.435 182.255 188.461 C 181.899 189.613 181.048 190.802 179.311 190.834 C 176.9 190.872 178.328 189.263 175.739 189.507 C 175.786 191.883 178.198 192.793 175.964 194.082 C 174.001 195.237 175.249 193.665 173.778 194.466 C 173.734 194.504 173.597 194.572 173.553 194.61 C 173.466 194.676 173.378 194.782 173.331 194.852 C 173.062 195.135 172.839 195.38 172.62 195.624 C 169.049 194.68 169.719 195.1 167.576 192.794 C 166.774 191.922 166.64 191.709 165.209 191.818 C 164.317 191.85 163.159 192.231 162.308 191.469 C 164.052 189.338 164.896 191.399 167.442 190.14 C 167.887 189.929 170.7 187.801 171.146 187.309 C 170.385 185.635 171.053 187.025 169.942 185.947 C 167.44 183.465 166.727 184.096 163.339 184.096 C 161.751 185.883 160.561 188.09 158.832 189.057 L 158.832 189.06 C 157.789 189.644 156.547 189.778 154.902 189.093 C 155.66 192.096 157.622 189.789 157.803 193.422 C 156.508 193.176 155.838 192.548 154.5 193.005 C 151.643 194.051 154.189 193.946 154.41 194.505 C 154.41 194.541 155.752 194.678 154.41 195.168 C 152.935 195.689 154.188 194.888 151.331 193.246 C 151.734 192.546 152.134 191.816 152.535 191.083 C 150.218 191.783 147.317 192.899 144.594 194.192 C 141.512 195.692 138.614 197.404 136.875 198.979 C 136.828 201.599 137.321 199.85 137.59 202.958 C 141.739 203.205 140.403 204.424 144.552 205.578 C 145.356 205.786 146.382 205.997 147.634 206.209 C 147.634 208.165 145.85 209.634 147.097 211.657 C 149.998 213.645 150.088 209.767 150.801 207.29 C 160.623 205.287 155.888 202.462 158.428 197.186 C 158.809 196.396 159.351 195.557 160.127 194.65 C 160.885 194.685 163.961 195.002 164.634 195.142 C 166.865 195.523 165.663 196.048 168.072 197.096 C 168.025 198.982 167.043 201.427 169.9 200.976 C 172.086 200.595 171.597 198.915 174.276 198.492 C 175.479 201.253 175.167 202.439 175.702 205.756 C 182.13 208.202 179.273 210.193 178.022 214.77 C 178.827 215.151 179.675 215.505 180.524 215.851 C 180.481 217.178 180.434 218.469 180.39 219.764 C 180.255 219.764 173.516 218.33 173.07 218.192 C 174.096 215.323 175.971 215.294 177.181 212.358 C 174.77 212.775 174.948 213.51 173.208 214.032 C 171.648 214.486 170.441 214.175 168.791 214.384 C 168.211 216.268 168.747 212.74 168.925 215.149 C 169.015 216.058 169.462 215.187 168.835 216.164 C 166.605 215.149 167.364 212.773 163.215 214.977 C 164.151 215.396 165.086 215.779 166.069 216.164 C 165.938 218.851 165.713 216.826 165.133 218.607 C 163.703 223.181 169.016 220.353 170.398 220.107 C 170.04 222.518 168.52 222.518 166.38 223.18 C 164.016 223.88 163.302 224.824 161.428 225.244 C 161.428 222.379 160.982 224.793 162.277 222.798 C 160.402 222.97 159.018 223.809 157.236 224.544 L 157.059 224.61 C 154.765 225.523 154.418 225.66 154.158 228.519 C 152.195 229.114 149.919 229.779 148.537 231.175 C 147.152 232.466 145.768 233.758 144.429 235.017 C 144.295 235.122 144.207 235.225 144.118 235.295 C 144.608 238.892 144.118 238.962 141.885 240.362 C 140.007 241.549 139.387 241.513 137.646 243.015 C 132.069 247.906 134.746 245.635 135.058 254.056 C 133.898 253.707 132.781 253.321 131.711 252.936 C 130.862 247.348 132.023 249.2 127.429 247.907 C 122.473 246.507 123.144 248.883 121.091 249.304 C 118.813 249.791 117.697 247.278 114.394 249.371 C 112.569 250.596 110.825 251.399 110.383 253.561 C 109.844 256.182 108.643 258.103 108.818 261.004 C 109.129 268.861 116.45 269.312 118.324 265.646 C 119.572 263.203 119.262 261.877 123.323 262.507 C 123.726 264.603 123.099 266.14 122.565 267.746 C 122.208 268.691 121.224 270.399 121.714 271.693 C 124.615 272.844 124.705 270.681 128.542 272.912 C 128.811 276.652 126.801 280.844 129.745 283.007 C 132.023 284.651 132.154 283.185 134.164 282.835 C 136.395 282.454 135.995 283.814 138.048 284.126 C 139.208 282.729 138.718 283.602 139.476 281.89 C 140.817 278.923 141.173 280.319 144.341 278.503 C 144.652 278.33 144.921 278.154 145.232 277.942 C 145.584 278.677 145.99 279.373 146.346 280.073 C 148.67 277.386 148.936 280.003 151.614 280.741 C 152.762 281.047 153.585 281.158 154.217 281.167 C 156.165 281.193 156.362 280.27 159.019 281.19 C 159.334 281.333 159.734 281.438 160.095 281.539 C 160.138 281.539 160.273 281.609 160.273 281.679 C 160.32 281.715 160.454 281.819 160.497 281.857 C 160.94 282.344 160.988 282.833 161.346 283.357 C 163.177 285.069 165.009 286.783 166.791 288.456 C 170.314 289.818 170.314 287.267 174.33 291.071 C 176.024 292.642 175.266 292.61 176.205 294.634 C 176.34 294.948 176.604 295.264 176.785 295.651 C 177.143 296.592 177.547 297.499 177.949 298.408 C 179.777 300.749 182.275 299.282 184.821 301.69 C 186.29 303.09 185.179 302.669 188.436 303.23 C 193.48 304.032 191.518 303.579 195.355 306.409 C 196.827 307.455 197.183 306.861 198.565 307.769 C 200.483 310.389 199.993 313.217 198.387 315.523 C 193.435 322.578 195.131 321.427 194.906 327.015 C 194.728 330.227 193.792 336.864 190.71 337.667 C 179.513 340.744 186.026 342.874 183.08 348.285 C 182.231 349.824 181.606 350.206 181.07 351.43 C 178.843 356.526 180.402 358.238 173.797 357.088 C 174.424 358.17 174.021 357.435 174.648 358.412 C 176.608 361.383 176.922 363.619 172.904 364.35 C 169.558 364.981 170.986 364.35 170.674 367.984 C 169.379 368.508 168.799 367.984 167.951 368.824 C 169.111 370.92 168.038 369.176 170.006 370.363 C 169.648 371.515 169.379 372.634 169.068 373.751 C 168.312 376.474 168.088 373.961 167.819 377.142 C 168.98 377.663 169.782 377.555 170.808 378.923 C 170.677 379.97 169.604 382.832 169.295 384.474 C 170.946 386.885 172.286 389.468 175.808 389.715 C 175.762 391.738 176.254 391.529 174.47 391.945 C 172.952 392.294 169.739 390.899 168.401 390.201 C 166.08 388.976 163.937 387.37 162.378 385.067 C 161.487 383.776 161.841 384.405 160.903 383.181 C 159.206 381.051 159.881 380.073 159.387 378.639 C 159.118 377.8 157.734 376.893 158.315 374.166 C 158.452 373.4 159.699 369.733 158.183 370.362 C 156.665 370.957 159.344 370.709 157.245 371.691 C 156.753 370.362 156.354 368.406 156.085 366.764 C 155.548 364.004 154.881 363.901 154.567 362.225 C 153.899 358.349 155.593 357.929 153.718 351.466 C 152.487 347.189 152.98 337.073 151.684 331.874 C 151.488 331.149 151.279 330.435 150.908 329.811 L 150.888 329.811 Z"/>
  <path d="M 30.753 136.619 H 477.288 A 22.229 22.229 0 0 1 499.517 158.848 V 416.712 A 23.34 23.34 0 0 1 476.177 440.052 H 30.753 A 22.229 22.229 0 0 1 8.524 417.823 V 158.848 A 22.229 22.229 0 0 1 30.753 136.619 Z M 29.96 168.159 V 408.512 A 11.511 11.511 0 0 0 41.471 420.023 H 465.459 A 12.622 12.622 0 0 0 478.081 407.401 V 168.159 A 11.511 11.511 0 0 0 466.57 156.648 H 41.471 A 11.511 11.511 0 0 0 29.96 168.159 Z" style="stroke: rgb(0, 0, 0); fill: rgb(93, 92, 92);" bx:shape="frame 8.524 136.619 490.993 303.433 21.436 20.029 22.229 22.229 23.34 22.229 1@f26e2002"/>
</svg>