<?xml version="1.0" standalone="no"?>
<!DOCTYPE svg PUBLIC "-//W3C//DTD SVG 20010904//EN" "http://www.w3.org/TR/2001/REC-SVG-20010904/DTD/svg10.dtd">
<svg version="1.0" xmlns="http://www.w3.org/2000/svg" width="629.000000pt" height="629.000000pt"
  viewBox="0 0 629.000000 629.000000" preserveAspectRatio="xMidYMid meet">

  <g transform="translate(0.000000,629.000000) scale(0.100000,-0.100000)" fill="#000000" stroke="none">
    <path d="M527 5749 c-15 -9 -16 -100 -17 -1128 0 -615 -3 -1174 -6 -1242 -4
-95 -2 -128 8 -141 12 -17 90 -18 1267 -18 689 -1 1257 2 1261 7 10 10 18
2509 8 2518 -10 11 -2502 14 -2521 4z m1183 -56 c-39 -27 -41 -32 -38 -147 l2
-108 -39 -14 c-21 -7 -50 -24 -64 -39 -23 -22 -27 -36 -31 -109 -5 -71 -11
-91 -34 -124 -36 -52 -46 -99 -37 -168 7 -49 5 -58 -17 -87 -22 -30 -23 -38
-19 -122 3 -49 2 -115 0 -146 -5 -53 -8 -59 -37 -70 -17 -8 -46 -24 -65 -36
-19 -13 -42 -23 -51 -23 -10 0 -30 -10 -45 -22 -26 -20 -27 -22 -9 -35 10 -7
34 -13 54 -13 28 0 40 -5 49 -23 11 -20 10 -30 -8 -63 -12 -21 -21 -46 -21
-55 0 -14 -14 -19 -77 -24 -114 -10 -111 -8 -110 -63 l2 -47 -60 3 c-121 5
-290 4 -305 -1 -8 -4 -33 -8 -55 -10 -35 -3 -33 -4 13 -5 28 -1 52 1 52 6 0 8
166 7 260 -3 36 -4 71 -7 78 -8 6 0 12 -6 12 -12 0 -10 -67 -13 -280 -13
l-281 0 1 457 c1 251 4 465 6 477 5 19 11 21 77 17 40 -3 86 -11 104 -19 23
-10 51 -12 105 -8 40 4 135 7 210 8 117 1 140 4 155 19 14 14 15 20 5 35 -6 9
-16 27 -22 40 -5 12 -20 26 -33 31 -24 9 -37 29 -37 58 0 23 -40 73 -66 83
-14 6 -24 18 -24 28 0 10 -11 24 -25 30 -29 13 -131 16 -138 5 -3 -5 18 -7 46
-5 71 5 103 -9 110 -47 5 -22 12 -31 26 -31 20 0 68 -56 57 -67 -11 -11 25
-63 49 -69 14 -3 25 -13 25 -22 0 -8 8 -24 17 -34 15 -17 15 -20 3 -28 -8 -6
-33 -10 -55 -10 -22 0 -107 -2 -190 -5 -203 -8 -203 -8 -227 10 -15 10 -46 15
-95 15 l-73 0 0 45 c0 29 4 45 13 45 9 0 9 2 0 8 -9 5 -13 79 -15 270 l-3 262
590 0 c557 0 588 -1 565 -17z m202 -11 c51 -44 81 -62 101 -62 10 0 32 -9 48
-21 l29 -20 -1 33 c-1 18 -3 25 -6 16 -5 -20 -18 -23 -28 -8 -4 6 7 25 24 42
17 18 31 35 31 40 0 4 16 8 35 8 34 0 35 -1 34 -37 -1 -21 0 -44 2 -51 3 -8
-15 -20 -46 -30 -36 -13 -54 -26 -69 -50 -23 -41 -58 -214 -61 -302 -5 -165
-41 -257 -68 -174 -21 64 -112 171 -158 186 -6 2 -15 39 -20 83 -7 65 -14 88
-40 125 -31 43 -31 47 -25 120 5 69 9 77 38 102 27 23 43 28 90 28 49 0 62 -4
90 -28z m188 20 c0 -10 -69 -72 -80 -72 -21 0 -97 48 -103 64 -5 13 8 15 88
14 52 -1 95 -4 95 -6z m531 -208 c9 -11 5 -14 -22 -15 -19 -1 -38 0 -44 1 -5
2 -23 2 -40 2 -30 -2 -30 -2 -9 16 25 21 96 18 115 -4z m-896 -81 c4 -10 8
-67 10 -128 2 -92 6 -117 25 -153 14 -27 26 -73 30 -120 5 -42 11 -88 15 -102
8 -35 -59 -100 -104 -100 -92 0 -185 -43 -179 -83 4 -28 72 -51 112 -37 55 19
108 12 146 -20 26 -22 33 -32 25 -43 -64 -90 -95 -182 -95 -284 0 -29 -4 -53
-9 -53 -23 0 -35 37 -37 109 -1 86 -16 124 -64 165 -27 22 -41 26 -97 26 l-66
0 7 53 c5 35 15 60 32 78 17 18 24 36 24 64 0 47 -10 41 -14 -9 -3 -38 -20
-65 -33 -52 -5 4 -8 39 -7 77 0 51 5 74 17 87 16 15 17 15 17 -1 0 -9 4 -17
10 -17 5 0 6 21 2 53 -4 28 -7 76 -7 105 0 28 -4 52 -8 52 -5 0 -6 4 -2 10 3
5 13 6 23 3 14 -6 15 -4 4 9 -10 13 -9 18 4 29 31 25 47 81 45 155 -2 83 13
103 94 127 67 20 72 20 80 0z m995 -58 c0 -2 -18 -14 -40 -25 -22 -11 -40 -24
-40 -29 0 -5 -13 -11 -29 -13 -17 -2 -28 -1 -25 4 3 4 -12 8 -33 8 -29 1 -34
3 -22 10 9 5 32 10 50 12 19 1 52 10 74 20 39 17 65 23 65 13z m-926 -137 c18
-13 46 -38 62 -57 l29 -35 -25 8 c-14 4 -38 10 -55 13 -37 6 -55 28 -55 65 0
34 2 34 44 6z m40 -90 c55 -15 60 -20 91 -83 35 -73 31 -97 -18 -107 -20 -4
-48 -15 -61 -23 -23 -15 -25 -15 -31 4 -3 11 -7 48 -9 83 -2 35 -8 73 -14 85
-13 23 -16 53 -6 53 4 0 25 -5 48 -12z m278 -230 c52 -39 89 -116 95 -197 6
-78 -8 -133 -40 -157 l-22 -16 22 6 c12 4 24 2 28 -4 3 -5 1 -10 -6 -10 -10 0
-10 -3 -2 -11 13 -13 36 -3 28 12 -9 14 35 11 111 -9 84 -22 162 -76 206 -141
17 -25 40 -56 51 -68 26 -29 11 -30 -20 -1 -13 12 -23 17 -23 11 0 -12 40 -48
63 -56 10 -4 15 -12 12 -18 -4 -6 -1 -9 7 -7 7 1 22 -6 33 -17 12 -11 33 -29
49 -40 15 -11 34 -32 41 -46 20 -37 3 -54 -65 -69 -51 -10 -56 -10 -69 10 -7
11 -24 20 -37 20 -28 0 -68 36 -58 52 4 7 3 8 -4 4 -11 -7 -62 23 -92 55 -8 8
-29 21 -45 27 -21 9 -39 29 -59 67 -15 30 -44 67 -65 82 -35 26 -34 25 11 -27
28 -31 51 -69 54 -88 4 -22 14 -36 30 -42 12 -5 31 -16 41 -24 10 -8 32 -26
50 -38 18 -13 48 -36 68 -52 23 -18 47 -29 66 -28 16 0 27 -3 24 -8 -3 -5 4
-14 15 -20 12 -7 18 -16 13 -23 -17 -28 -8 -35 61 -47 69 -12 145 -50 214
-107 l27 -22 -70 -1 c-38 0 -99 5 -135 12 -70 12 -135 16 -135 8 0 -3 -9 -16
-21 -28 -15 -16 -37 -24 -75 -28 -62 -6 -101 -22 -92 -37 4 -7 -2 -7 -18 -2
-13 4 -51 9 -84 10 -65 2 -173 31 -274 72 -62 26 -190 129 -228 183 -20 28
-44 205 -44 315 0 100 26 205 61 242 29 32 25 58 -15 90 -19 15 -35 31 -35 35
0 3 18 4 40 1 33 -5 40 -3 40 11 0 10 -8 16 -22 16 -13 0 -40 6 -60 13 l-38
13 38 35 c77 71 93 82 144 100 77 26 166 20 210 -13z m-408 -123 c-4 -8 -8
-15 -10 -15 -2 0 -4 7 -4 15 0 8 4 15 10 15 5 0 7 -7 4 -15z m-54 -5 c-12 -8
-10 -10 10 -11 l25 -1 -25 -7 c-30 -9 -59 7 -38 20 7 5 20 9 28 9 13 0 13 -1
0 -10z m-84 -29 c-3 -5 6 -12 20 -15 15 -4 24 -9 22 -12 -8 -8 -68 18 -62 27
3 5 10 9 15 9 6 0 8 -4 5 -9z m10 -187 c42 -25 65 -79 66 -148 1 -40 -4 -71
-12 -81 -7 -8 -11 -16 -9 -18 2 -1 17 -9 33 -17 41 -21 63 -66 75 -155 6 -42
14 -81 17 -86 3 -5 1 -9 -5 -9 -5 0 -12 6 -14 13 -4 8 -6 8 -6 0 -1 -6 18 -26
42 -44 58 -45 77 -66 69 -75 -4 -4 -2 -4 4 -1 6 4 20 -3 30 -15 11 -12 13 -18
5 -13 -10 6 -12 4 -7 -4 4 -6 25 -19 47 -28 43 -17 48 -27 22 -42 -14 -7 -9
-11 27 -21 69 -17 70 -18 70 -45 0 -16 -6 -25 -15 -25 -9 0 -18 -7 -21 -15 -8
-21 -31 -19 -67 8 -26 18 -45 22 -102 22 -60 0 -70 2 -67 17 1 9 -8 24 -20 33
-22 15 -23 15 -28 -12 -5 -26 -9 -28 -56 -31 -43 -2 -56 1 -83 23 -22 19 -40
26 -62 23 -66 -7 -188 161 -156 214 12 19 -6 48 -29 48 -8 0 -14 9 -14 19 0
11 -4 23 -10 26 -25 15 5 212 38 248 17 19 17 18 -29 108 -11 22 10 40 91 78
54 26 73 30 110 25 25 -3 55 -12 66 -20z m-278 -93 c3 -8 -3 -12 -14 -9 -23 4
-31 27 -8 24 10 -2 20 -8 22 -15z m-63 -1 c3 -5 1 -10 -4 -10 -6 0 -11 5 -11
10 0 6 2 10 4 10 3 0 8 -4 11 -10z m34 -254 c-10 -40 -9 -53 7 -94 10 -26 17
-57 16 -69 -1 -12 5 -26 12 -30 8 -4 21 -27 29 -50 l14 -41 -40 14 c-49 17
-42 18 -66 -8 -16 -16 -21 -18 -25 -7 -2 8 -7 22 -10 32 -3 9 -14 17 -25 17
-12 0 -21 9 -25 25 -7 26 -39 35 -52 13 -5 -8 -2 -9 9 -5 22 8 28 -5 21 -42
-9 -42 -27 -39 -47 7 -21 47 -21 58 -2 66 8 3 15 13 15 22 0 13 8 15 43 10
l42 -5 -37 10 c-37 11 -38 11 -32 52 9 64 12 69 35 62 15 -5 19 -4 15 4 -4 6
-13 11 -21 11 -8 0 -18 8 -24 18 -9 15 -1 18 72 27 45 6 83 10 85 9 2 -1 -2
-22 -9 -48z m1551 18 c0 -17 -22 -14 -28 4 -2 7 3 12 12 12 9 0 16 -7 16 -16z
m-1772 -124 c39 0 43 -2 40 -21 -2 -17 -11 -22 -43 -25 -23 -2 -45 -11 -52
-21 -12 -16 -13 -16 -13 0 0 10 -8 17 -19 17 -11 0 -21 6 -23 12 -4 10 -10 10
-33 0 -15 -7 -25 -15 -22 -19 4 -3 14 0 23 8 13 11 18 11 21 2 3 -7 13 -13 24
-13 12 0 16 -5 13 -15 -8 -20 20 -20 36 0 7 8 16 12 22 9 5 -3 15 -1 22 5 11
9 15 4 18 -29 4 -44 -5 -58 -25 -42 -7 5 -32 13 -57 17 -25 4 -52 12 -60 19
-18 14 -65 15 -65 1 0 -5 11 -10 25 -10 14 -1 38 -6 53 -13 16 -7 41 -12 57
-12 16 0 32 -4 35 -10 3 -5 15 -10 26 -10 11 0 29 -9 41 -20 16 -14 25 -17 39
-9 11 5 19 14 19 19 0 6 9 10 20 10 15 0 20 -7 20 -25 0 -29 26 -45 72 -45 18
1 40 1 48 0 8 0 26 1 39 2 13 2 26 -2 28 -8 4 -11 -45 -28 -114 -39 -36 -6
-43 -11 -48 -35 -5 -24 -12 -30 -43 -33 l-37 -4 40 0 c23 1 46 -2 53 -6 6 -4
55 -10 109 -13 122 -6 183 -20 183 -44 0 -14 -16 -20 -76 -30 -41 -7 -85 -21
-97 -30 -12 -10 -37 -21 -55 -24 -24 -6 -33 -14 -37 -34 -3 -15 -10 -42 -16
-59 -6 -18 -7 -52 -4 -75 4 -30 1 -55 -10 -82 -12 -27 -13 -42 -6 -49 13 -13
15 -57 2 -57 -5 0 -11 10 -13 23 -2 17 -9 21 -28 20 -22 -2 -23 -2 -7 8 15 9
18 18 12 48 -4 20 -11 41 -16 48 -6 6 -9 28 -7 48 2 27 -2 40 -14 49 -23 14
-52 -3 -56 -33 -3 -17 -9 -22 -30 -19 -20 2 -28 11 -35 38 -14 54 -33 70 -87
70 -26 0 -66 7 -90 15 -36 13 -45 13 -69 0 -45 -23 -54 -41 -52 -102 1 -49 -3
-63 -28 -98 -20 -28 -27 -45 -20 -52 14 -14 0 -63 -18 -63 -12 0 -14 9 -8 48
5 38 3 51 -10 62 -21 17 -49 2 -51 -26 -2 -27 -33 -92 -35 -74 -1 8 -3 20 -3
25 -1 6 -4 15 -8 20 -3 6 -6 108 -6 228 l0 218 96 -4 c53 -3 122 -9 152 -15
30 -5 60 -7 66 -5 19 7 4 53 -17 53 -11 0 -19 7 -19 15 0 12 -8 14 -37 10 -61
-9 -175 -13 -209 -8 l-31 5 -2 143 c-1 142 -1 144 21 147 13 2 117 2 233 1
116 -2 229 -3 253 -3z m1792 -45 c0 -8 -4 -15 -9 -15 -5 0 -11 7 -15 15 -3 9
0 15 9 15 8 0 15 -7 15 -15z m-1500 -21 c0 -9 -5 -14 -12 -12 -18 6 -21 28 -4
28 9 0 16 -7 16 -16z m0 -135 c0 -13 -37 -11 -45 1 -4 6 -15 8 -26 5 -18 -6
-26 5 -14 17 9 8 85 -13 85 -23z m94 -88 c15 -16 41 -31 57 -35 18 -3 29 -12
29 -22 0 -12 -5 -15 -22 -9 -13 4 -54 10 -91 14 -42 4 -71 12 -77 21 -7 11
-13 12 -35 2 -40 -18 -65 -15 -65 8 0 15 7 20 28 21 15 0 45 6 67 14 61 20 79
18 109 -14z m-640 -23 l-19 -21 37 6 c29 4 36 3 31 -9 -6 -17 -41 -18 -80 -3
-15 6 -64 11 -108 11 -44 0 -89 4 -100 8 -12 5 24 9 95 10 63 1 124 5 135 10
29 13 30 12 9 -12z m516 -28 c0 -5 -2 -10 -4 -10 -3 0 -8 5 -11 10 -3 6 -1 10
4 10 6 0 11 -4 11 -10z m280 -16 c0 -2 -7 -4 -15 -4 -8 0 -15 4 -15 10 0 5 7
7 15 4 8 -4 15 -8 15 -10z m604 -39 c-10 -25 -19 -17 -18 15 2 44 4 47 14 22
5 -12 7 -29 4 -37z m216 2 c0 -12 -4 -28 -9 -35 -11 -18 -21 19 -14 48 7 25
23 16 23 -13z m-700 3 c0 -6 -26 -10 -59 -10 -33 0 -67 -3 -75 -6 -12 -5 -15
-2 -10 10 5 13 21 16 75 16 39 0 69 -4 69 -10z m595 -20 c53 0 54 -1 59 -32 8
-45 12 -208 6 -209 -3 0 -34 -1 -69 -1 -64 -2 -65 -1 -73 28 -12 41 -22 190
-14 210 4 10 12 14 22 10 9 -3 40 -6 69 -6z m354 -11 c58 -30 132 -48 159 -38
12 5 58 7 102 6 l80 -2 0 -131 c0 -183 -8 -254 -30 -254 -11 0 -20 13 -26 37
-6 26 -19 44 -41 58 -18 11 -32 25 -31 30 2 31 -4 45 -22 55 -35 19 -56 4 -71
-52 -12 -43 -19 -53 -41 -59 -16 -4 -30 -3 -34 2 -3 5 6 9 20 9 19 0 26 5 26
20 0 23 -28 27 -36 5 -11 -27 -34 -17 -34 14 0 42 -35 61 -107 60 -32 -1 -77
0 -100 1 l-42 2 -3 57 c-2 31 -2 86 0 123 l4 67 86 4 c48 1 90 4 94 5 4 1 25
-7 47 -19z m-513 -1 c14 -22 15 -172 1 -189 -16 -21 -63 -37 -52 -18 5 8 -1 6
-13 -5 -15 -13 -29 -17 -49 -12 -15 4 -43 10 -60 13 -19 3 -33 11 -33 19 0 10
-6 11 -22 5 -29 -10 -35 -38 -11 -44 14 -4 13 -5 -4 -6 -13 0 -23 3 -23 8 0
10 -33 9 -41 -2 -3 -4 -61 -9 -130 -12 l-124 -4 0 44 c0 25 3 45 8 45 4 0 7
-7 7 -15 0 -8 5 -15 10 -15 6 0 10 6 10 13 0 9 3 8 9 -2 6 -9 11 -10 15 -2 4
6 13 11 19 11 7 0 6 -4 -3 -10 -11 -7 -11 -10 -2 -10 7 0 11 -3 9 -7 -7 -11
210 -10 220 1 5 5 1 7 -9 3 -10 -3 -20 -1 -24 5 -4 7 -9 6 -14 -2 -9 -15 -30
-4 -30 15 0 7 -10 16 -22 18 -20 4 -19 4 5 6 21 1 27 -3 27 -20 0 -14 4 -18
13 -12 6 4 20 6 30 5 22 -4 22 11 0 29 -11 10 -14 10 -9 2 4 -7 2 -13 -3 -13
-6 0 -11 8 -11 19 0 27 37 34 61 10 23 -23 24 -29 3 -29 -8 0 -12 -5 -9 -10 5
-8 11 -8 19 -1 7 6 22 8 34 4 13 -3 30 1 40 9 15 12 20 10 45 -13 31 -30 11
-35 -22 -5 -19 18 -20 17 -18 -3 1 -13 6 -20 14 -17 7 3 13 2 13 -3 0 -5 11
-8 25 -8 14 0 25 3 25 8 0 11 -29 39 -41 39 -13 0 -11 17 4 32 11 10 11 15 0
27 -7 9 -18 24 -26 34 -7 10 -22 19 -34 20 -12 0 -19 5 -17 9 3 5 10 6 15 3
14 -9 11 5 -5 20 -7 8 -16 11 -20 8 -3 -4 -6 -2 -6 3 0 15 197 18 206 2z
m-247 -52 c-3 -3 -11 5 -18 17 -13 21 -12 21 5 5 10 -10 16 -20 13 -22z m-439
15 c0 -5 -10 -13 -22 -17 -13 -3 -32 -14 -42 -23 -14 -12 -18 -13 -14 -2 2 8
20 22 38 33 40 21 40 21 40 9z m538 -48 c7 -12 3 -22 -17 -39 -25 -22 -26 -22
-43 -4 -21 23 -22 32 -6 48 17 17 55 15 66 -5z m-570 -39 c2 -1 -5 -5 -15 -8
-9 -4 -14 -4 -10 0 4 4 1 14 -6 23 -11 14 -10 15 8 1 11 -8 21 -15 23 -16z
m-575 1 c20 -8 57 -15 82 -15 43 0 46 -2 62 -37 25 -56 43 -73 75 -73 24 0 30
5 35 30 7 38 27 34 31 -6 2 -16 10 -48 19 -72 14 -39 14 -44 0 -60 -18 -19
-10 -42 13 -39 8 1 17 -2 20 -8 3 -6 -30 -11 -88 -13 -85 -3 -95 -1 -110 18
l-17 22 -19 -21 c-17 -19 -30 -21 -138 -21 l-118 0 0 25 c0 16 6 25 15 25 18
0 20 21 4 37 -9 9 -6 19 10 39 16 21 21 41 21 90 0 91 26 111 103 79z m617
-20 c5 3 11 -4 15 -15 4 -11 11 -17 17 -14 7 4 8 2 4 -4 -10 -16 -26 -15 -26
1 0 7 -9 18 -20 25 -11 7 -20 18 -20 25 0 6 5 4 11 -6 6 -9 14 -15 19 -12z
m-35 -15 c3 -5 2 -10 -4 -10 -5 0 -13 5 -16 10 -3 6 -2 10 4 10 5 0 13 -4 16
-10z m275 0 c8 -5 13 -10 10 -11 -3 0 -13 -2 -22 -4 -10 -2 -18 3 -18 11 0 16
9 18 30 4z m-230 -53 c0 -4 -6 -2 -14 5 -8 7 -12 17 -9 22 5 8 23 -12 23 -27z
m64 -22 c3 -9 0 -15 -8 -15 -7 0 -13 7 -13 15 0 8 4 15 8 15 4 0 9 -7 13 -15z
m1304 -32 c5 -10 7 -23 5 -30 -2 -7 11 -22 30 -35 38 -24 66 -85 43 -94 -25
-9 -58 3 -69 27 -16 32 -39 30 -55 -3 -9 -20 -19 -27 -35 -24 -26 4 -25 27 4
67 10 15 19 34 19 42 0 53 39 86 58 50z m-1358 -33 c0 -16 -5 -32 -11 -35 -15
-10 -17 -4 -11 37 5 43 22 41 22 -2z m403 31 c5 -1 5 -5 2 -11 -3 -5 -2 -10 4
-10 5 0 11 6 14 13 4 14 231 11 257 -4 12 -7 10 -8 -7 -9 -25 0 -31 -15 -10
-23 7 -3 26 -3 43 -1 16 2 23 1 17 -2 -35 -16 -2 -22 110 -21 103 1 126 -1
149 -17 34 -22 180 -35 201 -17 14 11 51 11 63 -1 3 -4 3 -16 -1 -27 -6 -21
-10 -21 -390 -21 l-385 0 10 26 c14 37 12 64 -5 64 -8 0 -19 9 -25 21 -11 19
-13 19 -36 4 -24 -16 -50 -12 -39 6 4 5 1 9 -4 9 -15 0 -14 -19 3 -36 16 -15
51 -20 42 -5 -3 5 0 14 8 20 11 9 15 7 19 -9 3 -11 1 -18 -4 -14 -5 3 -9 -1
-9 -9 0 -10 -8 -13 -25 -9 -15 2 -25 0 -25 -7 0 -10 21 -16 43 -12 4 0 7 -3 7
-8 0 -5 -14 -8 -31 -7 -19 0 -34 -5 -37 -13 -3 -10 2 -13 21 -9 15 3 24 1 21
-3 -3 -5 -19 -9 -35 -9 -29 0 -29 0 -14 30 8 16 15 35 15 43 0 22 -23 37 -47
31 -33 -9 -38 -36 -10 -59 27 -24 25 -45 -7 -45 -31 0 -47 19 -36 41 8 14 4
19 -20 27 -24 9 -28 15 -26 39 2 22 9 29 30 31 16 2 36 -4 47 -14 17 -16 19
-16 19 -1 0 10 -6 18 -12 18 -7 1 1 4 17 8 17 4 39 6 50 5 11 -1 24 -3 28 -3z
m532 0 c-3 -6 11 -22 32 -36 29 -21 32 -25 13 -19 -14 4 -41 10 -60 14 -27 5
-31 9 -17 15 9 4 17 13 17 21 0 8 5 14 11 14 5 0 8 -4 4 -9z m-1157 -56 c-6
-14 -17 -25 -25 -25 -17 0 -17 11 3 38 20 29 37 19 22 -13z m382 15 c0 -5 5
-10 11 -10 5 0 7 6 3 13 -7 10 7 2 36 -21 3 -3 -11 -2 -30 1 -19 2 -43 0 -53
-5 -26 -14 -34 -1 -11 17 22 17 44 19 44 5z m-1012 -28 c2 -7 -3 -12 -12 -12
-9 0 -16 7 -16 16 0 17 22 14 28 -4z m906 -8 c-22 -8 -40 -14 -41 -14 -1 0 0
-7 3 -15 4 -9 0 -15 -9 -15 -8 0 -17 5 -19 12 -3 8 -9 8 -24 -1 -15 -9 -16
-11 -2 -9 9 2 18 -1 20 -7 2 -6 -14 -9 -37 -8 -34 2 -36 1 -15 -7 21 -7 22 -8
5 -9 -11 0 -26 3 -34 8 -27 17 -3 37 60 50 35 7 75 18 89 26 14 7 29 11 34 8
5 -3 -9 -12 -30 -19z m289 1 c4 -8 3 -16 -1 -19 -13 -8 -35 11 -28 23 10 15
23 14 29 -4z m-1123 -5 c0 -5 -2 -10 -4 -10 -3 0 -8 5 -11 10 -3 6 -1 10 4 10
6 0 11 -4 11 -10z m995 -15 c29 -13 29 -13 5 -14 -14 0 -50 2 -80 6 -45 5 -50
8 -30 14 39 11 72 9 105 -6z m249 -12 c-9 -37 -13 -43 -28 -43 -11 0 -10 8 3
35 19 41 34 46 25 8z m-1324 -24 c0 -20 -24 -26 -35 -9 -8 13 14 42 26 34 5
-3 9 -14 9 -25z m1120 -5 c7 -7 -22 -11 -90 -11 -66 0 -100 4 -100 11 0 7 -3
8 -8 1 -10 -15 -34 -13 -40 4 -4 11 16 13 112 9 64 -2 121 -9 126 -14z m1090
1 c0 -8 -7 -15 -15 -15 -16 0 -20 12 -8 23 11 12 23 8 23 -8z m-1860 -5 c0 -5
-4 -10 -10 -10 -5 0 -10 5 -10 10 0 6 5 10 10 10 6 0 10 -4 10 -10z m520 6 c0
-3 -4 -8 -10 -11 -5 -3 -10 -1 -10 4 0 6 5 11 10 11 6 0 10 -2 10 -4z" />
    <path d="M805 5360 c-13 -5 -14 -9 -5 -9 8 0 24 4 35 9 13 5 14 9 5 9 -8 0
-24 -4 -35 -9z" />
    <path d="M757 5333 c-8 -10 -18 -35 -22 -55 -9 -48 -33 -68 -97 -84 -29 -7
-44 -13 -33 -13 67 -3 131 41 141 98 4 20 13 44 22 54 8 9 13 17 10 17 -3 0
-12 -8 -21 -17z" />
    <path d="M1491 4844 c0 -11 3 -14 6 -6 3 7 2 16 -1 19 -3 4 -6 -2 -5 -13z" />
    <path d="M1915 4834 c-20 -20 -4 -44 30 -44 27 0 40 27 24 46 -15 18 -34 18
-54 -2z m45 -9 c10 -12 9 -16 -5 -21 -19 -8 -40 9 -31 25 10 15 21 14 36 -4z" />
    <path d="M1930 4820 c0 -5 5 -10 10 -10 6 0 10 5 10 10 0 6 -4 10 -10 10 -5 0
-10 -4 -10 -10z" />
    <path d="M1855 4800 c-3 -6 1 -7 9 -4 18 7 21 14 7 14 -6 0 -13 -4 -16 -10z" />
    <path d="M2130 4540 c0 -5 5 -10 11 -10 5 0 7 5 4 10 -3 6 -8 10 -11 10 -2 0
-4 -4 -4 -10z" />
    <path d="M2330 4371 c0 -6 7 -14 15 -17 8 -4 15 -12 15 -19 0 -7 9 -23 19 -36
16 -20 30 -24 78 -26 32 -1 72 -4 88 -7 21 -4 23 -3 8 2 -13 4 -32 15 -44 26
-18 15 -21 16 -16 2 8 -21 -12 -21 -41 0 -12 8 -22 10 -22 5 0 -22 -30 -10
-44 18 -14 26 -14 30 -1 35 8 3 23 3 33 0 14 -5 15 -4 2 5 -8 5 -25 8 -38 4
-12 -3 -29 0 -37 7 -11 9 -15 9 -15 1z" />
    <path d="M2430 4376 c0 -2 7 -7 16 -10 8 -3 12 -2 9 4 -6 10 -25 14 -25 6z" />
    <path d="M2595 3900 c-3 -5 -1 -10 4 -10 6 0 11 5 11 10 0 6 -2 10 -4 10 -3 0
-8 -4 -11 -10z" />
    <path d="M2288 3803 c7 -3 16 -2 19 1 4 3 -2 6 -13 5 -11 0 -14 -3 -6 -6z" />
    <path d="M1389 4504 c-10 -13 -10 -17 1 -24 18 -11 30 -3 30 21 0 23 -13 25
-31 3z" />
    <path d="M1617 4203 c-11 -10 -8 -41 5 -49 8 -5 9 -2 5 9 -3 9 1 23 9 32 13
12 13 15 1 15 -7 0 -17 -3 -20 -7z" />
    <path d="M1671 4086 c2 -2 15 -9 29 -16 23 -12 24 -12 11 3 -7 10 -20 17 -29
17 -8 0 -13 -2 -11 -4z" />
    <path d="M1180 4005 c0 -20 5 -25 25 -25 20 0 25 5 25 25 0 20 -5 25 -25 25
-20 0 -25 -5 -25 -25z m40 -6 c0 -5 -4 -9 -10 -9 -5 0 -10 7 -10 16 0 8 5 12
10 9 6 -3 10 -10 10 -16z" />
    <path d="M1022 3827 c-14 -16 -6 -27 20 -27 13 0 18 6 16 17 -4 22 -22 27 -36
10z m23 -7 c3 -5 -1 -10 -10 -10 -9 0 -13 5 -10 10 3 6 8 10 10 10 2 0 7 -4
10 -10z" />
    <path d="M915 3799 c-10 -15 3 -25 16 -12 7 7 7 13 1 17 -6 3 -14 1 -17 -5z" />
    <path d="M1073 3748 c-15 -19 -33 -77 -33 -104 0 -32 49 -46 64 -19 6 10 21
30 34 45 25 32 21 52 -13 74 -29 19 -40 20 -52 4z m55 -28 c18 0 15 -14 -10
-54 -38 -59 -78 -41 -56 26 6 18 13 39 15 47 3 11 7 11 21 -3 10 -9 24 -16 30
-16z" />
    <path d="M899 3734 c-11 -14 -10 -18 6 -30 25 -19 51 -18 59 2 14 37 -39 59
-65 28z m47 -5 c10 -17 -13 -36 -27 -22 -12 12 -4 33 11 33 5 0 12 -5 16 -11z" />
    <path d="M870 3674 c0 -9 5 -14 12 -12 18 6 21 28 4 28 -9 0 -16 -7 -16 -16z" />
    <path d="M1231 3651 c-19 -12 -6 -43 16 -39 10 2 18 12 18 22 0 22 -14 29 -34
17z" />
    <path d="M698 3639 c-25 -14 -22 -31 7 -59 20 -19 30 -22 43 -14 23 15 27 48
7 68 -19 18 -33 20 -57 5z m50 -36 c4 -25 -16 -31 -36 -11 -20 20 -14 40 11
36 14 -2 23 -11 25 -25z" />
    <path d="M952 3638 c-13 -13 2 -38 24 -38 20 0 27 19 14 35 -15 18 -22 19 -38
3z" />
    <path d="M1175 3619 c-10 -15 1 -23 20 -15 9 3 13 10 10 16 -8 13 -22 13 -30
-1z" />
    <path d="M1202 3578 c-17 -17 -15 -48 4 -55 23 -8 47 20 39 46 -7 23 -25 27
-43 9z m31 -23 c-7 -19 -33 -20 -33 -1 0 15 20 26 32 19 4 -2 5 -10 1 -18z" />
    <path d="M601 3556 c2 -2 22 -6 44 -9 27 -4 35 -3 25 3 -14 9 -79 15 -69 6z" />
    <path d="M664 3506 c-8 -22 3 -33 18 -18 9 9 9 15 0 24 -9 9 -13 7 -18 -6z" />
    <path d="M2938 3572 c-21 -24 -12 -54 15 -50 26 4 35 39 14 56 -11 9 -17 8
-29 -6z m23 -25 c-13 -13 -26 -3 -16 12 3 6 11 8 17 5 6 -4 6 -10 -1 -17z" />
    <path d="M2530 3540 c0 -5 5 -10 10 -10 6 0 10 5 10 10 0 6 -4 10 -10 10 -5 0
-10 -4 -10 -10z" />
    <path d="M2957 3473 c-10 -9 -9 -43 1 -43 15 0 30 22 25 36 -6 15 -16 18 -26
7z" />
    <path d="M2550 3460 c0 -5 5 -10 11 -10 5 0 7 5 4 10 -3 6 -8 10 -11 10 -2 0
-4 -4 -4 -10z" />
    <path d="M837 3502 c-21 -23 -22 -46 -2 -62 20 -17 19 -33 -4 -47 -30 -19 -11
-82 25 -83 18 0 64 66 69 97 2 16 7 42 10 58 6 28 4 32 -27 43 -45 16 -52 15
-71 -6z m57 -12 c22 -8 24 -13 19 -47 -6 -41 -39 -103 -54 -103 -18 0 -21 29
-5 45 21 21 20 54 -1 77 -15 17 -15 20 -3 28 18 12 14 12 44 0z" />
    <path d="M1030 3381 c0 -15 6 -21 21 -21 14 0 19 5 17 17 -5 26 -38 29 -38 4z
m30 -1 c0 -5 -4 -10 -10 -10 -5 0 -10 5 -10 10 0 6 5 10 10 10 6 0 10 -4 10
-10z" />
    <path d="M974 3359 c-10 -17 13 -36 27 -22 12 12 4 33 -11 33 -5 0 -12 -5 -16
-11z" />
    <path d="M1027 3334 c-9 -10 2 -24 19 -24 8 0 14 7 14 15 0 15 -21 21 -33 9z" />
    <path d="M1980 3390 c0 -5 5 -10 11 -10 5 0 8 -4 5 -9 -4 -5 -2 -21 4 -36 8
-22 15 -26 35 -23 24 5 32 -6 25 -37 -1 -5 8 -1 19 9 21 19 20 36 -2 36 -7 0
-18 9 -25 20 -7 11 -19 20 -26 20 -8 0 -18 9 -21 20 -7 21 -25 28 -25 10z" />
    <path d="M1747 3369 c-3 -10 0 -22 5 -26 6 -3 8 -1 5 4 -4 6 0 13 8 16 9 4 12
1 8 -9 -3 -7 0 -14 6 -14 6 0 10 10 9 23 -2 29 -34 33 -41 6z" />
    <path d="M2025 3380 c-3 -5 1 -10 9 -10 9 0 16 5 16 10 0 6 -4 10 -9 10 -6 0
-13 -4 -16 -10z" />
    <path d="M3217 5753 c-15 -26 -27 -2507 -12 -2522 11 -10 2520 -30 2530 -19 1
2 4 572 6 1268 l4 1265 -115 6 c-167 9 -2408 10 -2413 2z m2219 -43 l281 0 -4
-787 c-3 -434 -9 -792 -13 -796 -4 -4 -36 -4 -71 2 -69 10 -127 10 -145 -1 -6
-4 -37 -5 -70 -2 -32 4 -66 5 -74 4 -8 -1 -34 -2 -57 -1 -24 0 -43 -4 -43 -9
0 -6 60 -8 153 -4 83 3 161 6 172 6 55 2 145 -16 145 -28 0 -11 -49 -13 -267
-9 -210 3 -268 7 -268 17 0 8 11 12 30 11 27 -2 26 -1 -7 9 -21 5 -38 15 -38
22 0 6 -9 28 -20 49 -23 42 -18 45 25 17 38 -25 55 -25 55 0 0 11 7 20 15 20
8 0 15 7 15 16 0 28 -18 50 -57 68 -27 12 -46 30 -62 61 -27 50 -84 85 -154
92 -68 8 -88 -6 -136 -96 -35 -65 -50 -82 -75 -91 -34 -11 -105 -79 -126 -119
-12 -23 -15 -23 -79 -16 -79 8 -85 8 -137 0 l-41 -7 -8 73 c-14 134 -13 141
17 158 23 13 32 13 62 3 20 -7 40 -11 46 -7 20 12 -4 35 -56 52 -30 9 -54 21
-54 26 0 11 73 2 99 -13 28 -14 31 -13 31 14 0 32 -20 47 -72 53 -27 4 -55 17
-76 34 -18 16 -36 29 -40 29 -4 1 -27 5 -52 10 -71 15 -146 -6 -190 -52 -32
-32 -37 -44 -38 -90 -2 -58 -4 -61 -100 -124 -57 -38 -81 -38 -97 -2 -7 17
-18 23 -39 22 -32 0 -69 29 -80 63 -4 11 -13 27 -21 33 -8 7 -15 23 -15 36 0
31 -26 54 -62 54 -32 0 -67 32 -68 62 0 20 -52 50 -72 43 -8 -3 -21 8 -31 28
-10 19 -37 48 -59 65 -35 27 -47 31 -78 26 -23 -4 -40 -2 -44 5 -4 6 -16 11
-27 11 -19 0 -20 7 -17 313 1 171 4 390 6 485 l3 174 952 -6 c524 -3 1079 -5
1233 -6z m-2110 -991 c34 1 46 -5 83 -40 23 -23 46 -52 52 -66 5 -14 16 -24
26 -22 41 4 53 -3 67 -36 8 -19 20 -35 25 -35 6 0 11 -7 11 -15 0 -10 10 -15
33 -15 37 0 57 -15 57 -43 0 -10 11 -33 25 -51 14 -18 25 -36 25 -39 0 -3 11
-17 24 -30 16 -16 32 -23 48 -20 17 3 29 -3 45 -25 l22 -30 -39 -26 c-22 -14
-67 -33 -101 -40 -57 -14 -86 -28 -101 -51 -4 -6 -78 -9 -197 -7 l-191 3 0
301 0 300 23 -7 c12 -4 40 -7 63 -6z m986 -179 c37 -11 72 -45 62 -62 -3 -4
-1 -8 5 -8 5 0 11 4 13 9 4 12 58 2 58 -11 0 -6 -21 -8 -49 -6 -27 1 -47 0
-45 -4 2 -3 -4 -8 -13 -11 -15 -3 -13 -6 9 -17 32 -15 32 -39 -1 -74 l-23 -24
17 -75 c19 -88 10 -166 -31 -257 -44 -96 -109 -146 -212 -162 -94 -14 -199
-11 -225 7 -16 11 -35 13 -70 9 -34 -5 -53 -3 -65 7 -50 41 -80 50 -123 39
-23 -7 -58 -9 -78 -5 l-36 7 30 24 c17 13 26 24 22 24 -12 0 -77 -51 -77 -60
0 -14 79 -20 125 -10 39 9 52 7 90 -10 24 -11 47 -25 50 -30 4 -6 25 -8 55 -4
35 5 54 2 70 -9 12 -8 30 -13 40 -10 16 4 19 -3 23 -59 10 -111 11 -108 -53
-102 -55 5 -93 14 -181 41 -26 7 -80 15 -121 16 -40 2 -78 6 -84 9 -5 4 -65 8
-132 10 l-122 3 2 190 3 190 105 -2 c58 0 139 -2 180 -2 l75 -1 2 -33 1 -33
-86 -12 c-146 -21 -204 -34 -209 -49 -3 -8 -2 -17 2 -21 3 -4 181 -7 393 -7
214 0 358 3 322 7 -36 4 -87 10 -115 14 -27 3 -69 6 -91 7 -35 1 -39 3 -25 14
9 7 24 13 34 13 10 0 16 4 13 9 -3 5 -26 4 -53 -1 -34 -8 -52 -7 -65 1 -10 6
-23 9 -29 5 -17 -10 -72 17 -60 29 15 15 14 27 -4 27 -22 0 -18 21 5 27 14 4
19 11 15 24 -5 15 1 19 32 24 21 4 53 11 72 16 19 4 52 7 75 5 23 -2 28 -1 13
1 -36 6 -29 29 7 26 14 -1 24 2 21 7 -3 4 18 13 45 20 28 7 52 16 55 20 3 4
-12 4 -32 -1 -49 -10 -51 -6 -8 17 19 10 35 22 35 26 0 11 74 44 103 47 15 1
19 31 5 31 -15 0 -8 95 10 124 30 49 134 71 224 46z m183 -80 c3 -5 1 -10 -4
-10 -6 0 -11 5 -11 10 0 6 2 10 4 10 3 0 8 -4 11 -10z m572 -46 c30 -19 77
-90 68 -103 -4 -7 4 -11 18 -11 14 0 31 -8 38 -17 12 -15 12 -16 -6 -9 -11 4
-37 10 -57 13 -22 3 -35 10 -31 16 3 6 1 7 -5 3 -20 -12 -13 -25 22 -40 35
-15 61 -41 29 -29 -10 3 -23 10 -29 15 -23 17 -22 -19 2 -68 13 -27 29 -73 35
-101 11 -47 10 -55 -6 -73 -14 -16 -16 -23 -7 -32 19 -19 14 -65 -10 -87 -11
-11 -25 -18 -29 -15 -4 2 -10 0 -14 -6 -3 -5 1 -10 9 -10 25 0 19 -24 -14 -55
-26 -25 -34 -28 -50 -17 -12 7 -21 8 -25 2 -4 -6 -26 -8 -54 -4 -35 4 -57 2
-80 -11 -18 -9 -35 -14 -38 -11 -4 3 11 13 33 22 21 9 46 22 55 30 8 8 37 16
64 19 57 6 85 13 85 24 0 17 -117 -6 -158 -31 -19 -12 -50 -20 -72 -20 -22 0
-42 -3 -45 -9 -4 -5 -14 -9 -23 -9 -13 0 -13 3 -4 12 10 10 8 16 -10 29 l-22
17 25 39 c14 21 34 59 45 85 10 27 22 48 26 48 4 0 5 7 1 15 -9 25 18 108 41
127 21 18 21 18 -11 12 -22 -4 -33 -3 -33 5 0 6 -4 11 -10 11 -14 0 -13 -27 2
-32 14 -5 -4 -106 -34 -185 -28 -77 -88 -143 -88 -98 0 11 -7 14 -25 9 -23 -6
-25 -4 -19 25 4 20 3 31 -5 31 -6 0 -11 -9 -11 -19 0 -11 -4 -23 -10 -26 -15
-9 -12 119 4 188 14 60 53 125 94 158 13 10 49 27 80 36 41 13 50 19 34 23
-19 5 -18 8 19 72 32 54 46 69 72 76 34 9 91 -5 134 -34z m-637 -10 c0 -2 -9
-4 -20 -4 -11 0 -20 4 -20 9 0 5 9 7 20 4 11 -3 20 -7 20 -9z m765 -154 c3 -6
-1 -7 -9 -4 -18 7 -21 14 -7 14 6 0 13 -4 16 -10z m-608 -126 c67 -12 20 -22
-94 -19 -73 1 -118 6 -121 13 -6 19 122 22 215 6z m-20 -34 c41 0 44 -2 38
-21 -4 -12 -7 -65 -6 -117 0 -80 -2 -98 -19 -119 -11 -14 -20 -31 -20 -37 0
-7 -20 -29 -45 -49 -25 -21 -45 -42 -45 -48 0 -5 21 -19 48 -31 46 -20 49 -20
132 -4 48 10 101 27 121 41 20 13 40 21 43 18 3 -4 6 -35 6 -70 0 -59 -1 -63
-23 -63 -13 0 -27 -4 -32 -9 -11 -11 -235 -20 -235 -9 0 15 -33 38 -55 38 -12
0 -36 7 -51 15 -21 11 -62 15 -146 15 l-117 0 -3 96 c-3 95 -3 97 22 106 37
14 109 76 134 117 13 20 30 56 38 81 13 39 19 46 49 52 19 3 54 4 78 2 24 -2
64 -4 88 -4z m1143 -228 c-1 -114 -4 -256 -7 -317 l-6 -110 -101 49 c-134 65
-249 96 -352 96 -45 0 -109 3 -144 7 l-63 6 6 84 c4 75 7 85 31 104 15 12 35
38 46 58 10 21 26 43 34 50 9 8 16 29 16 51 0 20 3 58 6 84 l7 46 264 -1 264
0 -1 -207z m-2090 128 c11 -7 7 -10 -17 -10 -18 0 -33 5 -33 10 0 13 30 13 50
0z m-175 -10 c3 -5 -3 -10 -14 -10 -12 0 -21 5 -21 10 0 6 6 10 14 10 8 0 18
-4 21 -10z m90 0 c-3 -5 -12 -7 -20 -3 -21 7 -19 13 6 13 11 0 18 -4 14 -10z
m1139 -124 c27 -7 28 -7 10 -27 -10 -11 -24 -17 -31 -15 -7 3 -24 0 -38 -6
-37 -17 -41 -3 -10 38 15 20 30 32 34 27 3 -6 19 -13 35 -17z m-556 -121 l3
-96 -70 2 -70 2 -3 81 -3 81 60 11 c33 6 65 12 70 13 7 0 12 -35 13 -94z m608
71 c10 -8 16 -17 12 -21 -11 -11 -48 5 -48 21 0 18 11 18 36 0z m-764 -40 c-3
-5 -9 -1 -12 10 -4 10 -5 23 -2 28 3 5 9 1 12 -10 4 -10 5 -23 2 -28z m175 12
c-3 -7 -5 -2 -5 12 0 14 2 19 5 13 2 -7 2 -19 0 -25z m468 -17 c-8 -13 -35
-15 -35 -2 0 5 8 11 18 13 21 5 26 2 17 -11z m367 9 c22 0 34 -43 30 -117 -3
-59 -4 -62 -33 -68 -16 -4 -47 -4 -69 0 l-40 7 0 83 c0 82 1 84 28 94 15 5 36
8 47 6 11 -3 27 -5 37 -5z m-282 -10 c3 0 -3 -5 -13 -11 -18 -10 -37 -5 -37
12 0 7 12 7 50 -1z m340 -22 c0 -19 -2 -20 -10 -8 -13 19 -13 30 0 30 6 0 10
-10 10 -22z m-193 -20 c-3 -8 -6 -5 -6 6 -1 11 2 17 5 13 3 -3 4 -12 1 -19z
m-880 -40 c-2 -13 -4 -5 -4 17 -1 22 1 32 4 23 2 -10 2 -28 0 -40z m595 30
c-7 -7 -12 -8 -12 -2 0 6 3 14 7 17 3 4 9 5 12 2 2 -3 -1 -11 -7 -17z m93 2
c3 -5 -1 -10 -10 -10 -9 0 -13 5 -10 10 3 6 8 10 10 10 2 0 7 -4 10 -10z
m-1184 -10 c30 -6 81 -12 114 -15 33 -2 96 -14 140 -26 44 -12 105 -24 135
-28 l55 -7 -40 -7 c-22 -4 -76 -12 -120 -17 -125 -15 -145 -20 -145 -35 0 -12
13 -15 58 -13 65 2 422 -9 437 -13 15 -4 98 12 110 21 6 5 21 10 35 12 14 1
25 10 25 18 0 11 15 16 63 18 35 2 69 -1 75 -7 7 -5 29 -12 50 -16 20 -4 39
-10 42 -14 2 -4 -36 -13 -84 -20 -92 -14 -138 -30 -91 -32 23 0 23 -1 5 -9
-19 -8 -19 -9 2 -9 12 -1 28 5 35 12 8 9 54 17 123 21 167 12 197 9 217 -17
l16 -23 154 14 c84 8 162 18 173 22 71 28 83 30 200 21 137 -10 186 -21 270
-62 33 -16 66 -29 72 -29 7 0 35 -14 63 -31 l50 -31 0 -74 0 -74 -155 0 c-117
0 -155 3 -156 13 0 10 -2 10 -6 0 -2 -7 -22 -13 -43 -13 -21 0 -41 6 -44 13
-5 9 -7 9 -12 -1 -5 -10 -65 -11 -282 -6 -153 3 -279 8 -281 10 -2 2 56 5 130
6 l134 1 -144 7 -145 8 -25 31 c-29 35 -60 40 -90 15 -15 -13 -17 -23 -11 -45
l9 -29 -182 1 c-111 0 -174 4 -162 9 11 5 15 9 9 9 -6 1 -26 4 -44 8 -28 5
-32 4 -27 -10 6 -16 -10 -17 -181 -16 -114 0 -179 4 -167 9 17 7 15 9 -12 9
-18 1 -33 -3 -33 -8 0 -5 -84 -9 -192 -9 -111 0 -182 3 -168 8 16 5 -7 8 -65
7 -85 0 -87 -1 -30 -7 l60 -7 -75 -1 c-52 -1 -70 1 -60 8 10 6 11 10 3 10 -7
0 -13 11 -13 25 0 24 3 25 58 27 l57 2 -57 3 -58 4 0 56 c0 45 3 54 15 49 8
-3 15 -1 15 4 0 5 -8 11 -17 13 -27 7 56 0 100 -8 23 -5 37 -3 37 3 0 6 8 13
18 15 9 3 -25 5 -75 6 l-93 1 0 115 0 115 84 0 c46 0 108 -5 137 -10z m1149
-10 c0 -15 -7 -20 -25 -20 -29 0 -32 8 -7 26 24 19 32 17 32 -6z m-445 -90 c3
-6 -1 -7 -9 -4 -18 7 -21 14 -7 14 6 0 13 -4 16 -10z m685 -25 c11 -13 8 -15
-21 -14 -19 1 -26 3 -16 6 9 2 17 9 17 14 0 13 6 11 20 -6z m217 -8 c3 -4 -8
-7 -25 -7 -18 0 -32 4 -32 9 0 11 46 8 57 -2z m-413 -272 l33 -35 -49 0 c-27
0 -47 4 -44 9 3 4 17 6 32 3 24 -4 25 -3 13 16 -7 11 -19 18 -26 15 -14 -5
-18 9 -6 20 10 11 12 9 47 -28z" />
    <path d="M3700 5664 c-211 -26 -322 -91 -376 -222 -26 -62 -28 -77 -29 -202 0
-131 1 -136 30 -190 43 -78 139 -171 217 -209 50 -25 86 -34 163 -42 55 -6
105 -15 112 -21 7 -6 13 -30 13 -54 0 -34 7 -51 31 -78 31 -36 61 -52 79 -41
6 4 4 15 -6 30 -22 34 -30 127 -12 142 7 7 54 17 103 23 257 32 393 118 441
281 31 102 12 276 -39 376 -38 73 -186 167 -307 193 -55 12 -353 22 -420 14z
m367 -23 c132 -19 274 -104 328 -195 40 -69 69 -198 62 -281 -8 -102 -32 -161
-87 -216 -79 -79 -178 -116 -370 -139 -106 -12 -114 -21 -106 -107 3 -35 3
-63 0 -63 -13 0 -44 69 -44 98 0 55 -15 72 -64 72 -129 0 -250 51 -340 143
-84 87 -117 150 -127 249 -18 176 38 315 156 388 97 59 368 83 592 51z" />
    <path d="M3638 5464 c-12 -11 -10 -82 2 -89 9 -6 14 8 11 28 0 4 8 7 19 7 13
0 20 -7 20 -19 0 -11 5 -23 10 -26 6 -4 10 15 10 50 0 35 -4 54 -10 50 -5 -3
-10 -13 -10 -21 0 -23 -38 -17 -42 7 -2 11 -6 17 -10 13z" />
    <path d="M3804 5457 c-9 -25 0 -80 15 -85 9 -3 11 2 6 17 -10 32 14 26 26 -6
7 -17 13 -23 16 -15 3 7 1 20 -3 30 -4 9 -8 28 -8 42 -1 18 -7 26 -24 28 -13
2 -24 -3 -28 -11z m36 -12 c0 -8 -4 -15 -10 -15 -5 0 -10 7 -10 15 0 8 5 15
10 15 6 0 10 -7 10 -15z" />
    <path d="M3898 5463 c-13 -3 -18 -14 -18 -36 0 -42 13 -62 36 -53 16 6 16 7
-2 21 -15 12 -16 16 -5 24 11 7 11 9 0 13 -12 4 -12 7 0 21 7 10 12 16 10 16
-2 -1 -12 -3 -21 -6z" />
    <path d="M3502 5418 c5 -23 11 -44 13 -47 8 -7 35 21 35 38 0 11 6 7 18 -11
22 -37 29 -35 41 10 13 46 13 52 1 52 -5 0 -10 -11 -10 -25 0 -14 -4 -25 -8
-25 -5 0 -14 11 -20 25 -15 32 -32 32 -32 1 0 -36 -17 -40 -24 -6 -3 17 -10
30 -15 30 -5 0 -5 -17 1 -42z" />
    <path d="M3739 5453 c-2 -16 3 -78 7 -82 2 -2 11 -1 20 3 16 6 15 8 -2 21 -19
13 -19 14 1 30 17 14 17 16 3 11 -10 -3 -18 -1 -18 4 0 5 8 11 18 13 13 4 11
5 -5 6 -13 0 -23 -2 -24 -6z" />
    <path d="M4062 5418 c3 -40 5 -43 33 -43 23 0 32 6 40 28 8 24 6 31 -10 43
-10 8 -29 14 -42 14 -22 0 -24 -4 -21 -42z m51 10 c13 -20 2 -48 -18 -48 -11
0 -15 10 -15 36 0 37 14 42 33 12z" />
    <path d="M4170 5436 c-20 -26 -8 -61 22 -64 22 -3 30 2 39 22 6 13 9 32 6 40
-8 20 -51 21 -67 2z m48 -20 c2 -10 -1 -23 -8 -30 -14 -14 -41 19 -33 40 8 20
37 13 41 -10z" />
    <path d="M3410 5275 c0 -18 -17 -20 -23 -2 -2 6 -8 8 -13 4 -5 -5 -1 -14 9
-21 9 -7 17 -23 17 -35 0 -40 18 -21 22 24 2 25 0 45 -4 45 -5 0 -8 -7 -8 -15z" />
    <path d="M3453 5278 c-18 -24 -22 -46 -9 -63 26 -37 74 1 62 48 -7 29 -36 37
-53 15z m35 -37 c2 -23 0 -32 -9 -29 -20 7 -33 34 -26 52 11 27 32 13 35 -23z" />
    <path d="M3520 5262 c0 -16 7 -37 15 -48 15 -19 15 -19 30 0 17 22 20 66 5 66
-5 0 -10 -14 -10 -31 0 -17 -4 -28 -10 -24 -5 3 -10 19 -10 36 0 16 -4 29 -10
29 -5 0 -10 -13 -10 -28z" />
    <path d="M3647 5282 c7 -4 15 -27 19 -50 3 -23 11 -39 16 -36 5 3 7 23 3 44
-5 32 -3 39 12 43 10 3 0 5 -22 6 -22 0 -35 -3 -28 -7z" />
    <path d="M3721 5253 c0 -24 4 -43 9 -43 6 0 10 7 10 15 0 23 27 18 35 -7 7
-21 8 -20 12 9 2 18 0 41 -6 50 -10 17 -10 17 -11 1 0 -11 -8 -18 -19 -18 -11
0 -22 8 -24 18 -3 9 -5 -2 -6 -25z" />
    <path d="M3908 5284 c-5 -4 -8 -17 -9 -28 0 -21 0 -21 -16 2 -23 33 -33 27
-32 -20 1 -25 4 -33 6 -20 l5 24 24 -23 c30 -28 36 -22 32 31 -2 23 -6 38 -10
34z" />
    <path d="M3975 5280 c-3 -5 -12 -7 -20 -3 -12 4 -15 -3 -15 -30 0 -20 5 -39
10 -42 6 -3 10 1 10 9 0 21 17 20 29 -1 5 -10 13 -14 17 -10 4 4 -3 18 -16 32
-19 20 -21 27 -10 40 7 8 10 15 7 15 -3 0 -8 -4 -12 -10z" />
    <path d="M4091 5253 c-1 -43 14 -67 25 -38 6 14 9 13 30 -6 26 -24 28 -22 38
44 3 22 1 35 -5 32 -5 -4 -9 -19 -9 -36 0 -35 -17 -38 -26 -4 -7 27 -24 34
-24 10 0 -26 -19 -16 -23 13 -3 19 -4 15 -6 -15z" />
    <path d="M4297 5284 c-4 -4 -6 -26 -6 -48 1 -23 3 -33 6 -23 2 9 7 17 10 17 3
0 12 -8 19 -17 12 -16 13 -16 14 -2 0 9 -3 19 -7 23 -4 4 -8 17 -8 28 0 22
-16 34 -28 22z m23 -18 c0 -3 -4 -8 -10 -11 -5 -3 -10 -1 -10 4 0 6 5 11 10
11 6 0 10 -2 10 -4z" />
    <path d="M4357 5283 c-4 -3 -7 -21 -7 -38 0 -32 24 -64 37 -51 4 4 1 11 -7 16
-11 7 -11 11 -1 24 9 11 10 16 2 16 -15 0 -14 27 2 33 8 4 6 6 -4 6 -9 1 -19
-2 -22 -6z" />
    <path d="M3810 5246 c0 -20 5 -36 10 -36 6 0 10 13 10 29 0 17 -4 33 -10 36
-6 4 -10 -8 -10 -29z" />
    <path d="M4207 5273 c-4 -3 -7 -21 -7 -40 0 -28 4 -33 23 -32 12 0 16 3 10 6
-7 2 -13 11 -13 19 0 8 6 14 13 14 9 0 8 3 -2 9 -7 5 -10 14 -7 20 8 12 -6 15
-17 4z" />
    <path d="M4173 5122 c22 -24 21 -34 -3 -50 -21 -13 -28 -42 -10 -42 6 0 10 7
10 15 0 8 9 19 20 25 25 14 26 46 1 60 -29 15 -36 12 -18 -8z" />
    <path d="M3630 5100 c0 -11 -7 -20 -15 -20 -8 0 -15 7 -15 15 0 8 -4 15 -10
15 -5 0 -10 -20 -10 -44 0 -25 5 -48 10 -51 6 -4 10 5 10 19 0 31 29 36 37 6
10 -37 26 -22 19 18 -3 20 -6 43 -6 50 0 6 -4 12 -10 12 -5 0 -10 -9 -10 -20z" />
    <path d="M3847 5113 c-10 -10 -8 -76 3 -93 7 -12 12 -12 34 0 37 19 42 47 15
76 -23 24 -40 30 -52 17z m49 -45 c7 -23 -9 -44 -25 -34 -6 4 -11 20 -11 36 0
22 4 28 15 24 8 -3 17 -15 21 -26z" />
    <path d="M3944 5105 c-4 -8 -3 -31 0 -50 6 -30 11 -35 34 -35 l27 0 -25 20
-25 19 25 10 c24 9 24 10 3 10 -13 1 -23 6 -23 11 0 6 10 15 23 20 21 8 21 9
-6 9 -16 1 -30 -5 -33 -14z" />
    <path d="M4033 5109 c-9 -9 -3 -83 9 -95 13 -12 58 18 64 42 11 41 -44 82 -73
53z m55 -52 c-5 -33 -25 -31 -30 3 -3 16 -2 32 0 35 10 10 33 -19 30 -38z" />
    <path d="M3680 5065 c0 -40 2 -45 23 -45 18 0 19 2 7 10 -12 8 -13 13 -2 30
10 17 10 20 -3 20 -18 0 -20 16 -2 23 7 3 5 6 -5 6 -15 1 -18 -8 -18 -44z" />
    <path d="M3756 5081 c-20 -37 -22 -61 -4 -43 17 17 39 15 53 -5 20 -27 25 1 7
37 -23 45 -38 48 -56 11z" />
    <path d="M4160 4990 c0 -5 5 -10 10 -10 6 0 10 5 10 10 0 6 -4 10 -10 10 -5 0
-10 -4 -10 -10z" />
    <path d="M5020 5638 c-88 -9 -197 -36 -243 -60 -81 -41 -156 -143 -213 -293
-22 -58 -27 -91 -32 -197 -4 -114 -2 -135 19 -200 20 -63 32 -81 93 -144 48
-48 92 -81 136 -102 92 -45 247 -81 370 -87 58 -3 109 -10 118 -17 10 -9 13
-25 9 -55 -4 -37 -2 -43 14 -43 28 0 54 31 70 84 12 43 21 52 94 100 130 86
166 143 185 288 22 177 5 296 -63 436 -62 127 -177 237 -282 267 -71 21 -198
32 -275 23z m201 -28 c129 -24 258 -130 327 -267 58 -114 73 -183 73 -327 0
-227 -30 -291 -186 -387 -78 -48 -85 -54 -85 -84 0 -29 -32 -85 -48 -85 -4 0
-6 19 -4 43 3 28 -1 47 -10 55 -8 6 -70 16 -139 21 -242 19 -402 87 -508 216
-69 83 -83 136 -79 295 3 126 5 140 36 215 43 103 104 197 156 239 39 31 74
43 216 75 50 11 167 7 251 -9z" />
    <path d="M5196 5468 c-21 -34 -28 -65 -16 -73 5 -3 10 -2 10 4 0 19 35 16 52
-4 13 -15 17 -16 17 -5 1 17 -36 100 -43 100 -3 0 -12 -10 -20 -22z m24 -27
c0 -6 -4 -13 -10 -16 -5 -3 -10 1 -10 9 0 9 5 16 10 16 6 0 10 -4 10 -9z" />
    <path d="M5276 5477 c-24 -17 -11 -47 21 -47 18 0 24 -5 21 -17 -2 -12 -11
-17 -23 -15 -16 3 -18 1 -7 -9 16 -17 46 -1 50 27 2 14 -6 23 -29 31 -18 7
-28 16 -24 23 4 6 14 9 22 6 8 -3 11 -1 8 4 -8 13 -18 13 -39 -3z" />
    <path d="M4890 5436 c0 -25 4 -47 9 -50 13 -8 17 9 13 55 -5 53 -22 50 -22 -5z" />
    <path d="M5035 5443 c7 -40 24 -66 31 -48 15 36 23 40 39 18 29 -42 54 -21 55
45 0 34 -18 26 -22 -10 l-4 -33 -13 28 c-17 33 -34 35 -48 5 -11 -23 -11 -23
-18 5 -11 42 -28 33 -20 -10z" />
    <path d="M4764 5332 c-37 -25 -39 -86 -3 -96 10 -4 28 -9 39 -12 15 -4 20 -1
20 15 0 29 -11 51 -25 51 -8 0 -11 -8 -8 -20 6 -24 -9 -26 -28 -4 -11 14 -11
21 3 45 18 31 19 32 2 21z" />
    <path d="M4858 5323 c-23 -6 -34 -49 -18 -68 17 -20 66 -19 74 1 10 25 7 42
-10 58 -16 17 -17 17 -46 9z m40 -37 c2 -10 -1 -23 -7 -29 -14 -14 -41 9 -41
35 0 26 43 21 48 -6z" />
    <path d="M5054 5316 c-3 -8 -3 -20 1 -26 3 -5 1 -10 -4 -10 -6 0 -11 4 -11 10
0 12 -38 32 -49 26 -12 -8 2 -72 14 -66 6 3 9 8 8 13 -5 12 9 8 28 -9 28 -25
46 -12 41 30 -5 40 -19 56 -28 32z" />
    <path d="M5120 5311 c-5 -11 -10 -31 -10 -46 0 -20 6 -27 30 -31 17 -4 30 -10
30 -15 0 -5 5 -9 10 -9 6 0 10 18 10 40 0 35 -3 40 -22 39 -13 0 -17 -3 -10
-6 19 -7 15 -35 -5 -31 -25 5 -29 49 -7 65 16 12 16 13 1 13 -9 0 -21 -9 -27
-19z" />
    <path d="M5298 5323 c6 -2 12 -17 12 -33 0 -16 3 -35 6 -44 10 -27 24 -7 24
34 0 21 6 41 13 43 6 3 -6 5 -28 5 -22 0 -34 -2 -27 -5z" />
    <path d="M5388 5319 c-11 -6 -18 -22 -18 -40 0 -23 6 -32 26 -39 47 -18 79 35
43 71 -22 22 -27 22 -51 8z m41 -23 c12 -14 5 -46 -10 -46 -12 0 -39 42 -33
52 8 12 30 10 43 -6z" />
    <path d="M4940 5293 c0 -16 4 -35 10 -43 8 -12 10 -12 16 3 8 21 -3 67 -16 67
-6 0 -10 -12 -10 -27z" />
    <path d="M4689 5149 c-33 -33 -1 -94 46 -87 28 4 28 51 0 57 -17 3 -18 1 -6
-13 16 -19 9 -31 -14 -23 -18 8 -20 58 -3 75 7 7 9 12 5 12 -4 0 -16 -9 -28
-21z" />
    <path d="M5222 5158 c-19 -19 -14 -38 13 -48 33 -12 35 -44 3 -35 -18 6 -20 4
-12 -5 18 -18 49 -8 52 18 2 16 -4 25 -23 34 -25 11 -30 36 -6 30 7 -1 10 2 6
8 -8 13 -18 13 -33 -2z" />
    <path d="M4786 5147 c-25 -18 -17 -58 14 -74 21 -11 27 -10 38 4 15 21 16 55
0 71 -15 15 -30 15 -52 -1z m38 -13 c22 -21 3 -62 -20 -43 -15 12 -19 41 -7
52 9 9 9 9 27 -9z" />
    <path d="M4922 5148 c-34 -34 2 -97 48 -83 30 9 27 55 -2 54 -13 0 -17 -3 -10
-6 19 -7 15 -35 -5 -31 -25 5 -29 49 -7 65 14 10 15 13 3 13 -8 0 -20 -5 -27
-12z" />
    <path d="M5010 5115 c0 -30 5 -45 16 -49 28 -11 39 -6 20 9 -21 16 -21 17 9
33 19 11 19 11 -2 12 -13 0 -23 5 -23 10 0 6 7 10 15 10 26 0 16 15 -10 16
-23 2 -25 -2 -25 -41z" />
    <path d="M5115 5149 c-16 -4 -25 -7 -18 -8 7 0 13 -20 15 -43 2 -24 9 -43 17
-46 10 -3 12 5 6 38 -5 31 -4 45 6 51 20 12 8 16 -26 8z" />
    <path d="M5473 5142 c-11 -26 12 -77 35 -80 12 -2 22 1 22 7 0 6 -7 11 -15 11
-21 0 -19 16 3 25 15 6 14 8 -8 17 l-25 9 25 14 25 14 -29 -2 c-15 -1 -31 -8
-33 -15z" />
    <path d="M5307 5139 c-24 -14 -22 -56 3 -64 27 -8 40 1 40 29 0 31 -20 47 -43
35z m33 -29 c0 -11 -7 -20 -15 -20 -8 0 -15 9 -15 20 0 11 7 20 15 20 8 0 15
-9 15 -20z" />
    <path d="M5370 5110 c0 -22 5 -40 10 -40 6 0 10 9 10 21 0 11 4 17 10 14 6 -4
17 -2 24 4 11 9 15 6 20 -14 9 -37 27 -31 19 8 -8 46 -21 56 -39 32 -14 -19
-16 -19 -25 -2 -17 29 -29 19 -29 -23z" />
    <path d="M4780 4990 c-13 -24 -13 -77 0 -85 6 -3 10 1 10 9 0 8 8 19 18 25 16
9 16 11 -3 25 -20 14 -20 15 4 24 24 9 24 9 3 14 -15 4 -25 0 -32 -12z" />
    <path d="M5410 4973 l0 -37 -30 29 c-35 33 -50 25 -43 -22 6 -37 23 -45 23
-12 0 21 1 21 25 -5 36 -39 45 -33 45 29 0 30 -4 55 -10 55 -5 0 -10 -17 -10
-37z" />
    <path d="M4840 4973 c0 -38 10 -73 21 -73 5 0 9 7 9 15 0 20 17 19 29 -2 5
-10 13 -15 17 -11 4 4 -1 19 -10 32 -9 15 -12 27 -6 31 13 8 13 35 -1 35 -5 0
-8 -4 -5 -9 3 -5 -1 -14 -8 -20 -11 -9 -16 -9 -21 0 -4 6 -1 15 6 20 10 6 8 9
-8 9 -18 0 -23 -6 -23 -27z" />
    <path d="M4937 4993 c-8 -14 7 -76 20 -80 8 -3 10 7 6 34 -6 40 -17 60 -26 46z" />
    <path d="M4984 4986 c-3 -8 -4 -29 -2 -48 3 -28 7 -33 33 -36 l30 -3 -24 17
c-23 16 -23 18 -6 31 17 12 17 13 2 13 -25 0 -21 28 6 33 19 4 18 4 -6 6 -16
0 -30 -5 -33 -13z" />
    <path d="M5062 4988 c-18 -18 -15 -26 18 -43 36 -18 39 -35 8 -35 -18 0 -20
-2 -9 -9 20 -13 53 6 49 27 -2 9 -13 21 -26 27 -25 11 -31 41 -6 31 8 -3 12
-2 9 4 -8 14 -28 13 -43 -2z" />
    <path d="M5245 4976 c-23 -34 -5 -66 35 -66 24 0 31 5 36 27 6 20 2 31 -16 45
-29 24 -36 23 -55 -6z m53 -29 c2 -15 -1 -27 -5 -27 -15 0 -33 23 -33 43 0 30
34 16 38 -16z" />
    <path d="M5137 4843 c-10 -9 -9 -32 4 -76 10 -39 35 -42 25 -3 -4 15 1 26 14
34 11 7 20 21 20 32 0 15 -7 20 -28 20 -16 0 -32 -3 -35 -7z m53 -12 c0 -5 -6
-14 -14 -20 -16 -13 -32 2 -21 19 8 12 35 13 35 1z" />
    <path d="M5347 4843 c-11 -11 -8 -81 4 -89 6 -3 15 0 20 7 8 12 12 11 23 -3 7
-10 16 -18 20 -18 12 0 6 23 -11 42 -13 14 -14 21 -5 30 21 21 13 38 -16 38
-16 0 -32 -3 -35 -7z m53 -12 c0 -5 -7 -12 -16 -15 -22 -9 -24 -8 -24 9 0 8 9
15 20 15 11 0 20 -4 20 -9z" />
    <path d="M4793 4829 c11 -6 17 -22 17 -44 0 -19 5 -35 10 -35 6 0 10 18 10 40
0 28 4 40 14 40 9 0 17 -15 21 -40 6 -38 25 -57 25 -25 0 22 25 18 44 -7 16
-22 16 -22 10 22 -7 49 -24 79 -24 42 0 -27 -20 -28 -43 -2 -12 14 -29 20 -59
20 -34 -1 -39 -3 -25 -11z" />
    <path d="M4973 4833 c-27 -5 -28 -12 -9 -58 12 -28 18 -33 38 -27 18 5 19 7 6
10 -10 2 -18 10 -18 17 0 7 8 16 18 18 13 4 11 5 -5 6 -28 1 -29 9 -5 27 17
14 14 15 -25 7z" />
    <path d="M5219 4833 c-2 -13 1 -46 7 -72 3 -16 8 -21 15 -14 11 11 1 93 -12
93 -5 0 -10 -3 -10 -7z" />
    <path d="M5265 4829 c-11 -16 5 -79 21 -86 7 -3 22 -2 32 3 15 7 14 8 -5 11
-26 5 -32 33 -7 33 8 0 12 5 9 10 -4 6 -10 8 -15 5 -5 -3 -11 -1 -15 5 -3 6 4
14 17 19 23 10 23 10 -4 10 -15 1 -30 -4 -33 -10z" />
    <path d="M3375 4453 c11 -3 25 -11 32 -20 6 -8 21 -13 35 -10 l23 4 -23 8
c-18 6 -20 10 -10 16 8 6 -4 8 -32 8 -25 -1 -36 -3 -25 -6z" />
    <path d="M3510 4400 c20 -13 33 -13 25 0 -3 6 -14 10 -23 10 -15 0 -15 -2 -2
-10z" />
    <path d="M4257 4481 c-3 -12 -1 -21 3 -21 15 0 23 21 12 32 -6 6 -11 2 -15
-11z" />
    <path d="M4297 4473 c-12 -12 -7 -22 8 -17 8 4 15 10 15 15 0 11 -14 12 -23 2z" />
    <path d="M4124 4345 c11 -8 22 -12 25 -9 6 6 -19 24 -34 24 -5 -1 -1 -7 9 -15z" />
    <path d="M4206 4315 c4 -8 8 -15 10 -15 2 0 4 7 4 15 0 8 -4 15 -10 15 -5 0
-7 -7 -4 -15z" />
    <path d="M4260 4200 c0 -5 5 -10 10 -10 6 0 10 5 10 10 0 6 -4 10 -10 10 -5 0
-10 -4 -10 -10z" />
    <path d="M4255 4160 c3 -5 8 -10 11 -10 2 0 4 5 4 10 0 6 -5 10 -11 10 -5 0
-7 -4 -4 -10z" />
    <path d="M4185 4153 c-11 -3 -27 -14 -37 -25 -9 -11 -22 -17 -27 -13 -6 3 -11
1 -11 -4 0 -17 22 -13 44 8 12 10 35 23 51 29 30 11 17 14 -20 5z" />
    <path d="M4050 4129 c0 -11 25 -22 39 -17 6 1 -1 8 -14 15 -14 6 -25 7 -25 2z" />
    <path d="M4281 4114 c0 -11 3 -14 6 -6 3 7 2 16 -1 19 -3 4 -6 -2 -5 -13z" />
    <path d="M4240 4049 c0 -5 5 -7 10 -4 6 3 10 8 10 11 0 2 -4 4 -10 4 -5 0 -10
-5 -10 -11z" />
    <path d="M4205 3994 c-24 -31 -32 -35 -57 -30 -18 3 -27 2 -23 -4 13 -22 52
-9 90 30 21 22 34 40 28 40 -6 0 -23 -16 -38 -36z" />
    <path d="M3580 3935 l-25 -14 26 -1 c15 0 29 7 33 15 7 18 -2 18 -34 0z" />
    <path d="M3633 3923 c9 -2 23 -2 30 0 6 3 -1 5 -18 5 -16 0 -22 -2 -12 -5z" />
    <path d="M5045 4360 c-8 -13 4 -32 16 -25 12 8 12 35 0 35 -6 0 -13 -4 -16
-10z" />
    <path d="M5027 4243 c-3 -5 11 -15 29 -24 38 -18 46 -8 12 15 -25 18 -35 20
-41 9z" />
    <path d="M5008 3963 c6 -2 18 -2 25 0 6 3 1 5 -13 5 -14 0 -19 -2 -12 -5z" />
    <path d="M5433 3979 c-6 -6 -36 -13 -67 -16 -31 -3 -56 -10 -56 -16 0 -11 111
0 125 14 11 11 66 12 92 2 14 -6 8 -9 -22 -14 -23 -4 10 -6 75 -6 96 0 105 1
53 7 -33 4 -74 12 -90 18 -43 16 -99 22 -110 11z" />
    <path d="M5448 3693 c7 -3 16 -2 19 1 4 3 -2 6 -13 5 -11 0 -14 -3 -6 -6z" />
    <path d="M3725 3640 c3 -5 11 -10 16 -10 6 0 7 5 4 10 -3 6 -11 10 -16 10 -6
0 -7 -4 -4 -10z" />
    <path d="M3440 3615 c-9 -11 -10 -19 -2 -27 12 -12 35 -1 27 13 -4 5 1 9 9 9
10 0 13 -6 10 -15 -4 -10 0 -15 11 -15 11 0 15 7 13 23 -4 27 -48 36 -68 12z" />
    <path d="M4230 3526 c-24 -14 -24 -14 18 -13 23 1 40 7 39 12 -5 16 -30 16
-57 1z" />
    <path d="M3720 3512 c0 -4 11 -9 25 -10 14 -1 25 3 25 8 0 6 -11 10 -25 10
-14 0 -25 -4 -25 -8z" />
    <path d="M4115 3489 c-5 -7 8 -8 41 -3 64 9 68 14 11 14 -25 0 -49 -5 -52 -11z" />
    <path d="M3625 3480 l-40 -7 52 -2 c28 0 55 4 58 9 7 11 -9 11 -70 0z" />
    <path d="M3448 3473 c6 -2 18 -2 25 0 6 3 1 5 -13 5 -14 0 -19 -2 -12 -5z" />
    <path d="M3448 3453 c7 -3 16 -2 19 1 4 3 -2 6 -13 5 -11 0 -14 -3 -6 -6z" />
    <path d="M3498 3453 c6 -2 18 -2 25 0 6 3 1 5 -13 5 -14 0 -19 -2 -12 -5z" />
    <path d="M4879 3448 c-33 -13 -21 -37 28 -57 21 -9 84 -13 185 -13 141 -1 156
1 191 22 39 23 45 34 25 47 -16 10 -402 11 -429 1z m411 -19 c0 -4 -9 -11 -20
-14 -11 -3 -20 -11 -20 -16 0 -14 -309 -6 -343 9 -16 6 -26 16 -22 22 7 11
405 11 405 -1z" />
    <path d="M3788 3433 c6 -2 18 -2 25 0 6 3 1 5 -13 5 -14 0 -19 -2 -12 -5z" />
    <path d="M3568 3423 c7 -3 16 -2 19 1 4 3 -2 6 -13 5 -11 0 -14 -3 -6 -6z" />
    <path d="M4030 3413 c-50 -5 -80 -12 -80 -21 0 -18 51 -36 113 -38 37 -2 77
-8 88 -14 13 -8 30 -8 52 -1 18 6 61 16 97 23 36 7 57 14 48 16 -9 2 -49 -4
-89 -12 -57 -12 -89 -13 -153 -4 -120 15 -133 18 -116 27 8 4 114 5 235 2 121
-3 202 -8 180 -11 l-40 -6 38 -8 c30 -7 42 -5 55 7 14 15 13 17 -12 27 -15 5
-101 10 -196 9 -93 -1 -172 1 -177 3 -4 2 -24 2 -43 1z" />
    <path d="M3685 3396 c-16 -8 -36 -24 -43 -36 -8 -12 -10 -20 -5 -17 4 3 14 -1
21 -9 10 -11 6 -15 -20 -23 -31 -8 -29 -9 20 -9 28 0 52 3 52 8 0 4 18 10 40
14 28 4 39 10 34 19 -5 9 -4 9 7 0 17 -17 29 -16 29 1 0 11 -91 68 -103 66 -1
-1 -15 -7 -32 -14z" />
    <path d="M4786 3391 c-19 -7 -19 -8 1 -13 12 -3 25 -2 30 2 4 5 17 10 28 13
13 3 10 5 -10 5 -16 0 -39 -3 -49 -7z" />
    <path d="M5483 3373 c-51 -2 -93 -7 -93 -12 0 -4 39 -7 88 -6 118 3 124 4 117
15 -3 6 -9 9 -13 8 -4 -1 -49 -4 -99 -5z" />
    <path d="M3498 3353 c7 -3 16 -2 19 1 4 3 -2 6 -13 5 -11 0 -14 -3 -6 -6z" />
    <path d="M3330 3310 c-21 -4 28 -8 119 -9 85 0 152 1 149 4 -9 9 -230 13 -268
5z" />
    <path d="M3853 3303 c26 -2 68 -2 95 0 26 2 4 3 -48 3 -52 0 -74 -1 -47 -3z" />
    <path d="M4063 3303 c15 -2 37 -2 50 0 12 2 0 4 -28 4 -27 0 -38 -2 -22 -4z" />
    <path d="M5448 3303 c7 -3 16 -2 19 1 4 3 -2 6 -13 5 -11 0 -14 -3 -6 -6z" />
    <path d="M5548 3303 c12 -2 30 -2 40 0 9 3 -1 5 -23 4 -22 0 -30 -2 -17 -4z" />
    <path d="M4085 3280 c11 -5 27 -9 35 -9 9 0 8 4 -5 9 -11 5 -27 9 -35 9 -9 0
-8 -4 5 -9z" />
    <path d="M4290 3280 c-17 -6 -9 -7 25 -3 28 3 52 7 54 9 8 7 -54 2 -79 -6z" />
    <path d="M4488 3283 c6 -2 18 -2 25 0 6 3 1 5 -13 5 -14 0 -19 -2 -12 -5z" />
    <path d="M5133 3283 c9 -2 23 -2 30 0 6 3 -1 5 -18 5 -16 0 -22 -2 -12 -5z" />
    <path d="M5328 3283 c7 -3 16 -2 19 1 4 3 -2 6 -13 5 -11 0 -14 -3 -6 -6z" />
    <path d="M5458 3283 c7 -3 16 -2 19 1 4 3 -2 6 -13 5 -11 0 -14 -3 -6 -6z" />
    <path d="M1140 3062 c-338 -1 -617 -5 -621 -10 -4 -4 -8 -572 -10 -1262 l-4
-1255 1263 -3 c1005 -2 1263 0 1266 10 3 7 7 574 10 1260 4 1025 2 1248 -8
1257 -10 8 -199 11 -647 9 -349 -2 -911 -4 -1249 -6z m1867 -1079 c-4 -577 -7
-1132 -7 -1235 l0 -188 -475 0 -474 0 5 33 c3 17 7 37 9 44 6 18 -33 172 -56
223 -11 25 -38 80 -60 123 -21 43 -39 89 -39 101 0 61 62 185 102 207 30 16
172 42 223 40 50 -1 134 -25 205 -58 34 -17 92 -31 155 -39 55 -8 121 -17 146
-20 63 -9 71 13 22 56 -42 37 -291 163 -366 184 -29 9 -92 27 -142 42 -128 37
-136 40 -190 88 l-49 42 110 -13 c342 -40 444 -60 566 -112 51 -22 103 -52
115 -66 39 -44 53 -34 53 38 0 57 -4 70 -38 123 -51 79 -107 107 -283 142
l-134 27 135 7 c74 4 147 9 161 12 37 7 85 -25 99 -68 14 -42 24 -45 45 -12
23 35 29 89 16 141 -11 46 -11 48 29 108 22 34 53 100 68 147 24 76 27 99 26
220 0 147 -18 254 -61 375 -45 123 -101 183 -209 224 -48 18 -218 48 -279 49
-250 3 -992 1 -1060 -4 -429 -27 -530 -56 -645 -181 -154 -168 -175 -431 -50
-606 23 -31 44 -57 48 -57 4 0 13 -4 21 -9 11 -7 10 -13 -3 -32 -8 -14 -17
-41 -20 -62 -3 -21 -9 -44 -14 -50 -10 -11 -8 -67 3 -95 2 -7 -2 -15 -11 -19
-8 -3 -13 -12 -9 -21 3 -8 0 -21 -6 -28 -7 -8 -9 -29 -6 -48 3 -18 2 -38 -3
-42 -4 -5 -13 -26 -19 -46 -7 -20 -34 -77 -62 -125 l-49 -88 0 782 0 783 613
3 c336 1 891 3 1231 5 l619 2 -6 -1047z m-412 943 c121 -23 199 -67 250 -141
91 -134 149 -447 112 -606 -23 -95 -54 -172 -93 -231 -33 -49 -35 -54 -25 -94
15 -59 14 -107 -4 -130 -14 -18 -14 -18 -15 -1 0 11 -16 35 -35 54 l-36 36
-92 -7 c-51 -4 -141 -11 -202 -15 -97 -8 -116 -7 -161 10 -28 11 -58 27 -67
37 -28 29 -85 104 -130 172 -48 72 -126 147 -195 187 -55 33 -251 100 -275 95
-9 -2 -20 4 -23 12 -7 18 -39 21 -49 5 -5 -7 -15 -5 -30 5 -13 9 -41 15 -62
15 -21 -1 -62 5 -90 14 -33 10 -55 12 -59 6 -3 -5 -31 -8 -63 -6 -56 4 -163
-11 -177 -26 -4 -4 -18 -7 -30 -7 -13 0 -28 -9 -34 -20 -6 -11 -15 -20 -20
-20 -33 0 -112 -50 -157 -98 -59 -65 -58 -65 -129 30 -58 79 -90 212 -76 315
28 193 129 324 291 373 160 50 334 59 1026 54 448 -3 587 -7 650 -18z m-1347
-611 c4 -4 0 -5 -8 0 -8 5 -12 4 -7 0 11 -12 38 -15 31 -4 -8 13 179 2 274
-17 22 -4 32 -3 32 6 0 10 5 9 18 -2 9 -8 44 -21 77 -29 33 -7 81 -24 107 -36
27 -13 52 -23 57 -23 16 0 161 -109 189 -141 15 -18 37 -49 48 -70 12 -21 41
-62 65 -90 50 -59 89 -114 89 -126 0 -5 8 -13 19 -20 10 -6 21 -21 24 -32 6
-24 -20 -42 -68 -48 -93 -11 -129 -13 -218 -13 -69 0 -110 -5 -142 -18 l-45
-18 107 -53 c139 -68 163 -79 194 -85 24 -5 69 -37 69 -49 0 -3 -24 -12 -52
-21 -29 -8 -62 -22 -72 -29 -18 -13 -16 -16 36 -31 31 -9 67 -16 80 -17 21 0
22 -1 3 -8 -11 -5 -44 -11 -74 -15 -30 -4 -67 -14 -83 -22 -40 -21 -96 -110
-110 -176 -10 -48 -9 -62 6 -101 9 -25 30 -62 47 -83 16 -20 29 -45 29 -54 0
-10 9 -37 19 -61 31 -71 55 -191 47 -233 l-7 -38 -647 6 c-356 3 -689 6 -739
6 l-93 0 0 363 0 362 25 24 c25 23 33 51 16 51 -5 0 -11 -6 -14 -12 -3 -7 -5
-4 -6 7 0 11 -2 27 -3 36 -2 18 71 166 99 201 6 7 14 24 18 38 4 14 17 36 29
49 14 16 16 22 6 19 -12 -4 -15 4 -14 48 1 30 7 61 14 69 7 8 9 15 4 15 -4 0
1 6 12 14 15 12 17 17 7 27 -23 23 -16 87 12 111 24 21 34 48 17 48 -4 0 -13
-5 -20 -12 -7 -7 -12 -8 -12 -4 0 9 76 99 128 153 33 34 108 73 142 73 10 0
21 9 25 20 11 34 188 72 213 45z m1221 -590 c74 -15 98 -24 117 -44 13 -14 24
-29 24 -33 0 -4 10 -10 23 -14 12 -3 30 -13 40 -22 10 -9 17 -11 17 -4 0 7 7
9 17 5 9 -4 14 -2 10 3 -3 6 -2 15 2 22 11 18 57 -20 92 -77 20 -31 29 -57 28
-85 0 -23 -3 -35 -6 -28 -3 7 -21 21 -41 31 -46 24 -84 56 -75 64 3 4 0 13 -6
21 -7 8 -10 20 -6 26 3 5 1 10 -4 10 -6 0 -11 -5 -11 -10 0 -7 -7 -7 -21 0
-23 13 -69 6 -69 -10 0 -15 -44 -12 -155 9 -55 11 -170 27 -255 37 -144 15
-200 27 -147 30 31 2 115 11 160 17 39 5 87 31 87 47 0 4 -6 15 -12 22 -43 45
-41 47 29 23 37 -12 110 -31 162 -40z m-463 -116 c17 -10 39 -28 49 -39 19
-21 19 -21 -5 -12 -14 6 -51 21 -83 36 -32 14 -55 21 -51 15 7 -12 126 -69
143 -69 6 0 28 -8 49 -19 20 -10 87 -33 147 -51 185 -54 222 -71 223 -100 0
-15 -10 -34 -24 -46 l-25 -21 -67 22 c-37 12 -116 30 -177 39 -141 22 -157 34
-66 50 72 13 80 44 19 74 -83 39 -139 62 -152 62 -7 0 -24 8 -37 18 -13 11
-46 27 -72 37 -26 10 -49 21 -51 24 -3 4 30 5 72 3 52 -3 87 -10 108 -23z
m679 -319 c29 -17 59 -38 66 -47 13 -15 11 -16 -16 -9 -16 5 -54 11 -82 15
-51 7 -84 21 -50 21 16 0 21 11 18 38 -3 18 6 15 64 -18z" />
    <path d="M980 2808 c-1 -31 -2 -32 -15 -14 -8 10 -16 24 -18 30 -7 19 -18 -1
-24 -43 -4 -27 -2 -41 6 -41 6 0 11 10 11 23 1 21 1 21 18 -5 20 -34 28 -35
36 -5 9 35 7 87 -4 87 -5 0 -10 -15 -10 -32z" />
    <path d="M1026 2821 c-10 -11 -16 -31 -14 -48 3 -25 7 -28 38 -28 32 0 35 3
38 33 6 56 -29 80 -62 43z m49 -21 c8 -25 -5 -51 -24 -48 -17 3 -27 39 -17 64
7 18 33 8 41 -16z" />
    <path d="M1323 2828 c-15 -19 -26 -88 -14 -88 6 0 14 12 17 26 5 19 9 22 15
12 7 -10 12 -11 29 0 18 11 20 10 20 -18 0 -45 17 -36 22 13 6 53 -6 67 -31
36 l-19 -24 -7 28 c-8 29 -17 34 -32 15z" />
    <path d="M1442 2828 c-7 -7 -12 -31 -12 -55 0 -40 2 -43 28 -43 23 1 24 2 10
11 -22 12 -24 39 -3 39 8 0 15 5 15 10 0 6 -7 10 -15 10 -8 0 -15 5 -15 10 0
6 11 10 25 10 14 0 25 5 25 10 0 14 -43 13 -58 -2z" />
    <path d="M1520 2808 c-23 -38 -28 -70 -8 -50 16 16 23 15 42 -4 15 -14 16 -14
16 4 0 35 -12 82 -21 82 -5 0 -18 -15 -29 -32z m25 -18 c3 -5 1 -10 -4 -10 -6
0 -11 5 -11 10 0 6 2 10 4 10 3 0 8 -4 11 -10z" />
    <path d="M1660 2821 c0 -29 -17 -35 -32 -11 -22 35 -38 24 -38 -26 0 -27 4
-43 10 -39 6 3 10 16 10 27 0 21 1 20 29 -6 l28 -27 7 32 c9 45 8 69 -4 69 -5
0 -10 -9 -10 -19z" />
    <path d="M1776 2832 c-3 -5 -8 -28 -12 -50 -8 -48 10 -63 52 -44 28 13 31 37
8 50 -11 6 -13 11 -5 16 20 13 12 36 -13 36 -14 0 -27 -4 -30 -8z m44 -6 c0
-2 -7 -9 -15 -16 -12 -10 -15 -10 -15 4 0 9 7 16 15 16 8 0 15 -2 15 -4z m0
-60 c0 -8 -6 -16 -12 -19 -20 -7 -37 3 -31 19 7 18 43 18 43 0z" />
    <path d="M1867 2834 c-10 -11 -9 -94 2 -94 11 0 22 83 12 93 -4 4 -10 4 -14 1z" />
    <path d="M1921 2826 c-18 -21 -9 -67 14 -80 11 -6 23 -15 27 -21 11 -15 26 5
30 40 2 23 -1 30 -17 33 -13 2 -16 0 -8 -5 17 -12 -1 -37 -21 -30 -25 10 -20
56 7 67 22 9 22 9 1 9 -12 1 -27 -5 -33 -13z" />
    <path d="M2101 2817 c-14 -36 -17 -89 -6 -89 6 1 12 9 14 19 2 10 17 30 34 44
34 28 30 49 -9 49 -16 0 -27 -8 -33 -23z m49 -1 c0 -8 -7 -16 -15 -20 -10 -4
-15 1 -15 14 0 11 7 20 15 20 8 0 15 -6 15 -14z" />
    <path d="M1185 2794 c-6 -34 -1 -54 10 -42 3 3 9 22 12 42 7 48 -13 48 -22 0z" />
    <path d="M2182 2813 c-15 -29 -22 -82 -12 -88 9 -6 15 10 26 68 7 39 0 48 -14
20z" />
    <path d="M2226 2808 c-26 -37 -14 -78 23 -78 11 0 10 5 -5 21 -17 19 -18 22
-2 50 20 34 6 39 -16 7z" />
    <path d="M2305 2776 c0 -39 13 -77 16 -48 1 7 3 17 4 22 1 6 3 21 4 34 1 17 8
26 24 29 15 3 10 5 -13 6 -35 1 -35 1 -35 -43z" />
    <path d="M2380 2775 c0 -25 2 -45 4 -45 2 0 11 -3 20 -6 18 -7 47 43 45 78 -1
18 -3 17 -8 -8 -16 -65 -41 -74 -41 -14 0 22 -4 40 -10 40 -5 0 -10 -20 -10
-45z" />
    <path d="M2470 2808 c0 -7 -3 -30 -6 -50 -7 -41 9 -54 20 -15 l6 22 20 -24
c24 -28 37 -22 20 8 -7 14 -8 27 -1 40 6 10 7 21 4 25 -12 11 -63 6 -63 -6z
m48 -10 c-6 -18 -28 -21 -28 -4 0 9 7 16 16 16 9 0 14 -5 12 -12z" />
    <path d="M2564 2805 c-3 -8 -7 -29 -8 -47 -1 -28 3 -33 24 -36 24 -4 25 -3 5
12 -20 16 -20 16 -1 31 11 8 14 15 8 15 -19 0 -14 28 6 33 12 4 11 5 -6 6 -12
0 -25 -6 -28 -14z" />
    <path d="M2663 2773 c15 -2 39 -2 55 0 15 2 2 4 -28 4 -30 0 -43 -2 -27 -4z" />
    <path d="M921 2649 c-5 -13 -11 -33 -13 -44 -4 -18 -6 -17 -16 8 -13 31 -29
34 -48 10 -12 -16 -13 -15 -14 12 0 21 -3 26 -11 18 -13 -13 -8 -75 8 -80 6
-2 15 6 18 18 l8 23 19 -27 c29 -40 44 -34 58 24 13 53 7 79 -9 38z" />
    <path d="M1016 2663 c-3 -3 -6 -17 -6 -30 0 -32 -34 -27 -38 5 -6 42 -22 22
-22 -28 0 -27 5 -50 10 -50 6 0 10 9 10 20 0 30 36 26 44 -5 11 -44 26 -27 26
29 0 51 -9 74 -24 59z" />
    <path d="M1792 2658 c-7 -7 -12 -27 -12 -45 0 -26 5 -36 23 -42 12 -5 26 -6
31 -3 5 3 0 9 -12 13 -25 9 -31 56 -10 77 7 7 8 12 2 12 -5 0 -15 -5 -22 -12z" />
    <path d="M2265 2658 c-4 -10 -5 -25 -1 -33 8 -23 -2 -18 -29 13 -21 24 -24 25
-30 9 -9 -22 3 -87 15 -87 6 0 10 10 10 22 l0 21 23 -21 c23 -22 47 -29 47
-14 -1 4 -7 30 -14 57 -10 37 -16 45 -21 33z" />
    <path d="M2699 2660 c-39 -23 -30 -92 13 -106 13 -4 26 -11 29 -17 13 -19 29
5 29 44 0 34 -3 39 -22 39 -16 0 -19 -3 -10 -8 12 -8 7 -42 -7 -42 -35 0 -42
76 -8 90 12 5 15 9 7 9 -8 0 -22 -4 -31 -9z" />
    <path d="M1074 2625 c-21 -51 -19 -68 6 -53 16 11 22 9 35 -7 14 -19 15 -16 9
30 -10 78 -26 87 -50 30z m26 -25 c0 -5 -5 -10 -11 -10 -5 0 -7 5 -4 10 3 6 8
10 11 10 2 0 4 -4 4 -10z" />
    <path d="M1146 2652 c6 -4 15 -24 20 -45 11 -48 30 -45 26 5 -3 28 0 37 15 41
10 3 -2 5 -27 6 -25 0 -40 -3 -34 -7z" />
    <path d="M1282 2614 c2 -27 8 -48 13 -46 15 3 12 85 -3 90 -10 3 -12 -8 -10
-44z" />
    <path d="M1327 2653 c-14 -14 -6 -34 18 -45 31 -14 34 -43 4 -35 -13 3 -19 1
-16 -6 2 -7 15 -12 28 -12 36 0 39 47 4 63 -30 14 -34 37 -5 29 11 -3 18 -1
14 4 -6 10 -38 12 -47 2z" />
    <path d="M1477 2618 c8 -62 23 -71 23 -15 0 51 16 63 26 20 11 -53 15 -63 25
-63 5 0 9 9 9 20 0 29 19 25 32 -7 9 -23 12 -25 15 -10 7 26 -6 87 -17 87 -6
0 -10 -7 -10 -15 0 -8 -7 -15 -15 -15 -8 0 -15 9 -15 20 0 17 -7 20 -39 20
l-39 0 5 -42z" />
    <path d="M1626 2651 c-4 -5 -4 -15 -2 -23 2 -7 7 -25 10 -40 5 -22 12 -28 33
-28 l27 0 -22 16 c-28 19 -28 31 1 37 l22 4 -22 2 c-13 0 -23 7 -23 15 0 8 10
17 23 19 16 3 14 5 -10 6 -17 0 -34 -3 -37 -8z" />
    <path d="M1860 2646 c0 -7 3 -28 6 -45 6 -27 11 -32 33 -29 23 3 26 8 27 43 1
29 0 32 -3 10 -2 -16 -9 -34 -13 -39 -10 -10 -14 -2 -24 47 -7 28 -26 38 -26
13z" />
    <path d="M1952 2618 c3 -40 5 -43 33 -45 27 -2 28 -2 8 7 -18 7 -23 18 -23 45
0 19 -5 35 -11 35 -6 0 -9 -17 -7 -42z" />
    <path d="M2020 2623 c0 -43 13 -72 24 -54 4 6 4 20 1 31 -4 11 -2 20 4 20 6 0
11 -4 11 -10 0 -5 11 -10 25 -10 20 0 25 -5 25 -25 0 -14 5 -25 11 -25 15 0 7
102 -9 108 -7 2 -16 -5 -19 -17 -7 -26 -15 -27 -31 -1 -21 34 -42 25 -42 -17z" />
    <path d="M2331 2646 c-7 -8 -15 -31 -18 -51 -6 -36 -5 -37 16 -24 20 13 24 11
41 -11 23 -30 25 -14 6 49 -14 49 -27 59 -45 37z m19 -42 c0 -8 -5 -12 -10 -9
-6 4 -8 11 -5 16 9 14 15 11 15 -7z" />
    <path d="M2395 2652 c-2 -3 2 -11 10 -19 8 -8 15 -25 15 -37 0 -13 7 -30 16
-37 15 -12 16 -8 13 36 -3 36 -1 49 9 48 6 -2 12 2 12 7 0 10 -66 11 -75 2z" />
    <path d="M2498 2654 c-11 -11 -10 -92 1 -99 5 -3 12 -2 14 2 7 13 -8 105 -15
97z" />
    <path d="M2553 2653 c-22 -8 -14 -93 8 -93 5 0 9 14 9 31 l0 30 33 -30 c46
-44 59 -41 55 16 -4 55 -28 73 -28 21 l0 -33 -31 33 c-16 17 -31 32 -32 31 -1
0 -8 -3 -14 -6z" />
    <path d="M2150 2610 c0 -22 5 -40 10 -40 6 0 10 18 10 40 0 22 -4 40 -10 40
-5 0 -10 -18 -10 -40z" />
    <path d="M2767 2492 c-10 -10 -17 -23 -17 -28 0 -4 7 2 16 14 13 18 19 21 30
11 20 -17 17 -47 -6 -54 -24 -8 -26 -30 -4 -39 12 -4 15 -2 10 9 -3 8 2 19 13
25 30 16 35 43 11 62 -28 22 -33 22 -53 0z" />
    <path d="M750 2451 c0 -44 8 -71 21 -71 5 0 9 10 9 22 l0 21 25 -23 c28 -26
33 -16 9 18 -12 18 -13 26 -4 37 17 20 4 35 -31 35 -27 0 -29 -2 -29 -39z m48
17 c-6 -18 -28 -21 -28 -4 0 9 7 16 16 16 9 0 14 -5 12 -12z" />
    <path d="M853 2480 c-19 -8 -22 -14 -16 -42 7 -40 20 -58 41 -58 13 0 12 3 -2
19 -18 19 -14 47 5 36 5 -4 9 -1 9 4 0 6 -7 11 -15 11 -20 0 -19 17 3 29 21
13 5 13 -25 1z" />
    <path d="M926 2472 c-16 -19 -11 -35 17 -45 25 -9 21 -37 -5 -37 -21 -1 -21
-2 -5 -11 13 -8 22 -7 33 1 22 19 17 46 -11 64 -26 17 -26 40 0 29 8 -3 15 -3
15 0 0 14 -30 13 -44 -1z" />
    <path d="M1175 2479 c-16 -3 -24 -7 -17 -8 7 -1 12 -15 12 -35 0 -19 3 -41 6
-50 12 -32 24 -15 24 33 0 30 5 51 12 53 24 8 -8 14 -37 7z" />
    <path d="M1555 2466 c-21 -32 -10 -75 23 -87 17 -7 29 -6 36 1 7 7 5 10 -7 10
-9 0 -24 11 -32 24 -22 33 -5 70 27 60 14 -4 18 -2 14 5 -12 19 -45 12 -61
-13z" />
    <path d="M1092 2433 c3 -44 5 -48 31 -51 15 -2 27 1 27 7 0 6 -9 11 -20 11
-16 0 -20 7 -20 34 0 19 -5 38 -11 41 -7 5 -9 -9 -7 -42z" />
    <path d="M1401 2466 c-8 -9 -10 -28 -5 -50 8 -43 24 -58 24 -22 0 13 6 27 13
30 10 5 10 7 0 12 -18 8 -16 24 1 24 8 0 18 5 21 10 10 16 -41 12 -54 -4z" />
    <path d="M1743 2468 c-9 -16 -4 -70 8 -82 5 -6 9 3 9 24 l0 34 33 -32 c18 -18
36 -32 40 -32 10 0 8 72 -2 89 -12 19 -24 -3 -16 -32 5 -18 1 -17 -22 11 -31
35 -38 38 -50 20z" />
    <path d="M1865 2470 c-8 -12 3 -31 27 -48 21 -15 24 -42 5 -42 -7 0 -19 6 -26
13 -11 10 -13 9 -9 -3 3 -8 16 -16 30 -18 37 -4 49 35 19 59 -28 23 -28 42 0
34 15 -5 19 -4 15 4 -9 14 -53 15 -61 1z" />
    <path d="M2100 2460 c-24 -24 -25 -43 -4 -64 24 -25 53 -20 65 11 12 32 7 48
-20 63 -17 8 -24 7 -41 -10z m48 -23 c7 -33 -5 -49 -28 -37 -20 11 -27 40 -13
54 12 12 38 1 41 -17z" />
    <path d="M2269 2464 c-11 -13 -8 -19 19 -41 35 -27 35 -45 0 -35 -14 3 -19 2
-14 -6 10 -17 41 -15 56 3 11 13 9 20 -13 43 -30 31 -35 47 -11 38 8 -3 12 -2
9 4 -9 15 -31 12 -46 -6z" />
    <path d="M2438 2474 c-5 -4 -8 -18 -8 -32 l0 -25 -21 27 c-32 40 -49 34 -49
-19 0 -25 5 -45 10 -45 6 0 10 11 10 25 0 32 5 31 35 -2 29 -35 37 -28 33 32
-2 26 -6 43 -10 39z" />
    <path d="M2483 2468 c-6 -7 -8 -29 -6 -50 4 -26 11 -38 26 -42 27 -7 37 3 14
15 -22 13 -22 36 1 42 16 4 16 5 0 6 -10 0 -18 8 -18 17 0 10 6 14 15 10 8 -3
15 -1 15 4 0 14 -36 12 -47 -2z" />
    <path d="M2559 2464 c-12 -14 -10 -19 14 -38 32 -26 36 -51 7 -43 -23 6 -27
-11 -5 -19 19 -8 45 13 45 36 0 10 -11 25 -25 34 -28 18 -25 39 3 30 14 -5 15
-4 2 5 -20 14 -25 14 -41 -5z" />
    <path d="M2652 2468 c-19 -19 -14 -44 13 -56 30 -14 34 -37 5 -29 -24 6 -27
-11 -4 -20 21 -8 48 21 40 42 -3 9 -15 19 -27 22 -16 4 -20 12 -16 29 5 28 5
28 -11 12z" />
    <path d="M990 2440 c0 -21 8 -35 26 -47 25 -16 27 -16 40 2 17 22 18 44 3 65
-8 11 -9 7 -4 -17 4 -18 2 -34 -5 -38 -16 -10 -40 14 -40 41 0 13 -4 24 -10
24 -5 0 -10 -13 -10 -30z" />
    <path d="M1307 2452 c-22 -25 -21 -49 2 -62 29 -15 39 -13 52 11 8 16 8 28 0
45 -13 29 -32 31 -54 6z m43 -7 c15 -18 6 -45 -15 -45 -18 0 -30 24 -21 45 7
19 20 19 36 0z" />
    <path d="M1653 2463 c-16 -6 -17 -55 -1 -71 33 -33 91 16 68 57 -6 12 -15 21
-20 21 -6 0 -5 -8 1 -19 16 -24 4 -53 -18 -49 -13 2 -18 13 -18 36 0 17 0 32
0 31 0 0 -6 -3 -12 -6z" />
    <path d="M1962 2458 c-7 -7 -12 -25 -12 -40 0 -21 6 -31 26 -38 27 -11 44 -6
44 11 0 6 -4 8 -9 5 -18 -11 -41 6 -41 30 0 16 8 28 23 34 21 8 21 9 2 9 -12
1 -26 -4 -33 -11z" />
    <path d="M2044 2439 c3 -17 6 -40 6 -50 0 -11 5 -19 10 -19 11 0 14 59 4 84
-11 29 -27 17 -20 -15z" />
    <path d="M2180 2436 c0 -40 24 -65 48 -49 19 11 30 83 13 83 -6 0 -10 -15 -9
-32 2 -24 -1 -33 -12 -33 -10 0 -16 12 -18 33 -4 42 -22 41 -22 -2z" />
    <path d="M2775 2359 c-4 -6 -5 -13 -2 -16 7 -7 27 6 27 18 0 12 -17 12 -25 -2z" />
    <path d="M2110 2263 l-1 -38 -15 28 c-18 33 -30 34 -40 5 l-8 -23 -5 23 c-8
30 -27 24 -23 -7 7 -55 42 -79 42 -29 0 21 0 21 24 -1 14 -13 29 -20 35 -16
14 8 14 95 1 95 -5 0 -10 -17 -10 -37z" />
    <path d="M2317 2287 c-14 -10 -16 -20 -10 -51 5 -22 15 -42 22 -44 9 -3 11 2
6 17 -8 27 3 27 32 -1 29 -27 31 -6 2 23 -15 15 -18 24 -10 32 7 7 7 14 0 24
-14 16 -21 16 -42 0z m30 -23 c-9 -9 -28 6 -21 18 4 6 10 6 17 -1 6 -6 8 -13
4 -17z" />
    <path d="M2526 2291 c-4 -5 -4 -15 -2 -23 2 -7 7 -25 10 -39 8 -36 32 -43 57
-18 19 19 21 20 33 3 9 -12 20 -15 39 -10 30 7 43 37 27 66 -15 28 -57 27 -66
-2 -6 -19 -8 -20 -18 -7 -22 30 -69 48 -80 30z m52 -23 c15 -15 16 -45 1 -54
-14 -8 -29 14 -29 44 0 24 10 28 28 10z m97 -8 c4 -12 1 -28 -6 -36 -11 -13
-14 -13 -27 -1 -17 17 -8 57 13 57 8 0 17 -9 20 -20z" />
    <path d="M2142 2243 c2 -25 8 -48 14 -50 7 -2 10 6 7 22 -4 20 -1 25 15 25 11
0 22 -8 25 -20 3 -11 10 -20 16 -20 9 0 7 39 -5 78 -6 20 -24 14 -24 -8 0 -11
-5 -20 -11 -20 -6 0 -13 9 -16 20 -10 38 -24 20 -21 -27z" />
    <path d="M2238 2285 c-3 -3 -2 -22 1 -43 5 -30 11 -37 31 -39 15 -1 18 0 8 3
-20 6 -24 29 -6 40 8 5 6 10 -8 15 -18 6 -17 8 6 17 l25 11 -26 0 c-14 1 -28
-1 -31 -4z" />
    <path d="M2380 2283 c0 -5 5 -25 11 -45 8 -33 14 -38 37 -37 19 1 21 3 9 6
-13 3 -17 11 -14 24 3 10 1 19 -5 19 -6 0 -8 9 -5 20 4 15 0 20 -14 20 -10 0
-19 -3 -19 -7z" />
    <path d="M2723 2283 c-18 -6 -16 -68 2 -83 12 -10 19 -10 27 -2 9 9 8 12 -5
12 -20 0 -23 26 -4 33 10 4 10 6 0 6 -19 1 -15 19 5 23 14 3 14 5 2 9 -8 3
-21 4 -27 2z" />
    <path d="M2787 2276 c-3 -9 4 -21 19 -30 26 -18 33 -42 9 -32 -8 3 -15 1 -15
-4 0 -6 11 -10 25 -10 34 0 33 34 -1 57 -24 15 -25 17 -8 24 17 7 17 8 -2 8
-12 1 -24 -5 -27 -13z" />
    <path d="M2167 2132 c6 -4 13 -23 15 -41 2 -19 9 -36 17 -39 10 -3 11 3 6 27
-4 20 -2 37 5 46 11 13 7 15 -21 15 -19 0 -29 -4 -22 -8z" />
    <path d="M2382 2128 c-18 -18 -14 -36 7 -43 24 -7 36 -35 16 -35 -8 0 -15 -4
-15 -10 0 -15 26 -12 39 4 9 11 6 21 -16 47 -27 31 -27 32 -5 27 27 -7 29 -2
4 11 -13 7 -23 6 -30 -1z" />
    <path d="M2523 2133 c-13 -5 -18 -60 -7 -87 9 -23 27 -20 21 4 -3 13 3 24 19
35 23 15 23 15 17 -17 -5 -27 -3 -31 8 -20 7 6 21 12 30 12 10 0 19 -6 22 -12
2 -7 7 -11 10 -8 6 6 -15 75 -26 86 -4 4 -13 2 -21 -5 -11 -9 -15 -8 -20 4 -5
15 -29 18 -53 8z m41 -12 c7 -10 -22 -37 -30 -28 -9 8 3 37 15 37 5 0 12 -4
15 -9z m46 -31 c0 -5 -5 -10 -11 -10 -5 0 -7 5 -4 10 3 6 8 10 11 10 2 0 4 -4
4 -10z" />
    <path d="M2790 2116 c0 -31 -12 -33 -37 -8 -20 21 -97 30 -108 13 -3 -6 0 -11
8 -11 8 0 18 -14 23 -32 5 -17 16 -34 23 -36 10 -3 12 0 8 13 -4 9 -10 28 -13
42 -6 20 -3 24 12 21 10 -2 21 -16 26 -35 10 -38 28 -53 28 -24 0 14 6 21 20
21 11 0 20 -6 20 -14 0 -8 7 -17 16 -20 12 -5 15 -2 9 11 -3 10 -9 30 -12 46
-7 36 -23 45 -23 13z" />
    <path d="M2230 2096 c0 -19 5 -38 10 -41 6 -3 10 1 10 9 0 27 20 28 30 2 5
-14 15 -26 21 -26 6 0 8 7 5 16 -3 9 -6 29 -6 45 0 16 -4 29 -10 29 -5 0 -10
-7 -10 -15 0 -8 -7 -15 -15 -15 -8 0 -15 7 -15 15 0 8 -4 15 -10 15 -5 0 -10
-15 -10 -34z" />
    <path d="M2327 2123 c-9 -14 7 -66 21 -71 9 -3 11 4 6 25 -9 39 -20 57 -27 46z" />
    <path d="M2640 1980 c-12 -8 -10 -10 10 -8 32 4 40 -27 9 -35 -11 -3 -19 -11
-17 -18 6 -17 28 -24 28 -8 0 6 8 18 18 25 33 24 -13 67 -48 44z" />
    <path d="M2456 1972 c-3 -6 -3 -17 0 -26 9 -22 -8 -20 -29 4 -23 27 -37 17
-37 -25 0 -41 17 -56 22 -19 l3 26 27 -21 c39 -31 50 -27 42 17 -7 41 -19 59
-28 44z" />
    <path d="M2505 1970 c-8 -13 13 -90 25 -90 22 0 58 20 64 36 10 27 -20 64 -54
64 -16 0 -32 -4 -35 -10z m59 -19 c19 -21 12 -51 -14 -51 -12 0 -19 10 -22 30
-7 45 7 53 36 21z" />
    <path d="M2332 1928 c3 -37 6 -43 28 -46 l25 -3 -24 17 c-23 16 -23 18 -6 31
17 12 17 13 2 13 -20 0 -23 16 -4 23 7 3 4 6 -6 6 -15 1 -18 -6 -15 -41z" />
    <path d="M2650 1860 c0 -5 5 -10 10 -10 6 0 10 5 10 10 0 6 -4 10 -10 10 -5 0
-10 -4 -10 -10z" />
    <path d="M1308 2283 c7 -3 16 -2 19 1 4 3 -2 6 -13 5 -11 0 -14 -3 -6 -6z" />
    <path d="M1190 2250 c-9 -6 -10 -10 -3 -10 6 0 15 5 18 10 8 12 4 12 -15 0z" />
    <path d="M1148 2243 c7 -3 16 -2 19 1 4 3 -2 6 -13 5 -11 0 -14 -3 -6 -6z" />
    <path d="M848 2073 c7 -3 16 -2 19 1 4 3 -2 6 -13 5 -11 0 -14 -3 -6 -6z" />
    <path d="M810 2060 c-9 -6 -10 -10 -3 -10 6 0 15 5 18 10 8 12 4 12 -15 0z" />
    <path d="M1497 1983 c-26 -21 -43 -42 -40 -50 5 -11 9 -11 23 2 12 11 17 12
17 3 0 -7 4 -22 9 -32 5 -14 4 -17 -5 -11 -8 4 -6 -4 4 -19 11 -16 26 -26 42
-26 13 0 22 -4 19 -9 -9 -14 44 -23 60 -11 7 7 18 9 24 5 5 -3 10 -1 10 4 0 6
-5 11 -11 11 -5 0 -7 5 -4 10 4 6 16 10 28 8 18 -2 21 1 19 19 -2 17 1 21 12
17 9 -3 16 -10 16 -15 0 -5 5 -9 10 -9 16 0 -23 49 -38 50 -8 0 -11 7 -8 18 7
23 -2 36 -41 56 -35 17 -73 21 -73 7 0 -5 -10 -11 -22 -14 -22 -6 -22 -6 -4 8
11 8 15 15 9 15 -6 0 -31 -17 -56 -37z m139 -19 c20 -19 24 -31 19 -52 -4 -15
-11 -33 -17 -39 -11 -14 -56 -17 -83 -7 -21 8 -48 61 -39 77 31 54 79 63 120
21z" />
    <path d="M1577 1967 c-22 -17 -25 -48 -6 -60 26 -16 49 -1 49 32 0 32 -20 46
-43 28z" />
    <path d="M1350 1999 c0 -5 5 -7 10 -4 6 3 10 8 10 11 0 2 -4 4 -10 4 -5 0 -10
-5 -10 -11z" />
    <path d="M1775 1855 c-2 -5 -3 -17 -3 -25 1 -8 -2 -26 -7 -40 l-8 -25 28 28
c15 15 36 27 46 27 25 0 24 20 -1 27 -11 3 -18 8 -16 12 3 4 -5 7 -16 7 -11 0
-22 -5 -23 -11z" />
    <path d="M1592 1680 c-13 -11 -22 -24 -20 -30 2 -6 19 3 38 19 21 18 29 30 20
30 -8 0 -26 -8 -38 -19z" />
    <path d="M836 1445 c-9 -26 -7 -32 5 -12 6 10 9 21 6 23 -2 3 -7 -2 -11 -11z" />
    <path d="M604 1336 c-15 -16 -6 -36 17 -36 21 0 25 22 7 38 -9 7 -16 6 -24 -2z" />
    <path d="M818 1292 c-4 -15 -11 -20 -22 -16 -11 4 -16 1 -16 -11 0 -11 6 -15
19 -10 15 4 20 -1 25 -26 9 -49 14 -31 7 31 -5 40 -8 49 -13 32z" />
    <path d="M660 1292 c0 -5 7 -9 15 -9 8 0 15 4 15 9 0 4 -7 8 -15 8 -8 0 -15
-4 -15 -8z" />
    <path d="M705 1291 c3 -6 10 -9 15 -6 5 3 11 -3 14 -12 4 -14 4 -14 3 2 -1 11
-11 21 -21 23 -11 3 -16 0 -11 -7z" />
    <path d="M840 1275 c0 -8 5 -15 10 -15 6 0 10 7 10 15 0 8 -4 15 -10 15 -5 0
-10 -7 -10 -15z" />
    <path d="M853 1243 c-8 -3 -9 -12 -3 -29 5 -13 6 -24 3 -24 -4 0 -2 -5 4 -11
6 -6 9 -18 6 -25 -3 -8 -1 -14 5 -14 23 0 31 81 10 97 -7 6 -18 8 -25 6z m27
-40 c0 -22 -2 -25 -10 -13 -13 20 -13 40 0 40 6 0 10 -12 10 -27z" />
    <path d="M917 1204 c8 -13 19 -21 24 -19 13 9 0 33 -21 38 -18 5 -18 3 -3 -19z" />
    <path d="M892 1130 c0 -14 2 -19 5 -12 2 6 2 18 0 25 -3 6 -5 1 -5 -13z" />
    <path d="M916 1121 c-4 -7 -5 -15 -2 -18 9 -9 19 4 14 18 -4 11 -6 11 -12 0z" />
    <path d="M935 1079 c-4 -6 -5 -12 -2 -15 2 -3 7 2 10 11 7 17 1 20 -8 4z" />
    <path d="M1077 1043 c6 -16 5 -16 -10 -4 -10 8 -20 11 -23 8 -9 -8 16 -48 26
-42 4 3 11 -1 13 -7 3 -7 6 1 6 19 1 17 -3 35 -9 38 -6 4 -7 -1 -3 -12z" />
    <path d="M1150 991 c0 -6 5 -13 10 -16 6 -3 10 1 10 9 0 9 -4 16 -10 16 -5 0
-10 -4 -10 -9z" />
    <path d="M1515 820 c3 -5 8 -10 11 -10 2 0 4 5 4 10 0 6 -5 10 -11 10 -5 0 -7
-4 -4 -10z" />
    <path d="M1566 799 c19 -21 29 -25 18 -7 -5 8 -2 9 10 5 9 -4 15 -3 12 2 -3 5
-17 11 -31 13 -25 5 -25 5 -9 -13z" />
    <path d="M1650 686 c0 -2 7 -9 15 -16 13 -11 14 -10 9 4 -5 14 -24 23 -24 12z" />
    <path d="M2360 1692 c0 -16 9 -19 83 -27 41 -4 67 -3 67 3 0 14 -25 22 -92 29
-39 4 -58 2 -58 -5z" />
    <path d="M2628 1613 c7 -3 16 -2 19 1 4 3 -2 6 -13 5 -11 0 -14 -3 -6 -6z" />
    <path d="M3207 3063 c-5 -8 -12 -598 -23 -1820 l-6 -702 23 -5 c13 -3 588 -7
1277 -9 929 -4 1252 -2 1251 7 0 6 2 290 5 631 8 870 9 1883 1 1895 -7 12
-2521 14 -2528 3z m2499 -1200 c-4 -643 -9 -1198 -13 -1236 l-6 -67 -301 2
-301 3 -6 50 c-14 117 -81 320 -129 391 -36 51 -58 70 -133 109 -49 25 -57 33
-57 57 0 52 53 80 202 107 65 12 114 -1 223 -59 68 -35 198 -61 216 -43 7 7 5
16 -7 27 -39 40 -126 97 -210 138 -102 51 -121 58 -224 88 -106 31 -140 43
-140 51 0 3 10 5 23 3 254 -37 296 -49 428 -115 42 -21 98 -56 123 -79 26 -22
51 -40 56 -40 17 0 23 51 11 89 -29 99 -109 157 -311 226 -197 68 -216 82
-348 257 -64 84 -83 100 -179 152 -128 68 -198 93 -335 122 -246 50 -446 29
-582 -60 -83 -55 -98 -70 -126 -130 -11 -26 -39 -70 -60 -99 -22 -29 -40 -58
-40 -65 0 -14 -58 -115 -107 -188 -15 -23 -40 -59 -55 -81 -17 -27 -36 -42
-55 -46 -15 -3 -29 -4 -31 -3 -6 6 -2 1288 5 1444 l6 162 1235 0 1235 0 -7
-1167z m-1486 216 c143 -25 284 -73 395 -134 87 -47 105 -65 250 -244 27 -34
59 -68 70 -75 30 -20 52 -73 36 -89 -12 -12 -82 -13 -182 -2 -116 13 -181 -14
-100 -41 18 -6 33 -15 34 -20 3 -17 63 -51 112 -63 53 -13 88 -37 78 -54 -3
-5 0 -8 7 -5 8 2 15 8 17 14 5 15 -59 53 -104 60 -23 3 -44 12 -46 18 -4 9 16
8 72 -4 151 -33 285 -89 296 -124 16 -50 16 -59 -2 -51 -58 24 -157 54 -199
61 -27 4 -52 12 -56 18 -6 8 -11 6 -18 -4 -7 -12 -2 -17 30 -25 57 -15 57 -22
-1 -29 -84 -11 -148 -51 -163 -103 -4 -13 -13 -22 -19 -20 -7 1 -12 -4 -12
-12 0 -7 38 -34 85 -60 127 -70 146 -101 235 -381 8 -25 17 -65 20 -89 3 -23
8 -48 11 -53 5 -7 -77 -9 -257 -5 -145 4 -506 7 -801 7 l-538 0 0 25 c0 22 5
25 38 26 26 1 29 3 12 6 -14 2 -30 6 -37 8 -15 5 77 220 118 277 14 20 32 51
39 68 7 16 19 30 26 30 29 0 12 19 -22 26 -34 6 -36 8 -30 37 6 30 6 30 -14
12 -19 -18 -20 -17 -20 2 0 11 16 50 35 86 38 71 33 89 -8 35 -67 -89 -73
-135 -23 -175 33 -26 34 -28 22 -58 -8 -17 -29 -54 -48 -81 -48 -68 -114 -194
-137 -262 l-20 -57 -89 -3 -89 -3 3 228 c2 125 4 309 4 409 l0 181 113 26 c61
14 127 29 144 32 18 4 36 11 39 17 7 11 -57 8 -156 -8 l-41 -7 54 79 c64 95
117 187 117 204 0 7 20 41 45 77 25 35 45 70 45 77 0 28 59 103 91 116 19 8
36 16 39 20 21 24 121 63 190 73 70 11 207 5 310 -14z m880 -528 c42 -14 89
-34 104 -44 33 -22 92 -77 82 -77 -4 0 -2 -9 3 -19 10 -17 8 -18 -13 -8 -15 7
-20 14 -13 19 8 5 7 11 -2 22 -12 14 -15 14 -28 0 -9 -8 -22 -13 -30 -10 -72
28 -238 57 -406 72 -43 4 -80 11 -84 17 -4 6 7 7 28 4 19 -4 73 -9 121 -13 73
-6 91 -4 113 10 21 14 25 23 20 43 -5 22 -3 24 12 18 10 -4 52 -20 93 -34z
m-335 -61 c18 -8 17 -9 -7 -9 -16 -1 -28 4 -28 9 0 12 8 12 35 0z m596 -51
c27 -14 79 -97 79 -126 0 -21 -3 -20 -53 18 -48 35 -54 44 -55 79 -2 44 0 45
29 29z m-24 -215 c41 -31 38 -38 -11 -29 -29 6 -36 12 -36 31 0 30 5 30 47 -2z" />
    <path d="M4290 3014 c0 -6 39 -10 93 -10 359 3 667 -47 781 -124 18 -13 53
-52 75 -85 35 -52 45 -77 59 -154 19 -112 8 -261 -27 -328 -19 -38 -31 -51
-101 -102 -23 -18 -24 -25 -26 -122 -1 -113 -10 -161 -25 -138 -5 8 -9 28 -9
44 0 41 -41 124 -77 158 -29 27 -31 28 -95 18 -37 -6 -222 -10 -439 -9 -499 2
-605 13 -736 76 -133 64 -225 170 -252 293 -13 57 3 136 42 217 36 74 67 102
176 160 89 48 157 64 346 81 66 6 138 13 160 15 22 3 -12 3 -75 0 -152 -5
-312 -27 -378 -52 -77 -30 -186 -96 -218 -134 -39 -47 -74 -128 -86 -201 -11
-69 3 -140 43 -219 31 -61 114 -133 203 -178 139 -68 164 -71 671 -77 248 -2
483 -1 523 4 57 7 77 6 92 -4 34 -24 70 -98 78 -159 8 -68 30 -82 58 -39 12
19 17 50 18 128 l1 103 41 34 c100 84 128 165 122 359 -3 131 -5 140 -36 204
-53 108 -119 151 -300 198 -41 10 -110 23 -155 29 -118 15 -547 25 -547 14z" />
    <path d="M4357 2893 c-3 -5 -2 -26 2 -47 7 -45 31 -62 31 -22 0 14 5 26 12 26
6 0 3 7 -8 15 -17 13 -17 14 -1 15 9 0 17 5 17 10 0 12 -47 14 -53 3z" />
    <path d="M3987 2883 c-14 -13 -6 -30 19 -42 29 -13 27 -38 -2 -33 -14 3 -16 1
-8 -8 17 -17 54 -3 54 21 0 11 -11 24 -25 31 -27 12 -32 24 -12 31 8 4 6 6 -4
6 -9 1 -19 -2 -22 -6z" />
    <path d="M4059 2881 c8 -5 17 -26 20 -47 8 -47 27 -43 23 5 -2 20 2 37 10 42
8 6 -2 9 -27 9 -27 0 -35 -3 -26 -9z" />
    <path d="M4136 2882 c-7 -12 5 -81 15 -88 5 -3 9 15 9 40 0 42 -12 67 -24 48z" />
    <path d="M4175 2853 c10 -58 13 -63 35 -63 23 0 27 15 5 24 -8 3 -15 14 -15
25 0 27 -10 51 -22 51 -5 0 -6 -16 -3 -37z" />
    <path d="M4234 2848 c9 -55 12 -58 49 -57 29 0 30 1 10 9 -13 5 -25 21 -29 37
-10 46 -13 53 -25 53 -8 0 -9 -13 -5 -42z" />
    <path d="M4432 2843 c3 -45 5 -48 33 -50 27 -2 28 -2 8 7 -25 10 -31 35 -10
43 10 4 10 6 0 6 -19 1 -15 29 5 34 10 3 6 5 -11 6 -27 1 -28 0 -25 -46z" />
    <path d="M4496 2882 c-7 -12 5 -92 14 -92 5 0 17 -3 27 -6 17 -5 17 -5 1 9
-21 17 -23 43 -5 50 10 4 10 6 0 6 -19 1 -15 29 5 34 11 3 7 5 -10 6 -15 0
-29 -3 -32 -7z" />
    <path d="M4715 2879 c-4 -6 -4 -30 0 -55 6 -40 9 -44 33 -44 23 1 25 2 10 11
-13 7 -18 23 -18 54 0 43 -11 58 -25 34z" />
    <path d="M3860 2841 c0 -36 14 -61 26 -48 8 7 -8 87 -17 87 -5 0 -9 -18 -9
-39z" />
    <path d="M4572 2838 c3 -41 4 -43 38 -45 30 -2 32 -1 13 7 -13 5 -23 18 -23
29 0 27 -10 51 -22 51 -5 0 -8 -19 -6 -42z" />
    <path d="M4780 2848 c0 -42 16 -71 25 -46 10 24 2 71 -12 76 -9 2 -13 -7 -13
-30z" />
    <path d="M4825 2838 c4 -24 9 -46 12 -51 8 -14 22 4 16 21 -7 16 -5 16 20 -1
31 -20 36 -8 7 18 -19 17 -19 19 -3 38 17 19 17 20 -4 8 -14 -7 -24 -8 -28 -1
-16 25 -26 8 -20 -32z" />
    <path d="M4910 2856 c0 -39 18 -76 37 -76 13 0 14 3 5 12 -18 18 -15 34 11 46
l22 11 -22 0 c-25 1 -31 16 -10 24 6 3 0 6 -15 6 -23 1 -28 -3 -28 -23z" />
    <path d="M4299 2724 c-12 -14 -10 -19 15 -39 32 -25 27 -50 -7 -39 -17 5 -19
3 -11 -6 16 -16 58 -8 62 12 2 9 -8 27 -22 39 -27 24 -25 48 2 27 15 -12 16
-11 3 5 -17 21 -25 21 -42 1z" />
    <path d="M3770 2685 c0 -25 5 -45 10 -45 6 0 10 20 10 45 0 25 -4 45 -10 45
-5 0 -10 -20 -10 -45z" />
    <path d="M3817 2722 c6 -4 13 -20 15 -36 4 -41 28 -46 28 -7 0 25 4 31 23 32
18 1 16 3 -8 9 -41 10 -73 12 -58 2z" />
    <path d="M3946 2714 c-8 -21 -8 -59 1 -68 4 -4 15 3 24 16 l17 22 13 -27 c9
-19 18 -26 28 -22 43 17 71 17 71 1 0 -9 5 -16 11 -16 12 0 8 35 -10 83 -13
34 -27 28 -49 -22 l-17 -36 -3 43 c-3 41 -22 61 -22 22 0 -13 -7 -20 -20 -20
-13 0 -20 7 -20 20 0 24 -15 27 -24 4z m139 -34 c3 -5 1 -10 -4 -10 -6 0 -11
5 -11 10 0 6 2 10 4 10 3 0 8 -4 11 -10z" />
    <path d="M4132 2718 c-20 -20 -14 -35 18 -47 36 -12 39 -28 8 -34 -20 -4 -19
-4 5 -6 15 0 28 4 29 9 0 6 1 15 2 20 1 6 -10 16 -23 23 -24 12 -27 33 -4 31
7 -1 10 2 7 7 -7 13 -28 11 -42 -3z" />
    <path d="M5016 2714 c-26 -26 -20 -63 14 -82 16 -9 30 -23 30 -29 0 -27 20
-11 22 17 0 17 1 36 2 42 1 7 -7 14 -16 16 -12 2 -15 -2 -11 -19 4 -16 2 -20
-8 -17 -18 6 -24 55 -8 74 16 20 -5 18 -25 -2z" />
    <path d="M4374 2706 c-10 -27 1 -59 24 -67 18 -7 25 -4 33 15 8 17 8 29 0 45
-13 24 -49 28 -57 7z m50 -39 c-3 -9 -10 -17 -14 -17 -12 0 -23 38 -14 51 10
17 36 -14 28 -34z" />
    <path d="M4454 2706 c-8 -21 0 -67 11 -66 6 1 9 8 9 15 -1 9 6 13 19 12 11 -1
22 4 25 12 3 8 0 11 -6 7 -6 -4 -16 3 -22 14 -12 23 -28 26 -36 6z" />
    <path d="M4524 2709 c-3 -6 -1 -16 5 -22 6 -6 11 -21 11 -34 0 -13 5 -23 10
-23 6 0 10 13 10 29 0 51 -19 77 -36 50z" />
    <path d="M4575 2711 c-3 -6 -3 -28 1 -50 6 -38 9 -41 38 -40 28 0 29 1 9 9
-27 11 -29 25 -5 39 16 10 16 10 0 11 -10 0 -18 3 -18 6 0 4 8 13 18 20 15 12
15 13 -10 14 -15 0 -29 -4 -33 -9z" />
    <path d="M4663 2709 c11 -7 17 -22 17 -49 0 -22 5 -40 10 -40 6 0 10 20 10 45
0 33 4 45 14 45 10 0 16 -13 18 -42 3 -42 28 -68 28 -29 0 30 19 26 31 -6 15
-39 28 -16 22 40 -6 49 -23 66 -23 21 0 -19 -4 -25 -17 -22 -10 2 -18 9 -18
16 0 20 -26 32 -70 32 -32 -1 -36 -3 -22 -11z" />
    <path d="M4840 2676 c0 -42 12 -67 24 -48 7 12 -6 92 -15 92 -5 0 -9 -20 -9
-44z" />
    <path d="M4956 2683 l7 -38 -27 33 c-29 34 -63 44 -52 16 3 -9 6 -29 6 -45 0
-16 5 -29 10 -29 6 0 10 10 10 22 l0 21 24 -23 c34 -31 57 -21 50 22 -8 49
-12 58 -24 58 -7 0 -8 -13 -4 -37z" />
    <path d="M3778 2538 c7 -7 12 -23 12 -37 0 -15 4 -32 9 -40 14 -21 24 5 17 44
-6 29 -4 34 16 38 13 2 3 5 -21 6 -35 1 -42 -2 -33 -11z" />
    <path d="M3857 2529 c-8 -11 -13 -29 -10 -39 11 -42 83 -31 83 13 0 46 -47 63
-73 26z m54 -10 c7 -14 8 -24 1 -31 -17 -17 -42 -1 -42 27 0 31 25 34 41 4z" />
    <path d="M4006 2513 c9 -52 25 -68 53 -54 43 23 12 91 -42 91 -15 0 -17 -5
-11 -37z m58 -6 c8 -12 7 -20 -2 -29 -10 -10 -15 -10 -22 2 -14 21 -12 52 2
48 6 -2 16 -12 22 -21z" />
    <path d="M4100 2531 c-20 -39 22 -82 60 -61 26 14 26 56 1 70 -29 15 -49 12
-61 -9z m58 -24 c3 -23 0 -28 -15 -25 -11 2 -19 14 -21 31 -3 23 0 28 15 25
11 -2 19 -14 21 -31z" />
    <path d="M4250 2523 c0 -39 24 -72 41 -56 9 9 18 9 32 2 24 -13 34 -3 39 38 4
41 -15 48 -22 8 -6 -30 -6 -30 -18 -7 -14 25 -32 29 -32 7 0 -8 -4 -15 -10
-15 -5 0 -10 9 -10 19 0 11 -4 23 -10 26 -6 4 -10 -6 -10 -22z" />
    <path d="M4445 2540 c-16 -4 -25 -8 -18 -9 7 0 16 -16 21 -33 10 -41 28 -39
24 2 -2 17 1 30 7 30 6 0 11 5 11 10 0 11 -2 11 -45 0z" />
    <path d="M4505 2538 c-4 -10 -3 -35 3 -55 9 -34 11 -36 17 -15 8 24 35 31 35
8 0 -7 8 -20 17 -27 15 -13 16 -11 10 20 -4 18 -7 44 -7 57 0 13 -4 24 -10 24
-5 0 -10 -9 -10 -20 0 -27 -29 -25 -39 3 -8 19 -10 20 -16 5z" />
    <path d="M4655 2540 c-3 -5 -1 -10 4 -10 6 0 11 -11 11 -24 0 -69 27 -73 32
-6 3 46 1 50 -19 50 -12 0 -25 -4 -28 -10z" />
    <path d="M4940 2535 c-11 -13 -8 -21 16 -47 28 -29 28 -30 5 -23 -16 5 -21 4
-17 -4 9 -14 43 -14 51 0 4 6 -2 21 -14 33 -22 24 -29 52 -9 40 7 -4 8 -3 4 4
-10 16 -21 15 -36 -3z" />
    <path d="M4380 2517 c0 -32 9 -57 22 -57 14 0 5 73 -9 78 -8 2 -13 -6 -13 -21z" />
    <path d="M4726 2508 c10 -58 15 -65 25 -38 l10 24 25 -29 25 -30 -5 40 c-3 22
-6 46 -6 53 0 6 -4 12 -10 12 -5 0 -10 -9 -10 -20 0 -11 -7 -20 -15 -20 -8 0
-15 9 -15 20 0 11 -7 20 -15 20 -11 0 -13 -8 -9 -32z" />
    <path d="M4838 2529 c-21 -12 -24 -49 -6 -67 7 -7 25 -12 40 -12 21 0 32 7 40
26 11 23 10 29 -11 45 -26 21 -38 23 -63 8z m52 -14 c17 -20 5 -45 -20 -45
-23 0 -35 22 -26 45 7 19 30 19 46 0z" />
    <path d="M5016 2532 c-3 -5 -3 -25 1 -45 5 -32 9 -37 32 -37 22 1 24 2 9 11
-10 5 -18 14 -18 19 0 5 8 11 18 13 16 4 16 5 0 6 -10 0 -18 7 -18 15 0 8 8
17 18 19 11 3 7 5 -10 6 -15 0 -29 -3 -32 -7z" />
    <path d="M3800 2341 c0 -28 5 -53 10 -56 6 -3 10 -1 10 6 0 7 7 21 17 31 15
17 15 18 0 18 -10 0 -17 7 -17 15 0 8 7 15 15 15 8 0 15 5 15 10 0 6 -11 10
-25 10 -23 0 -25 -3 -25 -49z" />
    <path d="M3877 2384 c-11 -11 -8 -104 3 -104 6 0 10 7 10 15 0 22 25 18 43 -7
12 -17 16 -19 16 -7 1 8 -5 21 -11 28 -7 6 -13 26 -13 44 0 25 -5 33 -20 35
-12 2 -24 0 -28 -4z m34 -27 c-13 -13 -26 -3 -16 12 3 6 11 8 17 5 6 -4 6 -10
-1 -17z" />
    <path d="M4002 2382 c-9 -6 -10 -19 -4 -48 6 -31 13 -40 32 -42 24 -4 25 -3 5
12 -17 14 -18 17 -5 27 11 8 12 12 3 16 -19 7 -16 23 5 23 14 0 15 2 2 10 -18
12 -22 12 -38 2z" />
    <path d="M4072 2378 c-19 -19 -14 -37 13 -50 30 -14 35 -43 5 -35 -11 3 -18 1
-14 -4 10 -16 43 -10 54 11 9 16 6 22 -16 36 -17 11 -24 24 -21 36 6 21 -4 23
-21 6z" />
    <path d="M4481 2382 c-22 -2 -30 -6 -22 -11 7 -5 16 -23 20 -41 3 -19 13 -36
20 -38 11 -4 13 4 8 37 -3 28 -1 41 7 41 6 0 13 -14 14 -31 1 -18 5 -36 8 -40
8 -14 24 -10 24 6 0 23 18 18 22 -7 2 -12 9 -24 17 -26 10 -4 12 1 8 19 -4 13
-7 39 -7 57 0 17 -4 32 -10 32 -5 0 -10 -11 -10 -25 0 -18 -4 -23 -15 -19 -8
4 -15 11 -15 18 0 18 -32 31 -69 28z" />
    <path d="M3950 2346 c0 -19 3 -41 6 -50 11 -28 24 -6 24 40 0 32 -4 44 -15 44
-10 0 -15 -10 -15 -34z" />
    <path d="M4370 2360 c0 -19 -1 -20 -25 -4 -39 26 -49 8 -28 -56 4 -13 7 -12
18 3 13 18 14 18 41 1 l27 -19 -6 34 c-4 18 -7 40 -7 47 0 8 -4 14 -10 14 -5
0 -10 -9 -10 -20z" />
    <path d="M4624 2366 c-3 -8 -4 -29 -2 -48 3 -29 7 -33 33 -35 28 -3 28 -2 7 7
-25 11 -21 30 6 31 12 0 10 3 -7 10 -23 9 -23 10 -6 29 18 19 17 20 -4 20 -12
0 -24 -6 -27 -14z" />
    <path d="M4763 2373 c-16 -6 -17 -42 -3 -78 11 -28 30 -26 30 3 0 15 32 52 45
52 3 0 5 -15 5 -34 0 -19 5 -38 11 -41 16 -11 18 -4 12 48 -4 35 -9 47 -19 43
-7 -3 -16 -1 -19 4 -6 10 -41 12 -62 3z m47 -17 c0 -8 -7 -16 -15 -20 -10 -4
-15 1 -15 14 0 11 7 20 15 20 8 0 15 -6 15 -14z" />
    <path d="M4967 2373 c-10 -10 -8 -76 3 -93 8 -12 10 -12 15 2 4 10 4 22 0 28
-11 18 11 11 30 -10 10 -11 22 -20 27 -20 14 0 9 27 -7 40 -11 9 -12 16 -4 26
6 7 8 18 4 24 -7 11 -58 14 -68 3z m51 -15 c-6 -18 -28 -21 -28 -4 0 9 7 16
16 16 9 0 14 -5 12 -12z" />
    <path d="M4204 2356 c-17 -45 40 -86 73 -53 14 13 14 21 5 42 -6 14 -19 25
-27 25 -14 0 -13 -3 1 -26 12 -17 14 -28 6 -36 -12 -12 -47 35 -37 52 3 5 1
10 -5 10 -6 0 -13 -6 -16 -14z" />
    <path d="M4880 2341 c0 -48 9 -61 44 -60 28 0 29 1 9 9 -25 10 -31 30 -10 30
6 0 4 5 -5 11 -10 5 -18 14 -18 19 0 5 8 11 18 13 10 3 6 5 -10 6 -24 1 -28
-3 -28 -28z" />
    <path d="M4376 1763 c-27 -7 -49 -30 -36 -38 6 -4 8 -10 5 -15 -10 -16 15 -50
43 -62 34 -14 112 -27 107 -18 -2 4 7 13 20 20 29 15 30 20 11 63 -11 28 -21
35 -65 45 -29 7 -56 11 -59 11 -4 -1 -16 -4 -26 -6z m51 -31 c-24 -26 -21 -51
8 -64 19 -8 28 -8 41 3 15 12 17 12 12 -1 -13 -40 -118 -4 -118 41 0 19 28 37
59 38 11 1 11 -3 -2 -17z" />
    <path d="M3570 1466 c0 -2 9 -6 20 -9 11 -3 18 -1 14 4 -5 9 -34 13 -34 5z" />
    <path d="M4670 1137 c0 -2 15 -16 33 -33 l32 -29 -29 33 c-28 30 -36 37 -36
29z" />
    <path d="M5063 1522 c4 -6 22 -13 40 -17 17 -4 40 -9 51 -12 11 -3 16 -1 12 5
-3 5 -22 13 -42 16 -19 4 -43 10 -51 13 -10 4 -14 2 -10 -5z" />
    <path d="M4407 493 c-10 -10 -8 -66 3 -83 8 -12 10 -9 10 12 0 15 5 30 11 34
8 4 7 9 -2 15 -12 8 -11 11 1 19 13 8 13 10 -1 10 -9 0 -19 -3 -22 -7z" />
    <path d="M4475 466 c-18 -42 -20 -65 -5 -50 6 6 12 21 15 34 7 36 13 35 32 -4
11 -23 22 -35 31 -31 7 3 21 5 30 6 11 0 12 2 5 6 -7 2 -13 18 -13 34 0 16 -4
29 -10 29 -5 0 -10 -17 -10 -37 l-1 -38 -19 37 c-28 52 -38 55 -55 14z" />
    <path d="M4613 493 c-21 -8 -15 -29 13 -41 27 -13 23 -38 -5 -27 -12 5 -13 3
-4 -6 6 -6 19 -9 27 -6 23 9 20 44 -4 52 -11 3 -20 11 -20 17 0 5 7 7 16 4 8
-3 12 -2 9 4 -7 11 -13 11 -32 3z" />
    <path d="M5073 493 c-20 -7 -15 -31 7 -43 25 -13 26 -27 3 -33 -14 -4 -13 -5
3 -6 32 -2 38 26 9 45 -23 15 -26 42 -3 28 7 -4 8 -2 4 4 -4 7 -8 12 -9 11 -1
0 -8 -3 -14 -6z" />
    <path d="M4680 450 c0 -35 3 -40 23 -39 16 1 18 2 5 6 -10 2 -18 11 -18 18 0
7 8 16 18 18 16 4 16 5 0 6 -21 1 -24 17 -5 24 7 3 5 6 -5 6 -14 1 -18 -7 -18
-39z" />
    <path d="M4750 453 c0 -40 13 -58 22 -32 3 9 10 9 26 0 14 -8 22 -8 22 -1 0 5
-3 10 -7 10 -5 0 -15 4 -23 10 -12 7 -11 12 5 31 l20 22 -23 -14 c-20 -12 -24
-12 -32 1 -7 11 -10 3 -10 -27z" />
    <path d="M4837 483 c-11 -10 -8 -61 3 -68 6 -4 10 5 10 21 l0 27 24 -22 c28
-26 39 -16 26 25 -8 27 -8 27 -9 5 l-1 -24 -23 21 c-13 12 -27 19 -30 15z" />
    <path d="M4922 453 c2 -29 8 -39 23 -41 l20 -4 -20 15 c-19 15 -19 16 -2 23
15 5 16 9 5 15 -11 7 -10 11 2 19 12 8 11 10 -8 10 -21 0 -23 -4 -20 -37z" />
    <path d="M4990 450 c0 -35 3 -40 23 -39 16 1 18 2 5 6 -10 2 -18 8 -18 13 0 4
8 11 18 15 16 7 15 8 -3 15 -19 8 -19 8 5 18 l25 11 -27 0 c-26 1 -28 -2 -28
-39z" />
    <path d="M5194 465 c-7 -17 3 -35 19 -35 8 0 7 3 -2 9 -8 5 -11 16 -8 25 4 9
4 16 1 16 -2 0 -7 -7 -10 -15z" />
    <path d="M5240 465 c-10 -12 -9 -16 4 -21 9 -4 20 -4 23 0 4 3 -1 6 -11 6 -9
0 -14 5 -11 10 4 6 11 8 16 5 5 -4 9 -1 9 4 0 16 -16 13 -30 -4z" />
    <path d="M5389 464 c-19 -23 1 -49 37 -49 24 0 30 5 32 26 4 33 -20 44 -36 18
-8 -12 -8 -19 -2 -19 5 0 10 5 10 10 0 6 5 10 11 10 6 0 9 -8 7 -17 -2 -10
-12 -18 -23 -18 -15 0 -20 7 -20 28 1 32 1 32 -16 11z" />
    <path d="M5498 473 c10 -4 10 -10 -3 -29 -15 -23 -14 -24 7 -24 15 0 19 3 11
8 -8 5 -9 13 -3 22 14 22 12 30 -7 29 -12 0 -13 -2 -5 -6z" />
    <path d="M5550 465 c-15 -18 -5 -35 20 -35 10 0 22 5 25 10 7 11 -12 40 -25
40 -4 0 -13 -7 -20 -15z m35 -6 c10 -15 -1 -23 -20 -15 -9 3 -13 10 -10 16 8
13 22 13 30 -1z" />
    <path d="M5655 469 c-4 -5 1 -20 12 -31 16 -20 17 -21 1 -15 -10 4 -18 2 -18
-4 0 -6 8 -9 17 -7 12 2 18 14 19 38 1 19 0 27 -3 17 -2 -9 -9 -15 -14 -11 -5
3 -7 10 -4 15 4 5 4 9 1 9 -3 0 -8 -5 -11 -11z" />
    <path d="M5286 454 c-4 -9 -3 -20 0 -23 4 -3 9 -1 11 6 2 7 11 9 19 6 10 -4
12 0 8 11 -8 21 -30 21 -38 0z" />
    <path d="M5331 463 c0 -5 4 -17 9 -28 8 -18 9 -17 9 8 1 15 -3 27 -9 27 -5 0
-10 -3 -9 -7z" />
    <path d="M5622 445 c0 -16 2 -22 5 -12 2 9 2 23 0 30 -3 6 -5 -1 -5 -18z" />
  </g>
</svg>