<?xml version="1.0" encoding="UTF-8" standalone="no"?>
<!-- Generator: Adobe Illustrator 19.0.0, SVG Export Plug-In . SVG Version: 6.00 Build 0)  -->

<svg
   version="1.1"
   id="Layer_1"
   x="0px"
   y="0px"
   viewBox="0 0 512 512"
   style="enable-background:new 0 0 512 512;"
   xml:space="preserve"
   sodipodi:docname="i-block.svg"
   inkscape:version="1.2.1 (9c6d41e4, 2022-07-14)"
   xmlns:inkscape="http://www.inkscape.org/namespaces/inkscape"
   xmlns:sodipodi="http://sodipodi.sourceforge.net/DTD/sodipodi-0.dtd"
   xmlns="http://www.w3.org/2000/svg"
   xmlns:svg="http://www.w3.org/2000/svg"><defs
   id="defs1108" /><sodipodi:namedview
   id="namedview1106"
   pagecolor="#505050"
   bordercolor="#eeeeee"
   borderopacity="1"
   inkscape:showpageshadow="0"
   inkscape:pageopacity="0"
   inkscape:pagecheckerboard="0"
   inkscape:deskcolor="#505050"
   showgrid="false"
   inkscape:zoom="0.4609375"
   inkscape:cx="261.42373"
   inkscape:cy="240.81356"
   inkscape:window-width="1309"
   inkscape:window-height="456"
   inkscape:window-x="155"
   inkscape:window-y="67"
   inkscape:window-maximized="0"
   inkscape:current-layer="Layer_1" />




<path
   style="fill:#b169bf;stroke-width:1.83337"
   d="M 121.13884,340.61017 H 30.074333 c -8.382559,0 -15.176821,-7.22102 -15.176821,-16.12589 v -96.75909 c 0,-8.90676 6.79604,-16.12589 15.176821,-16.12589 h 91.064507 c 8.38256,0 15.17682,7.22102 15.17682,16.12589 v 96.75909 c 0,8.90487 -6.79426,16.12589 -15.17682,16.12589 z"
   id="path979" />
<path
   style="fill:#844a8f;stroke-width:1.83337"
   d="M 121.13884,308.35651 H 45.251157 V 227.7233 c 0,-8.90676 6.796045,-16.12589 15.176825,-16.12589 H 30.074333 c -8.382559,0 -15.176821,7.22102 -15.176821,16.12589 v 64.50732 32.25366 c 0,8.90676 6.79604,16.12589 15.176821,16.12589 h 30.355428 60.709079 c 8.38256,0 15.17682,-7.22102 15.17682,-16.12589 v -32.25366 c 0,8.90675 -6.79426,16.12589 -15.17682,16.12589 z"
   id="path981" />
<path
   style="fill:#b169bf;stroke-width:1.83337"
   d="m 242.55877,340.61017 h -91.0645 c -8.38256,0 -15.17683,-7.22102 -15.17683,-16.12589 v -96.75909 c 0,-8.90676 6.79605,-16.12589 15.17683,-16.12589 h 91.0645 c 8.38255,0 15.17682,7.22102 15.17682,16.12589 v 96.75909 c 0,8.90487 -6.79604,16.12589 -15.17682,16.12589 z"
   id="path983" />
<path
   style="fill:#844a8f;stroke-width:1.83337"
   d="M 242.55877,308.35651 H 166.67109 V 227.7233 c 0,-8.90676 6.79604,-16.12589 15.17682,-16.12589 h -30.35364 c -8.38256,0 -15.17683,7.22102 -15.17683,16.12589 v 64.50732 32.25366 c 0,8.90676 6.79605,16.12589 15.17683,16.12589 h 30.35542 60.70908 c 8.38255,0 15.17682,-7.22102 15.17682,-16.12589 v -32.25366 c 0,8.90675 -6.79604,16.12589 -15.17682,16.12589 z"
   id="path985" />
<path
   style="fill:#b169bf;stroke-width:1.83337"
   d="m 363.97692,340.61017 h -91.06451 c -8.38255,0 -15.17682,-7.22102 -15.17682,-16.12589 v -96.75909 c 0,-8.90676 6.79604,-16.12589 15.17682,-16.12589 h 91.06451 c 8.38256,0 15.17682,7.22102 15.17682,16.12589 v 96.75909 c 0.002,8.90487 -6.79426,16.12589 -15.17682,16.12589 z"
   id="path987" />
<path
   style="fill:#844a8f;stroke-width:1.83337"
   d="M 363.97692,308.35651 H 288.08924 V 227.7233 c 0,-8.90676 6.79604,-16.12589 15.17682,-16.12589 h -30.35542 c -8.38256,0 -15.17683,7.22102 -15.17683,16.12589 v 64.50732 32.25366 c 0,8.90676 6.79605,16.12589 15.17683,16.12589 h 30.3572 60.70908 c 8.38256,0 15.17682,-7.22102 15.17682,-16.12589 v -32.25366 c 0.002,8.90675 -6.79426,16.12589 -15.17682,16.12589 z"
   id="path989" />
<path
   style="fill:#b169bf;stroke-width:1.83337"
   d="m 485.39685,340.61017 h -91.0645 c -8.38256,0 -15.17683,-7.22102 -15.17683,-16.12589 v -96.75909 c 0,-8.90676 6.79605,-16.12589 15.17683,-16.12589 h 91.0645 c 8.38256,0 15.17682,7.22102 15.17682,16.12589 v 96.75909 c 0,8.90487 -6.79426,16.12589 -15.17682,16.12589 z"
   id="path991" />
<path
   style="fill:#844a8f;stroke-width:1.83337"
   d="M 485.39685,308.35651 H 409.50917 V 227.7233 c 0,-8.90676 6.79604,-16.12589 15.17683,-16.12589 h -30.35365 c -8.38256,0 -15.17683,7.22102 -15.17683,16.12589 v 64.50732 32.25366 c 0,8.90676 6.79605,16.12589 15.17683,16.12589 h 30.35542 60.70908 c 8.38256,0 15.17682,-7.22102 15.17682,-16.12589 v -32.25366 c 0,8.90675 -6.79426,16.12589 -15.17682,16.12589 z"
   id="path993" />








































<g
   id="g1075">
</g>
<g
   id="g1077">
</g>
<g
   id="g1079">
</g>
<g
   id="g1081">
</g>
<g
   id="g1083">
</g>
<g
   id="g1085">
</g>
<g
   id="g1087">
</g>
<g
   id="g1089">
</g>
<g
   id="g1091">
</g>
<g
   id="g1093">
</g>
<g
   id="g1095">
</g>
<g
   id="g1097">
</g>
<g
   id="g1099">
</g>
<g
   id="g1101">
</g>
<g
   id="g1103">
</g>
</svg>
