<?xml version="1.0" encoding="UTF-8" standalone="no"?>
<!-- Generator: Adobe Illustrator 19.0.0, SVG Export Plug-In . SVG Version: 6.00 Build 0)  -->

<svg
   version="1.1"
   id="Layer_1"
   x="0px"
   y="0px"
   viewBox="0 0 512 512"
   style="enable-background:new 0 0 512 512;"
   xml:space="preserve"
   sodipodi:docname="l-block.svg"
   inkscape:version="1.2.1 (9c6d41e4, 2022-07-14)"
   xmlns:inkscape="http://www.inkscape.org/namespaces/inkscape"
   xmlns:sodipodi="http://sodipodi.sourceforge.net/DTD/sodipodi-0.dtd"
   xmlns="http://www.w3.org/2000/svg"
   xmlns:svg="http://www.w3.org/2000/svg"><defs
   id="defs1516" /><sodipodi:namedview
   id="namedview1514"
   pagecolor="#505050"
   bordercolor="#eeeeee"
   borderopacity="1"
   inkscape:showpageshadow="0"
   inkscape:pageopacity="0"
   inkscape:pagecheckerboard="0"
   inkscape:deskcolor="#505050"
   showgrid="false"
   inkscape:zoom="0.77387708"
   inkscape:cx="48.457308"
   inkscape:cy="257.79288"
   inkscape:window-width="1400"
   inkscape:window-height="781"
   inkscape:window-x="0"
   inkscape:window-y="25"
   inkscape:window-maximized="0"
   inkscape:current-layer="Layer_1" />




<path
   style="fill:#4666e2;stroke-width:1.73431;fill-opacity:1"
   d="M 188.24879,376.33444 H 98.789813 c -8.23477,0 -14.909249,-6.57775 -14.909249,-14.68933 v -88.13944 c 0,-8.1133 6.676226,-14.68933 14.909249,-14.68933 h 89.458977 c 8.23477,0 14.90924,6.57775 14.90924,14.68933 v 88.13944 c 0,8.11158 -6.67447,14.68933 -14.90924,14.68933 z"
   id="path1387" />
<path
   style="fill:#19349e;stroke-width:1.73431;fill-opacity:1"
   d="m 188.24879,346.95405 h -74.54973 v -73.4501 c 0,-8.1133 6.67622,-14.68933 14.90924,-14.68933 H 98.789813 c -8.23477,0 -14.909249,6.57775 -14.909249,14.68933 v 58.76077 29.38039 c 0,8.1133 6.676226,14.68933 14.909249,14.68933 h 29.820237 59.63874 c 8.23477,0 14.90924,-6.57775 14.90924,-14.68933 v -29.38039 c 0,8.11331 -6.67447,14.68933 -14.90924,14.68933 z"
   id="path1389" />
<path
   style="fill:#4666e2;stroke-width:1.73431;fill-opacity:1"
   d="m 307.52801,376.33444 h -89.45898 c -8.23477,0 -14.90925,-6.57775 -14.90925,-14.68933 v -88.13944 c 0,-8.1133 6.67623,-14.68933 14.90925,-14.68933 h 89.45898 c 8.23477,0 14.90925,6.57775 14.90925,14.68933 v 88.13944 c 0,8.11158 -6.67623,14.68933 -14.90925,14.68933 z"
   id="path1391" />
<path
   style="fill:#19349e;stroke-width:1.73431;fill-opacity:1"
   d="m 307.52801,346.95405 h -74.54973 v -73.4501 c 0,-8.1133 6.67622,-14.68933 14.90924,-14.68933 h -29.81849 c -8.23477,0 -14.90925,6.57775 -14.90925,14.68933 v 58.76077 29.38039 c 0,8.1133 6.67623,14.68933 14.90925,14.68933 h 29.82024 59.63874 c 8.23477,0 14.90925,-6.57775 14.90925,-14.68933 v -29.38039 c 0,8.11331 -6.67623,14.68933 -14.90925,14.68933 z"
   id="path1393" />
<path
   style="fill:#4666e2;stroke-width:1.73431;fill-opacity:1"
   d="m 426.80549,376.33444 h -89.45898 c -8.23477,0 -14.90925,-6.57775 -14.90925,-14.68933 v -88.13944 c 0,-8.1133 6.67623,-14.68933 14.90925,-14.68933 h 89.45898 c 8.23477,0 14.90925,6.57775 14.90925,14.68933 v 88.13944 c 0.002,8.11158 -6.67448,14.68933 -14.90925,14.68933 z"
   id="path1395" />
<path
   style="fill:#19349e;stroke-width:1.73431;fill-opacity:1"
   d="m 426.80549,346.95405 h -74.54973 v -73.4501 c 0,-8.1133 6.67622,-14.68933 14.90924,-14.68933 h -29.82024 c -8.23477,0 -14.90925,6.57775 -14.90925,14.68933 v 58.76077 29.38039 c 0,8.1133 6.67623,14.68933 14.90925,14.68933 h 29.82199 59.63874 c 8.23477,0 14.90925,-6.57775 14.90925,-14.68933 v -29.38039 c 0.002,8.11331 -6.67448,14.68933 -14.90925,14.68933 z"
   id="path1397" />
<path
   style="fill:#4666e2;fill-opacity:1;stroke-width:1.73431"
   d="m 426.93997,260.79202 h -89.45896 c -8.23478,0 -14.90926,-6.57775 -14.90926,-14.68933 v -88.13944 c 0,-8.1133 6.67623,-14.68933 14.90926,-14.68933 h 89.45896 c 8.23477,0 14.90925,6.57775 14.90925,14.68933 v 88.13944 c 0,8.11158 -6.67448,14.68933 -14.90925,14.68933 z"
   id="path1399" />
<path
   style="fill:#19349e;fill-opacity:1;stroke-width:1.73431"
   d="m 426.93997,231.41163 h -74.54972 v -73.4501 c 0,-8.1133 6.67622,-14.68933 14.90925,-14.68933 h -29.81849 c -8.23478,0 -14.90926,6.57775 -14.90926,14.68933 v 58.76077 29.38039 c 0,8.1133 6.67623,14.68933 14.90926,14.68933 h 29.82023 59.63873 c 8.23477,0 14.90925,-6.57775 14.90925,-14.68933 V 216.7223 c 0,8.11331 -6.67448,14.68933 -14.90925,14.68933 z"
   id="path1401" />








































<g
   id="g1483">
</g>
<g
   id="g1485">
</g>
<g
   id="g1487">
</g>
<g
   id="g1489">
</g>
<g
   id="g1491">
</g>
<g
   id="g1493">
</g>
<g
   id="g1495">
</g>
<g
   id="g1497">
</g>
<g
   id="g1499">
</g>
<g
   id="g1501">
</g>
<g
   id="g1503">
</g>
<g
   id="g1505">
</g>
<g
   id="g1507">
</g>
<g
   id="g1509">
</g>
<g
   id="g1511">
</g>
</svg>
