<?xml version="1.0" encoding="UTF-8" standalone="no"?>
<!-- Generator: Adobe Illustrator 19.0.0, SVG Export Plug-In . SVG Version: 6.00 Build 0)  -->

<svg
   version="1.1"
   id="Layer_1"
   x="0px"
   y="0px"
   viewBox="0 0 512 512"
   style="enable-background:new 0 0 512 512;"
   xml:space="preserve"
   sodipodi:docname="o-block.svg"
   inkscape:version="1.2.1 (9c6d41e4, 2022-07-14)"
   xmlns:inkscape="http://www.inkscape.org/namespaces/inkscape"
   xmlns:sodipodi="http://sodipodi.sourceforge.net/DTD/sodipodi-0.dtd"
   xmlns="http://www.w3.org/2000/svg"
   xmlns:svg="http://www.w3.org/2000/svg"><defs
   id="defs10869" /><sodipodi:namedview
   id="namedview10867"
   pagecolor="#505050"
   bordercolor="#eeeeee"
   borderopacity="1"
   inkscape:showpageshadow="0"
   inkscape:pageopacity="0"
   inkscape:pagecheckerboard="0"
   inkscape:deskcolor="#505050"
   showgrid="false"
   inkscape:zoom="0.57743228"
   inkscape:cx="345.49506"
   inkscape:cy="284.01599"
   inkscape:window-width="1309"
   inkscape:window-height="714"
   inkscape:window-x="0"
   inkscape:window-y="25"
   inkscape:window-maximized="0"
   inkscape:current-layer="Layer_1" />
<rect
   x="213.84538"
   y="228.0498"
   style="fill:#ffc20d;stroke-width:1.73568"
   width="89.108109"
   height="89.108109"
   id="rect10728" />



































<path
   style="fill:#f9d84e;stroke-width:1.73568"
   d="M 243.70255,268.09547 H 154.8357 c -8.18026,0 -14.81056,-6.63204 -14.81056,-14.81057 v -88.86684 c 0,-8.18027 6.63203,-14.81056 14.81056,-14.81056 h 88.86685 c 8.18027,0 14.81056,6.63203 14.81056,14.81056 v 88.86684 c 0,8.17853 -6.63029,14.81057 -14.81056,14.81057 z"
   id="path10804" />
<path
   style="fill:#ffc20d;stroke-width:1.73568"
   d="m 243.70255,238.4726 h -74.05628 v -74.05628 c 0,-8.18026 6.63203,-14.81056 14.81056,-14.81056 H 154.8357 c -8.18026,0 -14.81056,6.63203 -14.81056,14.81056 v 59.24399 29.62286 c 0,8.18026 6.63203,14.81056 14.81056,14.81056 h 29.62287 59.24398 c 8.18027,0 14.81056,-6.63204 14.81056,-14.81056 v -29.62286 c 0,8.18026 -6.63029,14.81229 -14.81056,14.81229 z"
   id="path10806" />
<path
   style="fill:#f9d84e;stroke-width:1.73568"
   d="M 243.70255,386.58344 H 154.8357 c -8.18026,0 -14.81056,-6.63203 -14.81056,-14.81056 v -88.86685 c 0,-8.18026 6.63203,-14.81056 14.81056,-14.81056 h 88.86685 c 8.18027,0 14.81056,6.63204 14.81056,14.81056 v 88.86685 c 0,8.18027 -6.63029,14.81056 -14.81056,14.81056 z"
   id="path10808" />
<path
   style="fill:#ffc20d;stroke-width:1.73568"
   d="m 243.70255,356.96231 h -74.05628 v -74.05628 c 0,-8.18026 6.63203,-14.81056 14.81056,-14.81056 H 154.8357 c -8.18026,0 -14.81056,6.63204 -14.81056,14.81056 v 59.24398 29.62287 c 0,8.18027 6.63203,14.81056 14.81056,14.81056 h 29.62287 59.24398 c 8.18027,0 14.81056,-6.63203 14.81056,-14.81056 v -29.62287 c 0,8.18027 -6.63029,14.8123 -14.81056,14.8123 z"
   id="path10810" />
<path
   style="fill:#f9d84e;stroke-width:1.73568"
   d="m 362.19226,386.58344 h -88.86685 c -8.18027,0 -14.81056,-6.63203 -14.81056,-14.81056 v -88.86685 c 0,-8.18026 6.63204,-14.81056 14.81056,-14.81056 h 88.86685 c 8.18026,0 14.81056,6.63204 14.81056,14.81056 v 88.86685 c 0,8.18027 -6.63203,14.81056 -14.81056,14.81056 z"
   id="path10812" />
<path
   style="fill:#ffc20d;stroke-width:1.73568"
   d="m 362.19226,356.96231 h -74.05629 v -74.05628 c 0,-8.18026 6.63204,-14.81056 14.81057,-14.81056 h -29.62113 c -8.18027,0 -14.81056,6.63204 -14.81056,14.81056 v 59.24398 29.62287 c 0,8.18027 6.63204,14.81056 14.81056,14.81056 h 29.62286 59.24399 c 8.18026,0 14.81056,-6.63203 14.81056,-14.81056 v -29.62287 c 0,8.18027 -6.63203,14.8123 -14.81056,14.8123 z"
   id="path10814" />
<path
   style="fill:#f9d84e;stroke-width:1.73568"
   d="m 362.19226,268.09547 h -88.86685 c -8.18027,0 -14.81056,-6.63204 -14.81056,-14.81057 v -88.86684 c 0,-8.18027 6.63204,-14.81056 14.81056,-14.81056 h 88.86685 c 8.18026,0 14.81056,6.63203 14.81056,14.81056 v 88.86684 c 0,8.17853 -6.63203,14.81057 -14.81056,14.81057 z"
   id="path10816" />
<path
   style="fill:#ffc20d;stroke-width:1.73568"
   d="m 362.19226,238.4726 h -74.05629 v -74.05628 c 0,-8.18026 6.63204,-14.81056 14.81057,-14.81056 h -29.62113 c -8.18027,0 -14.81056,6.63203 -14.81056,14.81056 v 59.24399 29.62286 c 0,8.18026 6.63204,14.81056 14.81056,14.81056 h 29.62286 59.24399 c 8.18026,0 14.81056,-6.63204 14.81056,-14.81056 v -29.62286 c 0,8.18026 -6.63203,14.81229 -14.81056,14.81229 z"
   id="path10818" />








<g
   id="g10836">
</g>
<g
   id="g10838">
</g>
<g
   id="g10840">
</g>
<g
   id="g10842">
</g>
<g
   id="g10844">
</g>
<g
   id="g10846">
</g>
<g
   id="g10848">
</g>
<g
   id="g10850">
</g>
<g
   id="g10852">
</g>
<g
   id="g10854">
</g>
<g
   id="g10856">
</g>
<g
   id="g10858">
</g>
<g
   id="g10860">
</g>
<g
   id="g10862">
</g>
<g
   id="g10864">
</g>
</svg>
