<?xml version="1.0" encoding="UTF-8" standalone="no"?>
<!-- Generator: Adobe Illustrator 19.0.0, SVG Export Plug-In . SVG Version: 6.00 Build 0)  -->

<svg
   version="1.1"
   id="Layer_1"
   x="0px"
   y="0px"
   viewBox="0 0 512 512"
   style="enable-background:new 0 0 512 512;"
   xml:space="preserve"
   sodipodi:docname="s-block.svg"
   inkscape:version="1.2.1 (9c6d41e4, 2022-07-14)"
   xmlns:inkscape="http://www.inkscape.org/namespaces/inkscape"
   xmlns:sodipodi="http://sodipodi.sourceforge.net/DTD/sodipodi-0.dtd"
   xmlns="http://www.w3.org/2000/svg"
   xmlns:svg="http://www.w3.org/2000/svg"><defs
   id="defs11614" /><sodipodi:namedview
   id="namedview11612"
   pagecolor="#505050"
   bordercolor="#eeeeee"
   borderopacity="1"
   inkscape:showpageshadow="0"
   inkscape:pageopacity="0"
   inkscape:pagecheckerboard="0"
   inkscape:deskcolor="#505050"
   showgrid="false"
   inkscape:zoom="0.77366228"
   inkscape:cx="277.25276"
   inkscape:cy="235.89104"
   inkscape:window-width="1309"
   inkscape:window-height="835"
   inkscape:window-x="0"
   inkscape:window-y="25"
   inkscape:window-maximized="0"
   inkscape:current-layer="Layer_1" />



































<g
   id="g11634"
   transform="matrix(0,1.6869078,-1.6966851,0,732.81513,-161.76151)"><path
     style="fill:#7dbb34"
     d="m 322.36705,321.42029 v 51.2 c 0,4.713 -3.821,8.533 -8.533,8.533 h -51.2 c -4.713,0 -8.533,-3.821 -8.533,-8.533 v -51.2 c 0,-4.713 3.821,-8.533 8.533,-8.533 h 51.2 c 4.712,0 8.533,3.82 8.533,8.533 z"
     id="path11533" /><path
     style="fill:#60a333"
     d="m 305.30055,321.41979 v 42.667 h -42.667 c -4.713,0 -8.533,-3.821 -8.533,-8.533 v 17.066 c 0,4.713 3.821,8.533 8.533,8.533 h 34.134 17.067 c 4.713,0 8.533,-3.821 8.533,-8.533 v -17.067 -34.133 c 0,-4.713 -3.821,-8.533 -8.533,-8.533 h -17.067 c 4.713,0 8.533,3.82 8.533,8.533 z"
     id="path11535" /><path
     style="fill:#7dbb34"
     d="m 322.36705,253.15329 v 51.2 c 0,4.713 -3.821,8.533 -8.533,8.533 h -51.2 c -4.713,0 -8.533,-3.821 -8.533,-8.533 v -51.2 c 0,-4.713 3.821,-8.533 8.533,-8.533 h 51.2 c 4.713,0 8.533,3.82 8.533,8.533 z"
     id="path11537" /><path
     style="fill:#60a333"
     d="m 305.30105,253.15329 v 42.667 h -42.667 c -4.713,0 -8.533,-3.821 -8.533,-8.533 v 17.066 c 0,4.713 3.821,8.533 8.533,8.533 h 34.133 17.067 c 4.713,0 8.533,-3.821 8.533,-8.533 v -17.067 -34.133 c 0,-4.713 -3.821,-8.533 -8.533,-8.533 h -17.067 c 4.713,0 8.534,3.82 8.534,8.533 z"
     id="path11539" /><path
     style="fill:#7dbb34"
     d="m 254.10005,253.15329 v 51.2 c 0,4.713 -3.821,8.533 -8.533,8.533 h -51.2 c -4.713,0 -8.533,-3.821 -8.533,-8.533 v -51.2 c 0,-4.713 3.821,-8.533 8.533,-8.533 h 51.2 c 4.713,-0.001 8.533,3.82 8.533,8.533 z"
     id="path11541" /><path
     style="fill:#60a333"
     d="m 237.03355,253.15279 v 42.667 h -42.667 c -4.713,0 -8.533,-3.821 -8.533,-8.533 v 17.067 c 0,4.713 3.821,8.533 8.533,8.533 h 34.133 17.067 c 4.713,0 8.533,-3.821 8.533,-8.533 v -17.068 -34.133 c 0,-4.713 -3.821,-8.533 -8.533,-8.533 h -17.067 c 4.713,-0.001 8.534,3.82 8.534,8.533 z"
     id="path11543" /><path
     style="fill:#7dbb34"
     d="m 254.10005,184.88729 v 51.2 c 0,4.713 -3.821,8.533 -8.533,8.533 h -51.2 c -4.713,0 -8.533,-3.821 -8.533,-8.533 v -51.2 c 0,-4.713 3.821,-8.533 8.533,-8.533 h 51.2 c 4.712,-0.001 8.533,3.82 8.533,8.533 z"
     id="path11545" /><path
     style="fill:#60a333"
     d="m 237.03355,184.88579 v 42.667 h -42.667 c -4.713,0 -8.533,-3.821 -8.533,-8.533 v 17.067 c 0,4.713 3.821,8.533 8.533,8.533 h 34.133 17.067 c 4.713,0 8.533,-3.821 8.533,-8.533 v -17.068 -34.133 c 0,-4.713 -3.821,-8.533 -8.533,-8.533 h -17.067 c 4.713,-0.001 8.534,3.82 8.534,8.533 z"
     id="path11547" /></g>
















<g
   id="g11581">
</g>
<g
   id="g11583">
</g>
<g
   id="g11585">
</g>
<g
   id="g11587">
</g>
<g
   id="g11589">
</g>
<g
   id="g11591">
</g>
<g
   id="g11593">
</g>
<g
   id="g11595">
</g>
<g
   id="g11597">
</g>
<g
   id="g11599">
</g>
<g
   id="g11601">
</g>
<g
   id="g11603">
</g>
<g
   id="g11605">
</g>
<g
   id="g11607">
</g>
<g
   id="g11609">
</g>
</svg>
