<?xml version="1.0" encoding="UTF-8" standalone="no"?>
<!-- Generator: Adobe Illustrator 19.0.0, SVG Export Plug-In . SVG Version: 6.00 Build 0)  -->

<svg
   version="1.1"
   id="Layer_1"
   x="0px"
   y="0px"
   viewBox="0 0 512 512"
   style="enable-background:new 0 0 512 512;"
   xml:space="preserve"
   sodipodi:docname="t-block.svg"
   inkscape:version="1.2.1 (9c6d41e4, 2022-07-14)"
   xmlns:inkscape="http://www.inkscape.org/namespaces/inkscape"
   xmlns:sodipodi="http://sodipodi.sourceforge.net/DTD/sodipodi-0.dtd"
   xmlns="http://www.w3.org/2000/svg"
   xmlns:svg="http://www.w3.org/2000/svg"><defs
   id="defs12451" /><sodipodi:namedview
   id="namedview12449"
   pagecolor="#505050"
   bordercolor="#eeeeee"
   borderopacity="1"
   inkscape:showpageshadow="0"
   inkscape:pageopacity="0"
   inkscape:pagecheckerboard="0"
   inkscape:deskcolor="#505050"
   showgrid="false"
   inkscape:zoom="0.62724554"
   inkscape:cx="263.85202"
   inkscape:cy="260.66347"
   inkscape:window-width="1309"
   inkscape:window-height="699"
   inkscape:window-x="0"
   inkscape:window-y="25"
   inkscape:window-maximized="0"
   inkscape:current-layer="Layer_1" />



















































<g
   id="g12461"
   transform="matrix(0,-1.6677675,1.7082391,0,-134.48215,643.34929)"><path
     style="fill:#45cae0"
     d="m 162.134,256 v -51.2 c 0,-4.713 3.821,-8.533 8.533,-8.533 h 51.2 c 4.713,0 8.533,3.821 8.533,8.533 V 256 c 0,4.713 -3.821,8.533 -8.533,8.533 h -51.2 c -4.713,0 -8.533,-3.821 -8.533,-8.533 z"
     id="path12402" /><path
     style="fill:#0aadbf"
     d="m 179.199,256.001 v -42.667 h 42.667 c 4.713,0 8.533,3.821 8.533,8.533 V 204.8 c 0,-4.713 -3.821,-8.533 -8.533,-8.533 h -34.133 -17.067 c -4.713,0 -8.533,3.821 -8.533,8.533 V 221.867 256 c 0,4.713 3.821,8.533 8.533,8.533 h 17.067 c -4.713,10e-4 -8.534,-3.82 -8.534,-8.532 z"
     id="path12404" /><path
     style="fill:#45cae0"
     d="m 230.4,256 v -51.2 c 0,-4.713 3.821,-8.533 8.533,-8.533 h 51.2 c 4.713,0 8.533,3.821 8.533,8.533 V 256 c 0,4.713 -3.821,8.533 -8.533,8.533 h -51.2 C 234.22,264.534 230.4,260.713 230.4,256 Z"
     id="path12406" /><path
     style="fill:#0aadbf"
     d="m 247.4655,256.0005 v -42.667 h 42.667 c 4.713,0 8.533,3.821 8.533,8.533 v -17.067 c 0,-4.713 -3.821,-8.533 -8.533,-8.533 h -34.133 -17.067 c -4.713,0 -8.533,3.821 -8.533,8.533 v 17.068 34.133 c 0,4.713 3.821,8.533 8.533,8.533 h 17.067 c -4.713,10e-4 -8.534,-3.82 -8.534,-8.533 z"
     id="path12408" /><path
     style="fill:#45cae0"
     d="m 162.134,187.734 v -51.2 c 0,-4.713 3.821,-8.533 8.533,-8.533 h 51.2 c 4.713,0 8.533,3.821 8.533,8.533 v 51.2 c 0,4.713 -3.821,8.533 -8.533,8.533 h -51.2 c -4.712,0 -8.533,-3.821 -8.533,-8.533 z"
     id="path12410" /><path
     style="fill:#0aadbf"
     d="m 179.199,187.734 v -42.667 h 42.667 c 4.713,0 8.533,3.821 8.533,8.533 v -17.067 c 0,-4.713 -3.821,-8.533 -8.533,-8.533 h -34.133 -17.067 c -4.713,0 -8.533,3.821 -8.533,8.533 v 17.067 34.133 c 0,4.713 3.821,8.533 8.533,8.533 h 17.067 c -4.713,0.001 -8.534,-3.82 -8.534,-8.532 z"
     id="path12412" /><path
     style="fill:#45cae0"
     d="m 162.134,324.267 v -51.2 c 0,-4.713 3.821,-8.533 8.533,-8.533 h 51.2 c 4.713,0 8.533,3.821 8.533,8.533 v 51.2 c 0,4.713 -3.821,8.533 -8.533,8.533 h -51.2 c -4.712,0 -8.533,-3.821 -8.533,-8.533 z"
     id="path12414" /><path
     style="fill:#0aadbf"
     d="m 179.1995,324.2675 v -42.667 h 42.667 c 4.713,0 8.533,3.821 8.533,8.533 v -17.067 c 0,-4.713 -3.821,-8.533 -8.533,-8.533 h -34.134 -17.067 c -4.713,0 -8.533,3.821 -8.533,8.533 v 17.067 34.133 c 0,4.713 3.821,8.533 8.533,8.533 h 17.067 c -4.713,10e-4 -8.533,-3.82 -8.533,-8.532 z"
     id="path12416" /></g>
<g
   id="g12418">
</g>
<g
   id="g12420">
</g>
<g
   id="g12422">
</g>
<g
   id="g12424">
</g>
<g
   id="g12426">
</g>
<g
   id="g12428">
</g>
<g
   id="g12430">
</g>
<g
   id="g12432">
</g>
<g
   id="g12434">
</g>
<g
   id="g12436">
</g>
<g
   id="g12438">
</g>
<g
   id="g12440">
</g>
<g
   id="g12442">
</g>
<g
   id="g12444">
</g>
<g
   id="g12446">
</g>
</svg>
