<?xml version="1.0" encoding="UTF-8" standalone="no"?>
<!-- Generator: Adobe Illustrator 19.0.0, SVG Export Plug-In . SVG Version: 6.00 Build 0)  -->

<svg
   version="1.1"
   id="Layer_1"
   x="0px"
   y="0px"
   viewBox="0 0 512 512"
   style="enable-background:new 0 0 512 512;"
   xml:space="preserve"
   sodipodi:docname="z-block.svg"
   inkscape:version="1.2.1 (9c6d41e4, 2022-07-14)"
   xmlns:inkscape="http://www.inkscape.org/namespaces/inkscape"
   xmlns:sodipodi="http://sodipodi.sourceforge.net/DTD/sodipodi-0.dtd"
   xmlns="http://www.w3.org/2000/svg"
   xmlns:svg="http://www.w3.org/2000/svg"><defs
   id="defs12016" /><sodipodi:namedview
   id="namedview12014"
   pagecolor="#505050"
   bordercolor="#eeeeee"
   borderopacity="1"
   inkscape:showpageshadow="0"
   inkscape:pageopacity="0"
   inkscape:pagecheckerboard="0"
   inkscape:deskcolor="#505050"
   showgrid="false"
   inkscape:zoom="0.66547411"
   inkscape:cx="217.13843"
   inkscape:cy="214.88439"
   inkscape:window-width="1309"
   inkscape:window-height="772"
   inkscape:window-x="0"
   inkscape:window-y="25"
   inkscape:window-maximized="0"
   inkscape:current-layer="Layer_1" />




















<path
   style="fill:#fd5e95;stroke-width:1.74455"
   d="M 298.72246,396.49804 H 210.7066 c -8.10194,0 -14.66874,-6.76478 -14.66874,-15.10702 v -90.64566 c 0,-8.344 6.56852,-15.10701 14.66874,-15.10701 h 88.01586 c 8.10193,0 14.66874,6.76478 14.66874,15.10701 v 90.64566 c 0,8.34401 -6.56681,15.10702 -14.66874,15.10702 z"
   id="path11919" />
<path
   style="fill:#d14d7b;stroke-width:1.74455"
   d="m 298.72246,366.284 h -73.34712 v -75.53864 c 0,-8.344 6.56853,-15.10701 14.66874,-15.10701 H 210.7066 c -8.10194,0 -14.66874,6.76478 -14.66874,15.10701 v 60.42985 30.21581 c 0,8.34401 6.56852,15.10702 14.66874,15.10702 h 29.3392 58.67666 c 8.10193,0 14.66874,-6.76478 14.66874,-15.10702 v -30.21581 c 0,8.34401 -6.56681,15.10879 -14.66874,15.10879 z"
   id="path11921" />
<path
   style="fill:#fd5e95;stroke-width:1.74455"
   d="M 298.72246,275.63835 H 210.7066 c -8.10194,0 -14.66874,-6.76479 -14.66874,-15.10702 v -90.64566 c 0,-8.34401 6.56852,-15.10702 14.66874,-15.10702 h 88.01586 c 8.10193,0 14.66874,6.76478 14.66874,15.10702 v 90.64566 c 0,8.34223 -6.56681,15.10702 -14.66874,15.10702 z"
   id="path11923" />
<path
   style="fill:#d14d7b;stroke-width:1.74455"
   d="M 298.72246,245.42254 H 225.37534 V 169.8839 c 0,-8.34401 6.56853,-15.10702 14.66874,-15.10702 H 210.7066 c -8.10194,0 -14.66874,6.76478 -14.66874,15.10702 v 60.42985 30.21581 c 0,8.344 6.56852,15.10701 14.66874,15.10701 h 29.3392 58.67666 c 8.10193,0 14.66874,-6.76478 14.66874,-15.10701 v -30.21404 c 0,8.34223 -6.56681,15.10702 -14.66874,15.10702 z"
   id="path11925" />
<path
   style="fill:#fd5e95;stroke-width:1.74455"
   d="M 181.3674,275.63835 H 93.351544 c -8.101928,0 -14.668736,-6.76479 -14.668736,-15.10702 v -90.64566 c 0,-8.34401 6.568527,-15.10879 14.668736,-15.10879 H 181.3674 c 8.10193,0 14.66874,6.76478 14.66874,15.10702 v 90.64566 c 0.002,8.344 -6.56681,15.10879 -14.66874,15.10879 z"
   id="path11927" />
<path
   style="fill:#d14d7b;stroke-width:1.74455"
   d="M 181.3674,245.42254 H 108.02028 V 169.8839 c 0,-8.34401 6.56853,-15.10702 14.66874,-15.10702 H 93.349825 c -8.09849,0 -14.667017,6.76478 -14.667017,15.10702 v 60.42985 30.21581 c 0,8.344 6.568527,15.10701 14.668736,15.10701 h 29.339196 58.67666 c 8.10193,0 14.66874,-6.76478 14.66874,-15.10701 v -30.21404 c 0.002,8.34223 -6.56681,15.10702 -14.66874,15.10702 z"
   id="path11929" />
<path
   style="fill:#fd5e95;stroke-width:1.74455"
   d="m 416.07751,396.49804 h -88.01586 c -8.10193,0 -14.66873,-6.76478 -14.66873,-15.10702 v -90.64566 c 0,-8.344 6.56852,-15.10701 14.66873,-15.10701 h 88.01586 c 8.10193,0 14.66874,6.76478 14.66874,15.10701 v 90.64566 c 0,8.34401 -6.56853,15.10702 -14.66874,15.10702 z"
   id="path11931" />
<path
   style="fill:#d14d7b;stroke-width:1.74455"
   d="m 416.07751,366.284 h -73.34712 v -75.53864 c 0,-8.344 6.56853,-15.10701 14.66874,-15.10701 h -29.3392 c -8.10193,0 -14.66873,6.76478 -14.66873,15.10701 v 60.42985 30.21581 c 0,8.34401 6.56852,15.10702 14.66873,15.10702 h 29.3392 58.67666 c 8.10193,0 14.66874,-6.76478 14.66874,-15.10702 v -30.21581 c 0.002,8.34401 -6.56681,15.10879 -14.66702,15.10879 z"
   id="path11933" />
























<g
   id="g11983">
</g>
<g
   id="g11985">
</g>
<g
   id="g11987">
</g>
<g
   id="g11989">
</g>
<g
   id="g11991">
</g>
<g
   id="g11993">
</g>
<g
   id="g11995">
</g>
<g
   id="g11997">
</g>
<g
   id="g11999">
</g>
<g
   id="g12001">
</g>
<g
   id="g12003">
</g>
<g
   id="g12005">
</g>
<g
   id="g12007">
</g>
<g
   id="g12009">
</g>
<g
   id="g12011">
</g>
</svg>
