<?xml version="1.0" encoding="utf-8"?>
<svg viewBox="0 0 300 300" xmlns="http://www.w3.org/2000/svg">
  <g transform="matrix(1.03162, 0, 0, 1.03162, -11.126573, -6.810362)" style="">
    <g transform="matrix(0.299925, 0, 0, 0.299925, -47.65213, 42.852287)" style="">
      <path d="M572.429,706.224c5.402-16.024-5.149-33.781-14.973-45.559c-9.634-11.548-25.689-23.254-41.548-21.284 c-18.856,2.341-22.906,22.953-23.31,39.128c-61.845-4.999-124.59-63.363-156.734-111.429 c-40.165-60.049-56.347-139.396-50.645-210.701c8.875-111.025,59.131-244.315,179.205-268.835 c-0.174,15.724,9.024,34.208,21.055,42.371c11.493,7.799,27.02,4.99,37.792-2.531c10.907-7.608,18.849-20.62,17.599-34.232 c-1.076-11.729-8.266-20.177-17.44-26.235c8.598-4.113,15.582-10.718,16.681-21.071c1.408-13.256-7.901-25.84-17.796-33.575 c-11.841-9.254-26.347-14.396-41.375-11.43c-16.475,3.251-27.05,19.6-29.209,35.396c-71.344-3.188-130.293,48.089-166.645,105.116 c-43.028,67.492-61.567,150.629-66.194,229.645c-4.896,83.619,13.09,169.405,61.512,238.803 c46.476,66.614,129.644,115.21,209.712,127.391c-12.418,38.179,32.547,71.493,66.432,45.717 c22.297-16.958,12.181-41.913-6.375-55.232C560.193,723.948,568.624,717.511,572.429,706.224z"/>
    </g>
    <g transform="matrix(0.044635, 0, 0, -0.044635, 94.89901, 273.943359)" fill="#000000" stroke="none" style="">
      <path d="M3861 5095 c-181 -63 -347 -222 -366 -352 -5 -28 0 -49 17 -82 29 -56 73 -80 178 -95 l78 -11 -53 -115 c-56 -123 -135 -272 -218 -410 -87 -146 -302 -461 -376 -550 -189 -228 -360 -310 -523 -250 -249 91 -574 438 -1007 1079 -83 123 -151 228 -151 233 0 4 10 8 23 8 31 0 96 40 121 73 32 44 29 126 -8 202 -36 73 -151 192 -217 223 -54 26 -136 29 -179 7 -43 -22 -77 -79 -95 -159 l-6 -29 -27 26 c-74 69 -156 86 -231 48 -108 -55 -190 -227 -192 -403 -2 -124 48 -203 137 -215 58 -7 139 27 207 88 32 28 59 50 61 48 2 -2 20 -38 41 -79 59 -119 181 -309 300 -468 147 -196 652 -818 739 -909 242 -255 482 -316 741 -187 279 138 536 463 950 1204 82 146 159 282 172 303 l24 39 25 -34 c14 -18 35 -41 47 -51 41 -34 122 -67 162 -67 152 1 282 205 255 401 -10 68 -21 92 -69 142 -62 66 -160 79 -298 41 -21 -6 -22 -6 -7 43 21 67 19 167 -3 205 -46 78 -129 96 -252 53z"/>
      <path d="M2754 2668 c-39 -30 -59 -55 -86 -105 l-22 -42 -36 39 c-45 48 -100 66 -156 51 -85 -23 -190 -147 -219 -258 -41 -155 55 -261 227 -251 56 3 59 2 54 -18 -32 -124 -34 -402 -6 -749 29 -366 35 -542 21 -680 -19 -189 -9 -172 -99 -168 -66 4 -83 1 -122 -19 -56 -29 -82 -73 -82 -137 0 -98 89 -230 197 -292 90 -52 199 -36 253 38 l19 26 45 -46 c82 -81 175 -74 281 23 99 91 149 226 111 305 -31 65 -120 99 -209 78 l-42 -9 -6 365 c-4 201 -12 443 -17 536 -17 294 -40 628 -45 681 l-6 52 48 -25 c92 -47 176 -13 202 84 32 113 -17 341 -96 456 -55 79 -152 109 -209 65z"/>
    </g>
  </g>
</svg>