<!--?xml version="1.0" standalone="no"?-->

<svg version="1.0" xmlns="http://www.w3.org/2000/svg" width="229.000000pt" height="300.000000pt" viewBox="0 0 229.000000 300.000000" preserveAspectRatio="xMidYMid meet">
<g transform="translate(0.000000,300.000000) scale(0.100000,-0.100000)" fill="#343434" stroke="none">
<path d="M917 2978 c-18 -24 -18 -25 4 -188 6 -43 9 -205 7 -385 l-3 -310 -40
-3 c-22 -2 -44 -8 -49 -13 -6 -5 -18 -9 -27 -9 -10 0 -38 -16 -63 -35 -47 -36
-79 -39 -114 -12 -18 15 -217 -88 -248 -128 -13 -18 -24 -39 -24 -48 0 -17
-44 -41 -95 -51 -16 -4 -58 -13 -91 -20 -92 -19 -119 -46 -165 -164 -12 -30
-12 -447 0 -470 5 -9 17 -73 26 -142 67 -483 65 -421 11 -581 -55 -163 -59
-216 -18 -241 15 -9 54 -35 87 -58 33 -22 89 -54 125 -71 36 -17 73 -35 82
-40 37 -19 165 -10 234 16 70 26 268 128 295 151 8 8 23 50 33 94 10 44 23 83
27 86 5 3 9 12 9 21 0 8 14 44 32 80 l31 64 116 56 c107 53 172 90 211 120 79
61 142 118 161 145 55 79 135 147 274 233 44 27 82 52 85 56 3 4 21 13 41 22
19 8 78 56 130 106 64 63 113 102 155 122 34 16 65 29 70 29 5 0 21 11 37 24
34 29 36 75 5 117 -54 73 -158 93 -307 60 -52 -12 -99 -25 -105 -31 -5 -5 -17
-10 -25 -10 -8 0 -30 -12 -50 -27 -53 -41 -178 -108 -246 -133 -11 -4 -50 -22
-87 -39 -38 -18 -72 -30 -77 -26 -19 11 -25 56 -40 320 -7 105 -15 197 -18
205 -9 20 -21 137 -33 305 -5 77 -15 185 -21 240 -5 55 -14 145 -19 200 -17
188 -58 316 -120 368 -16 13 -39 17 -103 17 -73 0 -84 -3 -100 -22z m169 -35
c57 -46 72 -83 89 -208 14 -104 9 -129 -21 -104 -12 9 -44 14 -98 14 l-81 0
-12 70 c-20 109 -18 223 3 246 27 30 70 24 120 -18z m62 -354 c65 -13 72 -31
72 -176 0 -106 -1 -115 -17 -107 -10 4 -64 10 -120 12 -85 3 -103 7 -107 20
-9 34 -17 189 -11 214 11 42 87 58 183 37z m58 -331 c14 -9 26 -89 28 -183 l1
-70 -84 0 c-76 0 -85 2 -100 24 -9 13 -26 33 -39 46 -31 31 -44 80 -36 142 l6
52 47 3 c57 4 162 -5 177 -14z m-208 -234 c17 -20 36 -56 42 -80 12 -43 11
-68 -10 -169 -6 -27 -16 -75 -22 -105 -12 -58 -15 -148 -9 -290 4 -89 -7 -166
-24 -163 -9 1 -17 22 -30 85 -6 30 -48 58 -88 58 -24 0 -77 -47 -77 -68 0 -7
-4 -12 -8 -12 -5 0 -12 113 -15 252 -4 138 -12 288 -18 333 -11 80 -11 83 12
114 34 46 93 69 206 80 6 0 25 -15 41 -35z m-329 -53 c16 -10 28 -150 32 -361
l2 -125 -34 -17 c-19 -9 -49 -17 -67 -18 -26 0 -33 -4 -30 -17 4 -21 64 -31
81 -14 6 6 21 11 34 11 21 0 23 -4 23 -50 0 -40 -4 -52 -17 -56 -10 -3 -26
-10 -35 -15 -10 -5 -24 -9 -32 -9 -13 0 -46 -56 -46 -79 0 -29 -19 -6 -29 37
-7 26 -16 61 -21 77 -4 17 -18 75 -30 130 -11 55 -25 114 -31 131 -5 17 -9 39
-9 50 0 11 -5 25 -11 31 -6 6 -12 42 -13 80 -1 54 4 79 24 120 14 29 34 56 45
61 71 34 93 42 120 42 17 0 36 -4 44 -9z m534 -38 c21 -3 40 -10 43 -17 2 -6
8 -69 14 -141 5 -71 15 -181 20 -244 6 -63 8 -116 6 -119 -3 -2 -21 5 -40 17
-19 12 -37 18 -40 13 -3 -5 11 -30 30 -57 38 -54 43 -70 17 -56 -22 11 -77 27
-121 36 -32 7 -33 6 -22 -15 7 -12 21 -25 31 -27 42 -11 5 -30 -71 -36 l-24
-2 3 155 c2 85 5 158 7 162 3 4 22 15 42 25 108 49 170 119 70 78 -28 -11 -23
37 8 86 14 22 24 50 22 62 -3 20 -7 17 -33 -19 -78 -105 -115 -133 -82 -62 29
63 39 109 32 145 -6 35 -6 35 22 28 15 -3 45 -9 66 -12z m-825 -166 c18 -22
58 -154 72 -242 5 -33 15 -89 21 -124 11 -62 10 -64 -14 -85 -31 -26 -49 -60
-41 -79 11 -29 -13 -26 -44 6 -21 22 -42 66 -67 141 -57 166 -118 259 -127
194 -2 -15 -9 -22 -20 -22 -14 1 -15 -2 -8 -17 6 -10 15 -21 20 -24 6 -4 8
-10 5 -14 -6 -10 -85 10 -114 29 -21 14 -21 17 -10 70 21 94 66 138 111 108
20 -13 24 -12 48 16 41 45 145 72 168 43z m1813 -210 c53 -36 49 -50 -28 -96
-37 -22 -97 -69 -133 -105 -87 -88 -105 -100 -129 -84 -23 14 -51 -3 -51 -33
0 -11 -26 -37 -65 -66 -35 -26 -76 -57 -91 -68 -15 -11 -36 -27 -49 -35 -12
-8 -53 -36 -91 -63 l-69 -48 -15 23 c-25 37 -45 107 -77 272 -7 33 15 56 54
56 13 0 23 4 23 9 0 23 127 78 209 92 48 8 56 6 86 -16 57 -44 63 -25 10 33
l-35 39 23 19 c60 54 186 91 308 93 74 1 91 -2 120 -22z m-2035 -113 c65 -1
104 -20 104 -50 0 -17 27 -98 51 -150 10 -23 33 -54 51 -69 29 -24 38 -27 85
-22 48 5 57 2 101 -28 27 -18 60 -35 73 -37 28 -4 29 -11 5 -143 -22 -127 -21
-223 4 -255 24 -31 25 -40 3 -40 -9 0 -32 -14 -50 -32 -40 -38 -50 -33 -27 16
10 19 15 38 12 42 -4 3 -24 -2 -45 -11 -120 -53 -184 -68 -267 -63 -120 8
-125 15 -147 198 -5 47 -14 99 -19 116 -6 17 -10 51 -10 75 0 25 -4 49 -9 55
-9 10 -31 280 -31 383 l0 64 26 -24 c21 -20 36 -24 90 -25z m747 -187 c43 -29
33 -57 -27 -74 -26 -8 -55 -12 -62 -9 -17 7 -19 87 -2 104 14 14 54 6 91 -21z
m364 2 c31 -11 40 -34 53 -129 8 -64 16 -89 31 -102 25 -22 39 -15 39 18 0 42
17 26 25 -23 4 -27 14 -56 23 -66 15 -16 14 -22 -11 -71 -39 -78 -110 -139
-222 -191 -52 -25 -102 -45 -109 -45 -8 0 -18 -4 -21 -10 -3 -6 -16 -10 -28
-10 -12 0 -40 -7 -62 -15 -56 -20 -132 -18 -180 4 -40 19 -155 123 -155 141 0
5 5 12 10 15 6 3 10 28 10 55 0 60 24 157 57 232 l26 58 66 -6 c37 -4 83 -2
106 5 56 15 105 58 114 101 l7 35 73 7 c40 3 75 9 78 12 6 6 24 2 70 -15z
m-777 -29 c0 -5 -6 -10 -14 -10 -8 0 -18 5 -21 10 -3 6 3 10 14 10 12 0 21 -4
21 -10z m227 -5 c10 -26 -26 -55 -69 -55 -39 0 -43 5 -32 48 5 19 13 22 50 22
31 0 46 -5 51 -15z m8 -630 c22 -19 35 -35 30 -35 -18 0 -85 51 -85 64 0 13
17 4 55 -29z m-235 -14 c0 -12 -60 -32 -73 -24 -5 3 3 12 19 19 35 15 54 17
54 5z m103 -33 c-8 -24 -21 -68 -29 -98 -8 -30 -18 -64 -23 -75 -23 -52 -45
-146 -50 -219 l-6 -81 -70 1 c-90 2 -148 22 -263 91 -103 60 -99 53 -74 143 6
19 17 61 26 93 22 82 34 100 54 90 26 -12 148 -7 227 9 39 8 71 14 73 12 6 -4
-59 -199 -71 -211 -4 -3 -7 -20 -7 -38 0 -17 -5 -36 -10 -41 -6 -6 -12 -37
-13 -70 -2 -52 0 -59 17 -59 21 0 23 3 61 90 15 33 31 68 36 77 11 22 12 58 0
58 -4 0 -21 -28 -37 -62 -19 -43 -29 -57 -32 -44 -4 19 33 134 49 151 5 5 9
16 9 25 0 9 9 35 20 58 11 22 20 48 20 56 0 19 20 31 43 28 9 -2 20 5 24 15 8
23 23 43 33 43 4 0 1 -19 -7 -42z m122 -22 c69 -31 68 -20 11 -221 -14 -49
-26 -102 -26 -117 0 -29 -38 -67 -96 -94 -41 -19 -84 -7 -84 23 0 64 47 248
84 328 8 17 21 47 30 68 8 20 17 37 20 37 3 0 30 -11 61 -24z m42 -288 c-3 -8
-6 -5 -6 6 -1 11 2 17 5 13 3 -3 4 -12 1 -19z" id="node1" class="node"></path>
<path d="M817 1475 c-18 -13 -18 -14 2 -24 11 -6 34 -11 51 -11 31 0 80 25 80
41 0 15 -113 10 -133 -6z" id="node2" class="node"></path>
</g>
<g transform="translate(0.000000,300.000000) scale(0.100000,-0.100000)" fill="#FFFFFF" stroke="none">


<path d="M966 2961 c-21 -23 -23 -137 -3 -246 l12 -70 81 0 c54 0 86 -5 98
-14 30 -25 35 0 21 104 -17 125 -32 162 -89 208 -50 42 -93 48 -120 18z" id="node5" class="node"></path>
<path d="M1003 2588 c-40 -13 -46 -37 -38 -148 10 -127 0 -118 118 -122 56 -2
110 -8 120 -12 16 -8 17 1 17 107 0 145 -7 163 -72 176 -59 13 -102 13 -145
-1z" id="node6" class="node"></path>
<path d="M1029 2272 l-47 -3 -6 -52 c-8 -62 5 -111 36 -142 13 -13 30 -33 39
-46 15 -22 24 -24 100 -24 l84 0 -1 70 c-2 94 -14 174 -28 183 -15 9 -120 18
-177 14z" id="node7" class="node"></path>
<path d="M890 2049 c-73 -12 -110 -31 -139 -70 -23 -31 -23 -34 -12 -114 6
-45 14 -195 18 -333 3 -139 10 -252 15 -252 4 0 8 5 8 12 0 21 53 68 77 68 40
0 82 -28 88 -58 13 -63 21 -84 30 -85 17 -3 28 74 24 163 -6 142 -3 232 9 290
6 30 16 78 22 105 21 101 22 126 10 169 -13 47 -64 117 -83 115 -7 -1 -37 -5
-67 -10z m60 -568 c0 -16 -49 -41 -80 -41 -17 0 -40 5 -51 11 -20 10 -20 11
-2 24 20 16 133 21 133 6z" id="node8" class="node"></path>
<path d="M560 1964 c-19 -9 -44 -20 -55 -26 -11 -5 -31 -32 -45 -61 -20 -41
-25 -66 -24 -120 1 -38 7 -74 13 -80 6 -6 11 -20 11 -31 0 -11 4 -33 9 -50 6
-17 20 -76 31 -131 12 -55 26 -113 30 -130 5 -16 14 -51 21 -77 10 -43 29 -66
29 -37 0 23 33 79 46 79 8 0 22 4 32 9 9 5 25 12 35 15 13 4 17 16 17 56 0 46
-2 50 -23 50 -13 0 -28 -5 -34 -11 -17 -17 -77 -7 -81 14 -3 13 4 17 30 17 18
1 48 9 67 18 l34 17 -2 125 c-4 211 -16 351 -32 361 -21 13 -70 10 -109 -7z" id="node9" class="node"></path>
<path d="M1115 1917 c7 -36 -3 -82 -32 -145 -33 -71 4 -43 82 62 26 36 30 39
33 19 2 -12 -8 -40 -22 -62 -31 -49 -36 -97 -8 -86 100 41 38 -29 -70 -78 -20
-10 -39 -21 -42 -25 -2 -4 -5 -77 -7 -162 l-3 -155 24 2 c76 6 113 25 71 36
-10 2 -24 15 -31 27 -11 21 -10 22 22 15 44 -9 99 -25 121 -36 26 -14 21 2
-17 56 -19 27 -33 52 -30 57 3 5 21 -1 40 -13 19 -12 37 -19 40 -17 2 3 0 56
-6 119 -5 63 -15 173 -20 244 -6 72 -12 135 -14 141 -3 7 -22 14 -43 17 -21 3
-51 9 -66 12 -28 7 -28 7 -22 -28z" id="node10" class="node"></path>
<path d="M276 1766 c-21 -7 -51 -26 -66 -42 -24 -28 -28 -29 -48 -16 -45 30
-90 -14 -111 -108 -11 -53 -11 -56 10 -70 29 -19 108 -39 114 -29 3 4 1 10 -5
14 -5 3 -14 14 -20 24 -7 15 -6 18 8 17 11 0 18 7 20 22 9 65 70 -28 127 -194
25 -75 46 -119 67 -141 31 -32 55 -35 44 -6 -8 19 10 53 41 79 24 21 25 23 14
85 -6 35 -16 91 -21 124 -14 88 -54 220 -72 242 -13 16 -49 15 -102 -1z" id="node11" class="node"></path>
<path d="M1920 1560 c-73 -20 -124 -44 -157 -74 l-23 -19 35 -39 c53 -58 47
-77 -10 -33 -30 22 -38 24 -86 16 -82 -14 -209 -69 -209 -92 0 -5 -10 -9 -23
-9 -39 0 -61 -23 -54 -56 32 -165 52 -235 77 -272 l15 -23 69 48 c38 27 79 55
91 63 13 8 34 24 49 35 15 11 56 42 91 68 39 29 65 55 65 66 0 30 28 47 51 33
24 -16 42 -4 129 84 36 36 96 83 133 105 77 46 81 60 28 96 -29 20 -46 23
-120 22 -49 -1 -114 -9 -151 -19z" id="node12" class="node"></path>
<path d="M40 1429 c0 -103 22 -373 31 -383 5 -6 9 -30 9 -55 0 -24 4 -58 10
-75 5 -17 14 -69 19 -116 22 -183 27 -190 147 -198 83 -5 147 10 267 63 21 9
41 14 45 11 3 -4 -2 -23 -12 -42 -23 -49 -13 -54 27 -16 18 18 41 32 50 32 22
0 21 9 -3 40 -25 32 -26 128 -4 255 24 132 23 139 -5 143 -13 2 -46 19 -73 37
-44 30 -53 33 -101 28 -47 -5 -56 -2 -85 22 -18 15 -41 46 -51 69 -24 52 -51
133 -51 150 0 30 -39 49 -104 50 -54 1 -69 5 -90 25 l-26 24 0 -64z" id="node13" class="node"></path>

<path d="M812 1278 c-17 -17 -15 -97 2 -104 7 -3 36 1 62 9 36 10 50 20 52 34
5 37 -90 87 -116 61z" id="node15" class="node"></path>
<path d="M1197 1274 c-3 -3 -38 -9 -78 -12 l-73 -7 -7 -35 c-9 -43 -58 -86
-114 -101 -23 -7 -69 -9 -106 -5 l-66 6 -26 -58 c-33 -75 -57 -172 -57 -232 0
-27 -4 -52 -10 -55 -5 -3 -10 -10 -10 -15 0 -18 115 -122 155 -141 48 -22 124
-24 180 -4 22 8 50 15 62 15 12 0 25 4 28 10 3 6 13 10 21 10 7 0 57 20 109
45 112 52 183 113 222 191 25 49 26 55 11 71 -9 10 -19 39 -23 66 -8 49 -25
65 -25 23 0 -33 -14 -40 -39 -18 -15 13 -23 38 -31 102 -13 95 -22 118 -53
129 -46 17 -64 21 -70 15z" id="node16" class="node"></path>
<path d="M455 1230 c3 -5 13 -10 21 -10 8 0 14 5 14 10 0 6 -9 10 -21 10 -11
0 -17 -4 -14 -10z" id="node17" class="node"></path>
<path d="M616 1218 c-11 -43 -7 -48 32 -48 26 0 45 7 57 20 28 30 13 50 -39
50 -37 0 -45 -3 -50 -22z" id="node18" class="node"></path>

<path d="M670 624 c0 -13 67 -64 85 -64 5 0 -8 16 -30 35 -38 33 -55 42 -55
29z" id="node20" class="node"></path>
<path d="M436 576 c-16 -7 -24 -16 -19 -19 13 -8 73 12 73 24 0 12 -19 10 -54
-5z" id="node21" class="node"></path>
<path d="M583 578 c-6 -7 -13 -21 -16 -31 -4 -10 -15 -17 -24 -15 -23 3 -43
-9 -43 -28 0 -8 -9 -34 -20 -56 -11 -23 -20 -49 -20 -58 0 -9 -4 -20 -9 -25
-16 -17 -53 -132 -49 -151 3 -13 13 1 32 44 16 34 33 62 37 62 12 0 11 -36 0
-58 -5 -9 -21 -44 -36 -77 -38 -87 -40 -90 -61 -90 -17 0 -19 7 -17 59 1 33 7
64 13 70 5 5 10 24 10 41 0 18 3 35 7 38 12 12 77 207 71 211 -2 2 -34 -4 -73
-12 -79 -16 -201 -21 -227 -9 -20 10 -32 -8 -54 -90 -9 -32 -20 -74 -26 -93
-25 -90 -29 -83 74 -143 115 -69 173 -89 263 -91 l70 -1 6 81 c5 73 27 167 50
219 5 11 15 45 23 75 8 30 21 74 29 98 14 41 9 55 -10 30z" id="node22" class="node"></path>
<path d="M634 513 c-9 -21 -22 -51 -30 -68 -37 -80 -84 -264 -84 -328 0 -30
43 -42 84 -23 58 27 96 65 96 94 0 15 12 68 26 117 57 201 58 190 -11 221 -31
13 -58 24 -61 24 -3 0 -12 -17 -20 -37z" id="node23" class="node"></path>
<path d="M751 244 c0 -11 3 -14 6 -6 3 7 2 16 -1 19 -3 4 -6 -2 -5 -13z" id="node24" class="node"></path>

</g>
</svg>