<?xml version="1.0" encoding="utf-8"?>
<svg viewBox="0 0 300 300" xmlns="http://www.w3.org/2000/svg">
  <g style="" transform="matrix(1.052268, 0, 0, 1.052268, 0.332703, -5.369266)">
    <g transform="matrix(0.04976, 0, 0, -0.04976, 5.154602, 227.849243)" fill="#282625" stroke="none" style="">
      <path d="M1475 2950 c-33 -28 -82 -63 -108 -79 -45 -27 -109 -96 -204 -221 -113 -149 -221 -254 -319 -311 -48 -27 -52 -33 -68 -91 -23 -84 -50 -161 -102 -295 -48 -121 -111 -261 -239 -528 -245 -511 -279 -586 -362 -790 -25 -60 -52 -127 -60 -147 -15 -35 -15 -38 18 -95 57 -100 124 -194 208 -295 l81 -98 88 0 c48 1 114 7 147 14 33 8 94 21 135 30 97 22 177 59 212 99 15 18 69 106 120 197 51 91 108 182 127 203 47 53 109 81 221 102 152 29 181 47 333 208 129 137 202 197 240 197 10 0 39 8 65 19 26 10 85 33 132 51 200 75 295 145 355 260 13 25 40 56 62 70 159 104 203 151 203 220 0 58 -12 75 -90 126 -54 35 -81 45 -128 50 -102 11 -160 -14 -343 -147 -35 -26 -79 -50 -97 -54 -18 -4 -63 -27 -100 -52 -179 -120 -217 -116 -316 36 -94 145 -102 160 -126 239 -20 65 -21 75 -7 90 8 9 26 44 40 77 14 33 49 113 76 177 28 65 62 136 76 158 l25 40 83 0 c66 0 87 4 107 20 14 11 33 20 42 20 9 0 58 -20 109 -45 71 -35 104 -45 141 -45 57 0 73 8 196 89 97 66 107 82 90 149 -8 29 -26 50 -86 98 -166 132 -340 224 -508 270 -82 22 -125 27 -254 30 l-155 4 -60 -50z m367 -14 c135 -20 262 -61 283 -92 11 -16 25 -24 45 -24 36 0 129 -46 137 -68 4 -8 1 -23 -5 -32 -6 -10 -8 -27 -5 -39 5 -20 4 -21 -33 -7 -36 13 -217 97 -325 151 -39 19 -73 24 -235 34 -256 16 -249 14 -172 56 56 30 72 34 138 34 41 0 119 -6 172 -13z m-237 -121 c110 -8 219 -18 242 -21 40 -6 41 -7 32 -31 -5 -14 -7 -28 -4 -31 3 -3 29 3 59 13 l53 18 79 -43 c125 -69 150 -88 179 -141 29 -53 54 -69 110 -69 61 0 57 -31 -9 -73 -60 -38 -125 -37 -211 3 l-65 30 0 55 c0 33 -9 76 -22 109 -26 63 -9 58 -288 77 l-165 11 -170 -52 c-93 -28 -178 -54 -187 -58 -9 -4 -81 -92 -159 -197 -130 -173 -263 -324 -276 -312 -11 12 45 98 106 162 65 69 85 93 272 330 98 125 199 235 215 235 5 0 99 -7 209 -15z m795 -142 c42 -27 80 -66 74 -75 -20 -32 -135 39 -121 75 8 21 16 21 47 0z m-549 -24 c46 -18 107 -37 134 -44 40 -9 51 -16 53 -34 5 -30 -19 -64 -63 -91 -33 -20 -50 -23 -168 -24 -108 -1 -138 2 -164 17 -43 23 -47 22 -61 -17 -9 -24 -29 -45 -65 -68 -44 -28 -60 -33 -113 -33 -63 0 -66 -3 -36 -37 20 -24 11 -98 -18 -138 -24 -34 -73 -60 -114 -60 -24 0 -44 -16 -33 -26 10 -10 88 -6 117 6 17 7 33 11 35 8 2 -2 -16 -60 -40 -128 -82 -228 -70 -207 -128 -226 -29 -10 -97 -20 -152 -23 l-100 -6 55 -24 c40 -17 72 -24 117 -23 l61 0 8 -76 c12 -135 -2 -374 -31 -502 -39 -174 -94 -280 -203 -390 -87 -86 -87 -87 -158 -99 -79 -14 -207 -3 -270 24 -49 20 -54 19 -54 -9 0 -25 30 -50 85 -74 30 -12 30 -12 -10 -6 -21 3 -52 12 -67 20 -56 29 -66 5 -18 -41 22 -21 44 -30 91 -37 33 -4 65 -10 69 -13 5 -3 -6 -38 -24 -78 -44 -95 -86 -219 -86 -251 0 -49 -17 -75 -56 -82 -82 -15 -133 21 -257 181 -42 55 -91 117 -108 137 l-32 37 48 113 c36 87 56 121 87 148 34 30 40 43 48 95 8 58 48 168 109 297 56 120 265 596 331 754 40 96 50 110 162 230 136 148 267 306 310 377 22 34 35 46 46 42 10 -4 35 14 73 53 31 33 70 63 86 67 65 16 246 42 264 38 11 -3 31 5 50 21 41 35 85 34 190 -5z m494 -89 c-9 -15 -27 -11 -52 9 -37 31 -27 43 17 21 23 -12 38 -25 35 -30z m128 -32 c-24 -24 -37 -21 -27 6 3 9 16 16 27 16 l21 0 -21 -22z m-763 -123 c0 -3 -9 -24 -20 -45 -29 -56 -56 -72 -103 -59 -20 5 -37 14 -37 19 0 20 102 90 131 90 16 0 29 -2 29 -5z m-139 -157 c26 -11 26 -11 13 -67 -15 -71 -47 -161 -70 -198 -22 -35 -105 -123 -117 -123 -12 0 -1 42 24 97 22 48 23 57 9 48 -6 -4 -26 -40 -46 -82 -20 -41 -37 -73 -39 -71 -7 7 65 192 105 273 24 49 40 94 40 116 0 45 8 53 34 34 12 -9 33 -21 47 -27z m-60 -475 c5 -48 14 -98 21 -111 6 -12 33 -36 60 -52 32 -20 50 -38 54 -57 4 -16 21 -44 40 -63 59 -62 76 -119 115 -369 6 -45 6 -67 -1 -71 -6 -4 -68 -63 -138 -132 l-127 -126 -90 -27 c-49 -15 -137 -42 -194 -61 -144 -47 -171 -51 -171 -28 0 11 10 35 22 54 45 75 106 209 134 295 25 78 28 106 29 210 0 66 -6 165 -13 220 -7 55 -15 129 -18 165 l-5 65 65 40 c37 22 96 63 134 91 37 28 69 50 71 48 2 -2 7 -43 12 -91z m1124 4 c53 -29 76 -55 82 -92 5 -30 1 -41 -23 -66 -16 -17 -55 -46 -87 -66 -37 -23 -77 -60 -114 -106 -80 -102 -121 -144 -157 -158 -17 -7 -110 -50 -206 -97 -96 -46 -194 -93 -217 -103 l-41 -18 -10 27 c-6 15 -13 68 -17 117 -3 50 -13 109 -21 133 -18 53 -19 122 -1 123 32 3 64 -4 79 -18 20 -18 38 -10 38 17 0 10 12 27 28 38 51 35 144 83 154 80 5 -2 24 -46 41 -99 32 -95 60 -149 76 -149 5 0 1 26 -9 58 -10 31 -23 99 -31 151 l-12 94 29 24 c47 39 160 104 206 119 55 18 173 13 213 -9z m-1600 -1262 c-39 -57 -55 -72 -34 -32 25 45 62 97 67 92 3 -3 -12 -30 -33 -60z m-127 -32 c-41 -90 -130 -254 -135 -249 -14 13 61 171 115 244 30 39 36 41 20 5z m-109 -70 c-23 -49 -45 -96 -50 -106 -13 -24 -47 -135 -51 -167 -2 -17 -14 -31 -38 -42 -41 -21 -120 -24 -120 -5 0 27 59 216 83 267 14 30 44 74 66 98 37 40 43 42 95 42 l55 0 -40 -87z m142 -46 c-10 -9 -11 -8 -5 6 3 10 9 15 12 12 3 -3 0 -11 -7 -18z m-40 -74 c-12 -20 -14 -14 -5 12 4 9 9 14 11 11 3 -2 0 -13 -6 -23z" id="node1" class="node"/>
      <path d="M1385 1470 l-30 -21 30 7 c41 9 75 22 75 29 0 13 -48 3 -75 -15z" id="node2" class="node"/>
    </g>
    <g transform="matrix(0.04976, 0, 0, -0.04976, 5.154602, 227.849243)" fill="#FFFFFF" stroke="none" style="">
      <path d="M1532 2915 c-77 -42 -84 -40 172 -56 162 -10 196 -15 235 -34 108 -54 289 -138 325 -151 37 -14 38 -13 33 7 -3 12 -1 29 5 39 6 9 9 24 5 32 -8 22 -101 68 -137 68 -20 0 -34 8 -45 24 -32 48 -282 106 -455 105 -66 0 -82 -4 -138 -34z" id="node5" class="node"/>
      <path d="M1331 2772 c-31 -32 -98 -111 -150 -177 -187 -237 -207 -261 -272 -330 -61 -64 -117 -150 -106 -162 13 -12 146 139 276 312 78 105 150 193 159 197 9 4 94 30 187 58 l170 52 165 -11 c279 -19 262 -14 288 -77 13 -33 22 -76 22 -109 l0 -55 65 -30 c86 -40 151 -41 211 -3 66 42 70 73 9 73 -56 0 -81 16 -110 69 -29 53 -54 72 -179 141 l-79 43 -53 -18 c-30 -10 -56 -16 -59 -13 -3 3 -1 17 4 31 9 24 8 25 -32 31 -35 5 -420 36 -451 36 -5 0 -35 -26 -65 -58z" id="node6" class="node"/>
      <path d="M2353 2673 c-14 -36 101 -107 121 -75 8 13 -83 92 -107 92 -4 0 -10 -7 -14 -17z" id="node7" class="node"/>
      <path d="M1661 2654 c-19 -16 -39 -24 -50 -21 -18 4 -199 -22 -264 -38 -16 -4 -55 -34 -86 -67 -38 -39 -63 -57 -73 -53 -11 4 -24 -8 -46 -42 -43 -71 -174 -229 -310 -377 -112 -120 -122 -134 -162 -230 -66 -158 -275 -634 -331 -754 -61 -129 -101 -239 -109 -297 -8 -52 -14 -65 -48 -95 -31 -27 -51 -61 -87 -148 l-48 -113 32 -37 c17 -20 66 -82 108 -137 124 -160 175 -196 257 -181 39 7 56 33 56 82 0 32 42 156 86 251 18 40 29 75 24 78 -4 3 -36 9 -69 13 -47 7 -69 16 -91 37 -48 46 -38 70 18 41 15 -8 46 -17 67 -20 40 -6 40 -6 10 6 -55 24 -85 49 -85 74 0 28 5 29 54 9 63 -27 191 -38 270 -24 71 12 71 13 158 99 109 110 164 216 203 390 29 128 43 367 31 502 l-8 76 -61 0 c-45 -1 -77 6 -117 23 l-55 24 100 6 c55 3 123 13 152 23 58 19 46 -2 128 226 24 68 42 126 40 128 -2 3 -18 -1 -35 -8 -29 -12 -107 -16 -117 -6 -11 10 9 26 33 26 41 0 90 26 114 60 29 40 38 114 18 138 -30 34 -27 37 36 37 53 0 69 5 113 33 36 23 56 44 65 68 14 39 18 40 61 17 26 -15 56 -18 164 -17 118 1 135 4 168 24 44 27 68 61 63 91 -2 18 -13 25 -53 34 -27 7 -88 26 -134 44 -105 39 -149 40 -190 5z" id="node8" class="node"/>
      <path d="M2270 2599 c0 -13 41 -48 57 -49 29 0 20 21 -17 40 -24 12 -40 16 -40 9z" id="node9" class="node"/>
      <path d="M2446 2534 c-10 -27 3 -30 27 -6 l21 22 -21 0 c-11 0 -24 -7 -27 -16z" id="node10" class="node"/>
      <path d="M1601 2370 c-28 -22 -51 -45 -51 -50 0 -5 17 -14 37 -19 47 -13 74 3 103 59 26 50 26 50 -9 50 -19 0 -47 -14 -80 -40z" id="node11" class="node"/>
      <path d="M1497 2283 c-4 -3 -7 -22 -7 -42 0 -22 -16 -67 -40 -116 -40 -81 -112 -266 -105 -273 2 -2 19 30 39 71 20 42 40 78 46 82 14 9 13 0 -9 -48 -25 -55 -36 -97 -24 -97 12 0 95 88 117 123 23 37 55 127 70 198 13 56 13 56 -13 67 -14 6 -35 18 -47 27 -11 8 -24 12 -27 8z" id="node12" class="node"/>
      <path d="M1428 1816 c-38 -28 -97 -69 -134 -91 l-65 -40 5 -65 c3 -36 11 -110 18 -165 7 -55 13 -154 13 -220 -1 -104 -4 -132 -29 -210 -28 -86 -89 -220 -134 -295 -12 -19 -22 -43 -22 -54 0 -23 27 -19 171 28 57 19 145 46 194 61 l90 27 127 126 c70 69 132 128 138 132 7 4 7 26 1 71 -39 250 -56 307 -115 369 -19 19 -36 47 -40 63 -4 19 -22 37 -54 57 -27 16 -54 40 -60 52 -7 13 -16 63 -21 111 -5 48 -10 89 -12 91 -2 2 -34 -20 -71 -48z m32 -331 c0 -7 -34 -20 -75 -29 l-30 -7 30 21 c27 18 75 28 75 15z" id="node13" class="node" stroke-width="20"/>
      <path d="M2422 1786 c-46 -15 -159 -80 -206 -119 l-29 -24 12 -94 c8 -52 21 -120 31 -151 10 -32 14 -58 9 -58 -16 0 -44 54 -76 149 -17 53 -36 97 -41 99 -10 3 -103 -45 -154 -80 -16 -11 -28 -28 -28 -38 0 -27 -18 -35 -38 -17 -15 14 -47 21 -79 18 -18 -1 -17 -70 1 -123 8 -24 18 -83 21 -133 4 -49 11 -102 17 -117 l10 -27 41 18 c23 10 121 57 217 103 96 47 189 90 206 97 36 14 77 56 157 158 37 46 77 83 114 106 32 20 71 49 87 66 49 51 27 111 -59 158 -40 22 -158 27 -213 9z" id="node14" class="node" stroke-width="20"/>
      <path d="M1038 543 c-30 -47 -50 -83 -45 -83 9 0 80 110 75 115 -3 3 -16 -12 -30 -32z" id="node16" class="node"/>
      <path d="M888 478 c-35 -47 -82 -135 -103 -191 -33 -87 -7 -60 52 54 91 178 99 201 51 137z" id="node17" class="node"/>
      <path d="M689 458 c-22 -24 -52 -68 -66 -98 -24 -51 -83 -240 -83 -267 0 -19 79 -16 120 5 24 11 36 25 38 42 4 32 38 143 51 167 5 10 27 57 50 106 l40 87 -55 0 c-52 0 -58 -2 -95 -42z" id="node18" class="node"/>
      <path d="M936 373 c-6 -14 -5 -15 5 -6 7 7 10 15 7 18 -3 3 -9 -2 -12 -12z" id="node20" class="node"/>
      <path d="M896 305 c-9 -26 -7 -32 5 -12 6 10 9 21 6 23 -2 3 -7 -2 -11 -11z" id="node21" class="node"/>
    </g>
    <g transform="matrix(0.060082, 0, 0, -0.060082, 144.34108, 241.691254)" fill="#343434" stroke="none" style="">
      <path d="M917 2978 c-18 -24 -18 -25 4 -188 6 -43 9 -205 7 -385 l-3 -310 -40 -3 c-22 -2 -44 -8 -49 -13 -6 -5 -18 -9 -27 -9 -10 0 -38 -16 -63 -35 -47 -36 -79 -39 -114 -12 -18 15 -217 -88 -248 -128 -13 -18 -24 -39 -24 -48 0 -17 -44 -41 -95 -51 -16 -4 -58 -13 -91 -20 -92 -19 -119 -46 -165 -164 -12 -30 -12 -447 0 -470 5 -9 17 -73 26 -142 67 -483 65 -421 11 -581 -55 -163 -59 -216 -18 -241 15 -9 54 -35 87 -58 33 -22 89 -54 125 -71 36 -17 73 -35 82 -40 37 -19 165 -10 234 16 70 26 268 128 295 151 8 8 23 50 33 94 10 44 23 83 27 86 5 3 9 12 9 21 0 8 14 44 32 80 l31 64 116 56 c107 53 172 90 211 120 79 61 142 118 161 145 55 79 135 147 274 233 44 27 82 52 85 56 3 4 21 13 41 22 19 8 78 56 130 106 64 63 113 102 155 122 34 16 65 29 70 29 5 0 21 11 37 24 34 29 36 75 5 117 -54 73 -158 93 -307 60 -52 -12 -99 -25 -105 -31 -5 -5 -17 -10 -25 -10 -8 0 -30 -12 -50 -27 -53 -41 -178 -108 -246 -133 -11 -4 -50 -22 -87 -39 -38 -18 -72 -30 -77 -26 -19 11 -25 56 -40 320 -7 105 -15 197 -18 205 -9 20 -21 137 -33 305 -5 77 -15 185 -21 240 -5 55 -14 145 -19 200 -17 188 -58 316 -120 368 -16 13 -39 17 -103 17 -73 0 -84 -3 -100 -22z m169 -35 c57 -46 72 -83 89 -208 14 -104 9 -129 -21 -104 -12 9 -44 14 -98 14 l-81 0 -12 70 c-20 109 -18 223 3 246 27 30 70 24 120 -18z m62 -354 c65 -13 72 -31 72 -176 0 -106 -1 -115 -17 -107 -10 4 -64 10 -120 12 -85 3 -103 7 -107 20 -9 34 -17 189 -11 214 11 42 87 58 183 37z m58 -331 c14 -9 26 -89 28 -183 l1 -70 -84 0 c-76 0 -85 2 -100 24 -9 13 -26 33 -39 46 -31 31 -44 80 -36 142 l6 52 47 3 c57 4 162 -5 177 -14z m-208 -234 c17 -20 36 -56 42 -80 12 -43 11 -68 -10 -169 -6 -27 -16 -75 -22 -105 -12 -58 -15 -148 -9 -290 4 -89 -7 -166 -24 -163 -9 1 -17 22 -30 85 -6 30 -48 58 -88 58 -24 0 -77 -47 -77 -68 0 -7 -4 -12 -8 -12 -5 0 -12 113 -15 252 -4 138 -12 288 -18 333 -11 80 -11 83 12 114 34 46 93 69 206 80 6 0 25 -15 41 -35z m-329 -53 c16 -10 28 -150 32 -361 l2 -125 -34 -17 c-19 -9 -49 -17 -67 -18 -26 0 -33 -4 -30 -17 4 -21 64 -31 81 -14 6 6 21 11 34 11 21 0 23 -4 23 -50 0 -40 -4 -52 -17 -56 -10 -3 -26 -10 -35 -15 -10 -5 -24 -9 -32 -9 -13 0 -46 -56 -46 -79 0 -29 -19 -6 -29 37 -7 26 -16 61 -21 77 -4 17 -18 75 -30 130 -11 55 -25 114 -31 131 -5 17 -9 39 -9 50 0 11 -5 25 -11 31 -6 6 -12 42 -13 80 -1 54 4 79 24 120 14 29 34 56 45 61 71 34 93 42 120 42 17 0 36 -4 44 -9z m534 -38 c21 -3 40 -10 43 -17 2 -6 8 -69 14 -141 5 -71 15 -181 20 -244 6 -63 8 -116 6 -119 -3 -2 -21 5 -40 17 -19 12 -37 18 -40 13 -3 -5 11 -30 30 -57 38 -54 43 -70 17 -56 -22 11 -77 27 -121 36 -32 7 -33 6 -22 -15 7 -12 21 -25 31 -27 42 -11 5 -30 -71 -36 l-24 -2 3 155 c2 85 5 158 7 162 3 4 22 15 42 25 108 49 170 119 70 78 -28 -11 -23 37 8 86 14 22 24 50 22 62 -3 20 -7 17 -33 -19 -78 -105 -115 -133 -82 -62 29 63 39 109 32 145 -6 35 -6 35 22 28 15 -3 45 -9 66 -12z m-825 -166 c18 -22 58 -154 72 -242 5 -33 15 -89 21 -124 11 -62 10 -64 -14 -85 -31 -26 -49 -60 -41 -79 11 -29 -13 -26 -44 6 -21 22 -42 66 -67 141 -57 166 -118 259 -127 194 -2 -15 -9 -22 -20 -22 -14 1 -15 -2 -8 -17 6 -10 15 -21 20 -24 6 -4 8 -10 5 -14 -6 -10 -85 10 -114 29 -21 14 -21 17 -10 70 21 94 66 138 111 108 20 -13 24 -12 48 16 41 45 145 72 168 43z m1813 -210 c53 -36 49 -50 -28 -96 -37 -22 -97 -69 -133 -105 -87 -88 -105 -100 -129 -84 -23 14 -51 -3 -51 -33 0 -11 -26 -37 -65 -66 -35 -26 -76 -57 -91 -68 -15 -11 -36 -27 -49 -35 -12 -8 -53 -36 -91 -63 l-69 -48 -15 23 c-25 37 -45 107 -77 272 -7 33 15 56 54 56 13 0 23 4 23 9 0 23 127 78 209 92 48 8 56 6 86 -16 57 -44 63 -25 10 33 l-35 39 23 19 c60 54 186 91 308 93 74 1 91 -2 120 -22z m-2035 -113 c65 -1 104 -20 104 -50 0 -17 27 -98 51 -150 10 -23 33 -54 51 -69 29 -24 38 -27 85 -22 48 5 57 2 101 -28 27 -18 60 -35 73 -37 28 -4 29 -11 5 -143 -22 -127 -21 -223 4 -255 24 -31 25 -40 3 -40 -9 0 -32 -14 -50 -32 -40 -38 -50 -33 -27 16 10 19 15 38 12 42 -4 3 -24 -2 -45 -11 -120 -53 -184 -68 -267 -63 -120 8 -125 15 -147 198 -5 47 -14 99 -19 116 -6 17 -10 51 -10 75 0 25 -4 49 -9 55 -9 10 -31 280 -31 383 l0 64 26 -24 c21 -20 36 -24 90 -25z m747 -187 c43 -29 33 -57 -27 -74 -26 -8 -55 -12 -62 -9 -17 7 -19 87 -2 104 14 14 54 6 91 -21z m364 2 c31 -11 40 -34 53 -129 8 -64 16 -89 31 -102 25 -22 39 -15 39 18 0 42 17 26 25 -23 4 -27 14 -56 23 -66 15 -16 14 -22 -11 -71 -39 -78 -110 -139 -222 -191 -52 -25 -102 -45 -109 -45 -8 0 -18 -4 -21 -10 -3 -6 -16 -10 -28 -10 -12 0 -40 -7 -62 -15 -56 -20 -132 -18 -180 4 -40 19 -155 123 -155 141 0 5 5 12 10 15 6 3 10 28 10 55 0 60 24 157 57 232 l26 58 66 -6 c37 -4 83 -2 106 5 56 15 105 58 114 101 l7 35 73 7 c40 3 75 9 78 12 6 6 24 2 70 -15z m-777 -29 c0 -5 -6 -10 -14 -10 -8 0 -18 5 -21 10 -3 6 3 10 14 10 12 0 21 -4 21 -10z m227 -5 c10 -26 -26 -55 -69 -55 -39 0 -43 5 -32 48 5 19 13 22 50 22 31 0 46 -5 51 -15z m8 -630 c22 -19 35 -35 30 -35 -18 0 -85 51 -85 64 0 13 17 4 55 -29z m-235 -14 c0 -12 -60 -32 -73 -24 -5 3 3 12 19 19 35 15 54 17 54 5z m103 -33 c-8 -24 -21 -68 -29 -98 -8 -30 -18 -64 -23 -75 -23 -52 -45 -146 -50 -219 l-6 -81 -70 1 c-90 2 -148 22 -263 91 -103 60 -99 53 -74 143 6 19 17 61 26 93 22 82 34 100 54 90 26 -12 148 -7 227 9 39 8 71 14 73 12 6 -4 -59 -199 -71 -211 -4 -3 -7 -20 -7 -38 0 -17 -5 -36 -10 -41 -6 -6 -12 -37 -13 -70 -2 -52 0 -59 17 -59 21 0 23 3 61 90 15 33 31 68 36 77 11 22 12 58 0 58 -4 0 -21 -28 -37 -62 -19 -43 -29 -57 -32 -44 -4 19 33 134 49 151 5 5 9 16 9 25 0 9 9 35 20 58 11 22 20 48 20 56 0 19 20 31 43 28 9 -2 20 5 24 15 8 23 23 43 33 43 4 0 1 -19 -7 -42z m122 -22 c69 -31 68 -20 11 -221 -14 -49 -26 -102 -26 -117 0 -29 -38 -67 -96 -94 -41 -19 -84 -7 -84 23 0 64 47 248 84 328 8 17 21 47 30 68 8 20 17 37 20 37 3 0 30 -11 61 -24z m42 -288 c-3 -8 -6 -5 -6 6 -1 11 2 17 5 13 3 -3 4 -12 1 -19z" id="path-1" class="node"/>
      <path d="M817 1475 c-18 -13 -18 -14 2 -24 11 -6 34 -11 51 -11 31 0 80 25 80 41 0 15 -113 10 -133 -6z" id="path-2" class="node"/>
    </g>
    <g transform="matrix(0.060082, 0, 0, -0.060082, 144.34108, 241.691254)" fill="#FFFFFF" stroke="none" style="">
      <path d="M966 2961 c-21 -23 -23 -137 -3 -246 l12 -70 81 0 c54 0 86 -5 98 -14 30 -25 35 0 21 104 -17 125 -32 162 -89 208 -50 42 -93 48 -120 18z" id="path-3" class="node"/>
      <path d="M1003 2588 c-40 -13 -46 -37 -38 -148 10 -127 0 -118 118 -122 56 -2 110 -8 120 -12 16 -8 17 1 17 107 0 145 -7 163 -72 176 -59 13 -102 13 -145 -1z" id="path-4" class="node"/>
      <path d="M1029 2272 l-47 -3 -6 -52 c-8 -62 5 -111 36 -142 13 -13 30 -33 39 -46 15 -22 24 -24 100 -24 l84 0 -1 70 c-2 94 -14 174 -28 183 -15 9 -120 18 -177 14z" id="path-5" class="node"/>
      <path d="M890 2049 c-73 -12 -110 -31 -139 -70 -23 -31 -23 -34 -12 -114 6 -45 14 -195 18 -333 3 -139 10 -252 15 -252 4 0 8 5 8 12 0 21 53 68 77 68 40 0 82 -28 88 -58 13 -63 21 -84 30 -85 17 -3 28 74 24 163 -6 142 -3 232 9 290 6 30 16 78 22 105 21 101 22 126 10 169 -13 47 -64 117 -83 115 -7 -1 -37 -5 -67 -10z m60 -568 c0 -16 -49 -41 -80 -41 -17 0 -40 5 -51 11 -20 10 -20 11 -2 24 20 16 133 21 133 6z" id="path-6" class="node"/>
      <path d="M560 1964 c-19 -9 -44 -20 -55 -26 -11 -5 -31 -32 -45 -61 -20 -41 -25 -66 -24 -120 1 -38 7 -74 13 -80 6 -6 11 -20 11 -31 0 -11 4 -33 9 -50 6 -17 20 -76 31 -131 12 -55 26 -113 30 -130 5 -16 14 -51 21 -77 10 -43 29 -66 29 -37 0 23 33 79 46 79 8 0 22 4 32 9 9 5 25 12 35 15 13 4 17 16 17 56 0 46 -2 50 -23 50 -13 0 -28 -5 -34 -11 -17 -17 -77 -7 -81 14 -3 13 4 17 30 17 18 1 48 9 67 18 l34 17 -2 125 c-4 211 -16 351 -32 361 -21 13 -70 10 -109 -7z" id="path-7" class="node"/>
      <path d="M1115 1917 c7 -36 -3 -82 -32 -145 -33 -71 4 -43 82 62 26 36 30 39 33 19 2 -12 -8 -40 -22 -62 -31 -49 -36 -97 -8 -86 100 41 38 -29 -70 -78 -20 -10 -39 -21 -42 -25 -2 -4 -5 -77 -7 -162 l-3 -155 24 2 c76 6 113 25 71 36 -10 2 -24 15 -31 27 -11 21 -10 22 22 15 44 -9 99 -25 121 -36 26 -14 21 2 -17 56 -19 27 -33 52 -30 57 3 5 21 -1 40 -13 19 -12 37 -19 40 -17 2 3 0 56 -6 119 -5 63 -15 173 -20 244 -6 72 -12 135 -14 141 -3 7 -22 14 -43 17 -21 3 -51 9 -66 12 -28 7 -28 7 -22 -28z" id="path-8" class="node"/>
      <path d="M276 1766 c-21 -7 -51 -26 -66 -42 -24 -28 -28 -29 -48 -16 -45 30 -90 -14 -111 -108 -11 -53 -11 -56 10 -70 29 -19 108 -39 114 -29 3 4 1 10 -5 14 -5 3 -14 14 -20 24 -7 15 -6 18 8 17 11 0 18 7 20 22 9 65 70 -28 127 -194 25 -75 46 -119 67 -141 31 -32 55 -35 44 -6 -8 19 10 53 41 79 24 21 25 23 14 85 -6 35 -16 91 -21 124 -14 88 -54 220 -72 242 -13 16 -49 15 -102 -1z" id="path-9" class="node"/>
      <path d="M1920 1560 c-73 -20 -124 -44 -157 -74 l-23 -19 35 -39 c53 -58 47 -77 -10 -33 -30 22 -38 24 -86 16 -82 -14 -209 -69 -209 -92 0 -5 -10 -9 -23 -9 -39 0 -61 -23 -54 -56 32 -165 52 -235 77 -272 l15 -23 69 48 c38 27 79 55 91 63 13 8 34 24 49 35 15 11 56 42 91 68 39 29 65 55 65 66 0 30 28 47 51 33 24 -16 42 -4 129 84 36 36 96 83 133 105 77 46 81 60 28 96 -29 20 -46 23 -120 22 -49 -1 -114 -9 -151 -19z" id="path-10" class="node"/>
      <path d="M40 1429 c0 -103 22 -373 31 -383 5 -6 9 -30 9 -55 0 -24 4 -58 10 -75 5 -17 14 -69 19 -116 22 -183 27 -190 147 -198 83 -5 147 10 267 63 21 9 41 14 45 11 3 -4 -2 -23 -12 -42 -23 -49 -13 -54 27 -16 18 18 41 32 50 32 22 0 21 9 -3 40 -25 32 -26 128 -4 255 24 132 23 139 -5 143 -13 2 -46 19 -73 37 -44 30 -53 33 -101 28 -47 -5 -56 -2 -85 22 -18 15 -41 46 -51 69 -24 52 -51 133 -51 150 0 30 -39 49 -104 50 -54 1 -69 5 -90 25 l-26 24 0 -64z" id="path-11" class="node"/>
      <path d="M812 1278 c-17 -17 -15 -97 2 -104 7 -3 36 1 62 9 36 10 50 20 52 34 5 37 -90 87 -116 61z" id="node15" class="node"/>
      <path d="M1197 1274 c-3 -3 -38 -9 -78 -12 l-73 -7 -7 -35 c-9 -43 -58 -86 -114 -101 -23 -7 -69 -9 -106 -5 l-66 6 -26 -58 c-33 -75 -57 -172 -57 -232 0 -27 -4 -52 -10 -55 -5 -3 -10 -10 -10 -15 0 -18 115 -122 155 -141 48 -22 124 -24 180 -4 22 8 50 15 62 15 12 0 25 4 28 10 3 6 13 10 21 10 7 0 57 20 109 45 112 52 183 113 222 191 25 49 26 55 11 71 -9 10 -19 39 -23 66 -8 49 -25 65 -25 23 0 -33 -14 -40 -39 -18 -15 13 -23 38 -31 102 -13 95 -22 118 -53 129 -46 17 -64 21 -70 15z" id="path-12" class="node"/>
      <path d="M455 1230 c3 -5 13 -10 21 -10 8 0 14 5 14 10 0 6 -9 10 -21 10 -11 0 -17 -4 -14 -10z" id="path-13" class="node"/>
      <path d="M616 1218 c-11 -43 -7 -48 32 -48 26 0 45 7 57 20 28 30 13 50 -39 50 -37 0 -45 -3 -50 -22z" id="path-14" class="node"/>
      <path d="M670 624 c0 -13 67 -64 85 -64 5 0 -8 16 -30 35 -38 33 -55 42 -55 29z" id="path-15" class="node"/>
      <path d="M436 576 c-16 -7 -24 -16 -19 -19 13 -8 73 12 73 24 0 12 -19 10 -54 -5z" id="path-16" class="node"/>
      <path d="M583 578 c-6 -7 -13 -21 -16 -31 -4 -10 -15 -17 -24 -15 -23 3 -43 -9 -43 -28 0 -8 -9 -34 -20 -56 -11 -23 -20 -49 -20 -58 0 -9 -4 -20 -9 -25 -16 -17 -53 -132 -49 -151 3 -13 13 1 32 44 16 34 33 62 37 62 12 0 11 -36 0 -58 -5 -9 -21 -44 -36 -77 -38 -87 -40 -90 -61 -90 -17 0 -19 7 -17 59 1 33 7 64 13 70 5 5 10 24 10 41 0 18 3 35 7 38 12 12 77 207 71 211 -2 2 -34 -4 -73 -12 -79 -16 -201 -21 -227 -9 -20 10 -32 -8 -54 -90 -9 -32 -20 -74 -26 -93 -25 -90 -29 -83 74 -143 115 -69 173 -89 263 -91 l70 -1 6 81 c5 73 27 167 50 219 5 11 15 45 23 75 8 30 21 74 29 98 14 41 9 55 -10 30z" id="node22" class="node"/>
      <path d="M634 513 c-9 -21 -22 -51 -30 -68 -37 -80 -84 -264 -84 -328 0 -30 43 -42 84 -23 58 27 96 65 96 94 0 15 12 68 26 117 57 201 58 190 -11 221 -31 13 -58 24 -61 24 -3 0 -12 -17 -20 -37z" id="node23" class="node"/>
      <path d="M751 244 c0 -11 3 -14 6 -6 3 7 2 16 -1 19 -3 4 -6 -2 -5 -13z" id="node24" class="node"/>
    </g>
  </g>
</svg>