<!--?xml version="1.0" standalone="no"?-->

<svg version="1.0" xmlns="http://www.w3.org/2000/svg" width="276.000000pt" height="300.000000pt" viewBox="0 0 276.000000 300.000000" preserveAspectRatio="xMidYMid meet">
<g transform="translate(0.000000,300.000000) scale(0.100000,-0.100000)" fill="#282625" stroke="none">
<path d="M1475 2950 c-33 -28 -82 -63 -108 -79 -45 -27 -109 -96 -204 -221
-113 -149 -221 -254 -319 -311 -48 -27 -52 -33 -68 -91 -23 -84 -50 -161 -102
-295 -48 -121 -111 -261 -239 -528 -245 -511 -279 -586 -362 -790 -25 -60 -52
-127 -60 -147 -15 -35 -15 -38 18 -95 57 -100 124 -194 208 -295 l81 -98 88 0
c48 1 114 7 147 14 33 8 94 21 135 30 97 22 177 59 212 99 15 18 69 106 120
197 51 91 108 182 127 203 47 53 109 81 221 102 152 29 181 47 333 208 129
137 202 197 240 197 10 0 39 8 65 19 26 10 85 33 132 51 200 75 295 145 355
260 13 25 40 56 62 70 159 104 203 151 203 220 0 58 -12 75 -90 126 -54 35
-81 45 -128 50 -102 11 -160 -14 -343 -147 -35 -26 -79 -50 -97 -54 -18 -4
-63 -27 -100 -52 -179 -120 -217 -116 -316 36 -94 145 -102 160 -126 239 -20
65 -21 75 -7 90 8 9 26 44 40 77 14 33 49 113 76 177 28 65 62 136 76 158 l25
40 83 0 c66 0 87 4 107 20 14 11 33 20 42 20 9 0 58 -20 109 -45 71 -35 104
-45 141 -45 57 0 73 8 196 89 97 66 107 82 90 149 -8 29 -26 50 -86 98 -166
132 -340 224 -508 270 -82 22 -125 27 -254 30 l-155 4 -60 -50z m367 -14 c135
-20 262 -61 283 -92 11 -16 25 -24 45 -24 36 0 129 -46 137 -68 4 -8 1 -23 -5
-32 -6 -10 -8 -27 -5 -39 5 -20 4 -21 -33 -7 -36 13 -217 97 -325 151 -39 19
-73 24 -235 34 -256 16 -249 14 -172 56 56 30 72 34 138 34 41 0 119 -6 172
-13z m-237 -121 c110 -8 219 -18 242 -21 40 -6 41 -7 32 -31 -5 -14 -7 -28 -4
-31 3 -3 29 3 59 13 l53 18 79 -43 c125 -69 150 -88 179 -141 29 -53 54 -69
110 -69 61 0 57 -31 -9 -73 -60 -38 -125 -37 -211 3 l-65 30 0 55 c0 33 -9 76
-22 109 -26 63 -9 58 -288 77 l-165 11 -170 -52 c-93 -28 -178 -54 -187 -58
-9 -4 -81 -92 -159 -197 -130 -173 -263 -324 -276 -312 -11 12 45 98 106 162
65 69 85 93 272 330 98 125 199 235 215 235 5 0 99 -7 209 -15z m795 -142 c42
-27 80 -66 74 -75 -20 -32 -135 39 -121 75 8 21 16 21 47 0z m-549 -24 c46
-18 107 -37 134 -44 40 -9 51 -16 53 -34 5 -30 -19 -64 -63 -91 -33 -20 -50
-23 -168 -24 -108 -1 -138 2 -164 17 -43 23 -47 22 -61 -17 -9 -24 -29 -45
-65 -68 -44 -28 -60 -33 -113 -33 -63 0 -66 -3 -36 -37 20 -24 11 -98 -18
-138 -24 -34 -73 -60 -114 -60 -24 0 -44 -16 -33 -26 10 -10 88 -6 117 6 17 7
33 11 35 8 2 -2 -16 -60 -40 -128 -82 -228 -70 -207 -128 -226 -29 -10 -97
-20 -152 -23 l-100 -6 55 -24 c40 -17 72 -24 117 -23 l61 0 8 -76 c12 -135 -2
-374 -31 -502 -39 -174 -94 -280 -203 -390 -87 -86 -87 -87 -158 -99 -79 -14
-207 -3 -270 24 -49 20 -54 19 -54 -9 0 -25 30 -50 85 -74 30 -12 30 -12 -10
-6 -21 3 -52 12 -67 20 -56 29 -66 5 -18 -41 22 -21 44 -30 91 -37 33 -4 65
-10 69 -13 5 -3 -6 -38 -24 -78 -44 -95 -86 -219 -86 -251 0 -49 -17 -75 -56
-82 -82 -15 -133 21 -257 181 -42 55 -91 117 -108 137 l-32 37 48 113 c36 87
56 121 87 148 34 30 40 43 48 95 8 58 48 168 109 297 56 120 265 596 331 754
40 96 50 110 162 230 136 148 267 306 310 377 22 34 35 46 46 42 10 -4 35 14
73 53 31 33 70 63 86 67 65 16 246 42 264 38 11 -3 31 5 50 21 41 35 85 34
190 -5z m494 -89 c-9 -15 -27 -11 -52 9 -37 31 -27 43 17 21 23 -12 38 -25 35
-30z m128 -32 c-24 -24 -37 -21 -27 6 3 9 16 16 27 16 l21 0 -21 -22z m-763
-123 c0 -3 -9 -24 -20 -45 -29 -56 -56 -72 -103 -59 -20 5 -37 14 -37 19 0 20
102 90 131 90 16 0 29 -2 29 -5z m-139 -157 c26 -11 26 -11 13 -67 -15 -71
-47 -161 -70 -198 -22 -35 -105 -123 -117 -123 -12 0 -1 42 24 97 22 48 23 57
9 48 -6 -4 -26 -40 -46 -82 -20 -41 -37 -73 -39 -71 -7 7 65 192 105 273 24
49 40 94 40 116 0 45 8 53 34 34 12 -9 33 -21 47 -27z m-60 -475 c5 -48 14
-98 21 -111 6 -12 33 -36 60 -52 32 -20 50 -38 54 -57 4 -16 21 -44 40 -63 59
-62 76 -119 115 -369 6 -45 6 -67 -1 -71 -6 -4 -68 -63 -138 -132 l-127 -126
-90 -27 c-49 -15 -137 -42 -194 -61 -144 -47 -171 -51 -171 -28 0 11 10 35 22
54 45 75 106 209 134 295 25 78 28 106 29 210 0 66 -6 165 -13 220 -7 55 -15
129 -18 165 l-5 65 65 40 c37 22 96 63 134 91 37 28 69 50 71 48 2 -2 7 -43
12 -91z m1124 4 c53 -29 76 -55 82 -92 5 -30 1 -41 -23 -66 -16 -17 -55 -46
-87 -66 -37 -23 -77 -60 -114 -106 -80 -102 -121 -144 -157 -158 -17 -7 -110
-50 -206 -97 -96 -46 -194 -93 -217 -103 l-41 -18 -10 27 c-6 15 -13 68 -17
117 -3 50 -13 109 -21 133 -18 53 -19 122 -1 123 32 3 64 -4 79 -18 20 -18 38
-10 38 17 0 10 12 27 28 38 51 35 144 83 154 80 5 -2 24 -46 41 -99 32 -95 60
-149 76 -149 5 0 1 26 -9 58 -10 31 -23 99 -31 151 l-12 94 29 24 c47 39 160
104 206 119 55 18 173 13 213 -9z m-1600 -1262 c-39 -57 -55 -72 -34 -32 25
45 62 97 67 92 3 -3 -12 -30 -33 -60z m-127 -32 c-41 -90 -130 -254 -135 -249
-14 13 61 171 115 244 30 39 36 41 20 5z m-109 -70 c-23 -49 -45 -96 -50 -106
-13 -24 -47 -135 -51 -167 -2 -17 -14 -31 -38 -42 -41 -21 -120 -24 -120 -5 0
27 59 216 83 267 14 30 44 74 66 98 37 40 43 42 95 42 l55 0 -40 -87z m142
-46 c-10 -9 -11 -8 -5 6 3 10 9 15 12 12 3 -3 0 -11 -7 -18z m-40 -74 c-12
-20 -14 -14 -5 12 4 9 9 14 11 11 3 -2 0 -13 -6 -23z" id="node1" class="node"></path>
<path d="M1385 1470 l-30 -21 30 7 c41 9 75 22 75 29 0 13 -48 3 -75 -15z" id="node2" class="node"></path>
</g>
<g transform="translate(0.000000,300.000000) scale(0.100000,-0.100000)" fill="#FFFFFF" stroke="none">


<path d="M1532 2915 c-77 -42 -84 -40 172 -56 162 -10 196 -15 235 -34 108
-54 289 -138 325 -151 37 -14 38 -13 33 7 -3 12 -1 29 5 39 6 9 9 24 5 32 -8
22 -101 68 -137 68 -20 0 -34 8 -45 24 -32 48 -282 106 -455 105 -66 0 -82 -4
-138 -34z" id="node5" class="node"></path>
<path d="M1331 2772 c-31 -32 -98 -111 -150 -177 -187 -237 -207 -261 -272
-330 -61 -64 -117 -150 -106 -162 13 -12 146 139 276 312 78 105 150 193 159
197 9 4 94 30 187 58 l170 52 165 -11 c279 -19 262 -14 288 -77 13 -33 22 -76
22 -109 l0 -55 65 -30 c86 -40 151 -41 211 -3 66 42 70 73 9 73 -56 0 -81 16
-110 69 -29 53 -54 72 -179 141 l-79 43 -53 -18 c-30 -10 -56 -16 -59 -13 -3
3 -1 17 4 31 9 24 8 25 -32 31 -35 5 -420 36 -451 36 -5 0 -35 -26 -65 -58z" id="node6" class="node"></path>
<path d="M2353 2673 c-14 -36 101 -107 121 -75 8 13 -83 92 -107 92 -4 0 -10
-7 -14 -17z" id="node7" class="node"></path>
<path d="M1661 2654 c-19 -16 -39 -24 -50 -21 -18 4 -199 -22 -264 -38 -16 -4
-55 -34 -86 -67 -38 -39 -63 -57 -73 -53 -11 4 -24 -8 -46 -42 -43 -71 -174
-229 -310 -377 -112 -120 -122 -134 -162 -230 -66 -158 -275 -634 -331 -754
-61 -129 -101 -239 -109 -297 -8 -52 -14 -65 -48 -95 -31 -27 -51 -61 -87
-148 l-48 -113 32 -37 c17 -20 66 -82 108 -137 124 -160 175 -196 257 -181 39
7 56 33 56 82 0 32 42 156 86 251 18 40 29 75 24 78 -4 3 -36 9 -69 13 -47 7
-69 16 -91 37 -48 46 -38 70 18 41 15 -8 46 -17 67 -20 40 -6 40 -6 10 6 -55
24 -85 49 -85 74 0 28 5 29 54 9 63 -27 191 -38 270 -24 71 12 71 13 158 99
109 110 164 216 203 390 29 128 43 367 31 502 l-8 76 -61 0 c-45 -1 -77 6
-117 23 l-55 24 100 6 c55 3 123 13 152 23 58 19 46 -2 128 226 24 68 42 126
40 128 -2 3 -18 -1 -35 -8 -29 -12 -107 -16 -117 -6 -11 10 9 26 33 26 41 0
90 26 114 60 29 40 38 114 18 138 -30 34 -27 37 36 37 53 0 69 5 113 33 36 23
56 44 65 68 14 39 18 40 61 17 26 -15 56 -18 164 -17 118 1 135 4 168 24 44
27 68 61 63 91 -2 18 -13 25 -53 34 -27 7 -88 26 -134 44 -105 39 -149 40
-190 5z" id="node8" class="node"></path>
<path d="M2270 2599 c0 -13 41 -48 57 -49 29 0 20 21 -17 40 -24 12 -40 16
-40 9z" id="node9" class="node"></path>
<path d="M2446 2534 c-10 -27 3 -30 27 -6 l21 22 -21 0 c-11 0 -24 -7 -27 -16z" id="node10" class="node"></path>
<path d="M1601 2370 c-28 -22 -51 -45 -51 -50 0 -5 17 -14 37 -19 47 -13 74 3
103 59 26 50 26 50 -9 50 -19 0 -47 -14 -80 -40z" id="node11" class="node"></path>
<path d="M1497 2283 c-4 -3 -7 -22 -7 -42 0 -22 -16 -67 -40 -116 -40 -81
-112 -266 -105 -273 2 -2 19 30 39 71 20 42 40 78 46 82 14 9 13 0 -9 -48 -25
-55 -36 -97 -24 -97 12 0 95 88 117 123 23 37 55 127 70 198 13 56 13 56 -13
67 -14 6 -35 18 -47 27 -11 8 -24 12 -27 8z" id="node12" class="node"></path>
<path d="M1428 1816 c-38 -28 -97 -69 -134 -91 l-65 -40 5 -65 c3 -36 11 -110
18 -165 7 -55 13 -154 13 -220 -1 -104 -4 -132 -29 -210 -28 -86 -89 -220
-134 -295 -12 -19 -22 -43 -22 -54 0 -23 27 -19 171 28 57 19 145 46 194 61
l90 27 127 126 c70 69 132 128 138 132 7 4 7 26 1 71 -39 250 -56 307 -115
369 -19 19 -36 47 -40 63 -4 19 -22 37 -54 57 -27 16 -54 40 -60 52 -7 13 -16
63 -21 111 -5 48 -10 89 -12 91 -2 2 -34 -20 -71 -48z m32 -331 c0 -7 -34 -20
-75 -29 l-30 -7 30 21 c27 18 75 28 75 15z" id="node13" class="node" stroke-width="20"></path>
<path d="M2422 1786 c-46 -15 -159 -80 -206 -119 l-29 -24 12 -94 c8 -52 21
-120 31 -151 10 -32 14 -58 9 -58 -16 0 -44 54 -76 149 -17 53 -36 97 -41 99
-10 3 -103 -45 -154 -80 -16 -11 -28 -28 -28 -38 0 -27 -18 -35 -38 -17 -15
14 -47 21 -79 18 -18 -1 -17 -70 1 -123 8 -24 18 -83 21 -133 4 -49 11 -102
17 -117 l10 -27 41 18 c23 10 121 57 217 103 96 47 189 90 206 97 36 14 77 56
157 158 37 46 77 83 114 106 32 20 71 49 87 66 49 51 27 111 -59 158 -40 22
-158 27 -213 9z" id="node14" class="node" stroke-width="20"></path>

<path d="M1038 543 c-30 -47 -50 -83 -45 -83 9 0 80 110 75 115 -3 3 -16 -12
-30 -32z" id="node16" class="node"></path>
<path d="M888 478 c-35 -47 -82 -135 -103 -191 -33 -87 -7 -60 52 54 91 178
99 201 51 137z" id="node17" class="node"></path>
<path d="M689 458 c-22 -24 -52 -68 -66 -98 -24 -51 -83 -240 -83 -267 0 -19
79 -16 120 5 24 11 36 25 38 42 4 32 38 143 51 167 5 10 27 57 50 106 l40 87
-55 0 c-52 0 -58 -2 -95 -42z" id="node18" class="node"></path>

<path d="M936 373 c-6 -14 -5 -15 5 -6 7 7 10 15 7 18 -3 3 -9 -2 -12 -12z" id="node20" class="node"></path>
<path d="M896 305 c-9 -26 -7 -32 5 -12 6 10 9 21 6 23 -2 3 -7 -2 -11 -11z" id="node21" class="node"></path>
</g>
</svg>