<?xml version="1.0" encoding="utf-8"?>
<!-- Generator: Adobe Illustrator 21.0.0, SVG Export Plug-In . SVG Version: 6.00 Build 0)  -->
<svg version="1.1" id="Layer_1" xmlns="http://www.w3.org/2000/svg" xmlns:xlink="http://www.w3.org/1999/xlink" x="0px"
  y="0px" viewBox="0 0 864 864" style="enable-background:new 0 0 864 864;" xml:space="preserve">
  <style type="text/css">
    .st-0 {
      fill: #1E2647;
      stroke: #000001;
      stroke-width: 0.1;
      stroke-miterlimit: 10;
    }

    .st-1 {
      fill: #F78D36;
      stroke: #000001;
      stroke-width: 0.1;
      stroke-miterlimit: 10;
    }

    .st-2 {
      fill: #FFFFFF;
      stroke: #000001;
      stroke-width: 0.1;
      stroke-miterlimit: 10;
    }

    .st-3 {
      fill: #231F20;
      stroke: #000001;
      stroke-width: 0.1;
      stroke-miterlimit: 10;
    }
  </style>
  <path class="st-0" d="M541.6,217.1c-85.3-17-41.7,48.2-90.5,55.8c-26-15.9-52.9-17.8-76.1-18.2c-34.6-0.6-64.7,30.9-80.9,62.7
	c-5.7,11.2-8.6,23.9-10.6,36.3c-1.1,6.5-1.9,13.1-2.5,19.7c0,3.5,0,7.1-0.4,10.5c-0.7,5.1-1.9,5.9-6.6,8c-9.9,4.3-20.8,6-31.6,4.6
	c-34.6-4.5-61.7-40.4-97.8-35.7c-62.6,8.2-61.4,157.5,8.2,171.2c39.6,7.8,76.8-34.6,117.8-34.7c6.4,3.1,14.6,1.7,19.7-3.3
	c6.3-6.3,6.8-16.2,8.5-25c1.6-7.9,4.6-15.6,5.1-23.6c0.4-6.1-0.6-12.1-1.7-18.1c-1.6-9.2-3.3-18.3-4.7-27.5
	c-1-6.6,6.2-13.2,11.2-17.2c10.9-8.6,22.1-16.9,32.9-25.6c49.5-40,108.2-79.2,173.6-84.2c33.3-2.5,67.5,3.3,100.4,8.1
	c25.3,3.7,28.1,5,43.4,6.6C632.2,254.7,596.2,228,541.6,217.1z" />
  <path class="st-1"
    d="M665.9,287.9c-2.5-1.2-5-2.4-7.6-3.5c-30.5-30.2-80.4-58.2-120.8-58.7c-37.2-0.5-22.5,28.5-45,41.4
	c-1,0.6-2,1.2-3,1.7c-13.3,2.9-26.5,6.7-39.7,11.2c-1.5-0.3-3.1-0.8-4.7-1.3c-19.7-10.3-46.6-16-62.6-15.4
	c-42.4,1.6-81.9,50.6-87.5,101.9c-0.8,7.7-1,13.9-0.8,18.9c-9.3,5.6-19.4,9.6-28.1,16c-1.2,0.9-2.3,1.9-3.4,2.8
	c-2.9,2.5-6.3,4.4-10,5.7c0.1-0.2,0.1-0.5,0.2-0.7c-28.1,4-85.5-42-112.4,8.1c-15,28-2.2,99.4,46.3,89.2c11.8-2.5,23.5-5.6,35.2-8.6
	c8.9-2.3,18-3.6,26.9-5.9c3.6-1,7.7-3.3,11.3-2.9c4.1,0.4,8.9,3.5,12.4,5.4c4.4,2.4,7.7,3,12.3,4.5c1,0.3,2,0.7,3,1.1
	c13.8,49.4,89.1,79.2,144.3,70.5c11.2-1.8,21-2.9,30.3-3c11,1.9,21.8,3.4,32.6,4.5c5.8,1.7,11.8,3.9,18.3,6.7
	c26.9,11.7,49.4,14.4,79.4,11.9c26.9-2.2,49.8-12.7,65.1-28.9c17.5-3.3,35.6-7.3,54.5-11.8c10.9-2.6,34.7-7.5,40.8-17.4
	c6.5-10.5-5.2-20.3-13-35.6c17.9,4.5,35.6,1.6,44.5-1.7c10.7-4,19.1-9.9,21.9-21.5C812.1,449.7,760.8,333.8,665.9,287.9z" />
  <path class="st-2"
    d="M603.2,390.4c-3,16.6-8.2,54.2-5.4,88.5c1.8,22.3,23.7,80.1,34.4,100.2c6-0.9,12.8-7.7,35.9-21
	c-15.4-29-17.5-74.5-18.1-92.5c-1.5-46.6,14-126.7,43.9-161.5c-13.4-9.5-27.9-17.7-37.4-20.6C635.8,288.1,612.9,336.5,603.2,390.4z" />
  <path class="st-2" d="M450,280.2c-3.6,2.6-6.4,6.7-9,10.3c-6.5,9-11.6,18.9-15.5,29.3c-9.9,26.1-13.2,54.6-13.7,82.3
	c-0.5,30,2.4,60.1,7.5,89.6c4.5,25.9,10.7,51.7,19.6,76.6c19.3,4.3,30.5-6.9,74.6,9.2c-12.5-31.5-10.1-59.3,0-84.1
	c8.2-20.1,29.6-30.2,28-58.8c-0.9-16.4-14.5-38.2-20.9-52.7c-2.3-5.2-4.4-10.5-6.4-15.8c-6.3-16.8-11.3-34.3-13.7-52.1
	c-1.2-8.5-1.8-17.1-1.4-25.7c0.3-6.2,2.3-12,3.1-18.1c1-7.2-5-5.3-10.1-4.1c-2.3,0.5-4.6,1.2-6.9,1.9c-6.7,2-13.4,4-20,6
	C460.3,275.5,454.2,277.2,450,280.2z" />
  <path class="st-2" d="M301,523.7c-13-6.3-22.5-25.6-39.7-25.9c-10.3-15.5-11.5-38.8-12-56.7c-0.3-11.5,0.2-23.2,2.5-34.6
	c0.7-3.4,1.6-8.1,4.7-10.1c3.4-2.1,8.6-2.4,12.4-3.5c4.7-1.3,9-2.9,13.3-5.2c6.5-3.4,12.5-7.8,19.2-10.9c7.7-3.6,7.8-2.6,10.1,4.7
	c1.7,5.5,3.2,11,4.4,16.6c3,13.3,4.9,26.8,5.4,40.5C322.4,468,317.6,498.8,301,523.7z" />
  <g>
    <path class="st-0" d="M491.4,434.5c-9.1,22-12.5,63.1,1.2,82.9c14.6,21,33.3,14,53.4,4c13.8-6.8,32.4-17.5,37.2-23.3
		c1.4-3.9-1-22.1,0-37C570.8,434.5,510.8,387.8,491.4,434.5z" />
    <path class="st-1" d="M534,426.6c-20.1-8.7-35.8,8.3-39.5,29.5c-3,17.1-3.7,48,8.7,61.9c14.1,16,38.4,4.4,53.5-2.7
		c17.3-8.1,24.5-10.9,26.5-15.9c2.4-6,2.4-17.1,2.1-31.3C584.9,450.3,548.8,433.1,534,426.6z" />
  </g>
  <g>
    <path class="st-2" d="M753.8,442.7c0,16.4-13.3,29.7-29.7,29.7c-16.4,0-29.6-13.3-29.6-29.7c0-16.4,13.3-29.6,29.6-29.6
		C740.5,413,753.8,426.3,753.8,442.7z" />
    <ellipse class="st-3" cx="726.9" cy="455" rx="8.6" ry="8.6" />
  </g>
</svg>