<?xml version="1.0" encoding="iso-8859-1"?>
<!-- Generator: Adobe Illustrator 19.0.0, SVG Export Plug-In . SVG Version: 6.00 Build 0)  -->
<svg version="1.1" id="Layer_1" xmlns="http://www.w3.org/2000/svg" xmlns:xlink="http://www.w3.org/1999/xlink" x="0px" y="0px"
	 viewBox="0 0 512 512" style="enable-background:new 0 0 512 512;" xml:space="preserve">
<rect x="340.3" y="37.191" style="fill:#E8594F;" width="161.782" height="120.252"/>
<rect x="9.918" y="37.191" style="fill:#EFEFEF;" width="330.383" height="120.252"/>
<g>
	<path style="fill:#231F20;" d="M502.082,27.274H340.3H9.918C4.441,27.274,0,31.714,0,37.191v120.252
		c0,5.477,4.441,9.918,9.918,9.918H340.3h161.782c5.477,0,9.918-4.441,9.918-9.918V37.191C512,31.714,507.559,27.274,502.082,27.274
		z M19.835,47.109h310.547v100.416H19.835V47.109z M492.165,147.525H350.218V47.109h141.947V147.525z"/>
	<path style="fill:#231F20;" d="M407.245,125.831c8.855,0,16.897-3.527,22.811-9.243l25.54,14.735
		c1.562,0.901,3.265,1.329,4.946,1.329c3.429,0,6.764-1.78,8.601-4.964c2.737-4.744,1.111-10.809-3.635-13.546l-25.999-14.999
		c0.381-1.998,0.588-4.058,0.588-6.164c0-18.115-14.738-32.852-32.852-32.852s-32.852,14.738-32.852,32.852
		S389.13,125.831,407.245,125.831z M407.245,79.961c7.178,0,13.017,5.839,13.017,13.017s-5.839,13.017-13.017,13.017
		s-13.017-5.839-13.017-13.017S400.067,79.961,407.245,79.961z"/>
	<path style="fill:#231F20;" d="M163.022,88.019H51.448c-5.477,0-9.918,4.441-9.918,9.918s4.441,9.918,9.918,9.918h111.574
		c5.477,0,9.918-4.441,9.918-9.918S168.499,88.019,163.022,88.019z"/>
	<path style="fill:#231F20;" d="M288.232,88.019h-83.061c-5.477,0-9.918,4.441-9.918,9.918s4.441,9.918,9.918,9.918h83.061
		c5.477,0,9.918-4.441,9.918-9.918S293.71,88.019,288.232,88.019z"/>
	<path style="fill:#231F20;" d="M163.022,250.421c5.477,0,9.918-4.441,9.918-9.918s-4.441-9.918-9.918-9.918H51.448
		c-5.477,0-9.918,4.441-9.918,9.918s4.441,9.918,9.918,9.918H163.022z"/>
	<path style="fill:#231F20;" d="M288.232,250.421c5.477,0,9.918-4.441,9.918-9.918s-4.441-9.918-9.918-9.918h-83.061
		c-5.477,0-9.918,4.441-9.918,9.918s4.441,9.918,9.918,9.918H288.232z"/>
	<path style="fill:#231F20;" d="M12.397,230.586c-2.603,0-5.17,1.054-7.017,2.901c-1.847,1.847-2.901,4.401-2.901,7.017
		c0,2.616,1.054,5.17,2.901,7.017c1.847,1.847,4.413,2.901,7.017,2.901s5.17-1.054,7.017-2.901c1.847-1.847,2.901-4.413,2.901-7.017
		c0-2.603-1.054-5.17-2.901-7.017C17.567,231.64,15,230.586,12.397,230.586z"/>
	<path style="fill:#231F20;" d="M497.124,280.174H45.869c-5.477,0-9.918,4.441-9.918,9.918c0,5.477,4.441,9.918,9.918,9.918h451.254
		c5.477,0,9.918-4.441,9.918-9.918C507.041,284.615,502.601,280.174,497.124,280.174z"/>
	<path style="fill:#231F20;" d="M497.124,314.886H45.869c-5.477,0-9.918,4.441-9.918,9.918c0,5.477,4.441,9.918,9.918,9.918h451.254
		c5.477,0,9.918-4.441,9.918-9.918C507.041,319.327,502.601,314.886,497.124,314.886z"/>
	<path style="fill:#231F20;" d="M163.022,400.426c5.477,0,9.918-4.441,9.918-9.918c0-5.477-4.441-9.918-9.918-9.918H51.448
		c-5.477,0-9.918,4.441-9.918,9.918c0,5.477,4.441,9.918,9.918,9.918H163.022z"/>
	<path style="fill:#231F20;" d="M288.232,400.426c5.477,0,9.918-4.441,9.918-9.918c0-5.477-4.441-9.918-9.918-9.918h-83.061
		c-5.477,0-9.918,4.441-9.918,9.918c0,5.477,4.441,9.918,9.918,9.918H288.232z"/>
	<path style="fill:#231F20;" d="M12.397,380.591c-2.616,0-5.17,1.054-7.017,2.901s-2.901,4.401-2.901,7.017
		c0,2.616,1.054,5.17,2.901,7.017c1.847,1.847,4.413,2.901,7.017,2.901s5.17-1.054,7.017-2.901c1.847-1.847,2.901-4.413,2.901-7.017
		c0-2.616-1.054-5.17-2.901-7.017C17.567,381.645,15.013,380.591,12.397,380.591z"/>
	<path style="fill:#231F20;" d="M497.124,430.179H45.869c-5.477,0-9.918,4.441-9.918,9.918c0,5.477,4.441,9.918,9.918,9.918h451.254
		c5.477,0,9.918-4.441,9.918-9.918C507.041,434.62,502.601,430.179,497.124,430.179z"/>
	<path style="fill:#231F20;" d="M497.124,464.891H45.869c-5.477,0-9.918,4.441-9.918,9.918c0,5.477,4.441,9.918,9.918,9.918h451.254
		c5.477,0,9.918-4.441,9.918-9.918C507.041,469.332,502.601,464.891,497.124,464.891z"/>
</g>
<g>
</g>
<g>
</g>
<g>
</g>
<g>
</g>
<g>
</g>
<g>
</g>
<g>
</g>
<g>
</g>
<g>
</g>
<g>
</g>
<g>
</g>
<g>
</g>
<g>
</g>
<g>
</g>
<g>
</g>
</svg>
