<?xml version="1.0" standalone="no"?>
<!DOCTYPE svg PUBLIC "-//W3C//DTD SVG 20010904//EN" "http://www.w3.org/TR/2001/REC-SVG-20010904/DTD/svg10.dtd">
<svg version="1.0" xmlns="http://www.w3.org/2000/svg" width="2178.000000pt" height="1306.000000pt"
  viewBox="0 0 2178.000000 1306.000000" preserveAspectRatio="xMidYMid meet">

  <g transform="translate(0.000000,1306.000000) scale(0.100000,-0.100000)" stroke="none">
    <path d="M11035 11305 c-260 -30 -451 -88 -713 -218 -197 -98 -345 -196 -482
-321 -83 -76 -202 -154 -247 -162 -48 -9 -171 33 -432 148 -331 146 -564 219
-851 267 -283 48 -696 53 -990 12 -699 -98 -1318 -382 -1764 -811 -169 -162
-279 -302 -430 -546 -48 -78 -103 -156 -122 -175 l-35 -33 -50 17 c-28 10
-148 64 -267 119 -262 121 -379 167 -537 213 -410 117 -867 124 -1307 19 -536
-127 -1053 -439 -1403 -846 -263 -306 -414 -633 -471 -1019 -13 -90 -15 -159
-11 -334 6 -257 17 -329 107 -703 39 -160 58 -258 52 -265 -91 -119 -270 -371
-307 -431 -91 -152 -150 -315 -182 -501 -26 -156 -26 -606 0 -745 80 -433 260
-785 551 -1076 231 -231 451 -365 785 -478 267 -91 297 -119 376 -351 41 -121
112 -268 173 -358 140 -207 364 -397 592 -500 185 -84 485 -158 710 -176 216
-18 359 13 749 159 124 46 199 69 207 64 7 -5 110 -116 229 -247 340 -373 526
-527 845 -696 374 -199 791 -314 1275 -352 208 -16 636 -6 825 20 549 75 1006
264 1368 565 51 42 162 144 247 226 219 211 276 239 418 205 40 -9 178 -59
307 -111 363 -144 484 -173 748 -181 179 -6 296 5 462 42 354 78 739 311 972
588 148 174 238 349 338 657 37 113 76 224 88 247 43 83 99 100 221 63 179
-53 421 -78 599 -61 438 43 802 228 1165 595 264 267 435 530 531 817 60 183
71 257 71 499 -1 264 -12 320 -126 665 -43 131 -79 242 -79 246 0 4 64 69 141
145 255 250 384 417 479 619 178 378 223 784 134 1223 -84 420 -246 717 -563
1032 -284 284 -456 379 -861 479 -213 52 -319 69 -516 79 -142 8 -166 12 -205
33 -56 31 -91 89 -148 244 -140 377 -384 674 -756 922 -385 256 -880 429
-1350 473 -145 13 -422 11 -560 -5z m633 -475 c311 -22 439 -50 657 -145 633
-275 981 -664 1198 -1340 31 -97 58 -191 97 -344 l12 -44 33 77 c40 92 75 140
118 162 27 14 54 16 182 11 234 -10 416 -57 650 -172 152 -74 231 -124 337
-212 135 -112 210 -207 291 -369 223 -444 231 -997 22 -1440 -77 -165 -206
-332 -422 -550 -193 -194 -403 -360 -556 -439 -21 -11 -43 -26 -49 -32 -15
-18 85 -17 305 3 98 9 180 15 182 12 10 -9 95 -359 111 -453 23 -139 23 -398
0 -530 -77 -430 -324 -781 -710 -1007 -176 -104 -338 -153 -606 -184 -184 -21
-550 -25 -633 -6 -55 13 -60 17 -95 70 -44 69 -105 206 -176 396 -30 79 -61
156 -69 172 -14 27 -15 24 -21 -76 -3 -58 -8 -170 -11 -250 -27 -690 -236
-1137 -680 -1455 -148 -106 -316 -176 -517 -217 -103 -21 -141 -23 -418 -23
-337 0 -403 7 -587 66 -234 75 -430 201 -753 485 -58 51 -128 111 -157 134
l-52 41 19 -69 c10 -37 51 -167 89 -288 39 -121 71 -223 71 -226 0 -8 -257
-231 -340 -295 -273 -211 -765 -472 -1021 -542 -187 -52 -386 -71 -739 -71
-512 0 -771 39 -1165 177 -446 156 -852 393 -1102 642 -93 93 -171 198 -192
260 -16 50 -14 107 9 190 12 40 19 75 18 76 -2 2 -64 -42 -138 -96 -168 -125
-241 -172 -356 -236 -283 -155 -546 -222 -824 -210 -334 16 -637 132 -831 318
-211 204 -328 518 -384 1034 -23 219 -16 210 -86 106 -101 -152 -160 -185
-285 -156 -80 18 -297 120 -406 191 -323 209 -635 595 -738 914 -101 313 -83
863 40 1241 29 88 115 269 128 269 4 -1 23 -14 42 -31 l35 -29 11 32 c9 27 9
36 -4 51 -14 15 -13 17 5 17 12 0 49 -21 83 -47 112 -85 104 -81 98 -58 -3 11
-20 67 -36 125 -182 620 -184 1188 -6 1720 195 586 590 1005 1144 1214 485
183 1090 208 1645 66 267 -68 432 -134 854 -341 156 -77 285 -139 287 -137 1
2 -13 28 -31 58 -19 30 -40 78 -46 106 -11 47 -10 55 17 114 35 79 157 252
259 369 278 319 731 611 1210 780 198 70 515 142 760 172 150 19 503 16 660
-5 183 -24 411 -78 615 -146 411 -136 601 -234 665 -345 49 -82 57 -127 64
-340 l6 -200 37 56 c20 31 71 119 114 195 144 260 280 441 468 622 262 252
473 365 760 407 113 16 626 19 834 5z m-10474 -4364 c-3 -9 -10 -16 -15 -16
-6 0 -5 9 1 21 13 24 24 20 14 -5z" />
    <path d="M9390 8378 c-96 -28 -172 -62 -190 -85 -25 -32 -27 -140 -6 -278 8
-49 11 -93 7 -96 -3 -4 -37 -12 -76 -18 -120 -20 -135 -27 -135 -66 0 -57 7
-65 59 -65 25 0 75 5 110 10 35 6 66 9 69 6 2 -3 17 -76 32 -163 29 -163 77
-394 85 -401 6 -6 104 9 109 17 3 4 -15 130 -40 280 -25 151 -43 278 -41 284
2 6 44 18 94 29 51 10 104 23 119 28 25 10 26 13 20 57 -3 26 -8 48 -11 51 -2
2 -55 -3 -117 -12 -62 -9 -118 -16 -124 -16 -6 0 -18 59 -29 136 -22 160 -28
147 92 192 77 29 81 35 62 91 -12 34 -26 37 -89 19z" />
    <path d="M10082 7915 c-37 -52 -56 -56 -128 -25 -70 31 -128 36 -159 16 -28
-19 -85 -92 -85 -111 0 -6 13 -21 30 -33 l30 -22 26 39 c14 22 32 42 41 45 8
3 42 -5 76 -18 93 -36 121 -40 162 -20 36 17 109 109 99 125 -2 5 -17 17 -33
28 l-28 20 -31 -44z" />
    <path d="M7094 7943 c-20 -4 -21 -12 -28 -203 -4 -109 -9 -209 -11 -222 -2
-12 -6 -59 -10 -103 -7 -94 -30 -258 -47 -333 -11 -51 -12 -52 -30 -35 -11 10
-60 72 -110 138 -153 202 -171 214 -224 152 -16 -17 -72 -114 -124 -214 -52
-101 -97 -183 -100 -183 -9 0 -137 223 -199 346 -60 123 -197 436 -221 507
-10 33 -16 38 -34 33 -11 -3 -28 -6 -37 -6 -8 0 -23 -6 -33 -13 -17 -12 -15
-21 29 -151 133 -394 417 -916 499 -916 24 0 73 74 182 273 53 98 100 174 104
170 4 -4 42 -53 83 -108 145 -193 209 -251 254 -234 61 23 118 247 143 559 17
198 15 531 -2 541 -13 9 -46 10 -84 2z" />
    <path d="M8473 7805 c-176 -55 -273 -211 -251 -403 20 -181 160 -312 332 -312
70 0 157 22 176 45 10 12 10 21 0 45 -19 45 -31 51 -75 35 -158 -56 -310 64
-307 241 1 108 51 191 140 232 47 21 64 24 123 19 75 -6 79 -4 93 56 6 25 3
29 -28 42 -43 18 -146 18 -203 0z" />
    <path d="M8763 7728 c-36 -40 -36 -47 1 -90 38 -45 76 -132 76 -176 0 -48 -20
-100 -56 -147 l-34 -46 26 -34 c14 -19 33 -35 42 -35 28 0 99 85 122 147 44
116 9 264 -84 357 -52 52 -64 55 -93 24z" />
    <path d="M7672 7679 c-64 -12 -159 -67 -202 -117 -124 -140 -114 -374 22 -511
65 -67 135 -95 233 -95 79 0 162 25 179 53 4 5 -2 28 -14 50 l-20 40 -37 -15
c-59 -25 -145 -21 -196 10 -71 41 -112 108 -123 199 -17 145 89 278 224 281
31 0 69 -2 84 -7 25 -7 28 -4 39 32 6 22 9 46 6 55 -12 31 -106 43 -195 25z" />
    <path d="M7926 7589 c-14 -17 -26 -35 -26 -41 0 -6 14 -26 31 -46 74 -84 93
-188 49 -275 -13 -26 -32 -55 -42 -64 -24 -22 -23 -32 11 -73 l29 -34 37 28
c144 110 149 344 9 483 -29 29 -57 53 -62 53 -6 0 -22 -14 -36 -31z" />
    <path d="M11771 6403 c-7 -15 -17 -41 -22 -56 -8 -27 -5 -30 37 -48 25 -11 60
-23 78 -26 31 -5 34 -3 49 36 24 60 22 66 -30 89 -85 36 -98 37 -112 5z" />
    <path d="M10854 6375 c-10 -24 34 -818 54 -985 7 -51 9 -55 36 -58 15 -2 39
-1 52 2 22 6 24 11 24 71 0 68 -34 619 -50 815 -5 63 -10 127 -10 143 0 26 -2
27 -50 27 -35 0 -52 -4 -56 -15z" />
    <path d="M14036 6291 c-33 -106 -79 -330 -97 -467 -14 -109 -12 -114 54 -114
32 0 39 4 48 28 62 161 148 609 121 626 -6 3 -30 9 -54 12 l-44 6 -28 -91z" />
    <path d="M10410 6141 l0 -180 -57 -6 c-108 -12 -113 -14 -113 -45 0 -56 6 -60
86 -60 41 0 74 -1 75 -2 0 -2 4 -109 8 -239 8 -258 13 -278 69 -300 46 -18
207 18 250 56 2 2 0 19 -3 39 -8 39 -24 45 -81 27 -111 -35 -108 -41 -114 209
-3 115 -3 210 0 210 29 1 199 22 213 26 11 3 17 15 17 34 0 59 -3 60 -120 60
l-107 0 -7 53 c-3 28 -6 107 -6 175 l0 122 -55 0 -55 0 0 -179z" />
    <path d="M13172 6039 c-131 -22 -222 -116 -252 -264 -33 -161 35 -319 162
-376 79 -35 202 -34 278 2 30 15 64 33 75 42 19 14 19 15 1 56 -11 22 -20 41
-21 41 -1 0 -23 -9 -47 -20 -123 -54 -228 -44 -287 27 -76 93 -61 248 33 330
69 61 151 67 249 17 l52 -25 17 21 c29 36 23 63 -24 97 -70 49 -148 66 -236
52z" />
    <path d="M12103 6033 c-16 -6 -17 -128 -3 -408 13 -264 11 -255 65 -255 23 0
48 6 54 14 7 8 9 44 6 102 -3 49 -10 186 -16 304 -6 118 -15 223 -20 233 -9
16 -57 22 -86 10z" />
    <path d="M12403 6025 c-45 -13 -128 -59 -138 -75 -7 -11 18 -75 33 -84 5 -3
39 8 75 25 90 41 160 47 211 17 62 -37 81 -84 79 -198 0 -52 -8 -142 -17 -200
-15 -98 -15 -106 1 -117 9 -7 32 -13 50 -13 27 0 36 5 44 28 35 88 53 355 30
439 -19 69 -70 134 -130 165 -44 23 -65 28 -125 27 -39 0 -90 -6 -113 -14z" />
    <path d="M11777 6023 c-9 -8 -7 -532 1 -598 l7 -50 55 0 55 0 3 225 c2 124 0
271 -3 328 l-7 102 -52 0 c-29 0 -56 -3 -59 -7z" />
    <path d="M11221 6009 c-59 -11 -170 -64 -178 -84 -3 -9 2 -33 11 -52 12 -26
21 -33 34 -28 9 4 51 18 92 32 85 29 156 27 200 -5 37 -27 68 -95 76 -169 6
-57 -8 -239 -22 -300 -5 -18 0 -23 33 -32 57 -16 60 -15 77 37 44 126 42 345
-2 446 -53 119 -183 182 -321 155z" />
    <path d="M7070 5976 c-5 -15 -10 -41 -10 -57 0 -34 21 -45 104 -55 50 -6 53
-5 59 17 4 13 7 39 7 57 0 37 -21 49 -102 59 -45 5 -48 4 -58 -21z" />
    <path d="M13497 5843 c-4 -54 -7 -209 -7 -345 0 -136 -4 -258 -9 -271 -11 -29
-50 -44 -137 -53 l-64 -7 0 -43 0 -43 53 -6 c100 -12 221 20 251 68 18 28 32
462 21 661 l-7 136 -48 0 -47 0 -6 -97z" />
    <path d="M9740 5914 c-207 -55 -308 -295 -209 -494 36 -71 102 -132 166 -154
82 -28 234 -16 256 20 3 5 -2 26 -10 47 -12 29 -20 36 -32 31 -32 -14 -120
-16 -156 -4 -56 18 -112 82 -131 148 -35 120 13 239 118 293 41 21 129 26 172
9 23 -8 28 -6 41 20 27 52 21 68 -37 85 -63 18 -106 18 -178 -1z" />
    <path d="M9012 5844 c-63 -17 -99 -34 -141 -70 -37 -31 -39 -54 -8 -89 l23
-27 64 35 c129 70 199 70 259 2 45 -52 53 -97 50 -294 l-3 -175 33 -7 c59 -12
68 -4 81 73 19 110 9 329 -18 398 -53 136 -185 196 -340 154z" />
    <path d="M10016 5822 c-32 -35 -32 -45 -1 -86 13 -18 31 -52 40 -75 29 -84 15
-148 -50 -220 l-37 -40 27 -36 c15 -19 31 -35 35 -35 4 0 25 13 47 29 27 19
51 51 72 92 52 105 39 227 -36 333 -46 64 -64 72 -97 38z" />
    <path d="M8671 5811 c-10 -7 -12 -25 -6 -82 8 -91 52 -422 66 -506 l11 -63 49
0 c35 0 51 5 55 15 8 21 -63 562 -82 628 -6 19 -67 24 -93 8z" />
    <path d="M7663 5699 c-104 -20 -185 -83 -199 -154 -10 -54 19 -120 67 -152 21
-14 89 -39 151 -57 130 -37 173 -59 189 -98 9 -23 8 -32 -6 -54 -39 -60 -128
-67 -233 -19 -30 14 -58 22 -63 19 -5 -3 -16 -19 -25 -36 -16 -30 -15 -32 7
-50 63 -48 111 -63 204 -63 78 0 98 4 140 26 93 47 127 139 84 226 -31 62 -69
86 -193 123 -152 46 -167 53 -189 82 -27 36 -13 68 40 94 58 28 208 26 287 -5
65 -26 79 -21 91 32 7 25 4 29 -47 52 -92 42 -203 55 -305 34z" />
    <path d="M7148 5613 c-10 -2 -18 -11 -18 -18 0 -54 70 -505 92 -592 10 -41 12
-43 48 -43 57 0 70 8 70 42 0 37 -66 481 -83 558 l-12 55 -40 2 c-22 0 -48 -1
-57 -4z" />
    <path d="M13877 5538 c-14 -18 -35 -53 -47 -76 -20 -41 -20 -45 -5 -62 17 -19
126 -80 143 -80 13 0 68 86 83 129 13 36 9 40 -66 85 -68 41 -80 41 -108 4z" />
    <path d="M6070 5435 c-183 -52 -275 -204 -241 -401 36 -203 195 -298 421 -250
76 16 183 72 188 98 1 7 -7 28 -18 45 l-19 33 -71 -35 c-82 -38 -174 -53 -235
-36 -43 11 -115 65 -115 85 0 7 32 20 78 30 124 30 312 83 375 106 54 20 57
23 57 55 0 94 -85 216 -178 257 -61 27 -169 33 -242 13z m213 -125 c36 -25 87
-103 75 -115 -6 -6 -395 -115 -410 -115 -14 0 -9 79 7 116 19 46 48 83 88 110
44 29 61 33 138 31 52 -2 74 -8 102 -27z" />
    <path d="M5500 5323 c-56 -10 -169 -74 -218 -124 l-50 -51 -17 47 c-17 44 -19
46 -49 39 -59 -12 -69 -22 -61 -62 10 -55 128 -404 170 -505 40 -95 36 -92
107 -65 34 13 36 0 -49 253 l-65 190 60 55 c71 66 146 105 242 128 65 15 70
18 70 43 0 52 -8 59 -64 58 -28 -1 -62 -4 -76 -6z" />
    <path d="M4633 5066 c-96 -31 -169 -92 -215 -179 -33 -62 -33 -207 1 -295 31
-81 91 -143 166 -171 130 -49 320 -3 421 100 38 39 38 40 22 67 -28 45 -44 50
-75 21 -69 -64 -185 -106 -262 -95 -43 6 -121 47 -121 64 0 5 74 42 165 82
186 82 315 154 315 174 0 29 -40 106 -76 146 -64 71 -114 94 -213 97 -54 2
-102 -2 -128 -11z m201 -120 c35 -18 86 -80 75 -90 -19 -17 -390 -182 -394
-176 -12 20 -6 118 10 155 51 124 193 174 309 111z" />
    <path d="M3402 4935 c-18 -8 -35 -21 -38 -29 -9 -23 428 -883 470 -924 11 -12
20 -10 55 7 22 12 41 27 41 33 0 29 -470 927 -485 927 -5 0 -25 -6 -43 -14z" />
    <path d="M3025 4707 c-322 -190 -675 -420 -675 -440 0 -7 12 -28 28 -46 l27
-33 68 37 c188 99 757 468 757 491 0 27 -30 74 -48 74 -9 -1 -80 -38 -157 -83z" />
    <path d="M3934 4756 c-75 -24 -159 -93 -203 -166 l-20 -34 26 -28 c15 -15 31
-28 36 -28 6 0 36 25 68 55 122 117 221 126 303 28 37 -44 90 -162 121 -268
14 -49 27 -90 29 -93 6 -5 70 8 85 18 11 6 11 20 2 72 -35 204 -135 380 -246
433 -50 23 -147 29 -201 11z" />
    <path d="M2837 4375 c-20 -14 -37 -31 -37 -39 0 -13 181 -286 273 -411 151
-205 218 -284 235 -278 33 12 72 44 72 60 0 30 -467 681 -495 690 -6 2 -27 -8
-48 -22z" />
    <path d="M16705 6809 c-137 -20 -254 -67 -386 -154 -279 -185 -407 -474 -344
-777 19 -89 77 -215 134 -285 180 -227 565 -362 924 -325 326 34 556 155 641
336 80 170 87 465 16 671 -60 173 -219 350 -395 438 -171 85 -404 123 -590 96z" />
    <path d="M18627 6574 c-107 -23 -231 -72 -290 -115 -98 -69 -202 -233 -228
-358 -27 -130 27 -250 176 -389 124 -116 273 -172 456 -172 197 0 350 52 459
156 81 77 110 137 110 229 0 129 -65 299 -164 431 -79 106 -164 163 -301 202
-100 29 -141 32 -218 16z" />
    <path d="M20050 6396 c-146 -42 -229 -127 -286 -293 -27 -79 -28 -81 -11 -124
22 -58 82 -135 135 -176 95 -72 287 -98 402 -54 72 27 166 103 204 164 68 110
40 204 -103 348 -126 126 -231 167 -341 135z" />
  </g>
</svg>