<?xml version="1.0" encoding="utf-8"?>
<svg version="1.1" id="Layer_1" x="0px" y="0px" viewBox="0 0 511.999 511.999" style="enable-background:new 0 0 511.999 511.999;" xmlns="http://www.w3.org/2000/svg">
  <g/>
  <g/>
  <g/>
  <g/>
  <g/>
  <g/>
  <g/>
  <g/>
  <g/>
  <g/>
  <g/>
  <g/>
  <g/>
  <g/>
  <g/>
  <title>number--2</title>
  <title>number--0</title>
  <g transform="matrix(0.096348, 0, 0, 0.132208, 261.097717, 394.03009)" style="">
    <polygon style="fill:#464F5D;" points="0,371.759 512,371.759 512,142.241 0,142.241 &#9;"/>
    <g>
      <path style="fill:#FFFFFF;" d="M158.897,265.83h-17.655c-4.882,0-8.828-3.946-8.828-8.828s3.946-8.828,8.828-8.828h17.655 c4.882,0,8.828,3.946,8.828,8.828S163.778,265.83,158.897,265.83"/>
      <path style="fill:#FFFFFF;" d="M94.897,265.83H64c-4.882,0-8.828-3.946-8.828-8.828s3.946-8.828,8.828-8.828h30.897 c4.882,0,8.828,3.946,8.828,8.828S99.778,265.83,94.897,265.83"/>
      <path style="fill:#FFFFFF;" d="M448,265.83h-30.897c-4.882,0-8.828-3.946-8.828-8.828s3.946-8.828,8.828-8.828H448 c4.882,0,8.828,3.946,8.828,8.828S452.882,265.83,448,265.83"/>
      <path style="fill:#FFFFFF;" d="M370.759,265.83h-17.655c-4.882,0-8.828-3.946-8.828-8.828s3.946-8.828,8.828-8.828h17.655 c4.882,0,8.828,3.946,8.828,8.828S375.64,265.83,370.759,265.83"/>
      <path style="fill:#FFFFFF;" d="M308.966,195.21H203.034c-4.882,0-8.828-3.946-8.828-8.828s3.946-8.828,8.828-8.828h105.931 c4.882,0,8.828,3.946,8.828,8.828S313.847,195.21,308.966,195.21"/>
      <path style="fill:#FFFFFF;" d="M308.966,230.52H203.034c-4.882,0-8.828-3.946-8.828-8.828s3.946-8.828,8.828-8.828h105.931 c4.882,0,8.828,3.946,8.828,8.828S313.847,230.52,308.966,230.52"/>
      <path style="fill:#FFFFFF;" d="M308.966,265.83H203.034c-4.882,0-8.828-3.946-8.828-8.828s3.946-8.828,8.828-8.828h105.931 c4.882,0,8.828,3.946,8.828,8.828S313.847,265.83,308.966,265.83"/>
      <path style="fill:#FFFFFF;" d="M308.966,301.141H203.034c-4.882,0-8.828-3.946-8.828-8.828s3.946-8.828,8.828-8.828h105.931 c4.882,0,8.828,3.946,8.828,8.828S313.847,301.141,308.966,301.141"/>
      <path style="fill:#FFFFFF;" d="M308.966,336.451H203.034c-4.882,0-8.828-3.946-8.828-8.828c0-4.882,3.946-8.828,8.828-8.828 h105.931c4.882,0,8.828,3.946,8.828,8.828C317.793,332.505,313.847,336.451,308.966,336.451"/>
    </g>
  </g>
  <rect id="rect-1" data-name="&lt;Transparent Rectangle&gt;" class="cls-1" width="249.525" height="245.042" style="fill: none;" x="274.45" y="217.087"/>
  <rect id="rect-2" data-name="&lt;Transparent Rectangle&gt;" class="cls-1" width="251.541" height="249.331" style="fill: none;" x="359.082" y="224.783"/>
  <rect id="rect-3" data-name="&lt;Transparent Rectangle&gt;" class="cls-1" width="251.541" height="249.331" style="fill: none;" x="443.284" y="213.832"/>
  <title>number--1</title>
  <rect id="rect-4" data-name="&lt;Transparent Rectangle&gt;" class="cls-2" width="261.693" height="249.236" style="fill: none;" x="547.783" y="225.524"/>
  <g transform="matrix(0.096873, 0, 0, 0.132538, 320.982391, 26.996265)" style="">
    <polygon style="fill:#464F5D;" points="0,371.759 512,371.759 512,142.241 0,142.241 &#9;"/>
    <path style="fill:#FFFFFF;" d="M102.78,265.83H68.732c-4.882,0-8.828-3.946-8.828-8.828s3.946-8.828,8.828-8.828h34.048 c4.873,0,8.828,3.946,8.828,8.828S107.653,265.83,102.78,265.83 M187.905,265.83h-34.048c-4.882,0-8.828-3.946-8.828-8.828 s3.946-8.828,8.828-8.828h34.048c4.873,0,8.828,3.946,8.828,8.828S192.778,265.83,187.905,265.83 M273.029,265.83h-34.057 c-4.873,0-8.828-3.946-8.828-8.828s3.955-8.828,8.828-8.828h34.057c4.873,0,8.828,3.946,8.828,8.828S277.902,265.83,273.029,265.83 M358.145,265.83h-34.048c-4.873,0-8.828-3.946-8.828-8.828s3.955-8.828,8.828-8.828h34.048c4.873,0,8.828,3.946,8.828,8.828 S363.018,265.83,358.145,265.83 M443.269,265.83h-34.048c-4.873,0-8.828-3.946-8.828-8.828s3.955-8.828,8.828-8.828h34.048 c4.882,0,8.828,3.946,8.828,8.828S448.151,265.83,443.269,265.83"/>
  </g>
  <g transform="matrix(0.097656, 0, 0, 0.134858, 181.333344, 113.642281)" style=""/>
  <g transform="matrix(0.097656, 0, 0, 0.134858, 181.333344, 113.642281)" style=""/>
  <g transform="matrix(0.097656, 0, 0, 0.134858, 181.333344, 113.642281)" style=""/>
  <g transform="matrix(0.097656, 0, 0, 0.134858, 181.333344, 113.642281)" style=""/>
  <g transform="matrix(0.097656, 0, 0, 0.134858, 181.333344, 113.642281)" style=""/>
  <g transform="matrix(0.097656, 0, 0, 0.134858, 181.333344, 113.642281)" style=""/>
  <g transform="matrix(0.097656, 0, 0, 0.134858, 181.333344, 113.642281)" style=""/>
  <g transform="matrix(0.097656, 0, 0, 0.134858, 181.333344, 113.642281)" style=""/>
  <g transform="matrix(0.097656, 0, 0, 0.134858, 181.333344, 113.642281)" style=""/>
  <g transform="matrix(0.097656, 0, 0, 0.134858, 181.333344, 113.642281)" style=""/>
  <g transform="matrix(0.097656, 0, 0, 0.134858, 181.333344, 113.642281)" style=""/>
  <g transform="matrix(0.097656, 0, 0, 0.134858, 181.333344, 113.642281)" style=""/>
  <g transform="matrix(0.097656, 0, 0, 0.134858, 181.333344, 113.642281)" style=""/>
  <g transform="matrix(0.097656, 0, 0, 0.134858, 181.333344, 113.642281)" style=""/>
  <g transform="matrix(0.097656, 0, 0, 0.134858, 181.333344, 113.642281)" style=""/>
  <g transform="matrix(0.203241, 0, 0, 0.245322, 369.295807, 37.041451)" style="">
    <path style="fill:#464F5D;" d="M256,36.31c141.383,0,256,114.617,256,256V477.69H388.414V292.31 c0-73.128-59.286-132.414-132.414-132.414H0V36.31H256z"/>
    <g>
      <path style="fill:#FFFFFF;" d="M 450.061 438.383 C 448.565 438.582 447.819 438.106 446.757 436.935 C 445.594 435.89 445.188 435.065 445.379 433.551 L 445.375 415.75 C 445.176 414.254 445.658 413.5 446.83 412.438 C 447.804 411.31 448.552 411.068 450.207 411.068 C 451.857 411.068 452.679 411.382 453.657 412.512 C 454.82 413.557 455.226 414.382 455.035 415.896 L 455.039 433.697 C 455.245 435.178 454.787 435.864 453.617 436.974 C 453.086 437.525 452.758 437.755 452.079 438.006 C 451.737 438.157 451.517 438.221 451.147 438.289 C 450.85 438.365 449.366 438.468 449.366 438.468"/>
      <path style="fill:#FFFFFF;" d="M 156.353 102.931 L 118.469 102.935 C 116.974 103.134 116.22 102.651 115.157 101.48 C 114.029 100.506 113.787 99.758 113.787 98.103 C 113.787 96.453 114.101 95.631 115.231 94.653 C 116.276 93.49 117.101 93.084 118.615 93.275 L 156.499 93.271 C 157.994 93.072 158.748 93.555 159.811 94.726 C 160.939 95.7 161.181 96.448 161.181 98.103 C 161.181 99.754 160.878 100.564 159.748 101.542 C 159.246 102.082 158.918 102.297 158.225 102.558 C 157.883 102.709 157.663 102.773 157.293 102.841 C 156.996 102.917 155.512 103.02 155.512 103.02 M 250.711 102.931 L 212.827 102.935 C 211.332 103.134 210.578 102.651 209.515 101.48 C 208.387 100.506 208.145 99.758 208.145 98.103 C 208.145 96.453 208.459 95.631 209.589 94.653 C 210.634 93.49 211.459 93.084 212.973 93.275 L 250.857 93.271 C 252.352 93.072 253.106 93.555 254.169 94.726 C 255.297 95.7 255.539 96.448 255.539 98.103 C 255.539 99.754 255.236 100.564 254.106 101.542 C 253.604 102.082 253.276 102.297 252.583 102.558 C 252.241 102.709 252.021 102.773 251.651 102.841 C 251.354 102.917 249.87 103.02 249.87 103.02 M 341.893 122.953 C 341.059 123.001 340.619 122.894 339.831 122.447 C 328.9 117.056 317.095 112.613 305.335 109.437 C 303.841 109.237 303.243 108.578 302.522 107.167 C 301.672 105.86 301.484 104.978 302.057 103.558 L 302.087 103.484 L 302.098 103.41 C 302.303 101.911 302.96 101.307 304.364 100.589 C 305.674 99.737 306.572 99.559 307.992 100.137 C 320.475 103.502 332.643 108.114 344.249 113.853 C 345.665 114.324 346.079 115.045 346.555 116.588 C 347.113 118.079 347.163 118.976 346.324 120.233 L 346.287 120.289 L 346.261 120.357 C 345.886 121.341 345.45 121.71 344.474 122.253 C 344.036 122.537 343.779 122.644 343.269 122.772 C 343.02 122.846 342.891 122.872 342.622 122.908 C 342.4 122.943 341.407 122.991 341.407 122.991 M 413.196 183.247 C 411.374 183.432 410.31 182.917 409.412 181.25 C 402.246 171.379 393.858 161.922 384.957 153.618 C 383.738 152.777 383.576 151.991 383.535 150.363 C 383.456 148.766 383.656 147.867 384.822 146.907 L 384.886 146.854 L 384.933 146.787 C 385.793 145.568 386.657 145.349 388.246 145.37 C 389.808 145.23 390.696 145.499 391.654 146.661 C 401.116 155.463 409.72 165.211 417.316 175.698 C 418.353 176.789 418.406 177.677 418.08 179.223 C 417.922 180.767 417.521 181.562 416.18 182.302 L 416.133 182.328 L 416.082 182.37 C 415.645 182.732 415.371 182.846 414.77 183.022 C 414.499 183.114 414.325 183.15 414.026 183.192 C 413.793 183.237 412.681 183.296 412.681 183.296 M 448.157 269.856 C 446.852 270.02 446.217 269.653 445.133 268.669 C 444.004 267.748 443.541 267.059 443.52 265.695 C 441.816 253.61 438.82 241.336 434.837 229.869 C 434.158 228.522 434.364 227.656 435.122 226.266 C 435.715 224.834 436.355 224.177 437.853 223.848 L 437.936 223.83 L 438.006 223.794 C 439.337 223.112 440.194 223.318 441.586 224.077 C 443.033 224.684 443.691 225.334 444.011 226.828 C 448.263 239.007 451.312 251.664 453.112 264.512 C 453.523 265.937 453.161 266.677 452.154 267.939 C 451.237 269.237 450.533 269.783 449.015 269.801 L 448.968 269.801 L 448.904 269.814 C 448.708 269.852 447.668 269.902 447.668 269.902 M 450.06 364.117 C 448.564 364.316 447.816 363.84 446.756 362.669 C 445.593 361.624 445.187 360.799 445.378 359.285 L 445.374 321.401 C 445.175 319.905 445.657 319.151 446.829 318.089 C 447.803 316.961 448.551 316.719 450.206 316.719 C 451.856 316.719 452.678 317.033 453.656 318.163 C 454.819 319.208 455.225 320.033 455.034 321.547 L 455.038 359.431 C 455.237 360.927 454.771 361.663 453.601 362.724 C 453.099 363.264 452.771 363.479 452.078 363.74 C 451.736 363.891 451.516 363.955 451.146 364.023 C 450.849 364.099 449.365 364.202 449.365 364.202"/>
      <path style="fill:#FFFFFF;" d="M 61.793 102.931 L 43.992 102.935 C 42.497 103.134 41.743 102.651 40.68 101.48 C 39.552 100.506 39.31 99.758 39.31 98.103 C 39.31 96.453 39.624 95.631 40.754 94.653 C 41.799 93.49 42.624 93.084 44.138 93.275 L 61.939 93.271 C 63.434 93.072 64.188 93.555 65.251 94.726 C 66.379 95.7 66.621 96.448 66.621 98.103 C 66.621 99.754 66.318 100.564 65.188 101.542 C 64.686 102.082 64.358 102.297 63.665 102.558 C 63.323 102.709 63.103 102.773 62.733 102.841 C 62.436 102.917 60.952 103.02 60.952 103.02"/>
    </g>
  </g>
  <g transform="matrix(0.097656, 0, 0, 0.10489, 207.469864, 6.690282)"/>
  <g transform="matrix(0.097656, 0, 0, 0.10489, 207.469864, 6.690282)"/>
  <g transform="matrix(0.097656, 0, 0, 0.10489, 207.469864, 6.690282)"/>
  <g transform="matrix(0.097656, 0, 0, 0.10489, 207.469864, 6.690282)"/>
  <g transform="matrix(0.097656, 0, 0, 0.10489, 207.469864, 6.690282)"/>
  <g transform="matrix(0.097656, 0, 0, 0.10489, 207.469864, 6.690282)"/>
  <g transform="matrix(0.097656, 0, 0, 0.10489, 207.469864, 6.690282)"/>
  <g transform="matrix(0.097656, 0, 0, 0.10489, 207.469864, 6.690282)"/>
  <g transform="matrix(0.097656, 0, 0, 0.10489, 207.469864, 6.690282)"/>
  <g transform="matrix(0.097656, 0, 0, 0.10489, 207.469864, 6.690282)"/>
  <g transform="matrix(0.097656, 0, 0, 0.10489, 207.469864, 6.690282)"/>
  <g transform="matrix(0.097656, 0, 0, 0.10489, 207.469864, 6.690282)"/>
  <g transform="matrix(0.097656, 0, 0, 0.10489, 207.469864, 6.690282)"/>
  <g transform="matrix(0.097656, 0, 0, 0.10489, 207.469864, 6.690282)"/>
  <g transform="matrix(0.097656, 0, 0, 0.10489, 207.469864, 6.690282)"/>
  <g transform="matrix(0, 0.202346, -0.211121, 0, 206.901917, 82.681023)" style="">
    <path style="fill:#4C8056;" d="M 901.133 -1045.031 C 878.716 -1018.731 893.581 -976.329 927.825 -972.677 C 929.6 -972.489 931.409 -972.387 933.235 -972.387 C 933.508 -972.387 933.79 -972.396 934.071 -972.396 C 970.525 -972.993 988.889 -1017.384 965.166 -1045.228 L 944.345 -1069.65 C 938.508 -1076.502 927.961 -1076.502 922.116 -1069.65 L 901.133 -1045.031 Z" transform="matrix(0, -1.008647, 0.991427, 0, 1947.955473, -82.37652)"/>
    <path style="fill:#804537;" d="M 988.133 -976.654 C 983.414 -976.654 979.6 -980.468 979.6 -985.187 L 979.6 -1061.987 C 979.6 -1066.706 983.414 -1070.52 988.133 -1070.52 C 992.852 -1070.52 996.666 -1066.706 996.666 -1061.987 L 996.666 -985.187 C 996.666 -980.468 992.852 -976.654 988.133 -976.654" transform="matrix(0, -1.008647, 0.991427, 0, 2002.944923, -26.909624)"/>
    <path style="fill:#71C285;" d="M 576.866 -1045.031 C 554.449 -1018.731 569.314 -976.329 603.558 -972.677 C 605.333 -972.489 607.142 -972.387 608.968 -972.387 C 609.241 -972.387 609.523 -972.396 609.804 -972.396 C 646.258 -972.993 664.622 -1017.384 640.899 -1045.228 L 620.078 -1069.65 C 614.241 -1076.502 603.694 -1076.502 597.849 -1069.65 L 576.866 -1045.031 Z" transform="matrix(0, -1.008647, 0.991427, 0, 1623.688444, -409.447486)"/>
    <path style="fill:#804537;" d="M 663.867 -976.654 C 659.148 -976.654 655.334 -980.468 655.334 -985.187 L 655.334 -1061.987 C 655.334 -1066.706 659.148 -1070.52 663.867 -1070.52 C 668.586 -1070.52 672.4 -1066.706 672.4 -1061.987 L 672.4 -985.187 C 672.4 -980.468 668.586 -976.654 663.867 -976.654" transform="matrix(0, -1.008647, 0.991427, 0, 1678.678931, -353.979543)"/>
    <path style="fill:#71C285;" d="M 901.133 -857.297 C 878.716 -830.997 893.581 -788.595 927.825 -784.943 C 929.6 -784.755 931.409 -784.653 933.235 -784.653 C 933.508 -784.653 933.79 -784.662 934.071 -784.662 C 970.525 -785.259 988.889 -829.65 965.166 -857.494 L 944.345 -881.916 C 938.508 -888.768 927.961 -888.768 922.116 -881.916 L 901.133 -857.297 Z" transform="matrix(0, -1.008647, 0.991427, 0, 1761.830914, 105.357458)"/>
    <path style="fill:#804537;" d="M 988.133 -788.92 C 983.414 -788.92 979.6 -792.734 979.6 -797.453 L 979.6 -874.253 C 979.6 -878.972 983.414 -882.786 988.133 -882.786 C 992.852 -882.786 996.666 -878.972 996.666 -874.253 L 996.666 -797.453 C 996.666 -792.735 992.852 -788.92 988.133 -788.92" transform="matrix(0, -1.008647, 0.991427, 0, 1816.820333, 160.824385)"/>
    <path style="fill:#4C8056;" d="M 576.866 -857.297 C 554.449 -830.997 569.314 -788.595 603.558 -784.943 C 605.333 -784.755 607.142 -784.653 608.968 -784.653 C 609.241 -784.653 609.523 -784.662 609.804 -784.662 C 646.258 -785.259 664.622 -829.65 640.899 -857.494 L 620.078 -881.916 C 614.241 -888.768 603.694 -888.768 597.849 -881.916 L 576.866 -857.297 Z" transform="matrix(0, -1.008647, 0.991427, 0, 1437.563885, -221.713508)"/>
    <path style="fill:#804537;" d="M 663.866 -788.92 C 659.147 -788.92 655.333 -792.734 655.333 -797.453 L 655.333 -874.253 C 655.333 -878.972 659.147 -882.786 663.866 -882.786 C 668.585 -882.786 672.399 -878.972 672.399 -874.253 L 672.399 -797.453 C 672.399 -792.735 668.585 -788.92 663.866 -788.92" transform="matrix(0, -1.008647, 0.991427, 0, 1492.553335, -166.24655)"/>
    <polygon style="fill:#464F5D;" points="796.313 -1262.621 548.847 -1262.621 548.847 -1143.154 736.58 -1143.154 736.58 -767.688 856.047 -767.688 856.047 -1143.154 1043.78 -1143.154 1043.78 -1262.621"/>
    <g transform="matrix(1, 0, 0, 1, 544.53009, -1262.619507)">
      <path style="fill:#FFFFFF;" d="M 64.05 64.267 L 46.828 64.272 C 45.447 64.486 44.865 64.055 43.775 62.942 C 42.712 61.924 42.45 61.274 42.45 59.734 C 42.45 58.194 42.712 57.544 43.775 56.526 C 44.851 55.423 45.586 54.996 46.983 55.201 L 64.205 55.196 C 65.586 54.982 66.168 55.413 67.258 56.526 C 68.321 57.544 68.583 58.194 68.583 59.734 C 68.583 61.274 68.321 61.923 67.258 62.942 C 66.742 63.467 66.443 63.684 65.806 63.918 C 65.484 64.061 65.28 64.119 64.929 64.183 C 64.651 64.255 63.208 64.356 63.208 64.356"/>
      <path style="fill:#FFFFFF;" d="M 145.675 64.267 L 112.871 64.272 C 111.49 64.486 110.908 64.055 109.818 62.942 C 108.755 61.924 108.493 61.274 108.493 59.734 C 108.493 58.194 108.755 57.544 109.818 56.526 C 110.894 55.423 111.629 54.996 113.026 55.201 L 145.83 55.196 C 147.211 54.982 147.793 55.413 148.883 56.526 C 149.946 57.544 150.208 58.194 150.208 59.734 C 150.208 61.274 149.946 61.924 148.883 62.942 C 148.367 63.467 148.068 63.684 147.431 63.918 C 147.109 64.061 146.905 64.119 146.554 64.183 C 146.276 64.255 144.833 64.356 144.833 64.356 M 227.296 64.267 L 194.494 64.272 C 193.091 64.473 192.411 64.019 191.399 62.9 C 190.324 61.982 190.114 61.307 190.114 59.734 C 190.114 58.167 190.399 57.417 191.476 56.491 C 192.469 55.382 193.225 55.01 194.647 55.201 L 227.451 55.196 C 228.832 54.982 229.414 55.413 230.504 56.526 C 231.567 57.544 231.829 58.194 231.829 59.734 C 231.829 61.274 231.567 61.924 230.504 62.942 C 229.988 63.467 229.689 63.684 229.052 63.918 C 228.73 64.061 228.526 64.119 228.175 64.183 C 227.897 64.255 226.454 64.356 226.454 64.356 M 308.917 64.267 L 276.122 64.272 C 274.741 64.486 274.159 64.055 273.069 62.942 C 272.006 61.924 271.744 61.274 271.744 59.734 C 271.744 58.194 272.006 57.544 273.069 56.526 C 274.145 55.423 274.88 54.996 276.277 55.201 L 309.072 55.196 C 310.453 54.982 311.035 55.413 312.125 56.526 C 313.188 57.544 313.45 58.194 313.45 59.734 C 313.45 61.274 313.188 61.924 312.125 62.942 C 311.609 63.467 311.31 63.684 310.673 63.918 C 310.351 64.061 310.147 64.119 309.796 64.183 C 309.518 64.255 308.075 64.356 308.075 64.356 M 390.539 64.267 L 357.735 64.272 C 356.354 64.486 355.772 64.055 354.682 62.942 C 353.619 61.924 353.357 61.274 353.357 59.734 C 353.357 58.194 353.619 57.545 354.682 56.526 C 355.757 55.423 356.493 54.996 357.89 55.201 L 390.694 55.196 C 392.075 54.982 392.657 55.413 393.747 56.526 C 394.81 57.544 395.072 58.194 395.072 59.734 C 395.072 61.274 394.81 61.923 393.747 62.942 C 393.231 63.467 392.932 63.684 392.295 63.918 C 391.973 64.061 391.769 64.119 391.418 64.183 C 391.14 64.255 389.697 64.356 389.697 64.356"/>
      <path style="fill:#FFFFFF;" d="M 456.583 64.267 L 439.361 64.272 C 437.98 64.486 437.398 64.055 436.308 62.942 C 435.245 61.924 434.983 61.274 434.983 59.734 C 434.983 58.194 435.245 57.544 436.308 56.526 C 437.384 55.423 438.119 54.996 439.516 55.201 L 456.738 55.196 C 458.119 54.982 458.701 55.413 459.791 56.526 C 460.854 57.544 461.116 58.194 461.116 59.734 C 461.116 61.274 460.854 61.923 459.791 62.942 C 459.275 63.467 458.976 63.684 458.339 63.918 C 458.017 64.061 457.813 64.119 457.462 64.183 C 457.184 64.255 455.741 64.356 455.741 64.356"/>
      <path style="fill:#FFFFFF;" d="M 251.628 235.88 C 250.247 236.094 249.676 235.651 248.575 234.55 C 247.486 233.461 247.045 232.739 247.25 231.342 L 247.245 193.265 C 247.031 191.884 247.462 191.302 248.575 190.212 C 249.593 189.149 250.243 188.887 251.783 188.887 C 253.323 188.887 253.972 189.149 254.991 190.212 C 256.094 191.287 256.521 192.023 256.316 193.42 L 256.321 231.497 C 256.535 232.879 256.093 233.448 254.991 234.55 C 254.47 235.07 254.176 235.292 253.539 235.526 C 253.217 235.669 253.013 235.727 252.662 235.791 C 252.384 235.863 250.941 235.964 250.941 235.964 M 251.628 330.693 C 250.247 330.907 249.676 330.464 248.575 329.363 C 247.486 328.274 247.045 327.552 247.25 326.155 L 247.245 288.078 C 247.031 286.697 247.462 286.115 248.575 285.025 C 249.593 283.962 250.243 283.7 251.783 283.7 C 253.323 283.7 253.973 283.962 254.991 285.025 C 256.094 286.101 256.521 286.836 256.316 288.233 L 256.321 326.307 C 256.521 327.717 256.087 328.375 254.969 329.386 C 254.493 329.899 254.194 330.093 253.539 330.339 C 253.216 330.482 253.015 330.54 252.664 330.604 C 252.385 330.676 250.942 330.777 250.942 330.777 M 251.63 425.516 C 250.224 425.717 249.553 425.27 248.54 424.149 C 247.431 423.156 247.059 422.4 247.25 420.978 L 247.245 382.894 C 247.045 381.492 247.497 380.811 248.616 379.8 C 249.536 378.724 250.211 378.514 251.783 378.514 C 253.35 378.514 254.1 378.799 255.026 379.876 C 256.135 380.869 256.507 381.625 256.316 383.047 L 256.321 421.131 C 256.521 422.535 256.086 423.197 254.966 424.207 C 254.491 424.721 254.195 424.914 253.539 425.161 C 253.216 425.304 253.016 425.362 252.663 425.427 C 252.384 425.499 250.942 425.6 250.942 425.6"/>
      <path style="fill:#FFFFFF;" d="M 251.628 141.072 C 250.247 141.286 249.676 140.843 248.575 139.742 C 247.486 138.653 247.045 137.931 247.25 136.534 L 247.245 119.312 C 247.031 117.931 247.462 117.349 248.575 116.259 C 249.593 115.196 250.243 114.934 251.783 114.934 C 253.323 114.934 253.972 115.196 254.991 116.259 C 256.094 117.334 256.521 118.07 256.316 119.467 L 256.321 136.689 C 256.535 138.071 256.093 138.64 254.991 139.742 C 254.47 140.262 254.176 140.484 253.539 140.718 C 253.217 140.861 253.013 140.919 252.662 140.983 C 252.384 141.055 250.941 141.156 250.941 141.156"/>
    </g>
  </g>
  <g transform="matrix(0.115478, 0, 0, 0.083642, 293.297577, 242.925217)" style=""/>
  <g transform="matrix(0.115478, 0, 0, 0.083642, 293.297577, 242.925217)" style=""/>
  <g transform="matrix(0.115478, 0, 0, 0.083642, 293.297577, 242.925217)" style=""/>
  <g transform="matrix(0.115478, 0, 0, 0.083642, 293.297577, 242.925217)" style=""/>
  <g transform="matrix(0.115478, 0, 0, 0.083642, 293.297577, 242.925217)" style=""/>
  <g transform="matrix(0.115478, 0, 0, 0.083642, 293.297577, 242.925217)" style=""/>
  <g transform="matrix(0.115478, 0, 0, 0.083642, 293.297577, 242.925217)" style=""/>
  <g transform="matrix(0.115478, 0, 0, 0.083642, 293.297577, 242.925217)" style=""/>
  <g transform="matrix(0.115478, 0, 0, 0.083642, 293.297577, 242.925217)" style=""/>
  <g transform="matrix(0.115478, 0, 0, 0.083642, 293.297577, 242.925217)" style=""/>
  <g transform="matrix(0.115478, 0, 0, 0.083642, 293.297577, 242.925217)" style=""/>
  <g transform="matrix(0.115478, 0, 0, 0.083642, 293.297577, 242.925217)" style=""/>
  <g transform="matrix(0.115478, 0, 0, 0.083642, 293.297577, 242.925217)" style=""/>
  <g transform="matrix(0.115478, 0, 0, 0.083642, 293.297577, 242.925217)" style=""/>
  <g transform="matrix(0.115478, 0, 0, 0.083642, 293.297577, 242.925217)" style=""/>
  <g transform="matrix(0.219992, 0, 0, 0.24488, 13.97525, 42.390289)" style="">
    <path style="fill:#464F5D;" d="M 256 14.23 C 114.617 14.23 0 128.847 0 270.23 L 0 455.609 C 1.554 516.83 125.033 512.604 123.586 455.609 L 123.586 270.23 C 123.586 197.102 182.872 137.816 256 137.816 L 512 137.816 L 512 14.23 L 256 14.23 Z"/>
    <g>
      <path style="fill:#FFFFFF;" d="M 61.647 416.303 C 60.151 416.502 59.403 416.026 58.343 414.855 C 57.18 413.81 56.774 412.985 56.965 411.471 L 56.961 393.67 C 56.762 392.174 57.244 391.42 58.416 390.358 C 59.39 389.23 60.138 388.988 61.793 388.988 C 63.443 388.988 64.265 389.302 65.243 390.432 C 66.406 391.477 66.812 392.302 66.621 393.816 L 66.625 411.617 C 66.824 413.113 66.359 413.849 65.188 414.91 C 64.686 415.45 64.358 415.665 63.665 415.926 C 63.323 416.077 63.103 416.141 62.733 416.209 C 62.436 416.285 60.952 416.388 60.952 416.388"/>
      <path style="fill:#FFFFFF;" d="M 299.026 80.851 L 261.142 80.855 C 259.647 81.054 258.893 80.571 257.83 79.4 C 256.702 78.426 256.46 77.678 256.46 76.023 C 256.46 74.373 256.774 73.551 257.904 72.573 C 258.949 71.41 259.774 71.004 261.288 71.195 L 299.172 71.191 C 300.668 70.992 301.416 71.469 302.477 72.64 C 303.633 73.673 304.043 74.484 303.858 76.008 L 303.848 76.09 L 303.858 76.166 C 304.056 77.665 303.592 78.399 302.422 79.46 C 301.917 80.002 301.586 80.219 300.894 80.479 C 300.556 80.63 300.336 80.693 299.966 80.761 C 299.669 80.837 298.185 80.94 298.185 80.94 M 393.384 80.851 L 355.5 80.855 C 354.005 81.054 353.251 80.571 352.188 79.4 C 351.06 78.426 350.818 77.678 350.818 76.023 C 350.818 74.373 351.131 73.55 352.262 72.573 C 353.307 71.41 354.132 71.004 355.646 71.195 L 393.53 71.191 C 395.026 70.992 395.774 71.469 396.835 72.64 C 397.991 73.673 398.401 74.484 398.216 76.008 L 398.206 76.09 L 398.216 76.166 C 398.414 77.665 397.95 78.399 396.78 79.46 C 396.275 80.002 395.944 80.219 395.252 80.479 C 394.914 80.63 394.694 80.693 394.324 80.761 C 394.027 80.837 392.543 80.94 392.543 80.94 M 169.925 100.874 C 168.868 100.958 168.268 100.777 167.437 100.23 C 166.573 99.754 166.098 99.225 165.69 98.18 L 165.66 98.102 L 165.625 98.05 C 164.786 96.82 164.895 95.997 165.453 94.48 C 165.92 92.949 166.457 92.196 167.881 91.713 C 179.486 85.973 191.646 81.386 204.128 78.021 C 205.503 77.447 206.303 77.715 207.685 78.558 C 209.091 79.304 209.726 79.951 209.933 81.445 L 209.944 81.525 L 209.974 81.597 C 210.553 82.987 210.285 83.833 209.429 85.168 C 208.72 86.568 208.036 87.176 206.531 87.387 C 194.771 90.564 183.073 94.988 172.142 100.379 C 171.76 100.584 171.5 100.662 171.05 100.759 C 170.712 100.858 169.083 100.987 169.083 100.987 M 98.587 161.165 C 97.42 161.251 96.767 161.049 95.847 160.241 L 95.788 160.189 L 95.731 160.158 C 94.405 159.442 94.079 158.616 93.907 157.045 C 93.578 155.515 93.732 154.611 94.772 153.503 C 102.364 143.018 110.992 133.279 120.454 124.473 C 121.393 123.313 122.213 123.179 123.822 123.279 C 125.406 123.282 126.278 123.569 127.158 124.805 L 127.209 124.877 L 127.272 124.927 C 128.428 125.857 128.537 126.656 128.464 128.283 C 128.427 129.895 128.149 130.783 126.923 131.641 C 118.023 139.945 109.699 149.377 102.532 159.247 C 102.078 160.003 101.684 160.266 100.82 160.663 C 100.433 160.869 100.184 160.951 99.745 161.045 C 99.396 161.146 97.72 161.281 97.72 161.281 M 63.69 247.771 C 63.43 247.776 63.234 247.76 62.993 247.718 L 62.927 247.706 L 62.887 247.706 C 61.373 247.693 60.696 247.115 59.808 245.81 C 58.803 244.618 58.519 243.741 58.921 242.279 C 60.712 229.435 63.779 216.789 68.032 204.61 C 68.341 203.125 69.038 202.572 70.491 201.957 C 71.843 201.204 72.739 201.085 74.13 201.762 L 74.203 201.797 L 74.276 201.812 C 75.751 202.119 76.301 202.817 76.919 204.274 C 77.675 205.646 77.787 206.561 77.109 207.925 C 73.127 219.393 70.168 231.665 68.463 243.748 C 68.441 245.117 67.967 245.726 66.833 246.616 C 66.339 247.072 66.024 247.252 65.385 247.468 C 65.075 247.592 64.879 247.643 64.544 247.698 C 64.274 247.761 62.95 247.844 62.95 247.844 M 61.647 342.036 C 60.151 342.235 59.405 341.759 58.343 340.588 C 57.18 339.543 56.774 338.718 56.965 337.204 L 56.961 299.32 C 56.762 297.824 57.244 297.07 58.416 296.008 C 59.39 294.88 60.138 294.638 61.793 294.638 C 63.443 294.638 64.265 294.952 65.243 296.082 C 66.406 297.127 66.812 297.952 66.621 299.466 L 66.625 337.35 C 66.824 338.846 66.359 339.582 65.188 340.643 C 64.686 341.183 64.358 341.398 63.665 341.659 C 63.323 341.81 63.103 341.874 62.733 341.942 C 62.436 342.018 60.952 342.121 60.952 342.121"/>
      <path style="fill:#FFFFFF;" d="M 467.862 80.851 L 450.061 80.855 C 448.566 81.054 447.812 80.571 446.749 79.4 C 445.621 78.426 445.379 77.678 445.379 76.023 C 445.379 74.373 445.693 73.551 446.823 72.573 C 447.868 71.41 448.693 71.004 450.207 71.195 L 468.008 71.191 C 469.504 70.992 470.258 71.474 471.32 72.646 C 472.448 73.62 472.69 74.368 472.69 76.023 C 472.69 77.674 472.387 78.484 471.257 79.462 C 470.755 80.002 470.427 80.217 469.734 80.478 C 469.392 80.629 469.172 80.693 468.802 80.761 C 468.505 80.837 467.021 80.94 467.021 80.94"/>
    </g>
    <path style="fill:#71C285;" d="M 459.632 316.696 C 461.833 313.748 464.524 312.849 468.033 312.849 C 471.538 312.849 474.282 313.811 476.487 316.762 L 498.046 342.05 C 509.833 355.279 510.833 371.861 504.643 386.122 C 501.687 393.252 497.209 399.101 490.939 403.553 C 484.717 408.12 477.637 410.734 468.885 410.774 C 468.537 410.774 468.257 410.783 468.037 410.783 C 466.26 410.783 464.566 410.688 462.828 410.502 C 454.57 409.8 447.806 406.791 442.331 402.177 C 436.859 397.566 432.88 391.487 430.41 384.472 C 425.194 370.51 426.753 354.732 437.871 342.23 Z"/>
    <path style="fill:#804537;" d="M 467.92 465.746 C 465.907 465.838 464.44 465.121 463.109 463.749 C 461.738 462.418 461.02 460.932 461.112 458.918 L 461.112 379.45 C 461.02 377.437 461.738 375.97 463.109 374.639 C 464.431 373.272 465.907 372.642 467.94 372.642 C 469.973 372.642 471.449 373.272 472.771 374.639 C 474.142 375.97 474.86 377.456 474.768 379.47 L 474.768 458.937 C 474.859 460.951 474.141 462.418 472.77 463.749 C 472.11 464.421 471.48 464.85 470.6 465.211 C 470.162 465.398 469.796 465.513 469.32 465.607 C 468.865 465.706 467.539 465.786 467.539 465.786"/>
    <path style="fill:#4C8056;" d="M 336.046 316.696 C 338.247 313.748 340.938 312.849 344.447 312.849 C 347.952 312.849 350.696 313.811 352.901 316.762 L 374.46 342.05 C 386.247 355.279 387.247 371.861 381.057 386.122 C 378.101 393.252 373.623 399.101 367.353 403.553 C 361.131 408.12 354.051 410.734 345.299 410.774 C 344.951 410.774 344.671 410.783 344.451 410.783 C 342.674 410.783 340.98 410.688 339.242 410.502 C 330.984 409.8 324.22 406.791 318.745 402.177 C 313.273 397.566 309.294 391.487 306.824 384.472 C 301.608 370.51 303.167 354.732 314.285 342.23 Z"/>
    <path style="fill:#804537;" d="M 344.334 465.746 C 342.321 465.838 340.854 465.121 339.523 463.749 C 338.152 462.418 337.434 460.932 337.526 458.918 L 337.526 379.45 C 337.434 377.437 338.152 375.97 339.523 374.639 C 340.845 373.272 342.321 372.642 344.354 372.642 C 346.387 372.642 347.863 373.272 349.185 374.639 C 350.556 375.97 351.274 377.456 351.182 379.47 L 351.182 458.937 C 351.273 460.951 350.555 462.418 349.184 463.749 C 348.524 464.421 347.894 464.85 347.014 465.211 C 346.576 465.398 346.21 465.513 345.734 465.607 C 345.279 465.706 343.953 465.786 343.953 465.786"/>
    <path style="fill:#4C8056;" d="M 397.839 157.8 C 400.04 154.852 402.731 153.953 406.24 153.953 C 409.745 153.953 412.489 154.915 414.694 157.866 L 436.253 183.154 C 448.04 196.383 449.04 212.965 442.85 227.227 C 439.894 234.356 435.416 240.205 429.146 244.657 C 422.924 249.224 415.844 251.838 407.092 251.878 C 406.744 251.878 406.464 251.887 406.244 251.887 C 404.467 251.887 402.773 251.792 401.035 251.606 C 392.777 250.904 386.013 247.895 380.538 243.281 C 375.066 238.67 371.087 232.591 368.617 225.576 C 363.401 211.614 364.96 195.836 376.078 183.334 Z"/>
    <path style="fill:#804537;" d="M 406.127 306.85 C 404.114 306.942 402.647 306.224 401.316 304.853 C 399.945 303.522 399.227 302.036 399.319 300.022 L 399.319 220.554 C 399.227 218.541 399.945 217.074 401.316 215.743 C 402.638 214.376 404.114 213.746 406.147 213.746 C 408.18 213.746 409.656 214.375 410.978 215.743 C 412.349 217.074 413.067 218.56 412.975 220.574 L 412.975 300.041 C 413.066 302.055 412.348 303.522 410.977 304.853 C 410.317 305.525 409.687 305.954 408.807 306.315 C 408.369 306.502 408.003 306.617 407.527 306.711 C 407.072 306.81 405.746 306.89 405.746 306.89"/>
    <path style="fill:#4C8056;" d="M 274.253 157.8 C 276.454 154.852 279.145 153.953 282.654 153.953 C 286.159 153.953 288.903 154.915 291.108 157.866 L 312.667 183.154 C 324.454 196.383 325.454 212.965 319.264 227.227 C 316.308 234.356 311.83 240.205 305.56 244.657 C 299.338 249.224 292.258 251.838 283.506 251.878 C 283.158 251.878 282.878 251.887 282.658 251.887 C 280.881 251.887 279.187 251.792 277.449 251.606 C 269.191 250.904 262.427 247.895 256.952 243.281 C 251.48 238.67 247.501 232.591 245.031 225.576 C 239.815 211.614 241.374 195.836 252.492 183.334 Z"/>
    <path style="fill:#804537;" d="M 282.54 306.85 C 280.527 306.942 279.06 306.225 277.729 304.853 C 276.358 303.522 275.64 302.036 275.732 300.022 L 275.732 220.554 C 275.64 218.541 276.357 217.074 277.729 215.743 C 279.051 214.376 280.527 213.746 282.56 213.746 C 284.593 213.746 286.069 214.375 287.391 215.743 C 288.762 217.074 289.48 218.56 289.388 220.574 L 289.388 300.042 C 289.48 302.055 288.762 303.522 287.391 304.853 C 286.732 305.525 286.101 305.954 285.221 306.315 C 284.782 306.502 284.416 306.617 283.94 306.711 C 283.485 306.81 282.159 306.89 282.159 306.89"/>
    <path style="fill:#71C285;" d="M 212.46 316.696 C 214.661 313.748 217.352 312.849 220.861 312.849 C 224.366 312.849 227.11 313.811 229.315 316.762 L 250.874 342.05 C 262.661 355.279 263.661 371.861 257.471 386.122 C 254.515 393.252 250.037 399.101 243.767 403.553 C 237.545 408.12 230.465 410.734 221.713 410.774 C 221.365 410.774 221.084 410.783 220.865 410.783 C 219.088 410.783 217.394 410.688 215.656 410.502 C 207.398 409.8 200.634 406.791 195.159 402.177 C 189.687 397.566 185.708 391.487 183.238 384.472 C 178.022 370.51 179.581 354.732 190.699 342.23 Z"/>
    <path style="fill:#804537;" d="M 220.747 465.746 C 218.734 465.838 217.267 465.12 215.936 463.749 C 214.565 462.418 213.847 460.932 213.939 458.918 L 213.939 379.45 C 213.847 377.437 214.565 375.97 215.936 374.639 C 217.258 373.272 218.734 372.642 220.767 372.642 C 222.8 372.642 224.276 373.271 225.598 374.639 C 226.969 375.97 227.687 377.456 227.595 379.47 L 227.595 458.938 C 227.687 460.951 226.969 462.418 225.598 463.749 C 224.939 464.421 224.308 464.85 223.428 465.211 C 222.989 465.398 222.623 465.513 222.147 465.607 C 221.692 465.706 220.366 465.786 220.366 465.786"/>
  </g>
  <g transform="matrix(0.156226, 0, 0, 0.160369, 27.427519, -18.373421)"/>
  <g transform="matrix(0.156226, 0, 0, 0.160369, 27.427519, -18.373421)"/>
  <g transform="matrix(0.156226, 0, 0, 0.160369, 27.427519, -18.373421)"/>
  <g transform="matrix(0.156226, 0, 0, 0.160369, 27.427519, -18.373421)"/>
  <g transform="matrix(0.156226, 0, 0, 0.160369, 27.427519, -18.373421)"/>
  <g transform="matrix(0.156226, 0, 0, 0.160369, 27.427519, -18.373421)"/>
  <g transform="matrix(0.156226, 0, 0, 0.160369, 27.427519, -18.373421)"/>
  <g transform="matrix(0.156226, 0, 0, 0.160369, 27.427519, -18.373421)"/>
  <g transform="matrix(0.156226, 0, 0, 0.160369, 27.427519, -18.373421)"/>
  <g transform="matrix(0.156226, 0, 0, 0.160369, 27.427519, -18.373421)"/>
  <g transform="matrix(0.156226, 0, 0, 0.160369, 27.427519, -18.373421)"/>
  <g transform="matrix(0.156226, 0, 0, 0.160369, 27.427519, -18.373421)"/>
  <g transform="matrix(0.156226, 0, 0, 0.160369, 27.427519, -18.373421)"/>
  <g transform="matrix(0.156226, 0, 0, 0.160369, 27.427519, -18.373421)"/>
  <g transform="matrix(0.156226, 0, 0, 0.160369, 27.427519, -18.373421)"/>
  <g transform="matrix(0, 0.14021, -0.139008, 0, 310.057648, 113.232018)"/>
  <g transform="matrix(0, 0.14021, -0.139008, 0, 310.057648, 113.232018)"/>
  <g transform="matrix(0, 0.14021, -0.139008, 0, 310.057648, 113.232018)"/>
  <g transform="matrix(0, 0.14021, -0.139008, 0, 310.057648, 113.232018)"/>
  <g transform="matrix(0, 0.14021, -0.139008, 0, 310.057648, 113.232018)"/>
  <g transform="matrix(0, 0.14021, -0.139008, 0, 310.057648, 113.232018)"/>
  <g transform="matrix(0, 0.14021, -0.139008, 0, 310.057648, 113.232018)"/>
  <g transform="matrix(0, 0.14021, -0.139008, 0, 310.057648, 113.232018)"/>
  <g transform="matrix(0, 0.14021, -0.139008, 0, 310.057648, 113.232018)"/>
  <g transform="matrix(0, 0.14021, -0.139008, 0, 310.057648, 113.232018)"/>
  <g transform="matrix(0, 0.14021, -0.139008, 0, 310.057648, 113.232018)"/>
  <g transform="matrix(0, 0.14021, -0.139008, 0, 310.057648, 113.232018)"/>
  <g transform="matrix(0, 0.14021, -0.139008, 0, 310.057648, 113.232018)"/>
  <g transform="matrix(0, 0.14021, -0.139008, 0, 310.057648, 113.232018)"/>
  <g transform="matrix(0, 0.14021, -0.139008, 0, 310.057648, 113.232018)"/>
  <g transform="matrix(0.056187, 0, 0, 0.057586, 227.337311, 16.145874)">
    <g>
      <path style="fill:#2F3744;" d="M185.379,221.69c-38.938,0-70.621-23.755-70.621-52.966c0-4.873,3.946-8.828,8.828-8.828 s8.828,3.955,8.828,8.828c0,19.138,24.258,35.31,52.966,35.31s52.966-16.172,52.966-35.31c0-4.873,3.946-8.828,8.828-8.828 s8.828,3.955,8.828,8.828C256,197.935,224.318,221.69,185.379,221.69"/>
      <path style="fill:#2F3744;" d="M326.621,221.69c-38.938,0-70.621-23.755-70.621-52.966c0-4.873,3.946-8.828,8.828-8.828 s8.828,3.955,8.828,8.828c0,19.138,24.258,35.31,52.966,35.31c28.707,0,52.966-16.172,52.966-35.31 c0-4.873,3.946-8.828,8.828-8.828c4.882,0,8.828,3.955,8.828,8.828C397.241,197.935,365.559,221.69,326.621,221.69"/>
      <path style="fill:#2F3744;" d="M317.793,513H194.207c0-19.5,15.81-35.31,35.31-35.31h52.966 C301.983,477.69,317.793,493.5,317.793,513"/>
    </g>
    <path style="fill:#464F5D;" d="M238.345,18.655V477.69h35.31V18.655C273.655,8.901,265.754,1,256,1S238.345,8.901,238.345,18.655"/>
    <path style="fill:#F3D55B;" d="M79.448,53.966l15.748,78.724c1.377,6.903,3.725,13.603,7.062,19.8 c4.89,9.066,10.567,16.234,21.327,16.234c10.24,0,16.958-6.665,21.583-15.086c3.098-5.65,4.996-11.891,6.259-18.211l16.296-81.461 H79.448z"/>
    <polygon style="fill:#D6BB4C;" points="167.724,53.966 79.448,53.966 123.586,1 &#9;"/>
    <path style="fill:#F3D55B;" d="M432.552,53.966l-15.748,78.724c-1.377,6.903-3.725,13.603-7.062,19.8 c-4.891,9.066-10.567,16.234-21.327,16.234c-10.24,0-16.958-6.665-21.583-15.086c-3.099-5.65-4.996-11.891-6.259-18.211 l-16.296-81.461H432.552z"/>
    <polygon style="fill:#D6BB4C;" points="344.276,53.966 432.552,53.966 388.414,1 &#9;"/>
  </g>
  <g transform="matrix(0.115593, 0, 0, 0.097656, 223.85379, 122.391151)"/>
  <g transform="matrix(0.115593, 0, 0, 0.097656, 223.85379, 122.391151)"/>
  <g transform="matrix(0.115593, 0, 0, 0.097656, 223.85379, 122.391151)"/>
  <g transform="matrix(0.115593, 0, 0, 0.097656, 223.85379, 122.391151)"/>
  <g transform="matrix(0.115593, 0, 0, 0.097656, 223.85379, 122.391151)"/>
  <g transform="matrix(0.115593, 0, 0, 0.097656, 223.85379, 122.391151)"/>
  <g transform="matrix(0.115593, 0, 0, 0.097656, 223.85379, 122.391151)"/>
  <g transform="matrix(0.115593, 0, 0, 0.097656, 223.85379, 122.391151)"/>
  <g transform="matrix(0.115593, 0, 0, 0.097656, 223.85379, 122.391151)"/>
  <g transform="matrix(0.115593, 0, 0, 0.097656, 223.85379, 122.391151)"/>
  <g transform="matrix(0.115593, 0, 0, 0.097656, 223.85379, 122.391151)"/>
  <g transform="matrix(0.115593, 0, 0, 0.097656, 223.85379, 122.391151)"/>
  <g transform="matrix(0.115593, 0, 0, 0.097656, 223.85379, 122.391151)"/>
  <g transform="matrix(0.115593, 0, 0, 0.097656, 223.85379, 122.391151)"/>
  <g transform="matrix(0.115593, 0, 0, 0.097656, 223.85379, 122.391151)"/>
  <g transform="matrix(0.072498, 0, 0, 0.057586, 387.581146, 16.131927)">
    <g>
      <path style="fill:#2F3744;" d="M242.759,274.655c-4.873,0-8.828-3.955-8.828-8.828c0-38.938-47.519-70.621-105.931-70.621 c-4.873,0-8.828-3.955-8.828-8.828c0-4.873,3.955-8.828,8.828-8.828c68.149,0,123.586,39.601,123.586,88.276 C251.586,270.7,247.631,274.655,242.759,274.655"/>
      <path style="fill:#2F3744;" d="M260.414,274.655c-4.873,0-8.828-3.955-8.828-8.828c0-48.675,55.437-88.276,123.586-88.276 c4.873,0,8.828,3.955,8.828,8.828c0,4.873-3.955,8.828-8.828,8.828c-58.412,0-105.931,31.682-105.931,70.621 C269.241,270.7,265.287,274.655,260.414,274.655"/>
      <path style="fill:#2F3744;" d="M128,221.69c-4.873,0-8.828-3.955-8.828-8.828v-52.966c0-4.873,3.955-8.828,8.828-8.828 s8.828,3.955,8.828,8.828v52.966C136.828,217.735,132.873,221.69,128,221.69"/>
      <path style="fill:#2F3744;" d="M384,221.69c-4.873,0-8.828-3.955-8.828-8.828v-52.966c0-4.873,3.955-8.828,8.828-8.828 s8.828,3.955,8.828,8.828v52.966C392.828,217.735,388.873,221.69,384,221.69"/>
      <path style="fill:#2F3744;" d="M313.379,513H189.793c0-19.5,15.81-35.31,35.31-35.31h52.966 C297.569,477.69,313.379,493.5,313.379,513"/>
    </g>
    <polygon style="fill:#464F5D;" points="233.931,477.687 269.241,477.687 269.241,212.859 233.931,212.859 &#9;"/>
    <path style="fill:#F3D55B;" d="M207.448,53.966l15.748,78.724c1.377,6.903,3.725,13.603,7.062,19.8 c4.89,9.066,10.567,16.234,21.327,16.234c10.24,0,16.958-6.665,21.583-15.086c3.098-5.65,4.996-11.891,6.259-18.211l16.296-81.461 H207.448z"/>
    <polygon style="fill:#D6BB4C;" points="295.724,53.966 207.448,53.966 251.586,1 &#9;"/>
    <path style="fill:#2F3744;" d="M273.166,153.639c-4.626,8.413-11.343,15.086-21.583,15.086c-10.761,0-16.437-7.168-21.327-16.234 c-1.368-2.551-2.472-5.235-3.513-7.936l7.186,68.308h35.31l6.983-66.286C275.329,148.987,274.402,151.388,273.166,153.639"/>
  </g>
  <g transform="matrix(0.050913, 0, 0, 0.058594, 467.182709, 30.666267)"/>
  <g transform="matrix(0.050913, 0, 0, 0.058594, 467.182709, 30.666267)"/>
  <g transform="matrix(0.050913, 0, 0, 0.058594, 467.182709, 30.666267)"/>
  <g transform="matrix(0.050913, 0, 0, 0.058594, 467.182709, 30.666267)"/>
  <g transform="matrix(0.050913, 0, 0, 0.058594, 467.182709, 30.666267)"/>
  <g transform="matrix(0.050913, 0, 0, 0.058594, 467.182709, 30.666267)"/>
  <g transform="matrix(0.050913, 0, 0, 0.058594, 467.182709, 30.666267)"/>
  <g transform="matrix(0.050913, 0, 0, 0.058594, 467.182709, 30.666267)"/>
  <g transform="matrix(0.050913, 0, 0, 0.058594, 467.182709, 30.666267)"/>
  <g transform="matrix(0.050913, 0, 0, 0.058594, 467.182709, 30.666267)"/>
  <g transform="matrix(0.050913, 0, 0, 0.058594, 467.182709, 30.666267)"/>
  <g transform="matrix(0.050913, 0, 0, 0.058594, 467.182709, 30.666267)"/>
  <g transform="matrix(0.050913, 0, 0, 0.058594, 467.182709, 30.666267)"/>
  <g transform="matrix(0.050913, 0, 0, 0.058594, 467.182709, 30.666267)"/>
  <g transform="matrix(0.050913, 0, 0, 0.058594, 467.182709, 30.666267)"/>
  <g transform="matrix(0.203241, 0, 0, -0.245322, 369.320129, 452.029449)" style="">
    <path style="fill:#464F5D;" d="M256,36.31c141.383,0,256,114.617,256,256V477.69H388.414V292.31 c0-73.128-59.286-132.414-132.414-132.414H0V36.31H256z"/>
    <g>
      <path style="fill:#FFFFFF;" d="M 450.061 438.383 C 448.565 438.582 447.819 438.106 446.757 436.935 C 445.594 435.89 445.188 435.065 445.379 433.551 L 445.375 415.75 C 445.176 414.254 445.658 413.5 446.83 412.438 C 447.804 411.31 448.552 411.068 450.207 411.068 C 451.857 411.068 452.679 411.382 453.657 412.512 C 454.82 413.557 455.226 414.382 455.035 415.896 L 455.039 433.697 C 455.245 435.178 454.787 435.864 453.617 436.974 C 453.086 437.525 452.758 437.755 452.079 438.006 C 451.737 438.157 451.517 438.221 451.147 438.289 C 450.85 438.365 449.366 438.468 449.366 438.468"/>
      <path style="fill:#FFFFFF;" d="M 156.353 102.931 L 118.469 102.935 C 116.974 103.134 116.22 102.651 115.157 101.48 C 114.029 100.506 113.787 99.758 113.787 98.103 C 113.787 96.453 114.101 95.631 115.231 94.653 C 116.276 93.49 117.101 93.084 118.615 93.275 L 156.499 93.271 C 157.994 93.072 158.748 93.555 159.811 94.726 C 160.939 95.7 161.181 96.448 161.181 98.103 C 161.181 99.754 160.878 100.564 159.748 101.542 C 159.246 102.082 158.918 102.297 158.225 102.558 C 157.883 102.709 157.663 102.773 157.293 102.841 C 156.996 102.917 155.512 103.02 155.512 103.02 M 250.711 102.931 L 212.827 102.935 C 211.332 103.134 210.578 102.651 209.515 101.48 C 208.387 100.506 208.145 99.758 208.145 98.103 C 208.145 96.453 208.459 95.631 209.589 94.653 C 210.634 93.49 211.459 93.084 212.973 93.275 L 250.857 93.271 C 252.352 93.072 253.106 93.555 254.169 94.726 C 255.297 95.7 255.539 96.448 255.539 98.103 C 255.539 99.754 255.236 100.564 254.106 101.542 C 253.604 102.082 253.276 102.297 252.583 102.558 C 252.241 102.709 252.021 102.773 251.651 102.841 C 251.354 102.917 249.87 103.02 249.87 103.02 M 341.893 122.953 C 341.059 123.001 340.619 122.894 339.831 122.447 C 328.9 117.056 317.095 112.613 305.335 109.437 C 303.841 109.237 303.243 108.578 302.522 107.167 C 301.672 105.86 301.484 104.978 302.057 103.558 L 302.087 103.484 L 302.098 103.41 C 302.303 101.911 302.96 101.307 304.364 100.589 C 305.674 99.737 306.572 99.559 307.992 100.137 C 320.475 103.502 332.643 108.114 344.249 113.853 C 345.665 114.324 346.079 115.045 346.555 116.588 C 347.113 118.079 347.163 118.976 346.324 120.233 L 346.287 120.289 L 346.261 120.357 C 345.886 121.341 345.45 121.71 344.474 122.253 C 344.036 122.537 343.779 122.644 343.269 122.772 C 343.02 122.846 342.891 122.872 342.622 122.908 C 342.4 122.943 341.407 122.991 341.407 122.991 M 413.196 183.247 C 411.374 183.432 410.31 182.917 409.412 181.25 C 402.246 171.379 393.858 161.922 384.957 153.618 C 383.738 152.777 383.576 151.991 383.535 150.363 C 383.456 148.766 383.656 147.867 384.822 146.907 L 384.886 146.854 L 384.933 146.787 C 385.793 145.568 386.657 145.349 388.246 145.37 C 389.808 145.23 390.696 145.499 391.654 146.661 C 401.116 155.463 409.72 165.211 417.316 175.698 C 418.353 176.789 418.406 177.677 418.08 179.223 C 417.922 180.767 417.521 181.562 416.18 182.302 L 416.133 182.328 L 416.082 182.37 C 415.645 182.732 415.371 182.846 414.77 183.022 C 414.499 183.114 414.325 183.15 414.026 183.192 C 413.793 183.237 412.681 183.296 412.681 183.296 M 448.157 269.856 C 446.852 270.02 446.217 269.653 445.133 268.669 C 444.004 267.748 443.541 267.059 443.52 265.695 C 441.816 253.61 438.82 241.336 434.837 229.869 C 434.158 228.522 434.364 227.656 435.122 226.266 C 435.715 224.834 436.355 224.177 437.853 223.848 L 437.936 223.83 L 438.006 223.794 C 439.337 223.112 440.194 223.318 441.586 224.077 C 443.033 224.684 443.691 225.334 444.011 226.828 C 448.263 239.007 451.312 251.664 453.112 264.512 C 453.523 265.937 453.161 266.677 452.154 267.939 C 451.237 269.237 450.533 269.783 449.015 269.801 L 448.968 269.801 L 448.904 269.814 C 448.708 269.852 447.668 269.902 447.668 269.902 M 450.06 364.117 C 448.564 364.316 447.816 363.84 446.756 362.669 C 445.593 361.624 445.187 360.799 445.378 359.285 L 445.374 321.401 C 445.175 319.905 445.657 319.151 446.829 318.089 C 447.803 316.961 448.551 316.719 450.206 316.719 C 451.856 316.719 452.678 317.033 453.656 318.163 C 454.819 319.208 455.225 320.033 455.034 321.547 L 455.038 359.431 C 455.237 360.927 454.771 361.663 453.601 362.724 C 453.099 363.264 452.771 363.479 452.078 363.74 C 451.736 363.891 451.516 363.955 451.146 364.023 C 450.849 364.099 449.365 364.202 449.365 364.202"/>
      <path style="fill:#FFFFFF;" d="M 61.793 102.931 L 43.992 102.935 C 42.497 103.134 41.743 102.651 40.68 101.48 C 39.552 100.506 39.31 99.758 39.31 98.103 C 39.31 96.453 39.624 95.631 40.754 94.653 C 41.799 93.49 42.624 93.084 44.138 93.275 L 61.939 93.271 C 63.434 93.072 64.188 93.555 65.251 94.726 C 66.379 95.7 66.621 96.448 66.621 98.103 C 66.621 99.754 66.318 100.564 65.188 101.542 C 64.686 102.082 64.358 102.297 63.665 102.558 C 63.323 102.709 63.103 102.773 62.733 102.841 C 62.436 102.917 60.952 103.02 60.952 103.02"/>
    </g>
  </g>
  <g transform="matrix(0.058841, 0, 0, 0.057586, 403.621277, 382.779266)" style="">
    <path style="fill:#2F3744;" d="M316.746,513H195.254c0-19.17,15.542-34.712,34.712-34.712h52.068 C301.204,478.288,316.746,493.83,316.746,513"/>
    <polygon style="fill:#464F5D;" points="238.644,478.286 273.356,478.286 273.356,252.658 238.644,252.658 &#9;"/>
    <polygon style="fill:#2F3744;" points="203.932,252.658 308.068,252.658 308.068,9.675 203.932,9.675 &#9;"/>
    <path style="fill:#E64C3C;" d="M273.356,61.746c0,9.589-7.767,17.356-17.356,17.356c-9.589,0-17.356-7.767-17.356-17.356 S246.411,44.39,256,44.39C265.589,44.39,273.356,52.157,273.356,61.746"/>
    <path style="fill:#F3D55B;" d="M273.356,131.169c0,9.589-7.767,17.356-17.356,17.356c-9.589,0-17.356-7.767-17.356-17.356 s7.767-17.356,17.356-17.356C265.589,113.814,273.356,121.58,273.356,131.169"/>
    <path style="fill:#4FBA6F;" d="M273.356,200.593c0,9.589-7.767,17.356-17.356,17.356c-9.589,0-17.356-7.767-17.356-17.356 c0-9.589,7.767-17.356,17.356-17.356C265.589,183.237,273.356,191.004,273.356,200.593"/>
    <path style="fill:#464F5D;" d="M334.102,18.356H177.898c-4.79,0-8.678-3.888-8.678-8.678S173.108,1,177.898,1h156.203 c4.79,0,8.678,3.888,8.678,8.678S338.892,18.356,334.102,18.356"/>
  </g>
  <g transform="matrix(0.058347, 0, 0, 0.058594, 159.258392, 81.602211)"/>
  <g transform="matrix(0.058347, 0, 0, 0.058594, 159.258392, 81.602211)"/>
  <g transform="matrix(0.058347, 0, 0, 0.058594, 159.258392, 81.602211)"/>
  <g transform="matrix(0.058347, 0, 0, 0.058594, 159.258392, 81.602211)"/>
  <g transform="matrix(0.058347, 0, 0, 0.058594, 159.258392, 81.602211)"/>
  <g transform="matrix(0.058347, 0, 0, 0.058594, 159.258392, 81.602211)"/>
  <g transform="matrix(0.058347, 0, 0, 0.058594, 159.258392, 81.602211)"/>
  <g transform="matrix(0.058347, 0, 0, 0.058594, 159.258392, 81.602211)"/>
  <g transform="matrix(0.058347, 0, 0, 0.058594, 159.258392, 81.602211)"/>
  <g transform="matrix(0.058347, 0, 0, 0.058594, 159.258392, 81.602211)"/>
  <g transform="matrix(0.058347, 0, 0, 0.058594, 159.258392, 81.602211)"/>
  <g transform="matrix(0.058347, 0, 0, 0.058594, 159.258392, 81.602211)"/>
  <g transform="matrix(0.058347, 0, 0, 0.058594, 159.258392, 81.602211)"/>
  <g transform="matrix(0.058347, 0, 0, 0.058594, 159.258392, 81.602211)"/>
  <g transform="matrix(0.058347, 0, 0, 0.058594, 159.258392, 81.602211)"/>
  <rect x="66.406" y="47.594" style="fill: rgb(220, 137, 167);" width="14.944" height="4.322"/>
  <polygon style="fill: rgb(49, 192, 216);" points="85.708 32.333 63.703 32.333 63.703 18.821 85.708 18.821 89.844 25.577"/>
  <g transform="matrix(0.058753, 0, 0, 0.076781, 61.73333, 13.686234)" style="">
    <rect x="160.019" y="14.079" style="fill:#FFD248;" width="93.413" height="52.796"/>
    <rect x="160.019" y="242.86" style="fill:#FFD248;" width="93.413" height="198.765"/>
  </g>
  <path d="M 90.489 24.902 L 86.353 18.146 C 86.196 17.889 85.959 17.741 85.708 17.741 L 77.45 17.741 L 77.45 14.768 C 77.45 14.17 77.079 13.687 76.623 13.687 L 71.134 13.687 C 70.677 13.687 70.307 14.17 70.307 14.768 L 70.307 17.741 L 63.703 17.741 C 63.248 17.741 62.877 18.224 62.877 18.821 L 62.877 32.333 C 62.877 32.931 63.248 33.414 63.703 33.414 L 70.307 33.414 L 70.307 46.515 L 66.406 46.515 C 65.949 46.515 65.579 46.999 65.579 47.595 L 65.579 51.917 C 65.579 52.514 65.949 52.999 66.406 52.999 L 81.351 52.999 C 81.808 52.999 82.177 52.514 82.177 51.917 L 82.177 47.595 C 82.177 46.999 81.808 46.515 81.351 46.515 L 77.45 46.515 L 77.45 33.414 L 85.708 33.414 C 85.959 33.414 86.196 33.266 86.353 33.008 L 90.489 26.252 C 90.731 25.858 90.731 25.296 90.489 24.902 Z M 71.962 15.848 L 75.796 15.848 L 75.796 17.741 L 71.962 17.741 L 71.962 15.848 Z M 80.523 50.836 L 67.234 50.836 L 67.234 48.676 L 71.134 48.676 L 76.623 48.676 L 80.523 48.676 L 80.523 50.836 Z M 75.796 46.515 L 74.705 46.515 C 74.705 46.514 74.705 46.514 74.705 46.513 L 74.705 40.945 C 74.705 40.348 74.334 39.864 73.878 39.864 C 73.422 39.864 73.052 40.348 73.052 40.945 L 73.052 46.513 C 73.052 46.514 73.052 46.514 73.052 46.515 L 71.962 46.515 L 71.962 33.414 L 75.796 33.414 L 75.796 46.515 Z M 85.309 31.252 L 76.623 31.252 L 71.134 31.252 L 64.532 31.252 L 64.532 19.903 L 71.134 19.903 L 76.623 19.903 L 85.309 19.903 L 88.784 25.577 L 85.309 31.252 Z" style=""/>
  <path d="M 73.878 38.802 C 73.825 38.802 73.77 38.794 73.717 38.779 C 73.665 38.766 73.612 38.745 73.562 38.718 C 73.512 38.691 73.464 38.658 73.419 38.619 C 73.373 38.579 73.332 38.534 73.293 38.485 C 73.256 38.435 73.22 38.38 73.19 38.32 C 73.16 38.262 73.135 38.2 73.115 38.133 C 73.093 38.068 73.078 38 73.067 37.93 C 73.057 37.861 73.052 37.791 73.052 37.72 C 73.052 37.435 73.14 37.157 73.293 36.955 C 73.333 36.906 73.373 36.861 73.419 36.822 C 73.464 36.781 73.512 36.749 73.562 36.722 C 73.612 36.695 73.665 36.673 73.717 36.66 C 73.824 36.632 73.933 36.632 74.041 36.66 C 74.093 36.673 74.145 36.695 74.195 36.722 C 74.245 36.749 74.294 36.781 74.337 36.822 C 74.383 36.861 74.426 36.906 74.463 36.955 C 74.617 37.157 74.705 37.435 74.705 37.72 C 74.705 37.791 74.701 37.861 74.69 37.93 C 74.68 38 74.663 38.068 74.642 38.133 C 74.621 38.2 74.595 38.262 74.566 38.32 C 74.536 38.38 74.502 38.435 74.463 38.485 C 74.426 38.534 74.383 38.579 74.337 38.619 C 74.294 38.658 74.245 38.691 74.195 38.718 C 74.145 38.745 74.093 38.766 74.041 38.779 C 73.987 38.794 73.932 38.802 73.878 38.802 Z" style=""/>
  <g transform="matrix(0.165856, 0, 0, 0.212165, 536.007935, -36.003796)" style=""/>
  <g transform="matrix(0.165856, 0, 0, 0.212165, 536.007935, -36.003796)" style=""/>
  <g transform="matrix(0.165856, 0, 0, 0.212165, 536.007935, -36.003796)" style=""/>
  <g transform="matrix(0.165856, 0, 0, 0.212165, 536.007935, -36.003796)" style=""/>
  <g transform="matrix(0.165856, 0, 0, 0.212165, 536.007935, -36.003796)" style=""/>
  <g transform="matrix(0.165856, 0, 0, 0.212165, 536.007935, -36.003796)" style=""/>
  <g transform="matrix(0.165856, 0, 0, 0.212165, 536.007935, -36.003796)" style=""/>
  <g transform="matrix(0.165856, 0, 0, 0.212165, 536.007935, -36.003796)" style=""/>
  <g transform="matrix(0.165856, 0, 0, 0.212165, 536.007935, -36.003796)" style=""/>
  <g transform="matrix(0.165856, 0, 0, 0.212165, 536.007935, -36.003796)" style=""/>
  <g transform="matrix(0.165856, 0, 0, 0.212165, 536.007935, -36.003796)" style=""/>
  <g transform="matrix(0.165856, 0, 0, 0.212165, 536.007935, -36.003796)" style=""/>
  <g transform="matrix(0.165856, 0, 0, 0.212165, 536.007935, -36.003796)" style=""/>
  <g transform="matrix(0.165856, 0, 0, 0.212165, 536.007935, -36.003796)" style=""/>
  <g transform="matrix(0.165856, 0, 0, 0.212165, 536.007935, -36.003796)" style=""/>
  <path d="M 70.36 29.964 L 66.665 29.964 L 66.665 26.375 C 66.665 25.714 67.079 25.177 67.588 25.177 L 69.436 25.177 L 69.436 22.784 L 66.665 22.784 L 66.665 21.588 L 69.436 21.588 C 69.947 21.588 70.36 22.125 70.36 22.784 L 70.36 25.177 C 70.36 25.839 69.947 26.375 69.436 26.375 L 67.588 26.375 L 67.588 28.767 L 70.36 28.767 L 70.36 29.964 Z" style=""/>
  <rect id="_Transparent_Rectangle_" data-name="&lt;Transparent Rectangle&gt;" class="cls-1" width="14.78" height="19.144" style="fill: none;" x="73.269" y="30.244"/>
  <path d="M 74.383 29.89 L 72.535 29.89 C 72.025 29.89 71.611 29.355 71.611 28.694 L 71.611 22.712 C 71.611 22.05 72.025 21.516 72.535 21.516 L 74.383 21.516 C 74.893 21.516 75.307 22.05 75.307 22.712 L 75.307 28.694 C 75.307 29.355 74.893 29.89 74.383 29.89 Z M 72.535 22.712 L 72.535 28.694 L 74.383 28.694 L 74.383 22.712 L 72.535 22.712 Z" style=""/>
  <rect x="72.998" y="25.104" width="0.924" height="1.196" style=""/>
  <rect id="rect-5" data-name="&lt;Transparent Rectangle&gt;" class="cls-1" width="14.78" height="19.144" style="fill: none;" x="78.217" y="30.17"/>
  <path d="M 79.921 29.898 L 76.225 29.898 L 76.225 26.308 C 76.225 25.647 76.64 25.112 77.15 25.112 L 78.997 25.112 L 78.997 22.72 L 76.225 22.72 L 76.225 21.521 L 78.997 21.521 C 79.507 21.521 79.921 22.058 79.921 22.72 L 79.921 25.112 C 79.921 25.773 79.507 26.308 78.997 26.308 L 77.15 26.308 L 77.15 28.702 L 79.921 28.702 L 79.921 29.898 Z" style=""/>
  <rect id="rect-6" data-name="&lt;Transparent Rectangle&gt;" class="cls-1" width="14.78" height="19.144" style="fill: none;" x="82.831" y="30.178"/>
  <path d="M 83.945 29.824 L 82.097 29.824 C 81.587 29.824 81.173 29.289 81.173 28.628 L 81.173 22.646 C 81.173 21.984 81.587 21.449 82.097 21.449 L 83.945 21.449 C 84.455 21.449 84.868 21.984 84.868 22.646 L 84.868 28.628 C 84.868 29.289 84.455 29.824 83.945 29.824 Z M 82.097 22.646 L 82.097 28.628 L 83.945 28.628 L 83.945 22.646 L 82.097 22.646 Z" style=""/>
  <rect x="82.558" y="25.038" width="0.924" height="1.196" style=""/>
  <rect id="rect-7" data-name="&lt;Transparent Rectangle&gt;" class="cls-1" width="14.78" height="19.144" style="fill: none;" x="87.777" y="30.105"/>
  <rect x="326.748" y="47.111" style="fill: rgb(255, 210, 72);" width="14.944" height="4.322"/>
  <polygon style="fill: rgb(220, 137, 167);" points="346.049 31.85 324.045 31.85 324.045 18.337 346.049 18.337 350.185 25.093"/>
  <g transform="matrix(0.058753, 0, 0, 0.07678, 322.073761, 13.203117)" style="">
    <rect x="160.019" y="14.079" style="fill:#31C0D8;" width="93.413" height="52.796"/>
    <rect x="160.019" y="242.86" style="fill:#31C0D8;" width="93.413" height="198.765"/>
  </g>
  <path d="M 350.831 24.419 L 346.694 17.662 C 346.538 17.406 346.3 17.257 346.049 17.257 L 337.791 17.257 L 337.791 14.284 C 337.791 13.687 337.42 13.203 336.964 13.203 L 331.476 13.203 C 331.019 13.203 330.649 13.687 330.649 14.284 L 330.649 17.257 L 324.045 17.257 C 323.59 17.257 323.218 17.741 323.218 18.337 L 323.218 31.85 C 323.218 32.446 323.59 32.931 324.045 32.931 L 330.649 32.931 L 330.649 46.03 L 326.748 46.03 C 326.291 46.03 325.92 46.515 325.92 47.112 L 325.92 51.433 C 325.92 52.03 326.291 52.515 326.748 52.515 L 341.692 52.515 C 342.149 52.515 342.519 52.03 342.519 51.433 L 342.519 47.112 C 342.519 46.515 342.149 46.03 341.692 46.03 L 337.791 46.03 L 337.791 32.931 L 346.049 32.931 C 346.3 32.931 346.538 32.781 346.694 32.525 L 350.831 25.768 C 351.072 25.374 351.072 24.813 350.831 24.419 Z M 332.304 15.365 L 336.138 15.365 L 336.138 17.257 L 332.304 17.257 L 332.304 15.365 Z M 340.865 50.353 L 327.575 50.353 L 327.575 48.192 L 331.476 48.192 L 336.964 48.192 L 340.865 48.192 L 340.865 50.353 Z M 336.138 46.03 L 335.047 46.03 C 335.047 46.03 335.047 46.03 335.047 46.029 L 335.047 40.462 C 335.047 39.864 334.676 39.38 334.22 39.38 C 333.764 39.38 333.392 39.864 333.392 40.462 L 333.392 46.029 C 333.392 46.03 333.392 46.03 333.392 46.03 L 332.303 46.03 L 332.303 32.931 L 336.137 32.931 L 336.138 46.03 Z M 345.652 30.77 L 336.964 30.77 L 331.476 30.77 L 324.874 30.77 L 324.874 19.418 L 331.476 19.418 L 336.964 19.418 L 345.652 19.418 L 349.126 25.093 L 345.652 30.77 Z" style=""/>
  <path d="M 334.221 38.317 C 334.166 38.317 334.111 38.31 334.058 38.296 C 334.007 38.282 333.953 38.261 333.904 38.234 C 333.855 38.206 333.806 38.174 333.761 38.135 C 333.716 38.096 333.673 38.05 333.635 38 C 333.597 37.951 333.562 37.896 333.532 37.836 C 333.503 37.778 333.477 37.715 333.456 37.649 C 333.436 37.584 333.42 37.517 333.409 37.448 C 333.399 37.378 333.392 37.306 333.392 37.236 C 333.392 36.95 333.482 36.673 333.635 36.472 C 333.673 36.423 333.716 36.376 333.761 36.336 C 333.806 36.298 333.855 36.264 333.904 36.238 C 333.953 36.21 334.007 36.19 334.058 36.176 C 334.165 36.147 334.275 36.147 334.381 36.176 C 334.434 36.19 334.486 36.21 334.537 36.238 C 334.586 36.264 334.636 36.298 334.679 36.336 C 334.725 36.376 334.766 36.423 334.804 36.472 C 334.96 36.673 335.047 36.95 335.047 37.236 C 335.047 37.306 335.042 37.378 335.032 37.448 C 335.021 37.517 335.004 37.584 334.983 37.649 C 334.963 37.715 334.937 37.778 334.908 37.836 C 334.877 37.896 334.842 37.951 334.804 38 C 334.766 38.05 334.725 38.096 334.679 38.135 C 334.636 38.174 334.586 38.206 334.537 38.234 C 334.486 38.261 334.434 38.281 334.381 38.296 C 334.329 38.31 334.274 38.317 334.221 38.317 Z" style=""/>
  <g transform="matrix(0.057568, 0, 0, 0.078124, 238.391418, 177.391724)" style=""/>
  <g transform="matrix(0.057568, 0, 0, 0.078124, 238.391418, 177.391724)" style=""/>
  <g transform="matrix(0.057568, 0, 0, 0.078124, 238.391418, 177.391724)" style=""/>
  <g transform="matrix(0.057568, 0, 0, 0.078124, 238.391418, 177.391724)" style=""/>
  <g transform="matrix(0.057568, 0, 0, 0.078124, 238.391418, 177.391724)" style=""/>
  <g transform="matrix(0.057568, 0, 0, 0.078124, 238.391418, 177.391724)" style=""/>
  <g transform="matrix(0.057568, 0, 0, 0.078124, 238.391418, 177.391724)" style=""/>
  <g transform="matrix(0.057568, 0, 0, 0.078124, 238.391418, 177.391724)" style=""/>
  <g transform="matrix(0.057568, 0, 0, 0.078124, 238.391418, 177.391724)" style=""/>
  <g transform="matrix(0.057568, 0, 0, 0.078124, 238.391418, 177.391724)" style=""/>
  <g transform="matrix(0.057568, 0, 0, 0.078124, 238.391418, 177.391724)" style=""/>
  <g transform="matrix(0.057568, 0, 0, 0.078124, 238.391418, 177.391724)" style=""/>
  <g transform="matrix(0.057568, 0, 0, 0.078124, 238.391418, 177.391724)" style=""/>
  <g transform="matrix(0.057568, 0, 0, 0.078124, 238.391418, 177.391724)" style=""/>
  <g transform="matrix(0.057568, 0, 0, 0.078124, 238.391418, 177.391724)" style=""/>
  <path d="M 331.198 29.401 L 327.503 29.401 L 327.503 25.811 C 327.503 25.151 327.918 24.615 328.428 24.615 L 330.275 24.615 L 330.275 22.222 L 327.503 22.222 L 327.503 21.025 L 330.275 21.025 C 330.786 21.025 331.198 21.561 331.198 22.222 L 331.198 24.615 C 331.198 25.276 330.786 25.811 330.275 25.811 L 328.428 25.811 L 328.428 28.204 L 331.198 28.204 L 331.198 29.401 Z" style=""/>
  <rect id="rect-8" data-name="&lt;Transparent Rectangle&gt;" class="cls-1" width="14.78" height="19.144" style="fill: none;" x="333.611" y="29.76"/>
  <path d="M 335.222 29.328 L 333.375 29.328 C 332.866 29.328 332.451 28.791 332.451 28.131 L 332.451 22.148 C 332.451 21.487 332.866 20.952 333.375 20.952 L 335.222 20.952 C 335.733 20.952 336.147 21.487 336.147 22.148 L 336.147 28.131 C 336.147 28.791 335.733 29.328 335.222 29.328 Z M 333.375 22.148 L 333.375 28.131 L 335.222 28.131 L 335.222 22.148 L 333.375 22.148 Z" style=""/>
  <rect x="333.837" y="24.542" width="0.924" height="1.197" style=""/>
  <rect id="rect-9" data-name="&lt;Transparent Rectangle&gt;" class="cls-1" width="14.78" height="19.144" style="fill: none;" x="338.557" y="29.687"/>
  <path d="M 340.76 29.335 L 337.065 29.335 L 337.065 25.746 C 337.065 25.085 337.479 24.548 337.989 24.548 L 339.837 24.548 L 339.837 22.155 L 337.065 22.155 L 337.065 20.959 L 339.837 20.959 C 340.347 20.959 340.76 21.495 340.76 22.155 L 340.76 24.548 C 340.76 25.21 340.347 25.746 339.837 25.746 L 337.989 25.746 L 337.989 28.138 L 340.76 28.138 L 340.76 29.335 Z" style=""/>
  <rect id="rect-10" data-name="&lt;Transparent Rectangle&gt;" class="cls-1" width="14.78" height="19.144" style="fill: none;" x="343.173" y="29.693"/>
  <rect id="rect-11" data-name="&lt;Transparent Rectangle&gt;" class="cls-1" width="14.78" height="19.144" style="fill: none;" x="348.119" y="29.621"/>
  <path d="M 343.489 21.603 L 343.489 28.779 L 343.489 21.603 M 343.969 21.006 L 341.566 21.006 L 341.566 22.201 L 343.008 22.201 L 343.008 28.181 L 341.566 28.181 L 341.566 29.377 L 345.411 29.377 L 345.411 28.181 L 343.969 28.181 L 343.969 21.006 Z" style=""/>
  <g transform="matrix(-0.109682, 0, 0, -0.097709, 503.231293, 200.418945)" style="">
    <path style="fill:#464F5D;" d="M 36.894 213.914 C -60.063 114.772 53.436 -91.146 180.767 39.054 L 272.322 130.015 L 272.322 1 L 501.839 1 L 501.839 513 L 272.322 513 L 272.322 454.597 L 36.894 213.914 Z"/>
    <g>
      <path style="fill:#FFFFFF;" d="M387.085,112.609c-4.882,0-8.828-3.946-8.828-8.828V69.733c0-4.882,3.946-8.828,8.828-8.828 c4.882,0,8.828,3.946,8.828,8.828v34.048C395.913,108.663,391.967,112.609,387.085,112.609 M387.085,197.733 c-4.882,0-8.828-3.955-8.828-8.828v-34.057c0-4.882,3.946-8.828,8.828-8.828c4.882,0,8.828,3.946,8.828,8.828v34.057 C395.913,193.779,391.967,197.733,387.085,197.733 M387.085,282.849c-4.882,0-8.828-3.946-8.828-8.828v-34.039 c0-4.882,3.946-8.828,8.828-8.828c4.882,0,8.828,3.946,8.828,8.828v34.039C395.913,278.903,391.967,282.849,387.085,282.849 M387.085,367.982c-4.882,0-8.828-3.955-8.828-8.828v-34.057c0-4.873,3.946-8.828,8.828-8.828c4.882,0,8.828,3.955,8.828,8.828 v34.057C395.913,364.027,391.967,367.982,387.085,367.982 M387.085,453.098c-4.882,0-8.828-3.946-8.828-8.828v-34.048 c0-4.882,3.946-8.828,8.828-8.828c4.882,0,8.828,3.946,8.828,8.828v34.048C395.913,449.152,391.967,453.098,387.085,453.098"/>
      <path style="fill:#FFFFFF;" d="M163.809,192.618c-2.26,0-4.52-0.865-6.241-2.586l-24.011-24.011 c-3.443-3.443-3.443-9.031,0-12.482c3.452-3.443,9.039-3.443,12.482,0l24.011,24.011c3.452,3.452,3.452,9.031,0,12.482 C168.329,191.753,166.069,192.618,163.809,192.618 M223.828,252.637c-2.26,0-4.52-0.865-6.241-2.586l-24.011-24.011 c-3.452-3.443-3.452-9.031,0-12.482c3.452-3.452,9.039-3.452,12.482,0l24.011,24.011c3.443,3.443,3.443,9.031,0,12.482 C228.348,251.771,226.088,252.637,223.828,252.637"/>
      <path style="fill:#FFFFFF;" d="M272.327,301.135c-2.26,0-4.52-0.865-6.241-2.586l-12.482-12.482 c-3.452-3.452-3.452-9.031,0-12.482c3.452-3.452,9.031-3.452,12.482,0l12.482,12.482c3.452,3.452,3.452,9.031,0,12.482 C276.846,300.27,274.586,301.135,272.327,301.135"/>
    </g>
  </g>
  <g transform="matrix(0.05978, 0, 0, 0.058594, 171.67099, 34.043999)"/>
  <g transform="matrix(0.05978, 0, 0, 0.058594, 171.67099, 34.043999)"/>
  <g transform="matrix(0.05978, 0, 0, 0.058594, 171.67099, 34.043999)"/>
  <g transform="matrix(0.05978, 0, 0, 0.058594, 171.67099, 34.043999)"/>
  <g transform="matrix(0.05978, 0, 0, 0.058594, 171.67099, 34.043999)"/>
  <g transform="matrix(0.05978, 0, 0, 0.058594, 171.67099, 34.043999)"/>
  <g transform="matrix(0.05978, 0, 0, 0.058594, 171.67099, 34.043999)"/>
  <g transform="matrix(0.05978, 0, 0, 0.058594, 171.67099, 34.043999)"/>
  <g transform="matrix(0.05978, 0, 0, 0.058594, 171.67099, 34.043999)"/>
  <g transform="matrix(0.05978, 0, 0, 0.058594, 171.67099, 34.043999)"/>
  <g transform="matrix(0.05978, 0, 0, 0.058594, 171.67099, 34.043999)"/>
  <g transform="matrix(0.05978, 0, 0, 0.058594, 171.67099, 34.043999)"/>
  <g transform="matrix(0.05978, 0, 0, 0.058594, 171.67099, 34.043999)"/>
  <g transform="matrix(0.05978, 0, 0, 0.058594, 171.67099, 34.043999)"/>
  <g transform="matrix(0.05978, 0, 0, 0.058594, 171.67099, 34.043999)"/>
  <g transform="matrix(0, 0.132418, -0.126007, 0, 189.583832, 9.805099)" style="">
    <path style="fill:#464F5D;" d="M 37.333 214.496 C -55.813 103.606 113.434 -46.002 191.686 47.156 L 272.322 130.015 L 272.322 1 L 501.839 1 L 501.839 513 L 272.322 513 L 272.322 454.597 L 37.333 214.496 Z"/>
    <g>
      <path style="fill:#FFFFFF;" d="M387.085,112.609c-4.882,0-8.828-3.946-8.828-8.828V69.733c0-4.882,3.946-8.828,8.828-8.828 c4.882,0,8.828,3.946,8.828,8.828v34.048C395.913,108.663,391.967,112.609,387.085,112.609 M387.085,197.733 c-4.882,0-8.828-3.955-8.828-8.828v-34.057c0-4.882,3.946-8.828,8.828-8.828c4.882,0,8.828,3.946,8.828,8.828v34.057 C395.913,193.779,391.967,197.733,387.085,197.733 M387.085,282.849c-4.882,0-8.828-3.946-8.828-8.828v-34.039 c0-4.882,3.946-8.828,8.828-8.828c4.882,0,8.828,3.946,8.828,8.828v34.039C395.913,278.903,391.967,282.849,387.085,282.849 M387.085,367.982c-4.882,0-8.828-3.955-8.828-8.828v-34.057c0-4.873,3.946-8.828,8.828-8.828c4.882,0,8.828,3.955,8.828,8.828 v34.057C395.913,364.027,391.967,367.982,387.085,367.982 M387.085,453.098c-4.882,0-8.828-3.946-8.828-8.828v-34.048 c0-4.882,3.946-8.828,8.828-8.828c4.882,0,8.828,3.946,8.828,8.828v34.048C395.913,449.152,391.967,453.098,387.085,453.098"/>
      <path style="fill:#FFFFFF;" d="M163.809,192.618c-2.26,0-4.52-0.865-6.241-2.586l-24.011-24.011 c-3.443-3.443-3.443-9.031,0-12.482c3.452-3.443,9.039-3.443,12.482,0l24.011,24.011c3.452,3.452,3.452,9.031,0,12.482 C168.329,191.753,166.069,192.618,163.809,192.618 M223.828,252.637c-2.26,0-4.52-0.865-6.241-2.586l-24.011-24.011 c-3.452-3.443-3.452-9.031,0-12.482c3.452-3.452,9.039-3.452,12.482,0l24.011,24.011c3.443,3.443,3.443,9.031,0,12.482 C228.348,251.771,226.088,252.637,223.828,252.637"/>
      <path style="fill:#FFFFFF;" d="M272.327,301.135c-2.26,0-4.52-0.865-6.241-2.586l-12.482-12.482 c-3.452-3.452-3.452-9.031,0-12.482c3.452-3.452,9.031-3.452,12.482,0l12.482,12.482c3.452,3.452,3.452,9.031,0,12.482 C276.846,300.27,274.586,301.135,272.327,301.135"/>
    </g>
  </g>
  <g transform="matrix(-0.109682, 0, 0, -0.097709, 503.297272, 343.462341)" style="">
    <path style="fill:#464F5D;" d="M 40.943 219.961 C -61.736 112.201 75.533 -72.223 185.825 43.528 L 272.322 130.015 L 272.322 1 L 501.839 1 L 501.839 513 L 272.322 513 L 272.322 454.597 L 40.943 219.961 Z"/>
    <g>
      <path style="fill:#FFFFFF;" d="M387.085,112.609c-4.882,0-8.828-3.946-8.828-8.828V69.733c0-4.882,3.946-8.828,8.828-8.828 c4.882,0,8.828,3.946,8.828,8.828v34.048C395.913,108.663,391.967,112.609,387.085,112.609 M387.085,197.733 c-4.882,0-8.828-3.955-8.828-8.828v-34.057c0-4.882,3.946-8.828,8.828-8.828c4.882,0,8.828,3.946,8.828,8.828v34.057 C395.913,193.779,391.967,197.733,387.085,197.733 M387.085,282.849c-4.882,0-8.828-3.946-8.828-8.828v-34.039 c0-4.882,3.946-8.828,8.828-8.828c4.882,0,8.828,3.946,8.828,8.828v34.039C395.913,278.903,391.967,282.849,387.085,282.849 M387.085,367.982c-4.882,0-8.828-3.955-8.828-8.828v-34.057c0-4.873,3.946-8.828,8.828-8.828c4.882,0,8.828,3.955,8.828,8.828 v34.057C395.913,364.027,391.967,367.982,387.085,367.982 M387.085,453.098c-4.882,0-8.828-3.946-8.828-8.828v-34.048 c0-4.882,3.946-8.828,8.828-8.828c4.882,0,8.828,3.946,8.828,8.828v34.048C395.913,449.152,391.967,453.098,387.085,453.098"/>
      <path style="fill:#FFFFFF;" d="M163.809,192.618c-2.26,0-4.52-0.865-6.241-2.586l-24.011-24.011 c-3.443-3.443-3.443-9.031,0-12.482c3.452-3.443,9.039-3.443,12.482,0l24.011,24.011c3.452,3.452,3.452,9.031,0,12.482 C168.329,191.753,166.069,192.618,163.809,192.618 M223.828,252.637c-2.26,0-4.52-0.865-6.241-2.586l-24.011-24.011 c-3.452-3.443-3.452-9.031,0-12.482c3.452-3.452,9.039-3.452,12.482,0l24.011,24.011c3.443,3.443,3.443,9.031,0,12.482 C228.348,251.771,226.088,252.637,223.828,252.637"/>
      <path style="fill:#FFFFFF;" d="M272.327,301.135c-2.26,0-4.52-0.865-6.241-2.586l-12.482-12.482 c-3.452-3.452-3.452-9.031,0-12.482c3.452-3.452,9.031-3.452,12.482,0l12.482,12.482c3.452,3.452,3.452,9.031,0,12.482 C276.846,300.27,274.586,301.135,272.327,301.135"/>
    </g>
  </g>
  <g transform="matrix(0.096873, 0, 0, 0.132538, 185.95015, 27.031231)" style="">
    <polygon style="fill:#464F5D;" points="0,371.759 512,371.759 512,142.241 0,142.241 &#9;"/>
    <path style="fill:#FFFFFF;" d="M102.78,265.83H68.732c-4.882,0-8.828-3.946-8.828-8.828s3.946-8.828,8.828-8.828h34.048 c4.873,0,8.828,3.946,8.828,8.828S107.653,265.83,102.78,265.83 M187.905,265.83h-34.048c-4.882,0-8.828-3.946-8.828-8.828 s3.946-8.828,8.828-8.828h34.048c4.873,0,8.828,3.946,8.828,8.828S192.778,265.83,187.905,265.83 M273.029,265.83h-34.057 c-4.873,0-8.828-3.946-8.828-8.828s3.955-8.828,8.828-8.828h34.057c4.873,0,8.828,3.946,8.828,8.828S277.902,265.83,273.029,265.83 M358.145,265.83h-34.048c-4.873,0-8.828-3.946-8.828-8.828s3.955-8.828,8.828-8.828h34.048c4.873,0,8.828,3.946,8.828,8.828 S363.018,265.83,358.145,265.83 M443.269,265.83h-34.048c-4.873,0-8.828-3.946-8.828-8.828s3.955-8.828,8.828-8.828h34.048 c4.882,0,8.828,3.946,8.828,8.828S448.151,265.83,443.269,265.83"/>
  </g>
  <g transform="matrix(0.096873, 0, 0, 0.132538, 275.470154, 26.99741)" style="">
    <polygon style="fill:#464F5D;" points="0,371.759 512,371.759 512,142.241 0,142.241 &#9;"/>
    <path style="fill:#FFFFFF;" d="M102.78,265.83H68.732c-4.882,0-8.828-3.946-8.828-8.828s3.946-8.828,8.828-8.828h34.048 c4.873,0,8.828,3.946,8.828,8.828S107.653,265.83,102.78,265.83 M187.905,265.83h-34.048c-4.882,0-8.828-3.946-8.828-8.828 s3.946-8.828,8.828-8.828h34.048c4.873,0,8.828,3.946,8.828,8.828S192.778,265.83,187.905,265.83 M273.029,265.83h-34.057 c-4.873,0-8.828-3.946-8.828-8.828s3.955-8.828,8.828-8.828h34.057c4.873,0,8.828,3.946,8.828,8.828S277.902,265.83,273.029,265.83 M358.145,265.83h-34.048c-4.873,0-8.828-3.946-8.828-8.828s3.955-8.828,8.828-8.828h34.048c4.873,0,8.828,3.946,8.828,8.828 S363.018,265.83,358.145,265.83 M443.269,265.83h-34.048c-4.873,0-8.828-3.946-8.828-8.828s3.955-8.828,8.828-8.828h34.048 c4.882,0,8.828,3.946,8.828,8.828S448.151,265.83,443.269,265.83"/>
  </g>
  <g transform="matrix(0, -0.132418, 0.126007, 0, 308.712982, 479.243103)" style="">
    <path style="fill:#464F5D;" d="M 25.999 200.124 C -90.209 85.809 43.194 -95.709 172.438 31.431 L 272.322 130.015 L 272.322 1 L 501.839 1 L 501.839 513 L 272.322 513 L 272.322 454.597 L 25.999 200.124 Z"/>
    <g>
      <path style="fill:#FFFFFF;" d="M387.085,112.609c-4.882,0-8.828-3.946-8.828-8.828V69.733c0-4.882,3.946-8.828,8.828-8.828 c4.882,0,8.828,3.946,8.828,8.828v34.048C395.913,108.663,391.967,112.609,387.085,112.609 M387.085,197.733 c-4.882,0-8.828-3.955-8.828-8.828v-34.057c0-4.882,3.946-8.828,8.828-8.828c4.882,0,8.828,3.946,8.828,8.828v34.057 C395.913,193.779,391.967,197.733,387.085,197.733 M387.085,282.849c-4.882,0-8.828-3.946-8.828-8.828v-34.039 c0-4.882,3.946-8.828,8.828-8.828c4.882,0,8.828,3.946,8.828,8.828v34.039C395.913,278.903,391.967,282.849,387.085,282.849 M387.085,367.982c-4.882,0-8.828-3.955-8.828-8.828v-34.057c0-4.873,3.946-8.828,8.828-8.828c4.882,0,8.828,3.955,8.828,8.828 v34.057C395.913,364.027,391.967,367.982,387.085,367.982 M387.085,453.098c-4.882,0-8.828-3.946-8.828-8.828v-34.048 c0-4.882,3.946-8.828,8.828-8.828c4.882,0,8.828,3.946,8.828,8.828v34.048C395.913,449.152,391.967,453.098,387.085,453.098"/>
      <path style="fill:#FFFFFF;" d="M163.809,192.618c-2.26,0-4.52-0.865-6.241-2.586l-24.011-24.011 c-3.443-3.443-3.443-9.031,0-12.482c3.452-3.443,9.039-3.443,12.482,0l24.011,24.011c3.452,3.452,3.452,9.031,0,12.482 C168.329,191.753,166.069,192.618,163.809,192.618 M223.828,252.637c-2.26,0-4.52-0.865-6.241-2.586l-24.011-24.011 c-3.452-3.443-3.452-9.031,0-12.482c3.452-3.452,9.039-3.452,12.482,0l24.011,24.011c3.443,3.443,3.443,9.031,0,12.482 C228.348,251.771,226.088,252.637,223.828,252.637"/>
      <path style="fill:#FFFFFF;" d="M272.327,301.135c-2.26,0-4.52-0.865-6.241-2.586l-12.482-12.482 c-3.452-3.452-3.452-9.031,0-12.482c3.452-3.452,9.031-3.452,12.482,0l12.482,12.482c3.452,3.452,3.452,9.031,0,12.482 C276.846,300.27,274.586,301.135,272.327,301.135"/>
    </g>
  </g>
  <g transform="matrix(-0.057568, 0, 0, 0.078125, 278.198517, 313.807312)"/>
  <g transform="matrix(-0.057568, 0, 0, 0.078125, 278.198517, 313.807312)"/>
  <g transform="matrix(-0.057568, 0, 0, 0.078125, 278.198517, 313.807312)"/>
  <g transform="matrix(-0.057568, 0, 0, 0.078125, 278.198517, 313.807312)"/>
  <g transform="matrix(-0.057568, 0, 0, 0.078125, 278.198517, 313.807312)"/>
  <g transform="matrix(-0.057568, 0, 0, 0.078125, 278.198517, 313.807312)"/>
  <g transform="matrix(-0.057568, 0, 0, 0.078125, 278.198517, 313.807312)"/>
  <g transform="matrix(-0.057568, 0, 0, 0.078125, 278.198517, 313.807312)"/>
  <g transform="matrix(-0.057568, 0, 0, 0.078125, 278.198517, 313.807312)"/>
  <g transform="matrix(-0.057568, 0, 0, 0.078125, 278.198517, 313.807312)"/>
  <g transform="matrix(-0.057568, 0, 0, 0.078125, 278.198517, 313.807312)"/>
  <g transform="matrix(-0.057568, 0, 0, 0.078125, 278.198517, 313.807312)"/>
  <g transform="matrix(-0.057568, 0, 0, 0.078125, 278.198517, 313.807312)"/>
  <g transform="matrix(-0.057568, 0, 0, 0.078125, 278.198517, 313.807312)"/>
  <g transform="matrix(-0.057568, 0, 0, 0.078125, 278.198517, 313.807312)"/>
  <g transform="matrix(0.077499, 0, 0, 0.086922, 454.158203, 429.253601)">
    <path style="fill:#556080;" d="M273.067,444.735h-51.2v-73.54c0-6.511,5.282-11.793,11.793-11.793h27.614 c6.511,0,11.793,5.282,11.793,11.793V444.735z"/>
    <polygon style="fill:#4482C3;" points="452.267,265.535 179.2,265.535 179.2,299.668 452.267,299.668 503.467,299.668 &#10;&#9;&#9;503.467,265.535 &#9;"/>
    <polygon style="fill:#28BAE8;" points="315.733,444.732 486.4,444.732 486.4,299.665 315.733,299.665 &#9;"/>
    <polygon style="fill:#556080;" points="76.8,444.732 110.933,444.732 110.933,205.799 76.8,205.799 &#9;"/>
    <polygon style="fill:#F3D55B;" points="59.733,111.932 128,111.932 128,60.732 59.733,60.732 &#9;"/>
    <polygon style="fill:#D75A4A;" points="128,86.335 128,111.935 59.733,111.935 59.733,86.335 8.533,86.335 8.533,205.801 &#10;&#9;&#9;179.2,205.801 179.2,86.335 &#9;"/>
    <polygon style="fill:#4482C3;" points="366.933,444.732 435.2,444.732 435.2,359.399 366.933,359.399 &#9;"/>
    <path style="fill:#95A5A5;" d="M503.467,453.268H8.533c-4.719,0-8.533-3.814-8.533-8.533c0-4.719,3.814-8.533,8.533-8.533h494.933 c4.719,0,8.533,3.814,8.533,8.533C512,449.454,508.186,453.268,503.467,453.268"/>
  </g>
  <g transform="matrix(0.078125, 0, 0, 0.088443, 467.903137, 420.279205)"/>
  <g transform="matrix(0.078125, 0, 0, 0.088443, 467.903137, 420.279205)"/>
  <g transform="matrix(0.078125, 0, 0, 0.088443, 467.903137, 420.279205)"/>
  <g transform="matrix(0.078125, 0, 0, 0.088443, 467.903137, 420.279205)"/>
  <g transform="matrix(0.078125, 0, 0, 0.088443, 467.903137, 420.279205)"/>
  <g transform="matrix(0.078125, 0, 0, 0.088443, 467.903137, 420.279205)"/>
  <g transform="matrix(0.078125, 0, 0, 0.088443, 467.903137, 420.279205)"/>
  <g transform="matrix(0.078125, 0, 0, 0.088443, 467.903137, 420.279205)"/>
  <g transform="matrix(0.078125, 0, 0, 0.088443, 467.903137, 420.279205)"/>
  <g transform="matrix(0.078125, 0, 0, 0.088443, 467.903137, 420.279205)"/>
  <g transform="matrix(0.078125, 0, 0, 0.088443, 467.903137, 420.279205)"/>
  <g transform="matrix(0.078125, 0, 0, 0.088443, 467.903137, 420.279205)"/>
  <g transform="matrix(0.078125, 0, 0, 0.088443, 467.903137, 420.279205)"/>
  <g transform="matrix(0.078125, 0, 0, 0.088443, 467.903137, 420.279205)"/>
  <g transform="matrix(0.078125, 0, 0, 0.088443, 467.903137, 420.279205)"/>
  <g transform="matrix(0, -0.132418, 0.126007, 0, 200.068115, 479.242828)" style="">
    <path style="fill:#464F5D;" d="M 21.329 200.321 C -72.863 110.629 67.488 -67.42 175.894 35.807 L 272.322 130.015 L 272.322 1 L 501.839 1 L 501.839 513 L 272.322 513 L 272.322 454.597 L 21.329 200.321 Z"/>
    <g>
      <path style="fill:#FFFFFF;" d="M387.085,112.609c-4.882,0-8.828-3.946-8.828-8.828V69.733c0-4.882,3.946-8.828,8.828-8.828 c4.882,0,8.828,3.946,8.828,8.828v34.048C395.913,108.663,391.967,112.609,387.085,112.609 M387.085,197.733 c-4.882,0-8.828-3.955-8.828-8.828v-34.057c0-4.882,3.946-8.828,8.828-8.828c4.882,0,8.828,3.946,8.828,8.828v34.057 C395.913,193.779,391.967,197.733,387.085,197.733 M387.085,282.849c-4.882,0-8.828-3.946-8.828-8.828v-34.039 c0-4.882,3.946-8.828,8.828-8.828c4.882,0,8.828,3.946,8.828,8.828v34.039C395.913,278.903,391.967,282.849,387.085,282.849 M387.085,367.982c-4.882,0-8.828-3.955-8.828-8.828v-34.057c0-4.873,3.946-8.828,8.828-8.828c4.882,0,8.828,3.955,8.828,8.828 v34.057C395.913,364.027,391.967,367.982,387.085,367.982 M387.085,453.098c-4.882,0-8.828-3.946-8.828-8.828v-34.048 c0-4.882,3.946-8.828,8.828-8.828c4.882,0,8.828,3.946,8.828,8.828v34.048C395.913,449.152,391.967,453.098,387.085,453.098"/>
      <path style="fill:#FFFFFF;" d="M163.809,192.618c-2.26,0-4.52-0.865-6.241-2.586l-24.011-24.011 c-3.443-3.443-3.443-9.031,0-12.482c3.452-3.443,9.039-3.443,12.482,0l24.011,24.011c3.452,3.452,3.452,9.031,0,12.482 C168.329,191.753,166.069,192.618,163.809,192.618 M223.828,252.637c-2.26,0-4.52-0.865-6.241-2.586l-24.011-24.011 c-3.452-3.443-3.452-9.031,0-12.482c3.452-3.452,9.039-3.452,12.482,0l24.011,24.011c3.443,3.443,3.443,9.031,0,12.482 C228.348,251.771,226.088,252.637,223.828,252.637"/>
      <path style="fill:#FFFFFF;" d="M272.327,301.135c-2.26,0-4.52-0.865-6.241-2.586l-12.482-12.482 c-3.452-3.452-3.452-9.031,0-12.482c3.452-3.452,9.031-3.452,12.482,0l12.482,12.482c3.452,3.452,3.452,9.031,0,12.482 C276.846,300.27,274.586,301.135,272.327,301.135"/>
    </g>
  </g>
  <g transform="matrix(0.058594, 0, 0, 0.080915, 165.999313, 167.621338)"/>
  <g transform="matrix(0.058594, 0, 0, 0.080915, 165.999313, 167.621338)"/>
  <g transform="matrix(0.058594, 0, 0, 0.080915, 165.999313, 167.621338)"/>
  <g transform="matrix(0.058594, 0, 0, 0.080915, 165.999313, 167.621338)"/>
  <g transform="matrix(0.058594, 0, 0, 0.080915, 165.999313, 167.621338)"/>
  <g transform="matrix(0.058594, 0, 0, 0.080915, 165.999313, 167.621338)"/>
  <g transform="matrix(0.058594, 0, 0, 0.080915, 165.999313, 167.621338)"/>
  <g transform="matrix(0.058594, 0, 0, 0.080915, 165.999313, 167.621338)"/>
  <g transform="matrix(0.058594, 0, 0, 0.080915, 165.999313, 167.621338)"/>
  <g transform="matrix(0.058594, 0, 0, 0.080915, 165.999313, 167.621338)"/>
  <g transform="matrix(0.058594, 0, 0, 0.080915, 165.999313, 167.621338)"/>
  <g transform="matrix(0.058594, 0, 0, 0.080915, 165.999313, 167.621338)"/>
  <g transform="matrix(0.058594, 0, 0, 0.080915, 165.999313, 167.621338)"/>
  <g transform="matrix(0.058594, 0, 0, 0.080915, 165.999313, 167.621338)"/>
  <g transform="matrix(0.058594, 0, 0, 0.080915, 165.999313, 167.621338)"/>
  <g transform="matrix(0.096348, 0, 0, 0.132208, 231.715836, 27.096916)" style="">
    <polygon style="fill:#464F5D;" points="0,371.759 512,371.759 512,142.241 0,142.241 &#9;"/>
    <g>
      <path style="fill:#FFFFFF;" d="M158.897,265.83h-17.655c-4.882,0-8.828-3.946-8.828-8.828s3.946-8.828,8.828-8.828h17.655 c4.882,0,8.828,3.946,8.828,8.828S163.778,265.83,158.897,265.83"/>
      <path style="fill:#FFFFFF;" d="M94.897,265.83H64c-4.882,0-8.828-3.946-8.828-8.828s3.946-8.828,8.828-8.828h30.897 c4.882,0,8.828,3.946,8.828,8.828S99.778,265.83,94.897,265.83"/>
      <path style="fill:#FFFFFF;" d="M448,265.83h-30.897c-4.882,0-8.828-3.946-8.828-8.828s3.946-8.828,8.828-8.828H448 c4.882,0,8.828,3.946,8.828,8.828S452.882,265.83,448,265.83"/>
      <path style="fill:#FFFFFF;" d="M370.759,265.83h-17.655c-4.882,0-8.828-3.946-8.828-8.828s3.946-8.828,8.828-8.828h17.655 c4.882,0,8.828,3.946,8.828,8.828S375.64,265.83,370.759,265.83"/>
      <path style="fill:#FFFFFF;" d="M308.966,195.21H203.034c-4.882,0-8.828-3.946-8.828-8.828s3.946-8.828,8.828-8.828h105.931 c4.882,0,8.828,3.946,8.828,8.828S313.847,195.21,308.966,195.21"/>
      <path style="fill:#FFFFFF;" d="M308.966,230.52H203.034c-4.882,0-8.828-3.946-8.828-8.828s3.946-8.828,8.828-8.828h105.931 c4.882,0,8.828,3.946,8.828,8.828S313.847,230.52,308.966,230.52"/>
      <path style="fill:#FFFFFF;" d="M308.966,265.83H203.034c-4.882,0-8.828-3.946-8.828-8.828s3.946-8.828,8.828-8.828h105.931 c4.882,0,8.828,3.946,8.828,8.828S313.847,265.83,308.966,265.83"/>
      <path style="fill:#FFFFFF;" d="M308.966,301.141H203.034c-4.882,0-8.828-3.946-8.828-8.828s3.946-8.828,8.828-8.828h105.931 c4.882,0,8.828,3.946,8.828,8.828S313.847,301.141,308.966,301.141"/>
      <path style="fill:#FFFFFF;" d="M308.966,336.451H203.034c-4.882,0-8.828-3.946-8.828-8.828c0-4.882,3.946-8.828,8.828-8.828 h105.931c4.882,0,8.828,3.946,8.828,8.828C317.793,332.505,313.847,336.451,308.966,336.451"/>
    </g>
  </g>
  <rect style="fill:#31C0D8;" transform="matrix(-1, 0, 0, 1, 0, 0)" x="-276.318" y="414.642" width="14.945" height="4.322"/>
  <polygon style="fill:#FFD248;" points="274.884 385.868 252.881 385.868 252.881 399.38 274.884 399.38 279.02 392.624" transform="matrix(-1, 0, 0, -1, 531.900986, 785.248016)"/>
  <g transform="matrix(-0.058754, 0, 0, 0.076781, 280.991638, 380.733124)">
    <rect x="160.019" y="14.079" style="fill:#dc89a7;" width="93.413" height="52.796"/>
    <rect x="160.019" y="242.86" style="fill:#dc89a7;" width="93.413" height="198.765"/>
  </g>
  <path d="M 279.667 408.829 L 275.531 415.586 C 275.373 415.842 275.135 415.991 274.884 415.991 L 266.626 415.991 L 266.626 418.964 C 266.626 419.561 266.256 420.045 265.8 420.045 L 260.311 420.045 C 259.855 420.045 259.484 419.561 259.484 418.964 L 259.484 415.991 L 252.881 415.991 C 252.424 415.991 252.054 415.507 252.054 414.91 L 252.054 401.398 C 252.054 400.801 252.424 400.317 252.881 400.317 L 259.484 400.317 L 259.484 387.218 L 255.583 387.218 C 255.126 387.218 254.756 386.733 254.756 386.137 L 254.756 381.814 C 254.756 381.217 255.126 380.733 255.583 380.733 L 270.529 380.733 C 270.985 380.733 271.355 381.217 271.355 381.814 L 271.355 386.137 C 271.355 386.733 270.985 387.218 270.529 387.218 L 266.626 387.218 L 266.626 400.317 L 274.884 400.317 C 275.135 400.317 275.373 400.467 275.531 400.723 L 279.667 407.479 C 279.908 407.874 279.908 408.434 279.667 408.829 Z M 261.138 417.883 L 264.971 417.883 L 264.971 415.991 L 261.138 415.991 L 261.138 417.883 Z M 269.7 382.895 L 256.411 382.895 L 256.411 385.055 L 260.311 385.055 L 265.8 385.055 L 269.7 385.055 L 269.7 382.895 Z M 264.971 387.218 L 263.882 387.218 C 263.882 387.218 263.882 387.219 263.882 387.219 L 263.882 392.786 C 263.882 393.383 263.511 393.867 263.055 393.867 C 262.599 393.867 262.229 393.383 262.229 392.786 L 262.229 387.219 C 262.229 387.219 262.229 387.218 262.229 387.218 L 261.138 387.218 L 261.138 400.317 L 264.971 400.317 L 264.971 387.218 Z M 274.488 402.479 L 265.8 402.479 L 260.311 402.479 L 253.708 402.479 L 253.708 413.83 L 260.311 413.83 L 265.8 413.83 L 274.488 413.83 L 277.961 408.154 L 274.488 402.479 Z" transform="matrix(-1, 0, 0, -1, 531.901749, 800.778015)"/>
  <path d="M 268.846 403.685 C 268.792 403.685 268.737 403.693 268.685 403.707 C 268.632 403.721 268.58 403.741 268.529 403.769 C 268.479 403.795 268.432 403.829 268.387 403.868 C 268.34 403.907 268.299 403.953 268.261 404.002 C 268.223 404.052 268.189 404.107 268.158 404.167 C 268.128 404.225 268.102 404.288 268.082 404.354 C 268.062 404.419 268.045 404.486 268.034 404.556 C 268.023 404.625 268.018 404.697 268.018 404.766 C 268.018 405.051 268.106 405.33 268.261 405.531 C 268.3 405.58 268.34 405.625 268.387 405.666 C 268.432 405.705 268.479 405.738 268.529 405.765 C 268.58 405.792 268.632 405.813 268.685 405.827 C 268.791 405.855 268.9 405.855 269.007 405.827 C 269.06 405.813 269.112 405.792 269.162 405.765 C 269.212 405.738 269.26 405.705 269.305 405.666 C 269.35 405.625 269.392 405.58 269.431 405.531 C 269.584 405.33 269.673 405.051 269.673 404.766 C 269.673 404.697 269.669 404.625 269.657 404.556 C 269.646 404.486 269.63 404.419 269.609 404.354 C 269.589 404.288 269.562 404.225 269.534 404.167 C 269.503 404.107 269.469 404.052 269.431 404.002 C 269.392 403.953 269.35 403.907 269.305 403.868 C 269.26 403.829 269.212 403.795 269.162 403.769 C 269.112 403.741 269.06 403.721 269.007 403.707 C 268.954 403.693 268.9 403.685 268.846 403.685 Z" transform="matrix(-1, 0, 0, -1, 537.69101, 809.53302)"/>
  <path d="M 275.655 397.004 L 271.961 397.004 L 271.961 393.415 C 271.961 392.755 272.375 392.218 272.885 392.218 L 274.732 392.218 L 274.732 389.825 L 271.961 389.825 L 271.961 388.629 L 274.732 388.629 C 275.242 388.629 275.655 389.164 275.655 389.825 L 275.655 392.218 C 275.655 392.879 275.242 393.415 274.732 393.415 L 272.885 393.415 L 272.885 395.808 L 275.655 395.808 L 275.655 397.004 Z" style=""/>
  <rect id="rect-12" data-name="&lt;Transparent Rectangle&gt;" class="cls-1" width="14.78" height="19.144" style="fill: none;" x="-269.455" y="397.29" transform="matrix(-1, 0, 0, 1, 0, 0)"/>
  <path d="M 265.514 388.556 L 263.666 388.556 C 263.157 388.556 262.744 389.092 262.744 389.752 L 262.744 395.735 C 262.744 396.396 263.157 396.932 263.666 396.932 L 265.514 396.932 C 266.025 396.932 266.439 396.396 266.439 395.735 L 266.439 389.752 C 266.439 389.092 266.025 388.556 265.514 388.556 Z M 263.666 395.735 L 263.666 389.752 L 265.514 389.752 L 265.514 395.735 L 263.666 395.735 Z" style="" transform="matrix(-1, 0, 0, -1, 529.182983, 785.488007)"/>
  <rect x="-265.053" y="392.145" width="0.924" height="1.197" style="" transform="matrix(-1, 0, 0, 1, 0, 0)"/>
  <rect id="rect-13" data-name="&lt;Transparent Rectangle&gt;" class="cls-1" width="14.78" height="19.144" style="fill: none;" x="-264.507" y="397.218" transform="matrix(-1, 0, 0, 1, 0, 0)"/>
  <path d="M 271.153 396.993 L 267.457 396.993 L 267.457 393.404 C 267.457 392.744 267.871 392.207 268.382 392.207 L 270.228 392.207 L 270.228 389.815 L 267.457 389.815 L 267.457 388.618 L 270.228 388.618 C 270.739 388.618 271.153 389.154 271.153 389.815 L 271.153 392.207 C 271.153 392.869 270.739 393.404 270.228 393.404 L 268.382 393.404 L 268.382 395.797 L 271.153 395.797 L 271.153 396.993 Z" style=""/>
  <rect id="rect-14" data-name="&lt;Transparent Rectangle&gt;" class="cls-1" width="14.78" height="19.144" style="fill: none;" x="-259.894" y="397.224" transform="matrix(-1, 0, 0, 1, 0, 0)"/>
  <rect id="rect-15" data-name="&lt;Transparent Rectangle&gt;" class="cls-1" width="14.78" height="19.144" style="fill: none;" x="-254.947" y="397.152" transform="matrix(-1, 0, 0, 1, 0, 0)"/>
  <path d="M 261.646 396.949 L 257.951 396.949 L 257.951 393.36 C 257.951 392.7 258.365 392.163 258.875 392.163 L 260.722 392.163 L 260.722 389.771 L 257.951 389.771 L 257.951 388.574 L 260.722 388.574 C 261.233 388.574 261.646 389.11 261.646 389.771 L 261.646 392.163 C 261.646 392.824 261.233 393.36 260.722 393.36 L 258.875 393.36 L 258.875 395.753 L 261.646 395.753 L 261.646 396.949 Z" style=""/>
  <path fill="#83bf4f" d="M 272.202 271.58 C 267.15 274.203 260.794 271.58 255.09 271.58 C 241.368 271.58 226.788 276.31 213.923 271.58 C 209.148 269.824 209.132 258.155 213.923 256.445 C 227.222 251.698 242.194 256.445 256.33 256.445 C 263.357 256.445 270.483 255.279 277.41 256.445 C 278.586 256.643 277.795 258.873 277.41 259.992 C 276.033 263.994 275.983 269.617 272.202 271.58 Z"/>
  <path d="M 245.666 263.521 C 231.084 263.521 219.18 261.653 219.18 259.295 L 219.18 264.405 C 219.18 266.764 231.084 268.631 245.666 268.631 C 260.249 268.631 272.152 266.764 272.152 264.405 L 272.152 259.295 C 272.152 261.653 260.249 263.521 245.666 263.521" fill="#d0d0d0"/>
  <ellipse cx="245.666" cy="253.693" rx="30.256" ry="4.717" fill="#e8e8e8"/>
  <ellipse cx="245.666" cy="253.693" rx="25.494" ry="2.85" fill="#42ade2"/>
  <path d="M 249.436 250.843 C 247.849 249.368 247.75 244.651 247.75 244.651 L 243.583 244.651 C 243.583 244.651 243.484 249.467 241.897 250.843 C 241.004 251.629 238.623 252.612 238.127 253.693 C 237.929 254.184 241.5 254.675 245.666 254.675 C 249.833 254.675 253.503 254.184 253.206 253.693 C 252.71 252.612 250.329 251.629 249.436 250.843" fill="#e8e8e8"/>
  <path d="M 245.666 244.651 L 243.583 244.651 C 243.583 244.651 243.583 246.322 243.186 247.894 C 243.98 247.992 244.774 247.992 245.666 247.992 C 246.559 247.992 247.353 247.992 248.146 247.894 C 247.849 246.223 247.75 244.651 247.75 244.651 L 245.666 244.651" fill="#d0d0d0"/>
  <path d="M 250.428 245.241 C 248.94 247.108 242.69 246.911 241.004 245.241 C 240.012 244.258 240.012 239.639 240.012 239.639 L 251.321 239.639 C 251.321 239.639 251.321 244.16 250.428 245.241" fill="#e8e8e8"/>
  <path d="M 258.265 239.442 C 254.297 241.899 237.532 241.703 233.068 239.442 C 230.39 238.066 230.588 231.875 230.588 231.875 L 260.844 231.875 C 260.745 231.776 260.645 237.968 258.265 239.442" fill="#d0d0d0"/>
  <ellipse cx="245.666" cy="232.071" rx="15.078" ry="1.867" fill="#e8e8e8"/>
  <ellipse cx="245.666" cy="232.071" rx="13.193" ry="0.983" fill="#42ade2"/>
  <path d="M 272.152 261.064 C 267.49 262.538 257.372 263.521 245.666 263.521 C 233.961 263.521 223.942 262.538 219.18 261.064 L 219.18 263.324 C 223.843 264.798 233.961 265.781 245.666 265.781 C 257.372 265.781 267.391 264.798 272.152 263.324 L 272.152 261.064" fill="#94989b"/>
  <path d="M 245.666 258.312 C 229.001 258.312 215.411 256.248 215.411 253.594 L 215.411 259.196 C 215.411 261.752 229.001 263.914 245.666 263.914 C 262.332 263.914 275.922 261.85 275.922 259.196 L 275.922 253.594 C 275.922 256.248 262.332 258.312 245.666 258.312" fill="#d0d0d0"/>
  <path d="M 245.666 232.071 C 245.666 232.071 243.186 218.607 240.012 218.607 C 236.54 218.705 244.575 225.683 245.666 232.071" fill="#b4d7ee"/>
  <path d="M 245.071 231.088 C 245.071 231.088 234.854 213.496 231.779 217.919 C 230.588 219.491 240.31 223.619 245.071 231.088" fill="#d6eef0"/>
  <path d="M 247.254 231.776 C 247.254 231.776 250.825 220.966 256.082 222.047 C 258.066 222.44 249.138 227.649 247.254 231.776" fill="#b4d7ee"/>
  <g fill="#d6eef0" transform="matrix(0.991987, 0, 0, 0.982798, 213.923599, 208.68071)">
    <path d="M34.9 23.5s5.5-8.4 11.4-8.4s3.3 3.3 0 3.3s-7.8.9-11.4 5.1"/>
    <path d="M31.8 17.3S31.4 4.9 27.3 4c-3.7-.8 4.6 7 4.5 13.3"/>
  </g>
  <g fill="#b4d7ee" transform="matrix(0.991987, 0, 0, 0.982798, 213.923599, 208.68071)">
    <path d="M32 24.3S32 0 35.6 0c2.6 0-3 15-3.6 24.3"/>
    <path d="M21.5 24.4s-7.6-6-7.6 21.5c0 0 .5.8 3.4.8c0 0-.1-21.5 4.2-22.3"/>
    <path d="M42.5 24.4s7.6-6 7.6 21.5c0 0-.5.8-3.4.8c0 0 .1-21.5-4.2-22.3"/>
    <path d="M30.8 23.5s-5.5-8.4-11.4-8.4s-3.3 3.3 0 3.3s7.7.9 11.4 5.1"/>
  </g>
  <path d="M 245.766 232.366 C 245.766 232.366 251.618 212.907 255.586 216.445 C 257.173 217.821 248.543 224.11 245.766 232.366" fill="#d6eef0"/>
  <g transform="matrix(0.096873, 0, 0, 0.132538, 156.17775, 393.941223)" style="">
    <polygon style="fill:#464F5D;" points="0,371.759 512,371.759 512,142.241 0,142.241 &#9;"/>
    <path style="fill:#FFFFFF;" d="M102.78,265.83H68.732c-4.882,0-8.828-3.946-8.828-8.828s3.946-8.828,8.828-8.828h34.048 c4.873,0,8.828,3.946,8.828,8.828S107.653,265.83,102.78,265.83 M187.905,265.83h-34.048c-4.882,0-8.828-3.946-8.828-8.828 s3.946-8.828,8.828-8.828h34.048c4.873,0,8.828,3.946,8.828,8.828S192.778,265.83,187.905,265.83 M273.029,265.83h-34.057 c-4.873,0-8.828-3.946-8.828-8.828s3.955-8.828,8.828-8.828h34.057c4.873,0,8.828,3.946,8.828,8.828S277.902,265.83,273.029,265.83 M358.145,265.83h-34.048c-4.873,0-8.828-3.946-8.828-8.828s3.955-8.828,8.828-8.828h34.048c4.873,0,8.828,3.946,8.828,8.828 S363.018,265.83,358.145,265.83 M443.269,265.83h-34.048c-4.873,0-8.828-3.946-8.828-8.828s3.955-8.828,8.828-8.828h34.048 c4.882,0,8.828,3.946,8.828,8.828S448.151,265.83,443.269,265.83"/>
  </g>
  <g transform="matrix(0.096873, 0, 0, 0.096783, 117.825249, 363.534088)">
    <path style="fill:#804537;" d="M273.067,372.2h-34.133c0,0,8.892,128-59.733,128h153.6C264.175,500.2,273.067,372.2,273.067,372.2"/>
    <path style="fill:#24AE5F;" d="M384,278.333c0-76.8-51.2-93.867-51.2-93.867c7.279-12.561,8.533-27.102,8.533-42.667 c0-28.954-14.455-54.494-36.506-69.922c1.536-4.864,2.372-10.044,2.372-15.411c0-28.279-22.921-51.2-51.2-51.2 c-28.279,0-51.2,22.921-51.2,51.2c0,5.367,0.836,10.547,2.372,15.411c-22.05,15.428-36.506,40.969-36.506,69.922 c0,15.565,1.254,30.106,8.533,42.667c0,0-51.2,17.067-51.2,93.867c0,0-5.862,93.867,128,93.867S384,278.333,384,278.333"/>
    <g>
      <path style="fill:#1F8447;" d="M332.8,278.333c-23.526,0-42.667-19.14-42.667-42.667c0-4.71,3.823-8.533,8.533-8.533 s8.533,3.823,8.533,8.533c0,14.114,11.486,25.6,25.6,25.6c4.71,0,8.533,3.823,8.533,8.533 C341.333,274.51,337.51,278.333,332.8,278.333"/>
      <path style="fill:#1F8447;" d="M281.6,329.533c-23.526,0-42.667-19.14-42.667-42.667c0-4.71,3.823-8.533,8.533-8.533 s8.533,3.823,8.533,8.533c0,14.114,11.486,25.6,25.6,25.6c4.71,0,8.533,3.823,8.533,8.533 C290.133,325.71,286.31,329.533,281.6,329.533"/>
      <path style="fill:#1F8447;" d="M273.067,124.733c-23.526,0-42.667-19.14-42.667-42.667c0-4.71,3.823-8.533,8.533-8.533 s8.533,3.823,8.533,8.533c0,14.114,11.486,25.6,25.6,25.6c4.71,0,8.533,3.823,8.533,8.533 C281.6,120.91,277.777,124.733,273.067,124.733"/>
      <path style="fill:#1F8447;" d="M247.467,210.067c-4.71,0-8.533-3.823-8.533-8.533s3.823-8.533,8.533-8.533 c14.114,0,25.6-11.486,25.6-25.6c0-4.71,3.823-8.533,8.533-8.533s8.533,3.823,8.533,8.533 C290.133,190.926,270.993,210.067,247.467,210.067"/>
      <path style="fill:#1F8447;" d="M170.667,278.333c-4.71,0-8.533-3.823-8.533-8.533c0-4.71,3.823-8.533,8.533-8.533 c14.114,0,25.6-11.486,25.6-25.6c0-4.71,3.823-8.533,8.533-8.533c4.71,0,8.533,3.823,8.533,8.533 C213.333,259.193,194.193,278.333,170.667,278.333"/>
    </g>
    <path style="fill:#BDC3C7;" d="M503.467,508.733H8.533C3.823,508.733,0,504.91,0,500.2c0-4.71,3.823-8.533,8.533-8.533h494.933 c4.71,0,8.533,3.823,8.533,8.533C512,504.91,508.177,508.733,503.467,508.733"/>
  </g>
  <g transform="matrix(0.097656, 0, 0, 0.098477, 300.066833, 120.524063)"/>
  <g transform="matrix(0.097656, 0, 0, 0.098477, 300.066833, 120.524063)"/>
  <g transform="matrix(0.097656, 0, 0, 0.098477, 300.066833, 120.524063)"/>
  <g transform="matrix(0.097656, 0, 0, 0.098477, 300.066833, 120.524063)"/>
  <g transform="matrix(0.097656, 0, 0, 0.098477, 300.066833, 120.524063)"/>
  <g transform="matrix(0.097656, 0, 0, 0.098477, 300.066833, 120.524063)"/>
  <g transform="matrix(0.097656, 0, 0, 0.098477, 300.066833, 120.524063)"/>
  <g transform="matrix(0.097656, 0, 0, 0.098477, 300.066833, 120.524063)"/>
  <g transform="matrix(0.097656, 0, 0, 0.098477, 300.066833, 120.524063)"/>
  <g transform="matrix(0.097656, 0, 0, 0.098477, 300.066833, 120.524063)"/>
  <g transform="matrix(0.097656, 0, 0, 0.098477, 300.066833, 120.524063)"/>
  <g transform="matrix(0.097656, 0, 0, 0.098477, 300.066833, 120.524063)"/>
  <g transform="matrix(0.097656, 0, 0, 0.098477, 300.066833, 120.524063)"/>
  <g transform="matrix(0.097656, 0, 0, 0.098477, 300.066833, 120.524063)"/>
  <g transform="matrix(0.097656, 0, 0, 0.098477, 300.066833, 120.524063)"/>
  <g transform="matrix(-0.203241, 0, 0, 0.245322, 161.892929, 403.962708)" style="">
    <path style="fill:#464F5D;" d="M 256 36.31 C 397.383 36.31 512 150.927 512 292.31 L 512 351.471 C 507.423 420.08 384.437 411.576 388.414 351.963 L 388.414 292.31 C 388.414 219.182 329.128 159.896 256 159.896 L 0 159.896 L 0 36.31 L 256 36.31 Z"/>
    <g>
      <path style="fill:#FFFFFF;" d="M 156.353 102.931 L 118.469 102.935 C 116.974 103.134 116.22 102.651 115.157 101.48 C 114.029 100.506 113.787 99.758 113.787 98.103 C 113.787 96.453 114.101 95.631 115.231 94.653 C 116.276 93.49 117.101 93.084 118.615 93.275 L 156.499 93.271 C 157.994 93.072 158.748 93.555 159.811 94.726 C 160.939 95.7 161.181 96.448 161.181 98.103 C 161.181 99.754 160.878 100.564 159.748 101.542 C 159.246 102.082 158.918 102.297 158.225 102.558 C 157.883 102.709 157.663 102.773 157.293 102.841 C 156.996 102.917 155.512 103.02 155.512 103.02 M 250.711 102.931 L 212.827 102.935 C 211.332 103.134 210.578 102.651 209.515 101.48 C 208.387 100.506 208.145 99.758 208.145 98.103 C 208.145 96.453 208.459 95.631 209.589 94.653 C 210.634 93.49 211.459 93.084 212.973 93.275 L 250.857 93.271 C 252.352 93.072 253.106 93.555 254.169 94.726 C 255.297 95.7 255.539 96.448 255.539 98.103 C 255.539 99.754 255.236 100.564 254.106 101.542 C 253.604 102.082 253.276 102.297 252.583 102.558 C 252.241 102.709 252.021 102.773 251.651 102.841 C 251.354 102.917 249.87 103.02 249.87 103.02 M 341.893 122.953 C 341.059 123.001 340.619 122.894 339.831 122.447 C 328.9 117.056 317.095 112.613 305.335 109.437 C 303.841 109.237 303.243 108.578 302.522 107.167 C 301.672 105.86 301.484 104.978 302.057 103.558 L 302.087 103.484 L 302.098 103.41 C 302.303 101.911 302.96 101.307 304.364 100.589 C 305.674 99.737 306.572 99.559 307.992 100.137 C 320.475 103.502 332.643 108.114 344.249 113.853 C 345.665 114.324 346.079 115.045 346.555 116.588 C 347.113 118.079 347.163 118.976 346.324 120.233 L 346.287 120.289 L 346.261 120.357 C 345.886 121.341 345.45 121.71 344.474 122.253 C 344.036 122.537 343.779 122.644 343.269 122.772 C 343.02 122.846 342.891 122.872 342.622 122.908 C 342.4 122.943 341.407 122.991 341.407 122.991 M 413.196 183.247 C 411.374 183.432 410.31 182.917 409.412 181.25 C 402.246 171.379 393.858 161.922 384.957 153.618 C 383.738 152.777 383.576 151.991 383.535 150.363 C 383.456 148.766 383.656 147.867 384.822 146.907 L 384.886 146.854 L 384.933 146.787 C 385.793 145.568 386.657 145.349 388.246 145.37 C 389.808 145.23 390.696 145.499 391.654 146.661 C 401.116 155.463 409.72 165.211 417.316 175.698 C 418.353 176.789 418.406 177.677 418.08 179.223 C 417.922 180.767 417.521 181.562 416.18 182.302 L 416.133 182.328 L 416.082 182.37 C 415.645 182.732 415.371 182.846 414.77 183.022 C 414.499 183.114 414.325 183.15 414.026 183.192 C 413.793 183.237 412.681 183.296 412.681 183.296 M 448.157 269.856 C 446.852 270.02 446.217 269.653 445.133 268.669 C 444.004 267.748 443.541 267.059 443.52 265.695 C 441.816 253.61 438.82 241.336 434.837 229.869 C 434.158 228.522 434.364 227.656 435.122 226.266 C 435.715 224.834 436.355 224.177 437.853 223.848 L 437.936 223.83 L 438.006 223.794 C 439.337 223.112 440.194 223.318 441.586 224.077 C 443.033 224.684 443.691 225.334 444.011 226.828 C 448.263 239.007 451.312 251.664 453.112 264.512 C 453.523 265.937 453.161 266.677 452.154 267.939 C 451.237 269.237 450.533 269.783 449.015 269.801 L 448.968 269.801 L 448.904 269.814 C 448.708 269.852 447.668 269.902 447.668 269.902 M 450.06 364.117 C 448.564 364.316 447.816 363.84 446.756 362.669 C 445.593 361.624 445.187 360.799 445.378 359.285 L 445.374 321.401 C 445.175 319.905 445.657 319.151 446.829 318.089 C 447.803 316.961 448.551 316.719 450.206 316.719 C 451.856 316.719 452.678 317.033 453.656 318.163 C 454.819 319.208 455.225 320.033 455.034 321.547 L 455.038 359.431 C 455.237 360.927 454.771 361.663 453.601 362.724 C 453.099 363.264 452.771 363.479 452.078 363.74 C 451.736 363.891 451.516 363.955 451.146 364.023 C 450.849 364.099 449.365 364.202 449.365 364.202"/>
      <path style="fill:#FFFFFF;" d="M 61.793 102.931 L 43.992 102.935 C 42.497 103.134 41.743 102.651 40.68 101.48 C 39.552 100.506 39.31 99.758 39.31 98.103 C 39.31 96.453 39.624 95.631 40.754 94.653 C 41.799 93.49 42.624 93.084 44.138 93.275 L 61.939 93.271 C 63.434 93.072 64.188 93.555 65.251 94.726 C 66.379 95.7 66.621 96.448 66.621 98.103 C 66.621 99.754 66.318 100.564 65.188 101.542 C 64.686 102.082 64.358 102.297 63.665 102.558 C 63.323 102.709 63.103 102.773 62.733 102.841 C 62.436 102.917 60.952 103.02 60.952 103.02"/>
    </g>
  </g>
</svg>