<?xml version="1.0" encoding="iso-8859-1"?>
<!-- Generator: Adobe Illustrator 19.0.0, SVG Export Plug-In . SVG Version: 6.00 Build 0)  -->
<svg version="1.1" id="Layer_1" xmlns="http://www.w3.org/2000/svg" xmlns:xlink="http://www.w3.org/1999/xlink" x="0px" y="0px"
	 viewBox="0 0 512 512" style="enable-background:new 0 0 512 512;" xml:space="preserve">
<path style="fill:#C6C5CB;" d="M437.239,200.954c-99.681-57.552-262.796-57.552-362.477,0C24.92,229.73,0,267.661,0,305.592v26.159
	c0,37.931,24.92,75.863,74.761,104.638c99.681,57.552,262.796,57.552,362.477,0C487.079,407.614,512,369.683,512,331.751v-26.159
	C512,267.661,487.079,229.73,437.239,200.954z"/>
<path style="fill:#D8D8DA;" d="M74.761,410.231c-99.681-57.551-99.681-151.725,0-209.277s262.796-57.551,362.477,0
	s99.681,151.725,0,209.277S174.443,467.781,74.761,410.231z"/>
<path style="fill:#59A4FF;" d="M105.834,392.29c-82.591-47.685-82.591-125.712,0-173.397s217.741-47.684,300.331,0
	s82.591,125.712,0,173.397S188.426,439.974,105.834,392.29z"/>
<path style="fill:#C6C5CB;" d="M105.834,233.445c82.591-47.685,217.741-47.685,300.331,0c38.107,22.002,58.617,50.463,61.559,79.423
	c3.435-33.806-17.075-68.291-61.559-93.974c-82.591-47.685-217.741-47.685-300.331,0c-44.484,25.683-64.993,60.168-61.559,93.974
	C47.217,283.908,67.727,255.446,105.834,233.445z"/>
<path style="fill:#ACABB1;" d="M312.095,302.644l-35.192-107.538l0,0c0.026-3.073-1.975-6.144-6.01-8.474
	c-8.084-4.668-21.404-4.668-29.598,0c-4.1,2.335-6.168,5.416-6.198,8.497l-35.192,107.513c-5.202,11.231-0.226,23.741,14.961,32.509
	c22.623,13.061,59.645,13.061,82.268,0C312.319,326.384,317.296,313.874,312.095,302.644z"/>
<path style="fill:#C6C5CB;" d="M346.619,148.635c-49.84-28.776-131.399-28.776-181.239,0c-25.724,14.851-38.134,34.58-37.305,54.154
	l-0.075,14.001c0,18.966,12.461,37.931,37.381,52.319c49.84,28.776,131.399,28.776,181.239,0
	c24.92-14.387,37.381-33.354,37.381-52.319v-15.835C383.999,181.988,371.54,163.022,346.619,148.635z"/>
<path style="fill:#D8D8DA;" d="M165.38,253.272c-49.84-28.776-49.84-75.863,0-104.638s131.399-28.776,181.239,0
	s49.84,75.863,0,104.638S215.221,282.048,165.38,253.272z"/>
<path style="fill:#59A4FF;" d="M188.035,240.193c-37.381-21.582-37.381-56.897,0-78.479s98.549-21.582,135.929,0
	s37.381,56.897,0,78.479S225.415,261.775,188.035,240.193z"/>
<path style="fill:#C6C5CB;" d="M188.035,169.374c37.381-21.582,98.549-21.582,135.929,0c17.011,9.821,26.254,22.489,27.782,35.41
	c1.83-15.472-7.414-31.309-27.782-43.069c-37.381-21.582-98.549-21.582-135.929,0c-20.369,11.76-29.612,27.597-27.782,43.069
	C161.781,191.862,171.024,179.196,188.035,169.374z"/>
<path style="fill:#ACABB1;" d="M291.012,189.112L275.21,89.419v-0.011l0,0c0.024-2.824-1.815-5.647-5.523-7.788
	c-7.429-4.289-19.669-4.289-27.2,0c-3.768,2.146-5.669,4.977-5.696,7.809l-15.801,99.678c-1.995,6.42,1.262,13.29,9.811,18.224
	c13.861,8.002,36.541,8.002,50.401,0C289.745,202.397,293.003,195.53,291.012,189.112z"/>
<path style="fill:#C6C5CB;" d="M301.309,43.237c-24.92-14.387-65.699-14.387-90.62,0c-12.461,7.194-18.69,16.677-18.69,26.159
	v12.587c0,9.483,6.23,18.965,18.69,26.159c24.92,14.387,65.699,14.387,90.62,0C313.77,100.948,320,91.466,320,81.983V69.396
	C320,59.914,313.77,50.43,301.309,43.237z"/>
<path style="fill:#D8D8DA;" d="M210.691,95.556c-24.92-14.387-24.92-37.931,0-52.319s65.699-14.387,90.62,0
	c24.921,14.387,24.92,37.931,0,52.319S235.611,109.943,210.691,95.556z"/>
<path style="fill:#59A4FF;" d="M222.593,88.683c-18.374-10.608-18.374-27.966,0-38.574s48.439-10.608,66.813,0
	s18.374,27.966,0,38.574S240.967,99.291,222.593,88.683z"/>
<path style="fill:#C6C5CB;" d="M222.593,55.399c18.374-10.608,48.439-10.608,66.813,0c8.027,4.634,12.546,10.557,13.56,16.642
	c1.306-7.844-3.213-15.958-13.56-21.932c-18.374-10.608-48.439-10.608-66.813,0c-10.347,5.974-14.866,14.089-13.56,21.932
	C210.048,65.955,214.566,60.033,222.593,55.399z"/>
<g>
</g>
<g>
</g>
<g>
</g>
<g>
</g>
<g>
</g>
<g>
</g>
<g>
</g>
<g>
</g>
<g>
</g>
<g>
</g>
<g>
</g>
<g>
</g>
<g>
</g>
<g>
</g>
<g>
</g>
</svg>
