<?xml version="1.0" encoding="iso-8859-1"?>
<!-- Generator: Adobe Illustrator 19.0.0, SVG Export Plug-In . SVG Version: 6.00 Build 0)  -->
<svg version="1.1" id="Layer_1" xmlns="http://www.w3.org/2000/svg" xmlns:xlink="http://www.w3.org/1999/xlink" x="0px" y="0px"
	 viewBox="0 0 512 512" style="enable-background:new 0 0 512 512;" xml:space="preserve">
<g transform="translate(0 -1)">
	<path style="fill:#556080;" d="M273.067,444.735h-51.2v-73.54c0-6.511,5.282-11.793,11.793-11.793h27.614
		c6.511,0,11.793,5.282,11.793,11.793V444.735z"/>
	<polygon style="fill:#4482C3;" points="452.267,265.535 179.2,265.535 179.2,299.668 452.267,299.668 503.467,299.668 
		503.467,265.535 	"/>
	<polygon style="fill:#28BAE8;" points="315.733,444.732 486.4,444.732 486.4,299.665 315.733,299.665 	"/>
	<polygon style="fill:#556080;" points="76.8,444.732 110.933,444.732 110.933,205.799 76.8,205.799 	"/>
	<polygon style="fill:#F3D55B;" points="59.733,111.932 128,111.932 128,60.732 59.733,60.732 	"/>
	<polygon style="fill:#D75A4A;" points="128,86.335 128,111.935 59.733,111.935 59.733,86.335 8.533,86.335 8.533,205.801 
		179.2,205.801 179.2,86.335 	"/>
	<polygon style="fill:#4482C3;" points="366.933,444.732 435.2,444.732 435.2,359.399 366.933,359.399 	"/>
	<path style="fill:#95A5A5;" d="M503.467,453.268H8.533c-4.719,0-8.533-3.814-8.533-8.533c0-4.719,3.814-8.533,8.533-8.533h494.933
		c4.719,0,8.533,3.814,8.533,8.533C512,449.454,508.186,453.268,503.467,453.268"/>
</g>
<g>
</g>
<g>
</g>
<g>
</g>
<g>
</g>
<g>
</g>
<g>
</g>
<g>
</g>
<g>
</g>
<g>
</g>
<g>
</g>
<g>
</g>
<g>
</g>
<g>
</g>
<g>
</g>
<g>
</g>
</svg>
