<?xml version="1.0" encoding="iso-8859-1"?>
<!-- Generator: Adobe Illustrator 19.0.0, SVG Export Plug-In . SVG Version: 6.00 Build 0)  -->
<svg version="1.1" id="Layer_1" xmlns="http://www.w3.org/2000/svg" xmlns:xlink="http://www.w3.org/1999/xlink" x="0px" y="0px"
	 viewBox="0 0 512 512" style="enable-background:new 0 0 512 512;" xml:space="preserve">
<polygon style="fill:#31C0D8;" points="449.306,125.388 344.816,198.531 287.347,198.531 224.653,198.531 62.694,198.531 
	62.694,52.245 224.653,52.245 287.347,52.245 344.816,52.245 "/>
<polygon style="fill:#FFD248;" points="449.306,250.775 449.306,397.061 287.347,397.061 224.653,397.061 167.184,397.061 
	62.694,323.918 167.184,250.775 224.653,250.775 287.347,250.775 "/>
<g>
	<rect x="224.653" y="397.061" style="fill:#D1D3D4;" width="62.694" height="104.49"/>
	<rect x="224.653" y="10.449" style="fill:#D1D3D4;" width="62.694" height="41.796"/>
	<rect x="224.653" y="198.531" style="fill:#D1D3D4;" width="62.694" height="52.245"/>
</g>
<g>
	<path style="fill:#231F20;" d="M449.306,240.327h-151.51V208.98h47.02c2.144,0,4.236-0.659,5.991-1.889l104.49-73.143
		c2.794-1.956,4.458-5.15,4.458-8.56c0-3.41-1.664-6.605-4.458-8.56l-104.49-73.143c-1.755-1.23-3.847-1.889-5.991-1.889h-47.02
		V10.449C297.796,4.678,293.117,0,287.347,0h-62.694c-5.771,0-10.449,4.678-10.449,10.449v31.347H62.694
		c-5.771,0-10.449,4.678-10.449,10.449v146.286c0,5.771,4.678,10.449,10.449,10.449h151.51v31.347h-47.02
		c-2.144,0-4.236,0.659-5.992,1.889l-104.49,73.143c-2.793,1.955-4.456,5.15-4.456,8.56c0,3.409,1.663,6.605,4.456,8.56
		l104.49,73.143c1.756,1.23,3.848,1.889,5.992,1.889h47.02v94.041c0,5.771,4.678,10.449,10.449,10.449h62.694
		c5.77,0,10.449-4.678,10.449-10.449V407.51h151.51c5.77,0,10.449-4.678,10.449-10.449V250.775
		C459.755,245.005,455.076,240.327,449.306,240.327z M235.102,20.898h41.796v20.898h-41.796V20.898z M73.143,62.694h268.38
		l89.563,62.694l-89.563,62.694H73.143V62.694z M235.102,208.98h41.796v31.347h-41.796V208.98z M276.898,491.102h-41.796V407.51
		h41.796V491.102z M438.857,386.612h-268.38l-89.562-62.694l89.562-62.694h268.38V386.612z"/>
	<rect x="109.714" y="88.816" style="fill:#231F20;" width="57.469" height="20.898"/>
	<rect x="109.714" y="141.061" style="fill:#231F20;" width="198.531" height="20.898"/>
	<rect x="188.082" y="88.816" style="fill:#231F20;" width="20.898" height="20.898"/>
	<rect x="344.816" y="339.592" style="fill:#231F20;" width="57.469" height="20.898"/>
	<rect x="203.755" y="287.347" style="fill:#231F20;" width="198.531" height="20.898"/>
	<rect x="303.02" y="339.592" style="fill:#231F20;" width="20.898" height="20.898"/>
</g>
<g>
</g>
<g>
</g>
<g>
</g>
<g>
</g>
<g>
</g>
<g>
</g>
<g>
</g>
<g>
</g>
<g>
</g>
<g>
</g>
<g>
</g>
<g>
</g>
<g>
</g>
<g>
</g>
<g>
</g>
</svg>
