<?xml version="1.0" encoding="iso-8859-1"?>
<!-- Generator: Adobe Illustrator 19.0.0, SVG Export Plug-In . SVG Version: 6.00 Build 0)  -->
<svg version="1.1" id="Layer_1" xmlns="http://www.w3.org/2000/svg" xmlns:xlink="http://www.w3.org/1999/xlink" x="0px" y="0px"
	 viewBox="0 0 512 512" style="enable-background:new 0 0 512 512;" xml:space="preserve">
<g transform="translate(0 -1)">
	<path style="fill:#464F5D;" d="M256,513c141.383,0,256-114.617,256-256V1H388.414v256c0,73.128-59.286,132.414-132.414,132.414
		S123.586,330.128,123.586,257V1H0v256C0,398.383,114.617,513,256,513"/>
	<g>
		<path style="fill:#FFFFFF;" d="M450.207,71.621c-4.882,0-8.828-3.946-8.828-8.828V45.138c0-4.882,3.946-8.828,8.828-8.828
			c4.882,0,8.828,3.946,8.828,8.828v17.655C459.034,67.675,455.089,71.621,450.207,71.621"/>
		<path style="fill:#FFFFFF;" d="M450.207,157.681c-4.882,0-8.828-3.946-8.828-8.828v-34.419c0-4.882,3.946-8.828,8.828-8.828
			c4.882,0,8.828,3.946,8.828,8.828v34.419C459.034,153.735,455.089,157.681,450.207,157.681 M61.793,158.122
			c-4.882,0-8.828-3.946-8.828-8.828v-34.436c0-4.873,3.946-8.828,8.828-8.828s8.828,3.955,8.828,8.828v34.436
			C70.621,154.176,66.675,158.122,61.793,158.122 M450.207,243.75c-4.882,0-8.828-3.946-8.828-8.828v-34.419
			c0-4.882,3.946-8.828,8.828-8.828c4.882,0,8.828,3.946,8.828,8.828v34.419C459.034,239.804,455.089,243.75,450.207,243.75
			 M61.793,244.182c-4.882,0-8.828-3.946-8.828-8.828v-34.428c0-4.873,3.946-8.828,8.828-8.828s8.828,3.955,8.828,8.828v34.428
			C70.621,240.236,66.675,244.182,61.793,244.182 M439.826,328.645c-0.945,0-1.907-0.141-2.851-0.477
			c-4.608-1.571-7.08-6.594-5.5-11.202c3.513-10.319,6.135-21.036,7.795-31.85c0.733-4.82,5.208-8.139,10.046-7.398
			c4.82,0.733,8.13,5.226,7.398,10.046c-1.801,11.855-4.67,23.596-8.527,34.904C446.932,326.332,443.498,328.645,439.826,328.645
			 M72.316,329.06c-3.663,0-7.08-2.295-8.342-5.959c-3.884-11.29-6.78-23.022-8.616-34.878c-0.742-4.82,2.56-9.34,7.362-10.081
			c4.935-0.724,9.34,2.569,10.081,7.371c1.677,10.831,4.317,21.548,7.865,31.85c1.58,4.608-0.865,9.631-5.473,11.211
			C74.24,328.901,73.269,329.06,72.316,329.06 M395.105,401.358c-2.225,0-4.449-0.839-6.162-2.516
			c-3.496-3.399-3.566-8.986-0.159-12.482c7.627-7.812,14.601-16.375,20.754-25.432c2.737-4.034,8.236-5.085,12.253-2.339
			c4.034,2.728,5.085,8.218,2.348,12.253c-6.718,9.913-14.363,19.279-22.713,27.851C399.695,400.466,397.4,401.358,395.105,401.358
			 M117.186,401.649c-2.286,0-4.573-0.892-6.303-2.657c-8.377-8.545-16.031-17.893-22.775-27.789
			c-2.745-4.034-1.704-9.525,2.322-12.262c4.034-2.754,9.525-1.713,12.27,2.322c6.153,9.031,13.153,17.576,20.798,25.379
			c3.407,3.487,3.346,9.075-0.132,12.491C121.644,400.81,119.411,401.649,117.186,401.649 M323.602,447.95
			c-3.584,0-6.956-2.198-8.271-5.756c-1.704-4.573,0.627-9.649,5.199-11.352c10.24-3.796,20.206-8.545,29.608-14.106
			c4.228-2.463,9.622-1.077,12.094,3.107c2.472,4.202,1.086,9.613-3.107,12.094c-10.302,6.091-21.23,11.29-32.441,15.457
			C325.667,447.773,324.626,447.95,323.602,447.95 M188.804,448.091c-1.024,0-2.048-0.168-3.054-0.539
			c-11.22-4.14-22.157-9.322-32.503-15.395c-4.193-2.481-5.597-7.883-3.134-12.085c2.472-4.202,7.865-5.614,12.085-3.143
			c9.437,5.553,19.421,10.275,29.652,14.053c4.582,1.686,6.921,6.771,5.235,11.335C195.769,445.884,192.397,448.091,188.804,448.091
			 M256,460.034c-5.87,0-11.838-0.256-17.735-0.768c-4.855-0.415-8.457-4.687-8.033-9.551c0.415-4.855,4.599-8.545,9.551-8.033
			c10.937,0.936,22.034,0.9,32.839-0.035c4.838-0.388,9.145,3.151,9.569,8.015c0.433,4.855-3.16,9.137-8.015,9.569
			C268.182,459.77,262.065,460.034,256,460.034"/>
		<path style="fill:#FFFFFF;" d="M61.793,71.621c-4.882,0-8.828-3.946-8.828-8.828V45.138c0-4.882,3.946-8.828,8.828-8.828
			s8.828,3.946,8.828,8.828v17.655C70.621,67.675,66.675,71.621,61.793,71.621"/>
	</g>
</g>
<g>
</g>
<g>
</g>
<g>
</g>
<g>
</g>
<g>
</g>
<g>
</g>
<g>
</g>
<g>
</g>
<g>
</g>
<g>
</g>
<g>
</g>
<g>
</g>
<g>
</g>
<g>
</g>
<g>
</g>
</svg>
