<?xml version="1.0" encoding="iso-8859-1"?>
<!-- Generator: Adobe Illustrator 19.0.0, SVG Export Plug-In . SVG Version: 6.00 Build 0)  -->
<svg version="1.1" id="Layer_1" xmlns="http://www.w3.org/2000/svg" xmlns:xlink="http://www.w3.org/1999/xlink" x="0px" y="0px"
	 viewBox="0 0 512 512" style="enable-background:new 0 0 512 512;" xml:space="preserve">
<g transform="translate(0 -1)">
	<polygon style="fill:#464F5D;" points="501.839,192.435 339.544,30.14 239.678,130.015 239.678,1 10.161,1 10.161,513 239.678,513 
		239.678,454.597 	"/>
	<g>
		<path style="fill:#FFFFFF;" d="M124.915,112.609c-4.882,0-8.828-3.946-8.828-8.828V69.733c0-4.882,3.946-8.828,8.828-8.828
			c4.882,0,8.828,3.946,8.828,8.828v34.048C133.742,108.663,129.796,112.609,124.915,112.609 M124.915,197.733
			c-4.882,0-8.828-3.955-8.828-8.828v-34.057c0-4.882,3.946-8.828,8.828-8.828c4.882,0,8.828,3.946,8.828,8.828v34.057
			C133.742,193.779,129.796,197.733,124.915,197.733 M124.915,282.849c-4.882,0-8.828-3.946-8.828-8.828v-34.039
			c0-4.882,3.946-8.828,8.828-8.828c4.882,0,8.828,3.946,8.828,8.828v34.039C133.742,278.903,129.796,282.849,124.915,282.849
			 M124.915,367.982c-4.882,0-8.828-3.955-8.828-8.828v-34.057c0-4.873,3.946-8.828,8.828-8.828c4.882,0,8.828,3.955,8.828,8.828
			v34.057C133.742,364.027,129.796,367.982,124.915,367.982 M124.915,453.098c-4.882,0-8.828-3.946-8.828-8.828v-34.048
			c0-4.882,3.946-8.828,8.828-8.828c4.882,0,8.828,3.946,8.828,8.828v34.048C133.742,449.152,129.796,453.098,124.915,453.098"/>
		<path style="fill:#FFFFFF;" d="M348.191,192.618c-2.26,0-4.52-0.865-6.241-2.586c-3.452-3.452-3.452-9.031,0-12.482l24.011-24.011
			c3.443-3.443,9.031-3.443,12.482,0c3.443,3.452,3.443,9.039,0,12.482l-24.011,24.011
			C352.711,191.753,350.451,192.618,348.191,192.618 M288.172,252.637c-2.26,0-4.52-0.865-6.241-2.586
			c-3.443-3.452-3.443-9.039,0-12.482l24.011-24.011c3.443-3.452,9.031-3.452,12.482,0c3.452,3.452,3.452,9.039,0,12.482
			l-24.011,24.011C292.692,251.771,290.432,252.637,288.172,252.637"/>
		<path style="fill:#FFFFFF;" d="M239.673,301.135c-2.26,0-4.52-0.865-6.241-2.586c-3.452-3.452-3.452-9.031,0-12.482l12.482-12.482
			c3.452-3.452,9.031-3.452,12.482,0c3.452,3.452,3.452,9.031,0,12.482l-12.482,12.482
			C244.193,300.27,241.933,301.135,239.673,301.135"/>
	</g>
</g>
<g>
</g>
<g>
</g>
<g>
</g>
<g>
</g>
<g>
</g>
<g>
</g>
<g>
</g>
<g>
</g>
<g>
</g>
<g>
</g>
<g>
</g>
<g>
</g>
<g>
</g>
<g>
</g>
<g>
</g>
</svg>
