<?xml version="1.0" encoding="iso-8859-1"?>
<!-- Generator: Adobe Illustrator 19.0.0, SVG Export Plug-In . SVG Version: 6.00 Build 0)  -->
<svg version="1.1" id="Layer_1" xmlns="http://www.w3.org/2000/svg" xmlns:xlink="http://www.w3.org/1999/xlink" x="0px" y="0px"
	 viewBox="0 0 512 512" style="enable-background:new 0 0 512 512;" xml:space="preserve">
<g transform="translate(0 -1)">
	<path style="fill:#464F5D;" d="M256,389.414c-73.128,0-132.414-59.286-132.414-132.414S182.872,124.586,256,124.586
		S388.414,183.872,388.414,257S329.128,389.414,256,389.414 M256,1C114.617,1,0,115.617,0,257s114.617,256,256,256
		s256-114.617,256-256S397.383,1,256,1"/>
	<path style="fill:#FFFFFF;" d="M212.233,76.577c-4.025,0-7.654-2.754-8.598-6.841c-1.095-4.749,1.871-9.498,6.621-10.593
		c11.802-2.71,23.932-4.378,36.043-4.943c4.829-0.353,9.004,3.531,9.234,8.404s-3.531,9.004-8.404,9.234
		c-11.07,0.512-22.14,2.03-32.9,4.52C213.557,76.507,212.886,76.577,212.233,76.577 M331.776,86.959
		c-1.156,0-2.322-0.23-3.452-0.697c-10.161-4.326-20.807-7.742-31.629-10.169c-4.749-1.059-7.751-5.782-6.674-10.54
		c1.059-4.749,5.773-7.742,10.54-6.682c11.855,2.657,23.517,6.409,34.666,11.132c4.484,1.907,6.577,7.097,4.67,11.573
		C338.476,84.937,335.21,86.959,331.776,86.959 M134.532,114.28c-2.578,0-5.138-1.121-6.886-3.302
		c-3.054-3.796-2.445-9.348,1.359-12.403c9.454-7.592,19.65-14.38,30.296-20.145c4.29-2.322,9.649-0.724,11.961,3.549
		c2.331,4.29,0.742,9.649-3.549,11.97c-9.719,5.261-19.023,11.458-27.657,18.388C138.425,113.644,136.474,114.28,134.532,114.28
		 M401.814,137.55c-2.454,0-4.891-1.015-6.63-3.001c-7.309-8.298-15.413-15.996-24.09-22.881c-3.822-3.028-4.467-8.58-1.439-12.403
		c3.037-3.814,8.598-4.467,12.403-1.43c9.507,7.539,18.379,15.969,26.386,25.062c3.213,3.655,2.86,9.234-0.803,12.456
		C405.963,136.826,403.88,137.55,401.814,137.55 M80.79,181.952c-1.289,0-2.586-0.282-3.814-0.874
		c-4.396-2.11-6.25-7.38-4.14-11.776c5.235-10.911,11.502-21.433,18.617-31.258c2.86-3.946,8.386-4.829,12.323-1.986
		c3.955,2.86,4.838,8.377,1.977,12.332c-6.497,8.978-12.226,18.591-17.002,28.548C87.234,180.107,84.074,181.952,80.79,181.952
		 M443.048,213.449c-3.858,0-7.406-2.551-8.492-6.453c-2.975-10.655-6.947-21.098-11.785-31.047
		c-2.136-4.378-0.318-9.666,4.07-11.802c4.378-2.127,9.666-0.3,11.794,4.078c5.314,10.893,9.666,22.343,12.924,34.013
		c1.315,4.705-1.43,9.569-6.126,10.884C444.637,213.343,443.833,213.449,443.048,213.449 M61.793,266.026
		c-4.873,0-8.828-3.761-8.828-8.642v-0.388c0-12.032,1.059-24.082,3.151-35.822c0.856-4.802,5.429-8.033,10.24-7.142
		c4.802,0.856,7.998,5.438,7.142,10.24c-1.907,10.717-2.878,21.725-2.878,32.724C70.621,261.877,66.666,266.026,61.793,266.026
		 M447.135,300.489c-0.521,0-1.042-0.044-1.571-0.132c-4.802-0.865-7.989-5.464-7.124-10.258c1.951-10.84,2.94-21.981,2.94-33.103
		c0-4.873,3.955-9.198,8.828-9.198c4.873,0,8.828,3.558,8.828,8.439v0.759c0,12.173-1.086,24.355-3.222,36.228
		C455.044,297.497,451.319,300.489,447.135,300.489 M81.126,350.409c-3.275,0-6.418-1.836-7.945-4.979
		c-5.288-10.911-9.613-22.36-12.853-34.039c-1.298-4.705,1.457-9.569,6.144-10.876c4.74-1.271,9.569,1.457,10.867,6.144
		c2.966,10.655,6.903,21.116,11.732,31.064c2.127,4.387,0.291,9.675-4.096,11.794C83.73,350.118,82.423,350.409,81.126,350.409
		 M413.158,379.929c-1.792,0-3.611-0.547-5.182-1.686c-3.937-2.86-4.82-8.386-1.951-12.332c6.524-8.969,12.262-18.556,17.055-28.513
		c2.119-4.396,7.398-6.268,11.785-4.114c4.396,2.11,6.241,7.389,4.122,11.785c-5.252,10.893-11.538,21.407-18.679,31.223
		C418.578,378.675,415.885,379.929,413.158,379.929 M135.115,417.834c-1.933,0-3.866-0.627-5.491-1.924
		c-9.481-7.539-18.335-15.987-26.324-25.097c-3.213-3.663-2.851-9.242,0.821-12.456c3.672-3.222,9.242-2.86,12.456,0.812
		c7.3,8.324,15.386,16.04,24.046,22.934c3.814,3.037,4.44,8.589,1.404,12.403C140.288,416.695,137.71,417.834,135.115,417.834
		 M348.151,436.822c-3.134,0-6.179-1.686-7.777-4.643c-2.313-4.29-0.706-9.649,3.584-11.953c9.71-5.244,19.032-11.405,27.692-18.335
		c3.814-3.046,9.357-2.428,12.412,1.386c3.046,3.796,2.419,9.357-1.386,12.403c-9.49,7.583-19.694,14.345-30.34,20.074
		C351.003,436.487,349.572,436.822,348.151,436.822 M213.001,455.254c-0.644,0-1.298-0.062-1.951-0.212
		c-11.82-2.675-23.473-6.435-34.648-11.202c-4.476-1.907-6.568-7.097-4.652-11.582c1.907-4.484,7.097-6.568,11.582-4.652
		c10.187,4.343,20.815,7.777,31.603,10.214c4.758,1.077,7.742,5.8,6.674,10.549C220.681,452.474,217.035,455.254,213.001,455.254
		 M264.889,459.836c-4.687,0-8.598-3.69-8.81-8.43c-0.221-4.873,3.549-8.995,8.413-9.216c11.087-0.503,22.166-2.004,32.927-4.449
		c4.749-1.112,9.481,1.898,10.567,6.638c1.086,4.758-1.889,9.49-6.647,10.567c-11.785,2.692-23.905,4.334-36.043,4.882
		C265.163,459.836,265.022,459.836,264.889,459.836"/>
</g>
<g>
</g>
<g>
</g>
<g>
</g>
<g>
</g>
<g>
</g>
<g>
</g>
<g>
</g>
<g>
</g>
<g>
</g>
<g>
</g>
<g>
</g>
<g>
</g>
<g>
</g>
<g>
</g>
<g>
</g>
</svg>
