<?xml version="1.0" encoding="iso-8859-1"?>
<!-- Generator: Adobe Illustrator 19.0.0, SVG Export Plug-In . SVG Version: 6.00 Build 0)  -->
<svg version="1.1" id="Layer_1" xmlns="http://www.w3.org/2000/svg" xmlns:xlink="http://www.w3.org/1999/xlink" x="0px" y="0px"
	 viewBox="0 0 512 512" style="enable-background:new 0 0 512 512;" xml:space="preserve">
<g transform="translate(0 -1)">
	<polygon style="fill:#464F5D;" points="141.241,513 370.759,513 370.759,1 141.241,1 	"/>
	<g>
		<path style="fill:#FFFFFF;" d="M256,380.589c-4.873,0-8.828-3.946-8.828-8.828v-17.655c0-4.882,3.955-8.828,8.828-8.828
			c4.873,0,8.828,3.946,8.828,8.828v17.655C264.828,376.643,260.873,380.589,256,380.589"/>
		<path style="fill:#FFFFFF;" d="M256,457.83c-4.873,0-8.828-3.946-8.828-8.828v-30.897c0-4.882,3.955-8.828,8.828-8.828
			c4.873,0,8.828,3.946,8.828,8.828v30.897C264.828,453.884,260.873,457.83,256,457.83"/>
		<path style="fill:#FFFFFF;" d="M256,104.727c-4.873,0-8.828-3.946-8.828-8.828V65.003c0-4.882,3.955-8.828,8.828-8.828
			c4.873,0,8.828,3.946,8.828,8.828v30.897C264.828,100.781,260.873,104.727,256,104.727"/>
		<path style="fill:#FFFFFF;" d="M256,168.727c-4.873,0-8.828-3.946-8.828-8.828v-17.655c0-4.882,3.955-8.828,8.828-8.828
			c4.873,0,8.828,3.946,8.828,8.828v17.655C264.828,164.781,260.873,168.727,256,168.727"/>
		<path style="fill:#FFFFFF;" d="M185.379,318.796c-4.873,0-8.828-3.946-8.828-8.828V204.037c0-4.882,3.955-8.828,8.828-8.828
			c4.873,0,8.828,3.946,8.828,8.828v105.931C194.207,314.85,190.252,318.796,185.379,318.796"/>
		<path style="fill:#FFFFFF;" d="M220.69,318.796c-4.873,0-8.828-3.946-8.828-8.828V204.037c0-4.882,3.955-8.828,8.828-8.828
			c4.873,0,8.828,3.946,8.828,8.828v105.931C229.517,314.85,225.562,318.796,220.69,318.796"/>
		<path style="fill:#FFFFFF;" d="M256,318.796c-4.873,0-8.828-3.946-8.828-8.828V204.037c0-4.882,3.955-8.828,8.828-8.828
			c4.873,0,8.828,3.946,8.828,8.828v105.931C264.828,314.85,260.873,318.796,256,318.796"/>
		<path style="fill:#FFFFFF;" d="M291.31,318.796c-4.873,0-8.828-3.946-8.828-8.828V204.037c0-4.882,3.955-8.828,8.828-8.828
			c4.873,0,8.828,3.946,8.828,8.828v105.931C300.138,314.85,296.183,318.796,291.31,318.796"/>
		<path style="fill:#FFFFFF;" d="M326.621,318.796c-4.873,0-8.828-3.946-8.828-8.828V204.037c0-4.882,3.955-8.828,8.828-8.828
			s8.828,3.946,8.828,8.828v105.931C335.448,314.85,331.494,318.796,326.621,318.796"/>
	</g>
</g>
<g>
</g>
<g>
</g>
<g>
</g>
<g>
</g>
<g>
</g>
<g>
</g>
<g>
</g>
<g>
</g>
<g>
</g>
<g>
</g>
<g>
</g>
<g>
</g>
<g>
</g>
<g>
</g>
<g>
</g>
</svg>
