<?xml version="1.0" encoding="iso-8859-1"?>
<!-- Generator: Adobe Illustrator 19.0.0, SVG Export Plug-In . SVG Version: 6.00 Build 0)  -->
<svg version="1.1" id="Layer_1" xmlns="http://www.w3.org/2000/svg" xmlns:xlink="http://www.w3.org/1999/xlink" x="0px" y="0px"
	 viewBox="0 0 512 512" style="enable-background:new 0 0 512 512;" xml:space="preserve">
<g transform="translate(0 -1)">
	<path style="fill:#464F5D;" d="M256,36.31c141.383,0,256,114.617,256,256V477.69H388.414V292.31
		c0-73.128-59.286-132.414-132.414-132.414H0V36.31H256z"/>
	<g>
		<path style="fill:#FFFFFF;" d="M450.207,442.379c-4.882,0-8.828-3.946-8.828-8.828v-17.655c0-4.882,3.946-8.828,8.828-8.828
			c4.882,0,8.828,3.946,8.828,8.828v17.655C459.034,438.433,455.089,442.379,450.207,442.379"/>
		<path style="fill:#FFFFFF;" d="M156.353,106.931h-37.738c-4.882,0-8.828-3.946-8.828-8.828s3.946-8.828,8.828-8.828h37.738
			c4.882,0,8.828,3.946,8.828,8.828S161.235,106.931,156.353,106.931 M250.711,106.931h-37.738c-4.882,0-8.828-3.946-8.828-8.828
			s3.946-8.828,8.828-8.828h37.738c4.882,0,8.828,3.946,8.828,8.828S255.593,106.931,250.711,106.931 M341.962,126.952
			c-1.306,0-2.639-0.3-3.902-0.918c-10.752-5.314-22.06-9.587-33.633-12.703c-4.705-1.28-7.486-6.126-6.223-10.831
			c1.28-4.705,6.1-7.495,10.831-6.223c12.668,3.425,25.07,8.113,36.855,13.93c4.37,2.163,6.162,7.459,3.999,11.829
			C348.353,125.142,345.228,126.952,341.962,126.952 M413.324,187.244c-2.728,0-5.429-1.271-7.15-3.646
			c-7.044-9.719-15.06-18.785-23.826-26.951c-3.575-3.319-3.769-8.907-0.441-12.473c3.31-3.558,8.925-3.761,12.473-0.441
			c9.596,8.942,18.37,18.865,26.086,29.502c2.86,3.946,1.986,9.463-1.969,12.323C416.944,186.697,415.116,187.244,413.324,187.244
			 M448.29,273.852c-4.334,0-8.113-3.187-8.73-7.601c-1.668-11.891-4.52-23.649-8.448-34.931c-1.607-4.608,0.83-9.64,5.429-11.246
			c4.59-1.615,9.64,0.821,11.246,5.438c4.308,12.367,7.424,25.256,9.26,38.294c0.68,4.82-2.684,9.278-7.521,9.958
			C449.111,273.825,448.697,273.852,448.29,273.852 M450.206,368.113c-4.882,0-8.828-3.946-8.828-8.828v-37.738
			c0-4.882,3.946-8.828,8.828-8.828c4.882,0,8.828,3.946,8.828,8.828v37.738C459.034,364.167,455.088,368.113,450.206,368.113"/>
		<path style="fill:#FFFFFF;" d="M61.793,106.931H44.138c-4.882,0-8.828-3.946-8.828-8.828s3.946-8.828,8.828-8.828h17.655
			c4.882,0,8.828,3.946,8.828,8.828S66.675,106.931,61.793,106.931"/>
	</g>
</g>
<g>
</g>
<g>
</g>
<g>
</g>
<g>
</g>
<g>
</g>
<g>
</g>
<g>
</g>
<g>
</g>
<g>
</g>
<g>
</g>
<g>
</g>
<g>
</g>
<g>
</g>
<g>
</g>
<g>
</g>
</svg>
