<?xml version="1.0" encoding="utf-8"?>
<svg viewBox="0 0 511.999 511.999" style="enable-background:new 0 0 511.999 511.999;" xmlns="http://www.w3.org/2000/svg">
  <rect x="-430.28" y="441.624" style="fill:#31C0D8;" width="254.362" height="56.29" transform="matrix(-1, 0, 0, 1, 0, 0)"/>
  <polygon style="fill:#FFD248;" points="405.877 66.874 31.381 66.874 31.381 242.86 405.877 242.86 476.271 154.867" transform="matrix(-1, 0, 0, -1, 507.651985, 309.734013)"/>
  <g transform="matrix(-1, 0, 0, 1, 509.824959, 0)">
    <rect x="160.019" y="14.079" style="fill:#dc89a7;" width="93.413" height="52.796"/>
    <rect x="160.019" y="242.86" style="fill:#dc89a7;" width="93.413" height="198.765"/>
  </g>
  <path d="M 487.264 365.928 L 416.87 453.921 C 414.199 457.26 410.153 459.205 405.876 459.205 L 265.333 459.205 L 265.333 497.921 C 265.333 505.697 259.028 512 251.254 512 L 157.844 512 C 150.07 512 143.765 505.697 143.765 497.921 L 143.765 459.204 L 31.38 459.204 C 23.606 459.204 17.301 452.901 17.301 445.125 L 17.301 269.14 C 17.301 261.364 23.605 255.061 31.38 255.061 L 143.766 255.061 L 143.766 84.448 L 77.371 84.448 C 69.597 84.448 63.292 78.145 63.292 70.369 L 63.292 14.079 C 63.292 6.303 69.596 0 77.371 0 L 331.727 0 C 339.501 0 345.806 6.303 345.806 14.079 L 345.806 70.369 C 345.806 78.145 339.502 84.448 331.727 84.448 L 265.333 84.448 L 265.333 255.062 L 405.876 255.062 C 410.153 255.062 414.198 257.006 416.87 260.346 L 487.264 348.339 C 491.378 353.48 491.378 360.786 487.264 365.928 Z M 171.923 483.842 L 237.175 483.842 L 237.175 459.204 L 171.923 459.204 L 171.923 483.842 Z M 317.648 28.158 L 91.45 28.158 L 91.45 56.29 L 157.844 56.29 L 251.254 56.29 L 317.648 56.29 L 317.648 28.158 Z M 237.175 84.449 L 218.626 84.449 C 218.626 84.456 218.627 84.463 218.627 84.47 L 218.627 156.976 C 218.627 164.752 212.323 171.055 204.548 171.055 C 196.773 171.055 190.469 164.752 190.469 156.976 L 190.469 84.47 C 190.469 84.463 190.47 84.456 190.47 84.449 L 171.921 84.449 L 171.921 255.062 L 237.173 255.062 L 237.175 84.449 Z M 399.11 283.219 L 251.254 283.219 L 157.844 283.219 L 45.458 283.219 L 45.458 431.047 L 157.844 431.047 L 251.254 431.047 L 399.11 431.047 L 458.241 357.133 L 399.11 283.219 Z" transform="matrix(-1, 0, 0, -1, 507.65049, 512.000008)"/>
  <path d="M 303.101 298.931 C 302.186 298.931 301.255 299.03 300.356 299.213 C 299.456 299.396 298.568 299.664 297.709 300.016 C 296.863 300.368 296.048 300.804 295.287 301.311 C 294.511 301.818 293.793 302.409 293.146 303.057 C 292.498 303.705 291.907 304.423 291.386 305.197 C 290.879 305.957 290.457 306.774 290.105 307.633 C 289.753 308.478 289.471 309.365 289.288 310.266 C 289.105 311.167 289.022 312.096 289.022 313.011 C 289.022 316.728 290.527 320.346 293.147 322.965 C 293.795 323.613 294.513 324.204 295.288 324.725 C 296.048 325.232 296.863 325.668 297.71 326.02 C 298.569 326.372 299.456 326.639 300.357 326.822 C 302.159 327.188 304.032 327.188 305.848 326.822 C 306.749 326.639 307.636 326.371 308.479 326.02 C 309.338 325.668 310.154 325.232 310.915 324.725 C 311.689 324.204 312.407 323.613 313.055 322.965 C 315.674 320.346 317.181 316.728 317.181 313.011 C 317.181 312.096 317.095 311.167 316.913 310.266 C 316.73 309.365 316.448 308.478 316.096 307.633 C 315.744 306.774 315.308 305.958 314.801 305.197 C 314.296 304.423 313.704 303.705 313.055 303.057 C 312.407 302.409 311.689 301.818 310.915 301.311 C 310.155 300.804 309.338 300.368 308.479 300.016 C 307.634 299.664 306.749 299.397 305.848 299.213 C 304.945 299.029 304.016 298.931 303.101 298.931 Z" transform="matrix(-1, 0, 0, -1, 606.203012, 626.027475)"/>
  <path d="M 418.995 211.915 L 356.109 211.915 L 356.109 165.165 C 356.109 156.563 363.153 149.582 371.831 149.582 L 403.273 149.582 L 403.273 118.416 L 356.109 118.416 L 356.109 102.832 L 403.273 102.832 C 411.96 102.832 418.995 109.814 418.995 118.416 L 418.995 149.582 C 418.995 158.193 411.96 165.165 403.273 165.165 L 371.831 165.165 L 371.831 196.333 L 418.995 196.333 L 418.995 211.915 Z" style=""/>
  <rect id="_Transparent_Rectangle_" data-name="&lt;Transparent Rectangle&gt;" class="cls-1" width="251.541" height="249.331" style="fill: none;" x="-313.473" y="215.643" transform="matrix(-1, 0, 0, 1, 0, 0)"/>
  <path d="M 246.401 101.882 L 214.958 101.882 C 206.28 101.882 199.237 108.862 199.237 117.467 L 199.237 195.381 C 199.237 203.992 206.28 210.965 214.958 210.965 L 246.401 210.965 C 255.087 210.965 262.122 203.992 262.122 195.381 L 262.122 117.467 C 262.122 108.862 255.087 101.882 246.401 101.882 Z M 214.958 195.381 L 214.958 117.467 L 246.401 117.467 L 246.401 195.381 L 214.958 195.381 Z" style="" transform="matrix(-1, 0, 0, -1, 461.359016, 312.84699)"/>
  <rect x="-238.54" y="148.631" width="15.721" height="15.584" style="" transform="matrix(-1, 0, 0, 1, 0, 0)"/>
  <rect id="rect-1" data-name="&lt;Transparent Rectangle&gt;" class="cls-1" width="251.541" height="249.331" style="fill: none;" x="-229.271" y="214.692" transform="matrix(-1, 0, 0, 1, 0, 0)"/>
  <path d="M 342.355 211.777 L 279.469 211.777 L 279.469 165.027 C 279.469 156.425 286.513 149.444 295.191 149.444 L 326.633 149.444 L 326.633 118.278 L 279.469 118.278 L 279.469 102.694 L 326.633 102.694 C 335.32 102.694 342.355 109.676 342.355 118.278 L 342.355 149.444 C 342.355 158.055 335.32 165.027 326.633 165.027 L 295.191 165.027 L 295.191 196.195 L 342.355 196.195 L 342.355 211.777 Z" style=""/>
  <rect id="rect-2" data-name="&lt;Transparent Rectangle&gt;" class="cls-1" width="251.541" height="249.331" style="fill: none;" x="-150.743" y="214.783" transform="matrix(-1, 0, 0, 1, 0, 0)"/>
  <rect id="rect-3" data-name="&lt;Transparent Rectangle&gt;" class="cls-1" width="251.541" height="249.331" style="fill: none;" x="-66.541" y="213.832" transform="matrix(-1, 0, 0, 1, 0, 0)"/>
  <path d="M 180.563 211.202 L 117.677 211.202 L 117.677 164.452 C 117.677 155.85 124.721 148.869 133.399 148.869 L 164.841 148.869 L 164.841 117.703 L 117.677 117.703 L 117.677 102.119 L 164.841 102.119 C 173.528 102.119 180.563 109.101 180.563 117.703 L 180.563 148.869 C 180.563 157.48 173.528 164.452 164.841 164.452 L 133.399 164.452 L 133.399 195.62 L 180.563 195.62 L 180.563 211.202 Z" style=""/>
</svg>