<?xml version="1.0" encoding="iso-8859-1"?>
<!-- Generator: Adobe Illustrator 19.0.0, SVG Export Plug-In . SVG Version: 6.00 Build 0)  -->
<svg version="1.1" id="Layer_1" xmlns="http://www.w3.org/2000/svg" xmlns:xlink="http://www.w3.org/1999/xlink" x="0px" y="0px"
	 viewBox="0 0 512 512" style="enable-background:new 0 0 512 512;" xml:space="preserve">
<g transform="translate(0 -1)">
	<polygon style="fill:#464F5D;" points="10.161,192.435 172.456,30.14 272.322,130.015 272.322,1 501.839,1 501.839,513 
		272.322,513 272.322,454.597 	"/>
	<g>
		<path style="fill:#FFFFFF;" d="M387.085,112.609c-4.882,0-8.828-3.946-8.828-8.828V69.733c0-4.882,3.946-8.828,8.828-8.828
			c4.882,0,8.828,3.946,8.828,8.828v34.048C395.913,108.663,391.967,112.609,387.085,112.609 M387.085,197.733
			c-4.882,0-8.828-3.955-8.828-8.828v-34.057c0-4.882,3.946-8.828,8.828-8.828c4.882,0,8.828,3.946,8.828,8.828v34.057
			C395.913,193.779,391.967,197.733,387.085,197.733 M387.085,282.849c-4.882,0-8.828-3.946-8.828-8.828v-34.039
			c0-4.882,3.946-8.828,8.828-8.828c4.882,0,8.828,3.946,8.828,8.828v34.039C395.913,278.903,391.967,282.849,387.085,282.849
			 M387.085,367.982c-4.882,0-8.828-3.955-8.828-8.828v-34.057c0-4.873,3.946-8.828,8.828-8.828c4.882,0,8.828,3.955,8.828,8.828
			v34.057C395.913,364.027,391.967,367.982,387.085,367.982 M387.085,453.098c-4.882,0-8.828-3.946-8.828-8.828v-34.048
			c0-4.882,3.946-8.828,8.828-8.828c4.882,0,8.828,3.946,8.828,8.828v34.048C395.913,449.152,391.967,453.098,387.085,453.098"/>
		<path style="fill:#FFFFFF;" d="M163.809,192.618c-2.26,0-4.52-0.865-6.241-2.586l-24.011-24.011
			c-3.443-3.443-3.443-9.031,0-12.482c3.452-3.443,9.039-3.443,12.482,0l24.011,24.011c3.452,3.452,3.452,9.031,0,12.482
			C168.329,191.753,166.069,192.618,163.809,192.618 M223.828,252.637c-2.26,0-4.52-0.865-6.241-2.586l-24.011-24.011
			c-3.452-3.443-3.452-9.031,0-12.482c3.452-3.452,9.039-3.452,12.482,0l24.011,24.011c3.443,3.443,3.443,9.031,0,12.482
			C228.348,251.771,226.088,252.637,223.828,252.637"/>
		<path style="fill:#FFFFFF;" d="M272.327,301.135c-2.26,0-4.52-0.865-6.241-2.586l-12.482-12.482
			c-3.452-3.452-3.452-9.031,0-12.482c3.452-3.452,9.031-3.452,12.482,0l12.482,12.482c3.452,3.452,3.452,9.031,0,12.482
			C276.846,300.27,274.586,301.135,272.327,301.135"/>
	</g>
</g>
<g>
</g>
<g>
</g>
<g>
</g>
<g>
</g>
<g>
</g>
<g>
</g>
<g>
</g>
<g>
</g>
<g>
</g>
<g>
</g>
<g>
</g>
<g>
</g>
<g>
</g>
<g>
</g>
<g>
</g>
</svg>
