<?xml version="1.0" encoding="iso-8859-1"?>
<!-- Generator: Adobe Illustrator 19.0.0, SVG Export Plug-In . SVG Version: 6.00 Build 0)  -->
<svg version="1.1" id="Layer_1" xmlns="http://www.w3.org/2000/svg" xmlns:xlink="http://www.w3.org/1999/xlink" x="0px" y="0px"
	 viewBox="0 0 503.322 503.322" style="enable-background:new 0 0 503.322 503.322;" xml:space="preserve">
<g>
	<polygon style="fill:#464F5D;" points="347.119,156.203 347.119,0 156.203,0 156.203,156.203 0,156.203 0,347.119 156.203,347.119 
		156.203,503.322 347.119,503.322 347.119,347.119 503.322,347.119 503.322,156.203 	"/>
	<g>
		<path style="fill:#FFFFFF;" d="M251.661,69.424c-4.79,0-8.678-3.879-8.678-8.678V34.712c0-4.799,3.888-8.678,8.678-8.678
			c4.79,0,8.678,3.879,8.678,8.678v26.034C260.339,65.545,256.451,69.424,251.661,69.424"/>
		<path style="fill:#FFFFFF;" d="M251.661,138.847c-4.79,0-8.678-3.879-8.678-8.678v-26.034c0-4.799,3.888-8.678,8.678-8.678
			c4.79,0,8.678,3.879,8.678,8.678v26.034C260.339,134.968,256.451,138.847,251.661,138.847"/>
		<path style="fill:#FFFFFF;" d="M251.661,208.271c-4.79,0-8.678-3.879-8.678-8.678v-26.034c0-4.799,3.888-8.678,8.678-8.678
			c4.79,0,8.678,3.879,8.678,8.678v26.034C260.339,204.392,256.451,208.271,251.661,208.271"/>
		<path style="fill:#FFFFFF;" d="M251.661,277.695c-4.79,0-8.678-3.879-8.678-8.678v-26.034c0-4.799,3.888-8.678,8.678-8.678
			c4.79,0,8.678,3.879,8.678,8.678v26.034C260.339,273.816,256.451,277.695,251.661,277.695"/>
		<path style="fill:#FFFFFF;" d="M251.661,347.119c-4.79,0-8.678-3.879-8.678-8.678v-26.034c0-4.799,3.888-8.678,8.678-8.678
			c4.79,0,8.678,3.879,8.678,8.678v26.034C260.339,343.24,256.451,347.119,251.661,347.119"/>
		<path style="fill:#FFFFFF;" d="M251.661,416.542c-4.79,0-8.678-3.879-8.678-8.678v-26.034c0-4.799,3.888-8.678,8.678-8.678
			c4.79,0,8.678,3.879,8.678,8.678v26.034C260.339,412.663,256.451,416.542,251.661,416.542"/>
		<path style="fill:#FFFFFF;" d="M251.661,477.288c-4.79,0-8.678-3.879-8.678-8.678v-17.356c0-4.799,3.888-8.678,8.678-8.678
			c4.79,0,8.678,3.879,8.678,8.678v17.356C260.339,473.409,256.451,477.288,251.661,477.288"/>
		<path style="fill:#FFFFFF;" d="M468.61,260.339h-26.034c-4.79,0-8.678-3.879-8.678-8.678c0-4.799,3.888-8.678,8.678-8.678h26.034
			c4.79,0,8.678,3.879,8.678,8.678C477.288,256.46,473.4,260.339,468.61,260.339"/>
		<path style="fill:#FFFFFF;" d="M399.186,260.339h-26.034c-4.79,0-8.678-3.879-8.678-8.678c0-4.799,3.888-8.678,8.678-8.678h26.034
			c4.79,0,8.678,3.879,8.678,8.678C407.864,256.46,403.977,260.339,399.186,260.339"/>
		<path style="fill:#FFFFFF;" d="M329.763,260.339h-26.034c-4.79,0-8.678-3.879-8.678-8.678c0-4.799,3.888-8.678,8.678-8.678h26.034
			c4.79,0,8.678,3.879,8.678,8.678C338.441,256.46,334.553,260.339,329.763,260.339"/>
		<path style="fill:#FFFFFF;" d="M190.915,260.339h-26.034c-4.79,0-8.678-3.879-8.678-8.678c0-4.799,3.888-8.678,8.678-8.678h26.034
			c4.79,0,8.678,3.879,8.678,8.678C199.593,256.46,195.705,260.339,190.915,260.339"/>
		<path style="fill:#FFFFFF;" d="M121.492,260.339H95.458c-4.79,0-8.678-3.879-8.678-8.678c0-4.799,3.888-8.678,8.678-8.678h26.034
			c4.79,0,8.678,3.879,8.678,8.678C130.169,256.46,126.282,260.339,121.492,260.339"/>
		<path style="fill:#FFFFFF;" d="M52.068,260.339H34.712c-4.79,0-8.678-3.879-8.678-8.678c0-4.799,3.888-8.678,8.678-8.678h17.356
			c4.79,0,8.678,3.879,8.678,8.678C60.746,256.46,56.858,260.339,52.068,260.339"/>
	</g>
</g>
<g>
</g>
<g>
</g>
<g>
</g>
<g>
</g>
<g>
</g>
<g>
</g>
<g>
</g>
<g>
</g>
<g>
</g>
<g>
</g>
<g>
</g>
<g>
</g>
<g>
</g>
<g>
</g>
<g>
</g>
</svg>
