<?xml version="1.0" encoding="iso-8859-1"?>
<!-- Generator: Adobe Illustrator 19.0.0, SVG Export Plug-In . SVG Version: 6.00 Build 0)  -->
<svg version="1.1" id="Layer_1" xmlns="http://www.w3.org/2000/svg" xmlns:xlink="http://www.w3.org/1999/xlink" x="0px" y="0px"
	 viewBox="0 0 512 512" style="enable-background:new 0 0 512 512;" xml:space="preserve">
<g transform="translate(0 -1)">
	<polygon style="fill:#464F5D;" points="0,371.759 512,371.759 512,142.241 0,142.241 	"/>
	<path style="fill:#FFFFFF;" d="M102.78,265.83H68.732c-4.882,0-8.828-3.946-8.828-8.828s3.946-8.828,8.828-8.828h34.048
		c4.873,0,8.828,3.946,8.828,8.828S107.653,265.83,102.78,265.83 M187.905,265.83h-34.048c-4.882,0-8.828-3.946-8.828-8.828
		s3.946-8.828,8.828-8.828h34.048c4.873,0,8.828,3.946,8.828,8.828S192.778,265.83,187.905,265.83 M273.029,265.83h-34.057
		c-4.873,0-8.828-3.946-8.828-8.828s3.955-8.828,8.828-8.828h34.057c4.873,0,8.828,3.946,8.828,8.828S277.902,265.83,273.029,265.83
		 M358.145,265.83h-34.048c-4.873,0-8.828-3.946-8.828-8.828s3.955-8.828,8.828-8.828h34.048c4.873,0,8.828,3.946,8.828,8.828
		S363.018,265.83,358.145,265.83 M443.269,265.83h-34.048c-4.873,0-8.828-3.946-8.828-8.828s3.955-8.828,8.828-8.828h34.048
		c4.882,0,8.828,3.946,8.828,8.828S448.151,265.83,443.269,265.83"/>
</g>
<g>
</g>
<g>
</g>
<g>
</g>
<g>
</g>
<g>
</g>
<g>
</g>
<g>
</g>
<g>
</g>
<g>
</g>
<g>
</g>
<g>
</g>
<g>
</g>
<g>
</g>
<g>
</g>
<g>
</g>
</svg>
