<?xml version="1.0" encoding="iso-8859-1"?>
<!-- Generator: Adobe Illustrator 19.0.0, SVG Export Plug-In . SVG Version: 6.00 Build 0)  -->
<svg version="1.1" id="Layer_1" xmlns="http://www.w3.org/2000/svg" xmlns:xlink="http://www.w3.org/1999/xlink" x="0px" y="0px"
	 viewBox="0 0 503.567 503.567" style="enable-background:new 0 0 503.567 503.567;" xml:space="preserve">
<g>
	<path style="fill:#4C8056;" d="M381.983,191.991c-22.417,26.3-7.552,68.702,26.692,72.354c1.775,0.188,3.584,0.29,5.41,0.29
		c0.273,0,0.555-0.009,0.836-0.009c36.454-0.597,54.818-44.988,31.095-72.832l-20.821-24.422c-5.837-6.852-16.384-6.852-22.229,0
		L381.983,191.991z"/>
	<path style="fill:#804537;" d="M413.992,315.833c-4.719,0-8.533-3.814-8.533-8.533v-76.8c0-4.719,3.814-8.533,8.533-8.533
		c4.719,0,8.533,3.814,8.533,8.533v76.8C422.525,312.019,418.711,315.833,413.992,315.833"/>
	<path style="fill:#71C285;" d="M57.716,191.991c-22.417,26.3-7.552,68.702,26.692,72.354c1.775,0.188,3.584,0.29,5.41,0.29
		c0.273,0,0.555-0.009,0.836-0.009c36.454-0.597,54.818-44.988,31.095-72.832l-20.821-24.422c-5.837-6.852-16.384-6.852-22.229,0
		L57.716,191.991z"/>
	<path style="fill:#804537;" d="M89.725,315.833c-4.719,0-8.533-3.814-8.533-8.533v-76.8c0-4.719,3.814-8.533,8.533-8.533
		c4.719,0,8.533,3.814,8.533,8.533v76.8C98.258,312.019,94.444,315.833,89.725,315.833"/>
	<path style="fill:#71C285;" d="M381.983,379.725c-22.417,26.3-7.552,68.702,26.692,72.354c1.775,0.188,3.584,0.29,5.41,0.29
		c0.273,0,0.555-0.009,0.836-0.009c36.454-0.597,54.818-44.988,31.095-72.832l-20.821-24.422c-5.837-6.852-16.384-6.852-22.229,0
		L381.983,379.725z"/>
	<path style="fill:#804537;" d="M413.992,503.567c-4.719,0-8.533-3.814-8.533-8.533v-76.8c0-4.719,3.814-8.533,8.533-8.533
		c4.719,0,8.533,3.814,8.533,8.533v76.8C422.525,499.752,418.711,503.567,413.992,503.567"/>
	<path style="fill:#4C8056;" d="M57.716,379.725c-22.417,26.3-7.552,68.702,26.692,72.354c1.775,0.188,3.584,0.29,5.41,0.29
		c0.273,0,0.555-0.009,0.836-0.009c36.454-0.597,54.818-44.988,31.095-72.832l-20.821-24.422c-5.837-6.852-16.384-6.852-22.229,0
		L57.716,379.725z"/>
	<path style="fill:#804537;" d="M89.725,503.567c-4.719,0-8.533-3.814-8.533-8.533v-76.8c0-4.719,3.814-8.533,8.533-8.533
		c4.719,0,8.533,3.814,8.533,8.533v76.8C98.258,499.752,94.444,503.567,89.725,503.567"/>
	<polygon style="fill:#464F5D;" points="251.783,0 4.317,0 4.317,119.467 192.05,119.467 192.05,494.933 311.517,494.933 
		311.517,119.467 499.25,119.467 499.25,0 	"/>
	<g>
		<path style="fill:#FFFFFF;" d="M64.05,68.267H46.983c-4.719,0-8.533-3.814-8.533-8.533s3.814-8.533,8.533-8.533H64.05
			c4.719,0,8.533,3.814,8.533,8.533S68.769,68.267,64.05,68.267"/>
		<path style="fill:#FFFFFF;" d="M145.675,68.267h-32.649c-4.719,0-8.533-3.814-8.533-8.533s3.814-8.533,8.533-8.533h32.649
			c4.719,0,8.533,3.814,8.533,8.533S150.394,68.267,145.675,68.267 M227.296,68.267h-32.649c-4.71,0-8.533-3.814-8.533-8.533
			s3.823-8.533,8.533-8.533h32.649c4.719,0,8.533,3.814,8.533,8.533S232.015,68.267,227.296,68.267 M308.917,68.267h-32.64
			c-4.719,0-8.533-3.814-8.533-8.533s3.814-8.533,8.533-8.533h32.64c4.719,0,8.533,3.814,8.533,8.533S313.636,68.267,308.917,68.267
			 M390.539,68.267H357.89c-4.719,0-8.533-3.814-8.533-8.533s3.814-8.533,8.533-8.533h32.649c4.719,0,8.533,3.814,8.533,8.533
			S395.258,68.267,390.539,68.267"/>
		<path style="fill:#FFFFFF;" d="M456.583,68.267h-17.067c-4.719,0-8.533-3.814-8.533-8.533s3.814-8.533,8.533-8.533h17.067
			c4.719,0,8.533,3.814,8.533,8.533S461.302,68.267,456.583,68.267"/>
		<path style="fill:#FFFFFF;" d="M251.783,239.875c-4.719,0-8.533-3.814-8.533-8.533v-37.922c0-4.719,3.814-8.533,8.533-8.533
			s8.533,3.814,8.533,8.533v37.922C260.317,236.06,256.502,239.875,251.783,239.875 M251.783,334.688
			c-4.719,0-8.533-3.814-8.533-8.533v-37.922c0-4.719,3.814-8.533,8.533-8.533s8.533,3.814,8.533,8.533v37.922
			C260.317,330.874,256.502,334.688,251.783,334.688 M251.783,429.511c-4.719,0-8.533-3.823-8.533-8.533v-37.931
			c0-4.71,3.814-8.533,8.533-8.533s8.533,3.823,8.533,8.533v37.931C260.317,425.688,256.502,429.511,251.783,429.511"/>
		<path style="fill:#FFFFFF;" d="M251.783,145.067c-4.719,0-8.533-3.814-8.533-8.533v-17.067c0-4.719,3.814-8.533,8.533-8.533
			s8.533,3.814,8.533,8.533v17.067C260.317,141.252,256.502,145.067,251.783,145.067"/>
	</g>
</g>
<g>
</g>
<g>
</g>
<g>
</g>
<g>
</g>
<g>
</g>
<g>
</g>
<g>
</g>
<g>
</g>
<g>
</g>
<g>
</g>
<g>
</g>
<g>
</g>
<g>
</g>
<g>
</g>
<g>
</g>
</svg>
