<?xml version="1.0" encoding="iso-8859-1"?>
<!-- Generator: Adobe Illustrator 19.0.0, SVG Export Plug-In . SVG Version: 6.00 Build 0)  -->
<svg version="1.1" id="Layer_1" xmlns="http://www.w3.org/2000/svg" xmlns:xlink="http://www.w3.org/1999/xlink" x="0px" y="0px"
	 viewBox="0 0 512 512" style="enable-background:new 0 0 512 512;" xml:space="preserve">
<g transform="translate(0 -1)">
	<path style="fill:#464F5D;" d="M256,1C114.617,1,0,115.617,0,257v256h123.586V257c0-73.128,59.286-132.414,132.414-132.414
		S388.414,183.872,388.414,257v256H512V257C512,115.617,397.383,1,256,1"/>
	<g>
		<path style="fill:#FFFFFF;" d="M61.793,477.69c-4.873,0-8.828-3.946-8.828-8.828v-17.655c0-4.882,3.955-8.828,8.828-8.828
			s8.828,3.946,8.828,8.828v17.655C70.621,473.744,66.666,477.69,61.793,477.69"/>
		<path style="fill:#FFFFFF;" d="M238.59,72.388c-4.529,0-8.377-3.46-8.783-8.051c-0.433-4.855,3.151-9.137,8.015-9.569
			c11.794-1.059,23.94-1.077,35.902-0.035c4.864,0.415,8.457,4.696,8.042,9.551c-0.424,4.864-4.696,8.474-9.551,8.033
			c-10.937-0.936-22.042-0.918-32.839,0.035C239.12,72.379,238.846,72.388,238.59,72.388 M354.267,98.288
			c-1.527,0-3.063-0.388-4.467-1.218c-9.437-5.553-19.412-10.275-29.652-14.054c-4.573-1.686-6.912-6.771-5.226-11.335
			c1.686-4.582,6.771-6.903,11.335-5.235c11.229,4.149,22.157,9.331,32.486,15.395c4.202,2.481,5.614,7.892,3.134,12.085
			C360.234,96.734,357.286,98.288,354.267,98.288 M157.385,98.491c-3.028,0-5.967-1.554-7.609-4.334
			c-2.481-4.202-1.095-9.613,3.107-12.094c10.293-6.082,21.204-11.282,32.433-15.457c4.564-1.713,9.649,0.627,11.352,5.199
			c1.695,4.564-0.627,9.649-5.199,11.352c-10.249,3.805-20.206,8.554-29.599,14.106C160.457,98.094,158.912,98.491,157.385,98.491
			 M416.616,156.594c-2.825,0-5.597-1.342-7.309-3.849c-6.162-9.048-13.162-17.585-20.807-25.388
			c-3.407-3.487-3.346-9.075,0.141-12.491c3.478-3.407,9.075-3.346,12.482,0.141c8.36,8.545,16.022,17.885,22.775,27.789
			c2.745,4.025,1.704,9.516-2.322,12.262C420.059,156.091,418.329,156.594,416.616,156.594 M95.16,156.938
			c-1.704,0-3.434-0.494-4.952-1.527c-4.034-2.728-5.085-8.218-2.348-12.253c6.727-9.905,14.362-19.271,22.713-27.851
			c3.399-3.487,8.986-3.558,12.482-0.15c3.496,3.39,3.566,8.978,0.168,12.482c-7.636,7.83-14.61,16.384-20.745,25.432
			C100.765,155.588,97.984,156.938,95.16,156.938 M447.91,235.954c-4.281,0-8.042-3.116-8.713-7.468
			c-1.668-10.831-4.317-21.548-7.865-31.85c-1.58-4.608,0.865-9.631,5.482-11.211c4.599-1.589,9.622,0.856,11.211,5.473
			c3.893,11.29,6.788,23.022,8.625,34.878c0.741,4.82-2.56,9.34-7.371,10.081C448.81,235.919,448.36,235.954,447.91,235.954
			 M64.025,236.387c-0.45,0-0.892-0.035-1.342-0.106c-4.82-0.733-8.139-5.226-7.406-10.046c1.801-11.838,4.679-23.587,8.545-34.904
			c1.58-4.626,6.621-7.062,11.211-5.5c4.617,1.571,7.071,6.594,5.5,11.202c-3.531,10.328-6.153,21.045-7.795,31.859
			C72.075,233.262,68.306,236.387,64.025,236.387 M450.205,321.9c-4.882,0-8.828-3.955-8.828-8.828v-34.428
			c0-4.882,3.946-8.828,8.828-8.828s8.828,3.946,8.828,8.828v34.428C459.033,317.945,455.087,321.9,450.205,321.9 M61.791,322.323
			c-4.873,0-8.828-3.946-8.828-8.828v-34.419c0-4.882,3.955-8.828,8.828-8.828c4.873,0,8.828,3.946,8.828,8.828v34.419
			C70.619,318.377,66.664,322.323,61.791,322.323 M450.205,407.969c-4.882,0-8.828-3.955-8.828-8.828v-34.436
			c0-4.873,3.946-8.828,8.828-8.828s8.828,3.955,8.828,8.828v34.436C459.033,404.014,455.087,407.969,450.205,407.969
			 M61.791,408.392c-4.873,0-8.828-3.946-8.828-8.828v-34.419c0-4.882,3.955-8.828,8.828-8.828c4.873,0,8.828,3.946,8.828,8.828
			v34.419C70.619,404.446,66.664,408.392,61.791,408.392"/>
		<path style="fill:#FFFFFF;" d="M450.207,477.69c-4.882,0-8.828-3.946-8.828-8.828v-17.655c0-4.882,3.946-8.828,8.828-8.828
			c4.882,0,8.828,3.946,8.828,8.828v17.655C459.034,473.744,455.089,477.69,450.207,477.69"/>
	</g>
</g>
<g>
</g>
<g>
</g>
<g>
</g>
<g>
</g>
<g>
</g>
<g>
</g>
<g>
</g>
<g>
</g>
<g>
</g>
<g>
</g>
<g>
</g>
<g>
</g>
<g>
</g>
<g>
</g>
<g>
</g>
</svg>
