<?xml version="1.0" encoding="iso-8859-1"?>
<!-- Generator: Adobe Illustrator 19.0.0, SVG Export Plug-In . SVG Version: 6.00 Build 0)  -->
<svg version="1.1" id="Layer_1" xmlns="http://www.w3.org/2000/svg" xmlns:xlink="http://www.w3.org/1999/xlink" x="0px" y="0px"
	 viewBox="0 0 512 512" style="enable-background:new 0 0 512 512;" xml:space="preserve">
<g>
	<polygon style="fill:#464F5D;" points="512,256 512,26.483 0,26.483 0,256 0,485.517 512,485.517 	"/>
	<g>
		<path style="fill:#FFFFFF;" d="M400.388,141.241c0-4.873,3.946-8.828,8.828-8.828h34.048c4.882,0,8.828,3.955,8.828,8.828
			c0,4.873-3.946,8.828-8.828,8.828h-34.048C404.333,150.069,400.388,146.114,400.388,141.241 M315.263,141.241
			c0-4.873,3.955-8.828,8.828-8.828h34.057c4.882,0,8.828,3.955,8.828,8.828c0,4.873-3.946,8.828-8.828,8.828h-34.057
			C319.218,150.069,315.263,146.114,315.263,141.241 M230.148,141.241c0-4.873,3.946-8.828,8.828-8.828h34.039
			c4.882,0,8.828,3.955,8.828,8.828c0,4.873-3.946,8.828-8.828,8.828h-34.039C234.093,150.069,230.148,146.114,230.148,141.241
			 M145.014,141.241c0-4.873,3.955-8.828,8.828-8.828h34.057c4.873,0,8.828,3.955,8.828,8.828c0,4.873-3.955,8.828-8.828,8.828
			h-34.057C148.969,150.069,145.014,146.114,145.014,141.241 M59.899,141.241c0-4.873,3.946-8.828,8.828-8.828h34.048
			c4.882,0,8.828,3.955,8.828,8.828c0,4.873-3.946,8.828-8.828,8.828H68.726C63.845,150.069,59.899,146.114,59.899,141.241"/>
		<path style="fill:#FFFFFF;" d="M400.388,370.759c0-4.873,3.946-8.828,8.828-8.828h34.048c4.882,0,8.828,3.955,8.828,8.828
			c0,4.873-3.946,8.828-8.828,8.828h-34.048C404.333,379.586,400.388,375.631,400.388,370.759 M315.263,370.759
			c0-4.873,3.955-8.828,8.828-8.828h34.057c4.882,0,8.828,3.955,8.828,8.828c0,4.873-3.946,8.828-8.828,8.828h-34.057
			C319.218,379.586,315.263,375.631,315.263,370.759 M230.148,370.759c0-4.873,3.946-8.828,8.828-8.828h34.039
			c4.882,0,8.828,3.955,8.828,8.828c0,4.873-3.946,8.828-8.828,8.828h-34.039C234.093,379.586,230.148,375.631,230.148,370.759
			 M145.014,370.759c0-4.873,3.955-8.828,8.828-8.828h34.057c4.873,0,8.828,3.955,8.828,8.828c0,4.873-3.955,8.828-8.828,8.828
			h-34.057C148.969,379.586,145.014,375.631,145.014,370.759 M59.899,370.759c0-4.873,3.946-8.828,8.828-8.828h34.048
			c4.882,0,8.828,3.955,8.828,8.828c0,4.873-3.946,8.828-8.828,8.828H68.726C63.845,379.586,59.899,375.631,59.899,370.759"/>
	</g>
	<g>
		<path style="fill:#A0A5A8;" d="M459.034,291.31v-17.655c0-4.873,3.946-8.828,8.828-8.828c4.882,0,8.828,3.955,8.828,8.828v17.655
			c0,4.873-3.946,8.828-8.828,8.828C462.98,300.138,459.034,296.183,459.034,291.31"/>
		<path style="fill:#A0A5A8;" d="M423.724,291.31v-17.655c0-4.873,3.946-8.828,8.828-8.828c4.882,0,8.828,3.955,8.828,8.828v17.655
			c0,4.873-3.946,8.828-8.828,8.828C427.67,300.138,423.724,296.183,423.724,291.31"/>
		<path style="fill:#A0A5A8;" d="M388.414,291.31v-17.655c0-4.873,3.946-8.828,8.828-8.828c4.882,0,8.828,3.955,8.828,8.828v17.655
			c0,4.873-3.946,8.828-8.828,8.828C392.36,300.138,388.414,296.183,388.414,291.31"/>
		<path style="fill:#A0A5A8;" d="M353.103,291.31v-17.655c0-4.873,3.946-8.828,8.828-8.828c4.882,0,8.828,3.955,8.828,8.828v17.655
			c0,4.873-3.946,8.828-8.828,8.828C357.049,300.138,353.103,296.183,353.103,291.31"/>
		<path style="fill:#A0A5A8;" d="M317.793,291.31v-17.655c0-4.873,3.946-8.828,8.828-8.828c4.882,0,8.828,3.955,8.828,8.828v17.655
			c0,4.873-3.946,8.828-8.828,8.828C321.739,300.138,317.793,296.183,317.793,291.31"/>
		<path style="fill:#A0A5A8;" d="M282.483,291.31v-17.655c0-4.873,3.946-8.828,8.828-8.828c4.882,0,8.828,3.955,8.828,8.828v17.655
			c0,4.873-3.946,8.828-8.828,8.828C286.429,300.138,282.483,296.183,282.483,291.31"/>
		<path style="fill:#A0A5A8;" d="M247.172,291.31v-17.655c0-4.873,3.946-8.828,8.828-8.828s8.828,3.955,8.828,8.828v17.655
			c0,4.873-3.946,8.828-8.828,8.828S247.172,296.183,247.172,291.31"/>
		<path style="fill:#A0A5A8;" d="M211.862,291.31v-17.655c0-4.873,3.946-8.828,8.828-8.828s8.828,3.955,8.828,8.828v17.655
			c0,4.873-3.946,8.828-8.828,8.828S211.862,296.183,211.862,291.31"/>
		<path style="fill:#A0A5A8;" d="M176.552,291.31v-17.655c0-4.873,3.946-8.828,8.828-8.828c4.882,0,8.828,3.955,8.828,8.828v17.655
			c0,4.873-3.946,8.828-8.828,8.828C180.498,300.138,176.552,296.183,176.552,291.31"/>
		<path style="fill:#A0A5A8;" d="M141.241,291.31v-17.655c0-4.873,3.946-8.828,8.828-8.828s8.828,3.955,8.828,8.828v17.655
			c0,4.873-3.946,8.828-8.828,8.828S141.241,296.183,141.241,291.31"/>
		<path style="fill:#A0A5A8;" d="M105.931,291.31v-17.655c0-4.873,3.946-8.828,8.828-8.828s8.828,3.955,8.828,8.828v17.655
			c0,4.873-3.946,8.828-8.828,8.828S105.931,296.183,105.931,291.31"/>
		<path style="fill:#A0A5A8;" d="M70.621,291.31v-17.655c0-4.873,3.946-8.828,8.828-8.828c4.882,0,8.828,3.955,8.828,8.828v17.655
			c0,4.873-3.946,8.828-8.828,8.828C74.567,300.138,70.621,296.183,70.621,291.31"/>
		<path style="fill:#A0A5A8;" d="M35.31,291.31v-17.655c0-4.873,3.946-8.828,8.828-8.828s8.828,3.955,8.828,8.828v17.655
			c0,4.873-3.946,8.828-8.828,8.828S35.31,296.183,35.31,291.31"/>
		<path style="fill:#A0A5A8;" d="M459.034,238.345V220.69c0-4.873,3.946-8.828,8.828-8.828c4.882,0,8.828,3.955,8.828,8.828v17.655
			c0,4.873-3.946,8.828-8.828,8.828C462.98,247.172,459.034,243.218,459.034,238.345"/>
		<path style="fill:#A0A5A8;" d="M423.724,238.345V220.69c0-4.873,3.946-8.828,8.828-8.828c4.882,0,8.828,3.955,8.828,8.828v17.655
			c0,4.873-3.946,8.828-8.828,8.828C427.67,247.172,423.724,243.218,423.724,238.345"/>
		<path style="fill:#A0A5A8;" d="M388.414,238.345V220.69c0-4.873,3.946-8.828,8.828-8.828c4.882,0,8.828,3.955,8.828,8.828v17.655
			c0,4.873-3.946,8.828-8.828,8.828C392.36,247.172,388.414,243.218,388.414,238.345"/>
		<path style="fill:#A0A5A8;" d="M353.103,238.345V220.69c0-4.873,3.946-8.828,8.828-8.828c4.882,0,8.828,3.955,8.828,8.828v17.655
			c0,4.873-3.946,8.828-8.828,8.828C357.049,247.172,353.103,243.218,353.103,238.345"/>
		<path style="fill:#A0A5A8;" d="M317.793,238.345V220.69c0-4.873,3.946-8.828,8.828-8.828c4.882,0,8.828,3.955,8.828,8.828v17.655
			c0,4.873-3.946,8.828-8.828,8.828C321.739,247.172,317.793,243.218,317.793,238.345"/>
		<path style="fill:#A0A5A8;" d="M282.483,238.345V220.69c0-4.873,3.946-8.828,8.828-8.828c4.882,0,8.828,3.955,8.828,8.828v17.655
			c0,4.873-3.946,8.828-8.828,8.828C286.429,247.172,282.483,243.218,282.483,238.345"/>
		<path style="fill:#A0A5A8;" d="M247.172,238.345V220.69c0-4.873,3.946-8.828,8.828-8.828s8.828,3.955,8.828,8.828v17.655
			c0,4.873-3.946,8.828-8.828,8.828S247.172,243.218,247.172,238.345"/>
		<path style="fill:#A0A5A8;" d="M211.862,238.345V220.69c0-4.873,3.946-8.828,8.828-8.828s8.828,3.955,8.828,8.828v17.655
			c0,4.873-3.946,8.828-8.828,8.828S211.862,243.218,211.862,238.345"/>
		<path style="fill:#A0A5A8;" d="M176.552,238.345V220.69c0-4.873,3.946-8.828,8.828-8.828c4.882,0,8.828,3.955,8.828,8.828v17.655
			c0,4.873-3.946,8.828-8.828,8.828C180.498,247.172,176.552,243.218,176.552,238.345"/>
		<path style="fill:#A0A5A8;" d="M141.241,238.345V220.69c0-4.873,3.946-8.828,8.828-8.828s8.828,3.955,8.828,8.828v17.655
			c0,4.873-3.946,8.828-8.828,8.828S141.241,243.218,141.241,238.345"/>
		<path style="fill:#A0A5A8;" d="M105.931,238.345V220.69c0-4.873,3.946-8.828,8.828-8.828s8.828,3.955,8.828,8.828v17.655
			c0,4.873-3.946,8.828-8.828,8.828S105.931,243.218,105.931,238.345"/>
		<path style="fill:#A0A5A8;" d="M70.621,238.345V220.69c0-4.873,3.946-8.828,8.828-8.828c4.882,0,8.828,3.955,8.828,8.828v17.655
			c0,4.873-3.946,8.828-8.828,8.828C74.567,247.172,70.621,243.218,70.621,238.345"/>
		<path style="fill:#A0A5A8;" d="M35.31,238.345V220.69c0-4.873,3.946-8.828,8.828-8.828s8.828,3.955,8.828,8.828v17.655
			c0,4.873-3.946,8.828-8.828,8.828S35.31,243.218,35.31,238.345"/>
	</g>
	<polygon style="fill:#BDC3C7;" points="0,273.653 512,273.653 512,238.342 0,238.342 	"/>
</g>
<g>
</g>
<g>
</g>
<g>
</g>
<g>
</g>
<g>
</g>
<g>
</g>
<g>
</g>
<g>
</g>
<g>
</g>
<g>
</g>
<g>
</g>
<g>
</g>
<g>
</g>
<g>
</g>
<g>
</g>
</svg>
