<?xml version="1.0" encoding="utf-8"?>
<svg viewBox="0 0 511.999 511.999" style="enable-background:new 0 0 511.999 511.999;"
  xmlns="http://www.w3.org/2000/svg">
  <rect x="79.545" y="441.624" style="fill:#dc89a7;" width="254.362" height="56.29" />
  <polygon style="fill:#31C0D8;" points="408.05,242.86 33.554,242.86 33.554,66.874 408.05,66.874 478.444,154.867 " />
  <g>
    <rect x="160.019" y="14.079" style="fill:#FFD248;" width="93.413" height="52.796" />
    <rect x="160.019" y="242.86" style="fill:#FFD248;" width="93.413" height="198.765" />
  </g>
  <path
    d="M489.438,146.072l-70.394-87.993c-2.671-3.339-6.717-5.284-10.994-5.284H267.507V14.079C267.507,6.303,261.202,0,253.428,0 h-93.41c-7.774,0-14.079,6.303-14.079,14.079v38.717H33.554c-7.774,0-14.079,6.303-14.079,14.079V242.86 c0,7.776,6.304,14.079,14.079,14.079h112.386v170.613H79.545c-7.774,0-14.079,6.303-14.079,14.079v56.29 c0,7.776,6.304,14.079,14.079,14.079h254.356c7.774,0,14.079-6.303,14.079-14.079v-56.29c0-7.776-6.304-14.079-14.079-14.079 h-66.394V256.938H408.05c4.277,0,8.322-1.944,10.994-5.284l70.394-87.993C493.552,158.52,493.552,151.214,489.438,146.072z M174.097,28.158h65.252v24.638h-65.252V28.158L174.097,28.158z M319.822,483.842H93.624V455.71h66.394h93.41h66.394 L319.822,483.842L319.822,483.842z M239.349,427.551H220.8c0-0.007,0.001-0.014,0.001-0.021v-72.506 c0-7.776-6.304-14.079-14.079-14.079s-14.079,6.303-14.079,14.079v72.506c0,0.007,0.001,0.014,0.001,0.021h-18.549V256.938h65.252 L239.349,427.551L239.349,427.551z M401.284,228.781H253.428h-93.41H47.632V80.953h112.386h93.41h147.856l59.131,73.914 L401.284,228.781z" />
  <path
    d="M206.723,327.097c-0.915,0-1.846-0.099-2.745-0.282c-0.9-0.183-1.788-0.451-2.647-0.803 c-0.846-0.352-1.661-0.788-2.422-1.295c-0.776-0.507-1.494-1.098-2.141-1.746c-0.648-0.648-1.239-1.366-1.76-2.14 c-0.507-0.76-0.929-1.577-1.281-2.436c-0.352-0.845-0.634-1.732-0.817-2.633c-0.183-0.901-0.266-1.83-0.266-2.745 c0-3.717,1.505-7.335,4.125-9.954c0.648-0.648,1.366-1.239,2.141-1.76c0.76-0.507,1.575-0.943,2.422-1.295 c0.859-0.352,1.746-0.619,2.647-0.802c1.802-0.366,3.675-0.366,5.491,0c0.901,0.183,1.788,0.451,2.631,0.802 c0.859,0.352,1.675,0.788,2.436,1.295c0.774,0.521,1.492,1.112,2.14,1.76c2.619,2.619,4.126,6.237,4.126,9.954 c0,0.915-0.086,1.844-0.268,2.745c-0.183,0.901-0.465,1.788-0.817,2.633c-0.352,0.859-0.788,1.675-1.295,2.436 c-0.505,0.774-1.097,1.492-1.746,2.14c-0.648,0.648-1.366,1.239-2.14,1.746c-0.76,0.507-1.577,0.943-2.436,1.295 c-0.845,0.352-1.73,0.619-2.631,0.803C208.567,326.999,207.638,327.097,206.723,327.097z" />
  <g />
  <g />
  <g />
  <g />
  <g />
  <g />
  <g />
  <g />
  <g />
  <g />
  <g />
  <g />
  <g />
  <g />
  <g />
  <path
    d="M 146.83 211.996 L 83.944 211.996 L 83.944 165.246 C 83.944 156.644 90.988 149.663 99.666 149.663 L 131.108 149.663 L 131.108 118.497 L 83.944 118.497 L 83.944 102.913 L 131.108 102.913 C 139.795 102.913 146.83 109.895 146.83 118.497 L 146.83 149.663 C 146.83 158.274 139.795 165.246 131.108 165.246 L 99.666 165.246 L 99.666 196.414 L 146.83 196.414 L 146.83 211.996 Z"
    style="" />
  <rect id="_Transparent_Rectangle_" data-name="&lt;Transparent Rectangle&gt;" class="cls-1" width="251.541"
    height="249.331" style="fill: none;" x="196.352" y="215.643" />
  <path
    d="M 215.312 211.046 L 183.869 211.046 C 175.191 211.046 168.148 204.066 168.148 195.461 L 168.148 117.547 C 168.148 108.936 175.191 101.963 183.869 101.963 L 215.312 101.963 C 223.998 101.963 231.033 108.936 231.033 117.547 L 231.033 195.461 C 231.033 204.066 223.998 211.046 215.312 211.046 Z M 183.869 117.547 L 183.869 195.461 L 215.312 195.461 L 215.312 117.547 L 183.869 117.547 Z"
    style="" />
  <rect x="191.73" y="148.712" width="15.721" height="15.584" style="" />
  <rect id="rect-1" data-name="&lt;Transparent Rectangle&gt;" class="cls-1" width="251.541" height="249.331"
    style="fill: none;" x="280.554" y="214.692" />
  <path
    d="M 309.56 211.136 L 246.674 211.136 L 246.674 164.386 C 246.674 155.784 253.718 148.803 262.396 148.803 L 293.838 148.803 L 293.838 117.637 L 246.674 117.637 L 246.674 102.053 L 293.838 102.053 C 302.525 102.053 309.56 109.035 309.56 117.637 L 309.56 148.803 C 309.56 157.414 302.525 164.386 293.838 164.386 L 262.396 164.386 L 262.396 195.554 L 309.56 195.554 L 309.56 211.136 Z"
    style="" />
  <rect id="rect-2" data-name="&lt;Transparent Rectangle&gt;" class="cls-1" width="251.541" height="249.331"
    style="fill: none;" x="359.082" y="214.783" />
  <path
    d="M 378.042 210.186 L 346.599 210.186 C 337.921 210.186 330.878 203.206 330.878 194.601 L 330.878 116.687 C 330.878 108.076 337.921 101.103 346.599 101.103 L 378.042 101.103 C 386.728 101.103 393.763 108.076 393.763 116.687 L 393.763 194.601 C 393.763 203.206 386.728 210.186 378.042 210.186 Z M 346.599 116.687 L 346.599 194.601 L 378.042 194.601 L 378.042 116.687 L 346.599 116.687 Z"
    style="" />
  <rect x="354.46" y="147.852" width="15.721" height="15.584" style="" />
  <rect id="rect-3" data-name="&lt;Transparent Rectangle&gt;" class="cls-1" width="251.541" height="249.331"
    style="fill: none;" x="443.284" y="213.832" />
</svg>