<?xml version="1.0" encoding="utf-8"?>
<svg viewBox="0 0 511.999 511.999" style="enable-background:new 0 0 511.999 511.999;"
  xmlns="http://www.w3.org/2000/svg">
  <rect x="79.545" y="441.624" style="fill:#FFD248;" width="254.362" height="56.29" />
  <polygon style="fill:#dc89a7;" points="408.05,242.86 33.554,242.86 33.554,66.874 408.05,66.874 478.444,154.867 " />
  <g>
    <rect x="160.019" y="14.079" style="fill:#31C0D8;" width="93.413" height="52.796" />
    <rect x="160.019" y="242.86" style="fill:#31C0D8;" width="93.413" height="198.765" />
  </g>
  <path
    d="M489.438,146.072l-70.394-87.993c-2.671-3.339-6.717-5.284-10.994-5.284H267.507V14.079C267.507,6.303,261.202,0,253.428,0 h-93.41c-7.774,0-14.079,6.303-14.079,14.079v38.717H33.554c-7.774,0-14.079,6.303-14.079,14.079V242.86 c0,7.776,6.304,14.079,14.079,14.079h112.386v170.613H79.545c-7.774,0-14.079,6.303-14.079,14.079v56.29 c0,7.776,6.304,14.079,14.079,14.079h254.356c7.774,0,14.079-6.303,14.079-14.079v-56.29c0-7.776-6.304-14.079-14.079-14.079 h-66.394V256.938H408.05c4.277,0,8.322-1.944,10.994-5.284l70.394-87.993C493.552,158.52,493.552,151.214,489.438,146.072z M174.097,28.158h65.252v24.638h-65.252V28.158L174.097,28.158z M319.822,483.842H93.624V455.71h66.394h93.41h66.394 L319.822,483.842L319.822,483.842z M239.349,427.551H220.8c0-0.007,0.001-0.014,0.001-0.021v-72.506 c0-7.776-6.304-14.079-14.079-14.079s-14.079,6.303-14.079,14.079v72.506c0,0.007,0.001,0.014,0.001,0.021h-18.549V256.938h65.252 L239.349,427.551L239.349,427.551z M401.284,228.781H253.428h-93.41H47.632V80.953h112.386h93.41h147.856l59.131,73.914 L401.284,228.781z" />
  <path
    d="M206.723,327.097c-0.915,0-1.846-0.099-2.745-0.282c-0.9-0.183-1.788-0.451-2.647-0.803 c-0.846-0.352-1.661-0.788-2.422-1.295c-0.776-0.507-1.494-1.098-2.141-1.746c-0.648-0.648-1.239-1.366-1.76-2.14 c-0.507-0.76-0.929-1.577-1.281-2.436c-0.352-0.845-0.634-1.732-0.817-2.633c-0.183-0.901-0.266-1.83-0.266-2.745 c0-3.717,1.505-7.335,4.125-9.954c0.648-0.648,1.366-1.239,2.141-1.76c0.76-0.507,1.575-0.943,2.422-1.295 c0.859-0.352,1.746-0.619,2.647-0.802c1.802-0.366,3.675-0.366,5.491,0c0.901,0.183,1.788,0.451,2.631,0.802 c0.859,0.352,1.675,0.788,2.436,1.295c0.774,0.521,1.492,1.112,2.14,1.76c2.619,2.619,4.126,6.237,4.126,9.954 c0,0.915-0.086,1.844-0.268,2.745c-0.183,0.901-0.465,1.788-0.817,2.633c-0.352,0.859-0.788,1.675-1.295,2.436 c-0.505,0.774-1.097,1.492-1.746,2.14c-0.648,0.648-1.366,1.239-2.14,1.746c-0.76,0.507-1.577,0.943-2.436,1.295 c-0.845,0.352-1.73,0.619-2.631,0.803C208.567,326.999,207.638,327.097,206.723,327.097z" />
  <g />
  <g />
  <g />
  <g />
  <g />
  <g />
  <g />
  <g />
  <g />
  <g />
  <g />
  <g />
  <g />
  <g />
  <g />
  <path
    d="M 155.299 210.961 L 92.413 210.961 L 92.413 164.211 C 92.413 155.609 99.457 148.628 108.135 148.628 L 139.577 148.628 L 139.577 117.462 L 92.413 117.462 L 92.413 101.878 L 139.577 101.878 C 148.264 101.878 155.299 108.86 155.299 117.462 L 155.299 148.628 C 155.299 157.239 148.264 164.211 139.577 164.211 L 108.135 164.211 L 108.135 195.379 L 155.299 195.379 L 155.299 210.961 Z"
    style="" />
  <rect id="_Transparent_Rectangle_" data-name="&lt;Transparent Rectangle&gt;" class="cls-1" width="251.541"
    height="249.331" style="fill: none;" x="196.352" y="215.643" />
  <path
    d="M 223.781 210.011 L 192.338 210.011 C 183.66 210.011 176.617 203.031 176.617 194.426 L 176.617 116.512 C 176.617 107.901 183.66 100.928 192.338 100.928 L 223.781 100.928 C 232.467 100.928 239.502 107.901 239.502 116.512 L 239.502 194.426 C 239.502 203.031 232.467 210.011 223.781 210.011 Z M 192.338 116.512 L 192.338 194.426 L 223.781 194.426 L 223.781 116.512 L 192.338 116.512 Z"
    style="" />
  <rect x="200.199" y="147.677" width="15.721" height="15.584" style="" />
  <rect id="rect-1" data-name="&lt;Transparent Rectangle&gt;" class="cls-1" width="251.541" height="249.331"
    style="fill: none;" x="280.554" y="214.692" />
  <path
    d="M 318.029 210.101 L 255.143 210.101 L 255.143 163.351 C 255.143 154.749 262.187 147.768 270.865 147.768 L 302.307 147.768 L 302.307 116.602 L 255.143 116.602 L 255.143 101.018 L 302.307 101.018 C 310.994 101.018 318.029 108 318.029 116.602 L 318.029 147.768 C 318.029 156.379 310.994 163.351 302.307 163.351 L 270.865 163.351 L 270.865 194.519 L 318.029 194.519 L 318.029 210.101 Z"
    style="" />
  <rect id="rect-2" data-name="&lt;Transparent Rectangle&gt;" class="cls-1" width="251.541" height="249.331"
    style="fill: none;" x="359.082" y="214.783" />
  <rect id="rect-3" data-name="&lt;Transparent Rectangle&gt;" class="cls-1" width="251.541" height="249.331"
    style="fill: none;" x="443.284" y="213.832" />
  <path
    d="M 364.479 109.404 L 364.479 202.868 L 364.479 109.404 M 372.656 101.616 L 331.768 101.616 L 331.768 117.194 L 356.301 117.194 L 356.301 195.08 L 331.768 195.08 L 331.768 210.657 L 397.19 210.657 L 397.19 195.08 L 372.656 195.08 L 372.656 101.616 Z"
    style="" />
</svg>