<?xml version="1.0" encoding="iso-8859-1"?>
<!-- Generator: Adobe Illustrator 19.0.0, SVG Export Plug-In . SVG Version: 6.00 Build 0)  -->
<svg version="1.1" id="Layer_1" xmlns="http://www.w3.org/2000/svg" xmlns:xlink="http://www.w3.org/1999/xlink" x="0px" y="0px"
	 viewBox="0 0 512 512" style="enable-background:new 0 0 512 512;" xml:space="preserve">
<g transform="translate(0 -1)">
	<polygon style="fill:#464F5D;" points="0,371.759 512,371.759 512,142.241 0,142.241 	"/>
	<g>
		<path style="fill:#FFFFFF;" d="M158.897,265.83h-17.655c-4.882,0-8.828-3.946-8.828-8.828s3.946-8.828,8.828-8.828h17.655
			c4.882,0,8.828,3.946,8.828,8.828S163.778,265.83,158.897,265.83"/>
		<path style="fill:#FFFFFF;" d="M94.897,265.83H64c-4.882,0-8.828-3.946-8.828-8.828s3.946-8.828,8.828-8.828h30.897
			c4.882,0,8.828,3.946,8.828,8.828S99.778,265.83,94.897,265.83"/>
		<path style="fill:#FFFFFF;" d="M448,265.83h-30.897c-4.882,0-8.828-3.946-8.828-8.828s3.946-8.828,8.828-8.828H448
			c4.882,0,8.828,3.946,8.828,8.828S452.882,265.83,448,265.83"/>
		<path style="fill:#FFFFFF;" d="M370.759,265.83h-17.655c-4.882,0-8.828-3.946-8.828-8.828s3.946-8.828,8.828-8.828h17.655
			c4.882,0,8.828,3.946,8.828,8.828S375.64,265.83,370.759,265.83"/>
		<path style="fill:#FFFFFF;" d="M308.966,195.21H203.034c-4.882,0-8.828-3.946-8.828-8.828s3.946-8.828,8.828-8.828h105.931
			c4.882,0,8.828,3.946,8.828,8.828S313.847,195.21,308.966,195.21"/>
		<path style="fill:#FFFFFF;" d="M308.966,230.52H203.034c-4.882,0-8.828-3.946-8.828-8.828s3.946-8.828,8.828-8.828h105.931
			c4.882,0,8.828,3.946,8.828,8.828S313.847,230.52,308.966,230.52"/>
		<path style="fill:#FFFFFF;" d="M308.966,265.83H203.034c-4.882,0-8.828-3.946-8.828-8.828s3.946-8.828,8.828-8.828h105.931
			c4.882,0,8.828,3.946,8.828,8.828S313.847,265.83,308.966,265.83"/>
		<path style="fill:#FFFFFF;" d="M308.966,301.141H203.034c-4.882,0-8.828-3.946-8.828-8.828s3.946-8.828,8.828-8.828h105.931
			c4.882,0,8.828,3.946,8.828,8.828S313.847,301.141,308.966,301.141"/>
		<path style="fill:#FFFFFF;" d="M308.966,336.451H203.034c-4.882,0-8.828-3.946-8.828-8.828c0-4.882,3.946-8.828,8.828-8.828
			h105.931c4.882,0,8.828,3.946,8.828,8.828C317.793,332.505,313.847,336.451,308.966,336.451"/>
	</g>
</g>
<g>
</g>
<g>
</g>
<g>
</g>
<g>
</g>
<g>
</g>
<g>
</g>
<g>
</g>
<g>
</g>
<g>
</g>
<g>
</g>
<g>
</g>
<g>
</g>
<g>
</g>
<g>
</g>
<g>
</g>
</svg>
