<?xml version="1.0" encoding="iso-8859-1"?>
<!-- Generator: Adobe Illustrator 19.0.0, SVG Export Plug-In . SVG Version: 6.00 Build 0)  -->
<svg version="1.1" id="Layer_1" xmlns="http://www.w3.org/2000/svg" xmlns:xlink="http://www.w3.org/1999/xlink" x="0px" y="0px"
	 viewBox="0 0 512.003 512.003" style="enable-background:new 0 0 512.003 512.003;" xml:space="preserve">
<g transform="translate(0 -1)">
	<polygon style="fill:#464F5D;" points="256.001,1.003 26.484,1.003 26.484,513.003 256.001,513.003 485.519,513.003 485.519,1.003 
			"/>
	<g>
		<path style="fill:#FFFFFF;" d="M141.243,112.614c-4.873,0-8.828-3.946-8.828-8.828V69.739c0-4.882,3.955-8.828,8.828-8.828
			c4.873,0,8.828,3.946,8.828,8.828v34.048C150.07,108.668,146.116,112.614,141.243,112.614 M141.243,197.739
			c-4.873,0-8.828-3.955-8.828-8.828v-34.057c0-4.882,3.955-8.828,8.828-8.828c4.873,0,8.828,3.946,8.828,8.828v34.057
			C150.07,193.784,146.116,197.739,141.243,197.739 M141.243,282.854c-4.873,0-8.828-3.946-8.828-8.828v-34.039
			c0-4.882,3.955-8.828,8.828-8.828c4.873,0,8.828,3.946,8.828,8.828v34.039C150.07,278.908,146.116,282.854,141.243,282.854
			 M141.243,367.987c-4.873,0-8.828-3.955-8.828-8.828v-34.057c0-4.873,3.955-8.828,8.828-8.828c4.873,0,8.828,3.955,8.828,8.828
			v34.057C150.07,364.033,146.116,367.987,141.243,367.987 M141.243,453.103c-4.873,0-8.828-3.946-8.828-8.828v-34.048
			c0-4.882,3.955-8.828,8.828-8.828c4.873,0,8.828,3.946,8.828,8.828v34.048C150.07,449.157,146.116,453.103,141.243,453.103"/>
		<path style="fill:#FFFFFF;" d="M370.76,112.614c-4.873,0-8.828-3.946-8.828-8.828V69.739c0-4.882,3.955-8.828,8.828-8.828
			c4.873,0,8.828,3.946,8.828,8.828v34.048C379.588,108.668,375.633,112.614,370.76,112.614 M370.76,197.739
			c-4.873,0-8.828-3.955-8.828-8.828v-34.057c0-4.882,3.955-8.828,8.828-8.828c4.873,0,8.828,3.946,8.828,8.828v34.057
			C379.588,193.784,375.633,197.739,370.76,197.739 M370.76,282.854c-4.873,0-8.828-3.946-8.828-8.828v-34.039
			c0-4.882,3.955-8.828,8.828-8.828c4.873,0,8.828,3.946,8.828,8.828v34.039C379.588,278.908,375.633,282.854,370.76,282.854
			 M370.76,367.987c-4.873,0-8.828-3.955-8.828-8.828v-34.057c0-4.873,3.955-8.828,8.828-8.828c4.873,0,8.828,3.955,8.828,8.828
			v34.057C379.588,364.033,375.633,367.987,370.76,367.987 M370.76,453.103c-4.873,0-8.828-3.946-8.828-8.828v-34.048
			c0-4.882,3.955-8.828,8.828-8.828c4.873,0,8.828,3.946,8.828,8.828v34.048C379.588,449.157,375.633,453.103,370.76,453.103"/>
	</g>
	<g>
		<path style="fill:#A0A5A8;" d="M291.312,53.968h-17.655c-4.873,0-8.828-3.946-8.828-8.828s3.955-8.828,8.828-8.828h17.655
			c4.873,0,8.828,3.946,8.828,8.828S296.184,53.968,291.312,53.968"/>
		<path style="fill:#A0A5A8;" d="M291.312,89.279h-17.655c-4.873,0-8.828-3.946-8.828-8.828c0-4.882,3.955-8.828,8.828-8.828h17.655
			c4.873,0,8.828,3.946,8.828,8.828C300.139,85.333,296.184,89.279,291.312,89.279"/>
		<path style="fill:#A0A5A8;" d="M291.312,124.589h-17.655c-4.873,0-8.828-3.946-8.828-8.828c0-4.882,3.955-8.828,8.828-8.828
			h17.655c4.873,0,8.828,3.946,8.828,8.828C300.139,120.643,296.184,124.589,291.312,124.589"/>
		<path style="fill:#A0A5A8;" d="M291.312,159.899h-17.655c-4.873,0-8.828-3.946-8.828-8.828c0-4.882,3.955-8.828,8.828-8.828
			h17.655c4.873,0,8.828,3.946,8.828,8.828C300.139,155.953,296.184,159.899,291.312,159.899"/>
		<path style="fill:#A0A5A8;" d="M291.312,195.21h-17.655c-4.873,0-8.828-3.946-8.828-8.828c0-4.882,3.955-8.828,8.828-8.828h17.655
			c4.873,0,8.828,3.946,8.828,8.828C300.139,191.264,296.184,195.21,291.312,195.21"/>
		<path style="fill:#A0A5A8;" d="M291.312,230.52h-17.655c-4.873,0-8.828-3.946-8.828-8.828c0-4.882,3.955-8.828,8.828-8.828h17.655
			c4.873,0,8.828,3.946,8.828,8.828C300.139,226.574,296.184,230.52,291.312,230.52"/>
		<path style="fill:#A0A5A8;" d="M291.312,265.83h-17.655c-4.873,0-8.828-3.946-8.828-8.828c0-4.882,3.955-8.828,8.828-8.828h17.655
			c4.873,0,8.828,3.946,8.828,8.828C300.139,261.884,296.184,265.83,291.312,265.83"/>
		<path style="fill:#A0A5A8;" d="M291.312,301.141h-17.655c-4.873,0-8.828-3.946-8.828-8.828s3.955-8.828,8.828-8.828h17.655
			c4.873,0,8.828,3.946,8.828,8.828S296.184,301.141,291.312,301.141"/>
		<path style="fill:#A0A5A8;" d="M291.312,336.451h-17.655c-4.873,0-8.828-3.946-8.828-8.828c0-4.882,3.955-8.828,8.828-8.828
			h17.655c4.873,0,8.828,3.946,8.828,8.828C300.139,332.505,296.184,336.451,291.312,336.451"/>
		<path style="fill:#A0A5A8;" d="M291.312,371.761h-17.655c-4.873,0-8.828-3.946-8.828-8.828c0-4.882,3.955-8.828,8.828-8.828
			h17.655c4.873,0,8.828,3.946,8.828,8.828C300.139,367.815,296.184,371.761,291.312,371.761"/>
		<path style="fill:#A0A5A8;" d="M291.312,407.072h-17.655c-4.873,0-8.828-3.946-8.828-8.828s3.955-8.828,8.828-8.828h17.655
			c4.873,0,8.828,3.946,8.828,8.828S296.184,407.072,291.312,407.072"/>
		<path style="fill:#A0A5A8;" d="M291.312,442.382h-17.655c-4.873,0-8.828-3.946-8.828-8.828c0-4.882,3.955-8.828,8.828-8.828
			h17.655c4.873,0,8.828,3.946,8.828,8.828C300.139,438.436,296.184,442.382,291.312,442.382"/>
		<path style="fill:#A0A5A8;" d="M291.312,477.692h-17.655c-4.873,0-8.828-3.946-8.828-8.828s3.955-8.828,8.828-8.828h17.655
			c4.873,0,8.828,3.946,8.828,8.828S296.184,477.692,291.312,477.692"/>
		<path style="fill:#A0A5A8;" d="M238.346,53.968h-17.655c-4.873,0-8.828-3.946-8.828-8.828s3.955-8.828,8.828-8.828h17.655
			c4.873,0,8.828,3.946,8.828,8.828S243.219,53.968,238.346,53.968"/>
		<path style="fill:#A0A5A8;" d="M238.346,89.279h-17.655c-4.873,0-8.828-3.946-8.828-8.828c0-4.882,3.955-8.828,8.828-8.828h17.655
			c4.873,0,8.828,3.946,8.828,8.828C247.174,85.333,243.219,89.279,238.346,89.279"/>
		<path style="fill:#A0A5A8;" d="M238.346,124.589h-17.655c-4.873,0-8.828-3.946-8.828-8.828c0-4.882,3.955-8.828,8.828-8.828
			h17.655c4.873,0,8.828,3.946,8.828,8.828C247.174,120.643,243.219,124.589,238.346,124.589"/>
		<path style="fill:#A0A5A8;" d="M238.346,159.899h-17.655c-4.873,0-8.828-3.946-8.828-8.828c0-4.882,3.955-8.828,8.828-8.828
			h17.655c4.873,0,8.828,3.946,8.828,8.828C247.174,155.953,243.219,159.899,238.346,159.899"/>
		<path style="fill:#A0A5A8;" d="M238.346,195.21h-17.655c-4.873,0-8.828-3.946-8.828-8.828c0-4.882,3.955-8.828,8.828-8.828h17.655
			c4.873,0,8.828,3.946,8.828,8.828C247.174,191.264,243.219,195.21,238.346,195.21"/>
		<path style="fill:#A0A5A8;" d="M238.346,230.52h-17.655c-4.873,0-8.828-3.946-8.828-8.828c0-4.882,3.955-8.828,8.828-8.828h17.655
			c4.873,0,8.828,3.946,8.828,8.828C247.174,226.574,243.219,230.52,238.346,230.52"/>
		<path style="fill:#A0A5A8;" d="M238.346,265.83h-17.655c-4.873,0-8.828-3.946-8.828-8.828c0-4.882,3.955-8.828,8.828-8.828h17.655
			c4.873,0,8.828,3.946,8.828,8.828C247.174,261.884,243.219,265.83,238.346,265.83"/>
		<path style="fill:#A0A5A8;" d="M238.346,301.141h-17.655c-4.873,0-8.828-3.946-8.828-8.828s3.955-8.828,8.828-8.828h17.655
			c4.873,0,8.828,3.946,8.828,8.828S243.219,301.141,238.346,301.141"/>
		<path style="fill:#A0A5A8;" d="M238.346,336.451h-17.655c-4.873,0-8.828-3.946-8.828-8.828c0-4.882,3.955-8.828,8.828-8.828
			h17.655c4.873,0,8.828,3.946,8.828,8.828C247.174,332.505,243.219,336.451,238.346,336.451"/>
		<path style="fill:#A0A5A8;" d="M238.346,371.761h-17.655c-4.873,0-8.828-3.946-8.828-8.828c0-4.882,3.955-8.828,8.828-8.828
			h17.655c4.873,0,8.828,3.946,8.828,8.828C247.174,367.815,243.219,371.761,238.346,371.761"/>
		<path style="fill:#A0A5A8;" d="M238.346,407.072h-17.655c-4.873,0-8.828-3.946-8.828-8.828s3.955-8.828,8.828-8.828h17.655
			c4.873,0,8.828,3.946,8.828,8.828S243.219,407.072,238.346,407.072"/>
		<path style="fill:#A0A5A8;" d="M238.346,442.382h-17.655c-4.873,0-8.828-3.946-8.828-8.828c0-4.882,3.955-8.828,8.828-8.828
			h17.655c4.873,0,8.828,3.946,8.828,8.828C247.174,438.436,243.219,442.382,238.346,442.382"/>
		<path style="fill:#A0A5A8;" d="M238.346,477.692h-17.655c-4.873,0-8.828-3.946-8.828-8.828s3.955-8.828,8.828-8.828h17.655
			c4.873,0,8.828,3.946,8.828,8.828S243.219,477.692,238.346,477.692"/>
	</g>
	<polygon style="fill:#BDC3C7;" points="238.346,513 273.656,513 273.656,1 238.346,1 	"/>
</g>
<g>
</g>
<g>
</g>
<g>
</g>
<g>
</g>
<g>
</g>
<g>
</g>
<g>
</g>
<g>
</g>
<g>
</g>
<g>
</g>
<g>
</g>
<g>
</g>
<g>
</g>
<g>
</g>
<g>
</g>
</svg>
