<?xml version="1.0" encoding="iso-8859-1"?>
<!-- Generator: Adobe Illustrator 19.0.0, SVG Export Plug-In . SVG Version: 6.00 Build 0)  -->
<svg version="1.1" id="Layer_1" xmlns="http://www.w3.org/2000/svg" xmlns:xlink="http://www.w3.org/1999/xlink" x="0px" y="0px"
	 viewBox="0 0 512.08 512.08" style="enable-background:new 0 0 512.08 512.08;" xml:space="preserve">
<g transform="translate(0 -1)">
	<path style="fill:#464F5D;" d="M256,14.23c-141.383,0-256,114.617-256,256v185.379h123.586V270.23
		c0-73.128,59.286-132.414,132.414-132.414h256V14.23H256L256,14.23z"/>
	<g>
		<path style="fill:#FFFFFF;" d="M61.793,420.299c-4.882,0-8.828-3.946-8.828-8.828v-17.655c0-4.882,3.946-8.828,8.828-8.828
			s8.828,3.946,8.828,8.828v17.655C70.621,416.353,66.675,420.299,61.793,420.299"/>
		<path style="fill:#FFFFFF;" d="M299.026,84.851h-37.738c-4.882,0-8.828-3.946-8.828-8.828c0-4.882,3.946-8.828,8.828-8.828h37.738
			c4.882,0,8.828,3.946,8.828,8.828C307.853,80.905,303.907,84.851,299.026,84.851 M393.384,84.851h-37.738
			c-4.882,0-8.828-3.946-8.828-8.828c0-4.882,3.946-8.828,8.828-8.828h37.738c4.882,0,8.828,3.946,8.828,8.828
			C402.211,80.905,398.265,84.851,393.384,84.851 M170.037,104.872c-3.257,0-6.391-1.81-7.927-4.917
			c-2.163-4.37-0.371-9.666,3.999-11.829c11.785-5.817,24.188-10.505,36.855-13.93c4.696-1.245,9.551,1.527,10.831,6.223
			c1.262,4.705-1.518,9.551-6.223,10.831c-11.573,3.116-22.881,7.389-33.633,12.703
			C172.676,104.571,171.343,104.872,170.037,104.872 M98.675,165.164c-1.792,0-3.61-0.547-5.173-1.686
			c-3.946-2.86-4.829-8.377-1.969-12.323c7.715-10.637,16.49-20.559,26.086-29.502c3.566-3.328,9.154-3.143,12.473,0.441
			c3.328,3.566,3.134,9.154-0.441,12.473c-8.766,8.166-16.781,17.231-23.826,26.951C104.104,163.893,101.402,165.164,98.675,165.164
			 M63.709,251.771c-0.406,0-0.821-0.026-1.236-0.088c-4.838-0.68-8.201-5.138-7.512-9.958c1.827-13.038,4.943-25.927,9.251-38.294
			c1.607-4.617,6.621-7.044,11.246-5.438c4.599,1.607,7.036,6.638,5.429,11.246c-3.928,11.282-6.78,23.04-8.448,34.931
			C71.821,248.585,68.043,251.771,63.709,251.771 M61.793,346.032c-4.882,0-8.828-3.946-8.828-8.828v-37.738
			c0-4.882,3.946-8.828,8.828-8.828s8.828,3.946,8.828,8.828v37.738C70.621,342.086,66.675,346.032,61.793,346.032"/>
		<path style="fill:#FFFFFF;" d="M467.862,84.851h-17.655c-4.882,0-8.828-3.946-8.828-8.828c0-4.882,3.946-8.828,8.828-8.828h17.655
			c4.882,0,8.828,3.946,8.828,8.828C476.69,80.905,472.744,84.851,467.862,84.851"/>
	</g>
	<path style="fill:#71C285;" d="M434.827,371.738c-23.19,27.207-7.812,71.071,27.613,74.849c1.836,0.194,3.708,0.3,5.597,0.3
		c0.283,0,0.574-0.009,0.865-0.009c37.711-0.618,56.708-46.539,32.168-75.343l-21.539-25.265c-6.038-7.089-16.958-7.089-22.996,0
		L434.827,371.738z"/>
	<path style="fill:#804537;" d="M467.94,499.85c-4.882,0-8.828-3.946-8.828-8.828v-79.448c0-4.882,3.946-8.828,8.828-8.828
		c4.882,0,8.828,3.946,8.828,8.828v79.448C476.767,495.904,472.821,499.85,467.94,499.85"/>
	<path style="fill:#4C8056;" d="M311.241,371.738c-23.19,27.207-7.812,71.071,27.613,74.849c1.836,0.194,3.708,0.3,5.597,0.3
		c0.283,0,0.574-0.009,0.865-0.009c37.711-0.618,56.708-46.539,32.168-75.343l-21.539-25.265c-6.038-7.089-16.958-7.089-22.996,0
		L311.241,371.738z"/>
	<path style="fill:#804537;" d="M344.354,499.85c-4.882,0-8.828-3.946-8.828-8.828v-79.448c0-4.882,3.946-8.828,8.828-8.828
		c4.882,0,8.828,3.946,8.828,8.828v79.448C353.181,495.904,349.235,499.85,344.354,499.85"/>
	<path style="fill:#4C8056;" d="M373.034,212.842c-23.19,27.207-7.812,71.071,27.613,74.849c1.836,0.194,3.708,0.3,5.597,0.3
		c0.283,0,0.574-0.009,0.865-0.009c37.711-0.618,56.708-46.539,32.168-75.343l-21.539-25.265c-6.038-7.089-16.958-7.089-22.996,0
		L373.034,212.842z"/>
	<path style="fill:#804537;" d="M406.147,340.954c-4.882,0-8.828-3.946-8.828-8.828v-79.448c0-4.882,3.946-8.828,8.828-8.828
		s8.828,3.946,8.828,8.828v79.448C414.974,337.008,411.028,340.954,406.147,340.954"/>
	<path style="fill:#4C8056;" d="M249.448,212.842c-23.19,27.207-7.812,71.071,27.613,74.849c1.836,0.194,3.708,0.3,5.597,0.3
		c0.283,0,0.574-0.009,0.865-0.009c37.711-0.618,56.708-46.539,32.168-75.343l-21.539-25.265c-6.038-7.089-16.958-7.089-22.996,0
		L249.448,212.842z"/>
	<path style="fill:#804537;" d="M282.56,340.954c-4.882,0-8.828-3.946-8.828-8.828v-79.448c0-4.882,3.946-8.828,8.828-8.828
		c4.882,0,8.828,3.946,8.828,8.828v79.448C291.388,337.008,287.442,340.954,282.56,340.954"/>
	<path style="fill:#71C285;" d="M187.655,371.738c-23.19,27.207-7.812,71.071,27.613,74.849c1.836,0.194,3.708,0.3,5.597,0.3
		c0.282,0,0.574-0.009,0.865-0.009c37.711-0.618,56.708-46.539,32.168-75.343l-21.539-25.265c-6.038-7.089-16.958-7.089-22.996,0
		L187.655,371.738z"/>
	<path style="fill:#804537;" d="M220.767,499.85c-4.882,0-8.828-3.946-8.828-8.828v-79.448c0-4.882,3.946-8.828,8.828-8.828
		s8.828,3.946,8.828,8.828v79.448C229.595,495.904,225.649,499.85,220.767,499.85"/>
</g>
<g>
</g>
<g>
</g>
<g>
</g>
<g>
</g>
<g>
</g>
<g>
</g>
<g>
</g>
<g>
</g>
<g>
</g>
<g>
</g>
<g>
</g>
<g>
</g>
<g>
</g>
<g>
</g>
<g>
</g>
</svg>
