<?xml version="1.0" encoding="iso-8859-1"?>
<!-- Generator: Adobe Illustrator 19.0.0, SVG Export Plug-In . SVG Version: 6.00 Build 0)  -->
<svg version="1.1" id="Layer_1" xmlns="http://www.w3.org/2000/svg" xmlns:xlink="http://www.w3.org/1999/xlink" x="0px" y="0px"
	 viewBox="0 0 512 512" style="enable-background:new 0 0 512 512;" xml:space="preserve">
<g transform="translate(0 -1)">
	<g>
		<path style="fill:#2F3744;" d="M185.379,221.69c-38.938,0-70.621-23.755-70.621-52.966c0-4.873,3.946-8.828,8.828-8.828
			s8.828,3.955,8.828,8.828c0,19.138,24.258,35.31,52.966,35.31s52.966-16.172,52.966-35.31c0-4.873,3.946-8.828,8.828-8.828
			s8.828,3.955,8.828,8.828C256,197.935,224.318,221.69,185.379,221.69"/>
		<path style="fill:#2F3744;" d="M326.621,221.69c-38.938,0-70.621-23.755-70.621-52.966c0-4.873,3.946-8.828,8.828-8.828
			s8.828,3.955,8.828,8.828c0,19.138,24.258,35.31,52.966,35.31c28.707,0,52.966-16.172,52.966-35.31
			c0-4.873,3.946-8.828,8.828-8.828c4.882,0,8.828,3.955,8.828,8.828C397.241,197.935,365.559,221.69,326.621,221.69"/>
		<path style="fill:#2F3744;" d="M317.793,513H194.207c0-19.5,15.81-35.31,35.31-35.31h52.966
			C301.983,477.69,317.793,493.5,317.793,513"/>
	</g>
	<path style="fill:#464F5D;" d="M238.345,18.655V477.69h35.31V18.655C273.655,8.901,265.754,1,256,1S238.345,8.901,238.345,18.655"
		/>
	<path style="fill:#F3D55B;" d="M79.448,53.966l15.748,78.724c1.377,6.903,3.725,13.603,7.062,19.8
		c4.89,9.066,10.567,16.234,21.327,16.234c10.24,0,16.958-6.665,21.583-15.086c3.098-5.65,4.996-11.891,6.259-18.211l16.296-81.461
		H79.448z"/>
	<polygon style="fill:#D6BB4C;" points="167.724,53.966 79.448,53.966 123.586,1 	"/>
	<path style="fill:#F3D55B;" d="M432.552,53.966l-15.748,78.724c-1.377,6.903-3.725,13.603-7.062,19.8
		c-4.891,9.066-10.567,16.234-21.327,16.234c-10.24,0-16.958-6.665-21.583-15.086c-3.099-5.65-4.996-11.891-6.259-18.211
		l-16.296-81.461H432.552z"/>
	<polygon style="fill:#D6BB4C;" points="344.276,53.966 432.552,53.966 388.414,1 	"/>
</g>
<g>
</g>
<g>
</g>
<g>
</g>
<g>
</g>
<g>
</g>
<g>
</g>
<g>
</g>
<g>
</g>
<g>
</g>
<g>
</g>
<g>
</g>
<g>
</g>
<g>
</g>
<g>
</g>
<g>
</g>
</svg>
