<?xml version="1.0" encoding="iso-8859-1"?>
<!-- Generator: Adobe Illustrator 19.0.0, SVG Export Plug-In . SVG Version: 6.00 Build 0)  -->
<svg version="1.1" id="Layer_1" xmlns="http://www.w3.org/2000/svg" xmlns:xlink="http://www.w3.org/1999/xlink" x="0px" y="0px"
	 viewBox="0 0 512 512" style="enable-background:new 0 0 512 512;" xml:space="preserve">
<g transform="translate(0 -1)">
	<g>
		<path style="fill:#2F3744;" d="M242.759,274.655c-4.873,0-8.828-3.955-8.828-8.828c0-38.938-47.519-70.621-105.931-70.621
			c-4.873,0-8.828-3.955-8.828-8.828c0-4.873,3.955-8.828,8.828-8.828c68.149,0,123.586,39.601,123.586,88.276
			C251.586,270.7,247.631,274.655,242.759,274.655"/>
		<path style="fill:#2F3744;" d="M260.414,274.655c-4.873,0-8.828-3.955-8.828-8.828c0-48.675,55.437-88.276,123.586-88.276
			c4.873,0,8.828,3.955,8.828,8.828c0,4.873-3.955,8.828-8.828,8.828c-58.412,0-105.931,31.682-105.931,70.621
			C269.241,270.7,265.287,274.655,260.414,274.655"/>
		<path style="fill:#2F3744;" d="M128,221.69c-4.873,0-8.828-3.955-8.828-8.828v-52.966c0-4.873,3.955-8.828,8.828-8.828
			s8.828,3.955,8.828,8.828v52.966C136.828,217.735,132.873,221.69,128,221.69"/>
		<path style="fill:#2F3744;" d="M384,221.69c-4.873,0-8.828-3.955-8.828-8.828v-52.966c0-4.873,3.955-8.828,8.828-8.828
			s8.828,3.955,8.828,8.828v52.966C392.828,217.735,388.873,221.69,384,221.69"/>
		<path style="fill:#2F3744;" d="M313.379,513H189.793c0-19.5,15.81-35.31,35.31-35.31h52.966
			C297.569,477.69,313.379,493.5,313.379,513"/>
	</g>
	<polygon style="fill:#464F5D;" points="233.931,477.687 269.241,477.687 269.241,212.859 233.931,212.859 	"/>
	<path style="fill:#F3D55B;" d="M207.448,53.966l15.748,78.724c1.377,6.903,3.725,13.603,7.062,19.8
		c4.89,9.066,10.567,16.234,21.327,16.234c10.24,0,16.958-6.665,21.583-15.086c3.098-5.65,4.996-11.891,6.259-18.211l16.296-81.461
		H207.448z"/>
	<polygon style="fill:#D6BB4C;" points="295.724,53.966 207.448,53.966 251.586,1 	"/>
	<path style="fill:#2F3744;" d="M273.166,153.639c-4.626,8.413-11.343,15.086-21.583,15.086c-10.761,0-16.437-7.168-21.327-16.234
		c-1.368-2.551-2.472-5.235-3.513-7.936l7.186,68.308h35.31l6.983-66.286C275.329,148.987,274.402,151.388,273.166,153.639"/>
</g>
<g>
</g>
<g>
</g>
<g>
</g>
<g>
</g>
<g>
</g>
<g>
</g>
<g>
</g>
<g>
</g>
<g>
</g>
<g>
</g>
<g>
</g>
<g>
</g>
<g>
</g>
<g>
</g>
<g>
</g>
</svg>
