<?xml version="1.0" encoding="iso-8859-1"?>
<!-- Generator: Adobe Illustrator 19.0.0, SVG Export Plug-In . SVG Version: 6.00 Build 0)  -->
<svg version="1.1" id="Layer_1" xmlns="http://www.w3.org/2000/svg" xmlns:xlink="http://www.w3.org/1999/xlink" x="0px" y="0px"
	 viewBox="0 0 512 512" style="enable-background:new 0 0 512 512;" xml:space="preserve">
<g transform="translate(0 -1)">
	<path style="fill:#2F3744;" d="M316.746,513H195.254c0-19.17,15.542-34.712,34.712-34.712h52.068
		C301.204,478.288,316.746,493.83,316.746,513"/>
	<polygon style="fill:#464F5D;" points="238.644,478.286 273.356,478.286 273.356,252.658 238.644,252.658 	"/>
	<polygon style="fill:#2F3744;" points="203.932,252.658 308.068,252.658 308.068,9.675 203.932,9.675 	"/>
	<path style="fill:#E64C3C;" d="M273.356,61.746c0,9.589-7.767,17.356-17.356,17.356c-9.589,0-17.356-7.767-17.356-17.356
		S246.411,44.39,256,44.39C265.589,44.39,273.356,52.157,273.356,61.746"/>
	<path style="fill:#F3D55B;" d="M273.356,131.169c0,9.589-7.767,17.356-17.356,17.356c-9.589,0-17.356-7.767-17.356-17.356
		s7.767-17.356,17.356-17.356C265.589,113.814,273.356,121.58,273.356,131.169"/>
	<path style="fill:#4FBA6F;" d="M273.356,200.593c0,9.589-7.767,17.356-17.356,17.356c-9.589,0-17.356-7.767-17.356-17.356
		c0-9.589,7.767-17.356,17.356-17.356C265.589,183.237,273.356,191.004,273.356,200.593"/>
	<path style="fill:#464F5D;" d="M334.102,18.356H177.898c-4.79,0-8.678-3.888-8.678-8.678S173.108,1,177.898,1h156.203
		c4.79,0,8.678,3.888,8.678,8.678S338.892,18.356,334.102,18.356"/>
</g>
<g>
</g>
<g>
</g>
<g>
</g>
<g>
</g>
<g>
</g>
<g>
</g>
<g>
</g>
<g>
</g>
<g>
</g>
<g>
</g>
<g>
</g>
<g>
</g>
<g>
</g>
<g>
</g>
<g>
</g>
</svg>
