<?xml version="1.0" encoding="iso-8859-1"?>
<!-- Generator: Adobe Illustrator 19.0.0, SVG Export Plug-In . SVG Version: 6.00 Build 0)  -->
<svg version="1.1" id="Layer_1" xmlns="http://www.w3.org/2000/svg" xmlns:xlink="http://www.w3.org/1999/xlink" x="0px" y="0px"
	 viewBox="0 0 512 512" style="enable-background:new 0 0 512 512;" xml:space="preserve">
<g transform="translate(0 -1)">
	<path style="fill:#804537;" d="M273.067,372.2h-34.133c0,0,8.892,128-59.733,128h153.6C264.175,500.2,273.067,372.2,273.067,372.2"
		/>
	<path style="fill:#24AE5F;" d="M384,278.333c0-76.8-51.2-93.867-51.2-93.867c7.279-12.561,8.533-27.102,8.533-42.667
		c0-28.954-14.455-54.494-36.506-69.922c1.536-4.864,2.372-10.044,2.372-15.411c0-28.279-22.921-51.2-51.2-51.2
		c-28.279,0-51.2,22.921-51.2,51.2c0,5.367,0.836,10.547,2.372,15.411c-22.05,15.428-36.506,40.969-36.506,69.922
		c0,15.565,1.254,30.106,8.533,42.667c0,0-51.2,17.067-51.2,93.867c0,0-5.862,93.867,128,93.867S384,278.333,384,278.333"/>
	<g>
		<path style="fill:#1F8447;" d="M332.8,278.333c-23.526,0-42.667-19.14-42.667-42.667c0-4.71,3.823-8.533,8.533-8.533
			s8.533,3.823,8.533,8.533c0,14.114,11.486,25.6,25.6,25.6c4.71,0,8.533,3.823,8.533,8.533
			C341.333,274.51,337.51,278.333,332.8,278.333"/>
		<path style="fill:#1F8447;" d="M281.6,329.533c-23.526,0-42.667-19.14-42.667-42.667c0-4.71,3.823-8.533,8.533-8.533
			s8.533,3.823,8.533,8.533c0,14.114,11.486,25.6,25.6,25.6c4.71,0,8.533,3.823,8.533,8.533
			C290.133,325.71,286.31,329.533,281.6,329.533"/>
		<path style="fill:#1F8447;" d="M273.067,124.733c-23.526,0-42.667-19.14-42.667-42.667c0-4.71,3.823-8.533,8.533-8.533
			s8.533,3.823,8.533,8.533c0,14.114,11.486,25.6,25.6,25.6c4.71,0,8.533,3.823,8.533,8.533
			C281.6,120.91,277.777,124.733,273.067,124.733"/>
		<path style="fill:#1F8447;" d="M247.467,210.067c-4.71,0-8.533-3.823-8.533-8.533s3.823-8.533,8.533-8.533
			c14.114,0,25.6-11.486,25.6-25.6c0-4.71,3.823-8.533,8.533-8.533s8.533,3.823,8.533,8.533
			C290.133,190.926,270.993,210.067,247.467,210.067"/>
		<path style="fill:#1F8447;" d="M170.667,278.333c-4.71,0-8.533-3.823-8.533-8.533c0-4.71,3.823-8.533,8.533-8.533
			c14.114,0,25.6-11.486,25.6-25.6c0-4.71,3.823-8.533,8.533-8.533c4.71,0,8.533,3.823,8.533,8.533
			C213.333,259.193,194.193,278.333,170.667,278.333"/>
	</g>
	<path style="fill:#BDC3C7;" d="M503.467,508.733H8.533C3.823,508.733,0,504.91,0,500.2c0-4.71,3.823-8.533,8.533-8.533h494.933
		c4.71,0,8.533,3.823,8.533,8.533C512,504.91,508.177,508.733,503.467,508.733"/>
</g>
<g>
</g>
<g>
</g>
<g>
</g>
<g>
</g>
<g>
</g>
<g>
</g>
<g>
</g>
<g>
</g>
<g>
</g>
<g>
</g>
<g>
</g>
<g>
</g>
<g>
</g>
<g>
</g>
<g>
</g>
</svg>
